<svg xmlns="http://www.w3.org/2000/svg" width="253.798" height="152.999" viewBox="0 0 253.798 152.999">
  <g id="Level_1" data-name="Level 1" transform="translate(-997 -372)">
    <g id="Group_27926" data-name="Group 27926" transform="translate(997 372)">
      <path id="Path_39431" data-name="Path 39431" d="M1874.005,1736.237l7.629-.193,7.629-.146,15.258-.287q15.257-.226,30.516-.373c10.172-.118,20.344-.145,30.516-.214l30.516-.071,30.516.067c10.172.072,20.344.094,30.516.214q15.257.13,30.516.373l15.258.289,7.629.146,7.629.194-7.629.194-7.629.147-15.258.289q-15.258.226-30.516.373c-10.172.119-20.344.142-30.516.214l-30.516.067-30.516-.071c-10.172-.07-20.344-.1-30.516-.214q-15.258-.129-30.516-.372l-15.258-.287-7.629-.146Z" transform="translate(-1869.174 -1614.143)" fill="#231f20"/>
      <path id="Path_39432" data-name="Path 39432" d="M1874.005,1736.237l7.629-.193,7.629-.146,15.258-.287q15.257-.226,30.516-.373c10.172-.118,20.344-.145,30.516-.214l30.516-.071,30.516.067c10.172.072,20.344.094,30.516.214q15.257.13,30.516.373l15.258.289,7.629.146,7.629.194-7.629.194-7.629.147-15.258.289q-15.258.226-30.516.373c-10.172.119-20.344.142-30.516.214l-30.516.067-30.516-.071c-10.172-.07-20.344-.1-30.516-.214q-15.258-.129-30.516-.372l-15.258-.287-7.629-.146Z" transform="translate(-1869.174 -1614.143)" fill="#231f20"/>
      <path id="Path_39433" data-name="Path 39433" d="M1937.586,1756.608l6.333-.193,6.333-.146,12.666-.287q12.666-.225,25.332-.372c8.444-.118,16.888-.145,25.333-.214l25.332-.071,25.333.068c8.444.072,16.888.094,25.333.214q12.666.129,25.332.372l12.667.289,6.333.146,6.333.195-6.333.194-6.333.146-12.667.289q-12.666.225-25.332.373c-8.445.119-16.888.142-25.333.214l-25.333.067-25.332-.07c-8.445-.07-16.888-.1-25.333-.215q-12.666-.129-25.332-.372l-12.666-.287-6.333-.146Z" transform="translate(-1912.021 -1627.87)" fill="#231f20"/>
      <path id="Path_39434" data-name="Path 39434" d="M1937.586,1756.608l6.333-.193,6.333-.146,12.666-.287q12.666-.225,25.332-.372c8.444-.118,16.888-.145,25.333-.214l25.332-.071,25.333.068c8.444.072,16.888.094,25.333.214q12.666.129,25.332.372l12.667.289,6.333.146,6.333.195-6.333.194-6.333.146-12.667.289q-12.666.225-25.332.373c-8.445.119-16.888.142-25.333.214l-25.333.067-25.332-.07c-8.445-.07-16.888-.1-25.333-.215q-12.666-.129-25.332-.372l-12.666-.287-6.333-.146Z" transform="translate(-1912.021 -1627.87)" fill="#231f20"/>
      <path id="Path_39435" data-name="Path 39435" d="M2022.771,1776.978c12.314-.531,24.628-.809,36.943-1,6.157-.118,12.314-.144,18.471-.214l18.471-.071,18.471.067c6.157.072,12.314.095,18.471.214,12.314.188,24.629.467,36.943,1-12.314.534-24.628.814-36.943,1-6.157.12-12.315.142-18.471.214l-18.471.068-18.471-.071c-6.157-.07-12.314-.1-18.471-.214C2047.4,1777.787,2035.085,1777.509,2022.771,1776.978Z" transform="translate(-1969.426 -1641.598)" fill="#231f20"/>
      <g id="Group_27920" data-name="Group 27920" transform="translate(165.451 16.824)">
        <path id="Path_39436" data-name="Path 39436" d="M2378.864,1535.562c-15.959-16.151-8.448-41.117-2.269-50.729a40.092,40.092,0,0,1,9.1-9.755c2.827-2.355,5.5-4.58,7.533-8.231a40.845,40.845,0,0,0,4-8.8,22.817,22.817,0,0,1-1.561,11.4,61.942,61.942,0,0,1-4.475,8.52c-3.455,5.86-6.439,10.92-3.174,13.1a4.106,4.106,0,0,0,2.265.806c2.938,0,3.849-4.114,5-9.323,1.019-4.6,2.239-10.112,5.114-13.043-.8,2.754-.208,5.291.449,8.118.85,3.652,1.813,7.791.109,13.826a8.637,8.637,0,0,0,1.245,7.736,7.49,7.49,0,0,0,5.763,3.069c2.605,0,4.382-1.731,4.635-4.516.3-3.308-.718-6.56-1.7-9.706-.9-2.884-1.757-5.608-1.617-8.266.356-6.774,4.873-12.7,8.982-15.988l.409-.327c3.408-2.721,6.473-5.168,7.111-9.362.6,3.589-.053,8.689-4.7,13.757a9.768,9.768,0,0,0-2.139,10.463c.757,1.722,2.015,2.792,3.282,2.792a2.239,2.239,0,0,0,.758-.131c3.285-1.17,6.658-7.573,8.394-15.933a57.92,57.92,0,0,0,.883-17.838c2.29,8.488,2.633,17.833,1.894,23.1-.123.871-.478,2.536-.928,4.643-1.977,9.255-5.656,26.481-2.323,33.654,2.186,4.706,6.186,8.255,9.3,8.255a3.042,3.042,0,0,0,2.393-1.041c4.085-4.774-.49-12.4-2.213-15.268-3.9-6.5-5.066-8.918-5.285-12.411a38.955,38.955,0,0,1,3.5-18.608c-.7,5.127-1.173,11.041,3.22,20.039a23.434,23.434,0,0,0,4.005,5.03c6.3,6.716,15.789,16.843,5.57,40.971Z" transform="translate(-2368.411 -1437.051)" fill="#fff"/>
        <path id="Path_39437" data-name="Path 39437" d="M2431.408,1436.752a54.665,54.665,0,0,1,.037,12.458c-.118.841-.471,2.494-.917,4.585-2,9.352-5.714,26.759-2.262,34.192,2.355,5.07,6.594,8.75,10.08,8.75a3.922,3.922,0,0,0,3.042-1.34c4.487-5.242-.319-13.251-2.128-16.266-4.052-6.754-4.969-8.889-5.165-12.024a37.686,37.686,0,0,1,1.332-12.5,32.881,32.881,0,0,0,3.764,14.364,23.922,23.922,0,0,0,4.15,5.24c6.1,6.506,15.271,16.288,5.626,39.529h-71.611c-8.324-8.607-9.5-19.258-9-26.743a51.217,51.217,0,0,1,7.091-22.667,39.363,39.363,0,0,1,8.933-9.56c2.889-2.408,5.618-4.681,7.733-8.471.927-1.661,1.781-3.242,2.506-4.823a24.142,24.142,0,0,1-1.613,6.7,61.415,61.415,0,0,1-4.412,8.391c-3.524,5.975-6.852,11.619-2.912,14.245a4.917,4.917,0,0,0,2.739.951c3.625,0,4.651-4.632,5.838-10,.733-3.312,1.574-7.111,3.049-9.98a26.718,26.718,0,0,0,.844,5.065c.826,3.552,1.762,7.576.12,13.4a9.474,9.474,0,0,0,1.386,8.485,8.361,8.361,0,0,0,6.446,3.408c3.041,0,5.194-2.078,5.487-5.294.316-3.479-.729-6.814-1.739-10.039-.88-2.809-1.71-5.462-1.579-7.965.441-8.381,7.293-14.269,8.662-15.364l.408-.325a26.492,26.492,0,0,0,5.714-5.555,16.945,16.945,0,0,1-4.466,8.7,10.621,10.621,0,0,0-2.292,11.385c.91,2.068,2.429,3.3,4.066,3.3a3.108,3.108,0,0,0,1.045-.18c3.612-1.287,7.123-7.789,8.945-16.565a59.464,59.464,0,0,0,1.054-7.489Zm-4.156-20.67c6.553,18.748-.611,41.043-6.417,43.111a1.4,1.4,0,0,1-.471.082c-2.5,0-5.325-6.57-.512-11.82,7.309-7.973,5.316-16.611,2.908-19.342,1.743,7.382-2.125,10.211-6.9,14.026-3.322,2.658-8.886,8.722-9.3,16.611-.307,5.826,3.873,11.875,3.322,17.94-.235,2.588-1.875,3.737-3.782,3.737-3.479,0-7.846-3.826-6.184-9.716,3.515-12.463-3.987-17.276.664-24.584-9.051,3.62-7.053,23.918-12.164,23.918a3.314,3.314,0,0,1-1.79-.663c-3.986-2.658,4.956-12.753,7.973-20.6,3.322-8.637,1.083-13.756.665-17.275,0,5.315-2.049,9.289-4.651,13.953-4.031,7.224-10.63,8.638-16.611,17.94-6.339,9.861-14.162,35.4,2.634,52.047h73.46c13.691-31.719-5.984-40.294-9.372-47.232-5.594-11.46-3.113-17.729-2.566-24.062a38.859,38.859,0,0,0-5.776,23.059c.228,3.635,1.419,6.154,5.406,12.8,1.566,2.61,5.98,9.967,2.295,14.272a2.194,2.194,0,0,1-1.741.741c-2.491,0-6.292-2.95-8.527-7.759-3.987-8.583,2.671-33.182,3.322-37.818,1.017-7.244,0-23.255-5.889-33.366Z" transform="translate(-2366.542 -1416.082)" fill="#cdbf41"/>
      </g>
      <path id="Path_39438" data-name="Path 39438" d="M2384.2,1568.41c-14.222-15.236-7.16-38.389-1.37-47.4a38.274,38.274,0,0,1,8.67-9.263,47.493,47.493,0,0,0,4.88-4.478c-.807,1.511-1.727,3.072-2.631,4.6-3.677,6.236-7.479,12.684-2.511,16a6.259,6.259,0,0,0,3.465,1.17c4.675,0,5.86-5.353,7.115-11.02.372-1.681.774-3.494,1.267-5.227.025.108.05.217.075.325.829,3.564,1.687,7.25.135,12.749a10.754,10.754,0,0,0,1.6,9.629,9.69,9.69,0,0,0,7.489,3.926c3.708,0,6.437-2.6,6.79-6.482.34-3.739-.744-7.2-1.793-10.549-.844-2.694-1.641-5.237-1.521-7.506.411-7.822,6.88-13.377,8.173-14.411l.407-.326c.415-.331.831-.663,1.243-1a19.123,19.123,0,0,1-1.776,2.242,11.931,11.931,0,0,0-2.525,12.8c1.125,2.557,3.093,4.084,5.262,4.084a4.4,4.4,0,0,0,1.484-.257c2.941-1.048,5.758-4.95,7.812-10.447-.125.593-.263,1.245-.41,1.929-2.81,13.155-5.525,27.793-2.169,35.018,2.6,5.6,7.233,9.507,11.265,9.507a5.208,5.208,0,0,0,4.036-1.8c5.1-5.958-.244-14.862-2-17.789-3.917-6.528-4.8-8.558-4.981-11.432a35.927,35.927,0,0,1-.017-4.208,41.838,41.838,0,0,0,2.632,6.723,24.761,24.761,0,0,0,4.371,5.561c6.143,6.552,14.5,15.462,5.7,37.328Z" transform="translate(-2207.373 -1455.238)" fill="#cdbf41"/>
      <g id="Group_27921" data-name="Group 27921" transform="translate(0 16.824)">
        <path id="Path_39439" data-name="Path 39439" d="M1866.3,1535.563c-10.218-24.128-.725-34.255,5.57-40.971a23.425,23.425,0,0,0,4.005-5.03c4.393-9,3.923-14.914,3.22-20.041a38.956,38.956,0,0,1,3.5,18.609c-.219,3.493-1.385,5.911-5.285,12.411-1.722,2.87-6.3,10.494-2.211,15.268a3.04,3.04,0,0,0,2.391,1.041h0c3.117,0,7.116-3.55,9.3-8.255,3.333-7.173-.345-24.4-2.322-33.651-.45-2.109-.806-3.775-.928-4.646-.74-5.266-.4-14.611,1.893-23.1a57.932,57.932,0,0,0,.883,17.837c1.736,8.359,5.11,14.763,8.395,15.933a2.245,2.245,0,0,0,.758.131c1.267,0,2.525-1.069,3.282-2.792a9.767,9.767,0,0,0-2.139-10.462c-4.648-5.069-5.3-10.169-4.7-13.758.638,4.194,3.7,6.641,7.111,9.362l.409.327c4.108,3.286,8.625,9.212,8.982,15.988.14,2.658-.713,5.382-1.617,8.266-.985,3.146-2,6.4-1.7,9.706.253,2.785,2.029,4.516,4.635,4.516a7.494,7.494,0,0,0,5.764-3.069,8.637,8.637,0,0,0,1.244-7.736c-1.7-6.035-.74-10.174.109-13.826.658-2.827,1.248-5.365.449-8.119,2.875,2.931,4.095,8.441,5.114,13.043,1.154,5.209,2.065,9.323,5,9.323h0a4.105,4.105,0,0,0,2.264-.806c3.266-2.177.281-7.238-3.175-13.1a62.079,62.079,0,0,1-4.475-8.52,22.842,22.842,0,0,1-1.561-11.4,40.837,40.837,0,0,0,4,8.8c2.037,3.651,4.707,5.876,7.533,8.231a40.08,40.08,0,0,1,9.105,9.755c6.179,9.613,13.69,34.579-2.269,50.729Z" transform="translate(-1860.943 -1437.052)" fill="#fff"/>
        <path id="Path_39440" data-name="Path 39440" d="M1882.671,1436.752a59.467,59.467,0,0,0,1.054,7.489c1.823,8.776,5.333,15.278,8.946,16.565a3.108,3.108,0,0,0,1.045.18c1.636,0,3.155-1.235,4.066-3.3a10.623,10.623,0,0,0-2.292-11.385,16.942,16.942,0,0,1-4.466-8.7,26.5,26.5,0,0,0,5.713,5.555l.407.325c1.369,1.1,8.22,6.983,8.662,15.364.132,2.5-.7,5.156-1.579,7.965-1.01,3.226-2.055,6.561-1.739,10.039.292,3.216,2.446,5.294,5.487,5.294a8.36,8.36,0,0,0,6.446-3.408,9.474,9.474,0,0,0,1.386-8.485c-1.642-5.823-.706-9.848.12-13.4a26.722,26.722,0,0,0,.844-5.065c1.474,2.869,2.315,6.668,3.048,9.98,1.188,5.363,2.214,10,5.839,10a4.916,4.916,0,0,0,2.739-.951c3.939-2.626.611-8.27-2.913-14.245a61.556,61.556,0,0,1-4.412-8.391,24.15,24.15,0,0,1-1.612-6.7c.725,1.58,1.579,3.161,2.506,4.823,2.114,3.79,4.843,6.064,7.733,8.471a39.37,39.37,0,0,1,8.933,9.56,51.221,51.221,0,0,1,7.091,22.667c.5,7.485-.676,18.136-9,26.743h-71.611c-9.646-23.242-.474-33.024,5.625-39.529a23.93,23.93,0,0,0,4.15-5.24,32.885,32.885,0,0,0,3.764-14.364,37.686,37.686,0,0,1,1.332,12.5c-.2,3.136-1.113,5.271-5.165,12.024-1.809,3.015-6.615,11.024-2.128,16.266a3.922,3.922,0,0,0,3.042,1.34c3.484,0,7.724-3.68,10.079-8.75,3.453-7.433-.264-24.84-2.261-34.192-.446-2.091-.8-3.744-.917-4.585a54.7,54.7,0,0,1,.037-12.458Zm4.156-20.67c-5.889,10.111-6.905,26.122-5.889,33.366.651,4.636,7.309,29.235,3.322,37.818-2.235,4.81-6.036,7.759-8.527,7.759a2.2,2.2,0,0,1-1.741-.741c-3.685-4.305.729-11.661,2.3-14.272,3.987-6.645,5.179-9.164,5.406-12.8a38.862,38.862,0,0,0-5.776-23.059c.547,6.334,3.028,12.6-2.567,24.062-3.387,6.938-23.062,15.513-9.371,47.232h73.46c16.8-16.647,8.973-42.187,2.634-52.047-5.98-9.3-12.58-10.716-16.61-17.94-2.6-4.664-4.651-8.638-4.651-13.953-.418,3.519-2.658,8.638.664,17.275,3.017,7.844,11.96,17.94,7.973,20.6a3.315,3.315,0,0,1-1.79.663c-5.11,0-3.113-20.3-12.163-23.918,4.651,7.309-2.851,12.122.664,24.584,1.662,5.891-2.705,9.716-6.184,9.716-1.907,0-3.547-1.149-3.782-3.737-.551-6.064,3.629-12.114,3.322-17.94-.415-7.889-5.98-13.953-9.3-16.611-4.77-3.815-8.638-6.644-6.895-14.026-2.408,2.731-4.4,11.369,2.908,19.342,4.813,5.25,1.991,11.82-.512,11.82a1.4,1.4,0,0,1-.471-.082c-5.807-2.068-12.97-24.363-6.417-43.111Z" transform="translate(-1859.19 -1416.082)" fill="#cdbf41"/>
      </g>
      <path id="Path_39441" data-name="Path 39441" d="M1872.166,1568.411c-8.8-21.866-.442-30.775,5.7-37.328a24.723,24.723,0,0,0,4.371-5.561,41.839,41.839,0,0,0,2.633-6.723,35.918,35.918,0,0,1-.017,4.207c-.18,2.874-1.064,4.9-4.981,11.433-1.756,2.926-7.1,11.831-2,17.789a5.208,5.208,0,0,0,4.035,1.8h0c4.031,0,8.663-3.91,11.264-9.507,3.356-7.224.641-21.861-2.168-35.015-.146-.684-.285-1.336-.41-1.929,2.054,5.495,4.869,9.4,7.811,10.444a4.4,4.4,0,0,0,1.484.257c2.17,0,4.138-1.527,5.262-4.085a11.929,11.929,0,0,0-2.525-12.8,19.214,19.214,0,0,1-1.775-2.242c.412.336.828.668,1.242,1l.407.326c1.293,1.034,7.762,6.589,8.174,14.411.12,2.269-.677,4.813-1.521,7.506-1.048,3.348-2.132,6.81-1.792,10.549.353,3.878,3.081,6.483,6.789,6.482a9.69,9.69,0,0,0,7.489-3.926,10.75,10.75,0,0,0,1.6-9.629c-1.552-5.5-.694-9.184.134-12.748l.076-.324c.493,1.733.9,3.546,1.267,5.226,1.255,5.667,2.441,11.02,7.115,11.02h0a6.266,6.266,0,0,0,3.464-1.171c4.968-3.312,1.166-9.761-2.511-16-.9-1.531-1.823-3.092-2.63-4.6a47.407,47.407,0,0,0,4.88,4.477,38.281,38.281,0,0,1,8.67,9.263c5.79,9.006,12.851,32.16-1.37,47.4Z" transform="translate(-1865.366 -1455.239)" fill="#cdbf41"/>
      <g id="Group_27922" data-name="Group 27922" transform="translate(68.674)">
        <path id="Path_39442" data-name="Path 39442" d="M2116.6,1518.4a40.11,40.11,0,0,1-31.432-14.8,57.645,57.645,0,0,1,4.776-77.6V1397.01a29.927,29.927,0,0,1,29.893-29.893h20.472a29.927,29.927,0,0,1,29.893,29.893v29.059a57.552,57.552,0,0,1,4.831,77.468,40.127,40.127,0,0,1-31.486,14.866Zm13.49-108.67c.9,0,1.815.021,2.706.061a56.7,56.7,0,0,1,18.148,3.867v-13.727a13.573,13.573,0,0,0-13.558-13.558h-14.623a13.574,13.574,0,0,0-13.559,13.558v13.7A57.231,57.231,0,0,1,2130.094,1409.733Z" transform="translate(-2071.545 -1366.261)" fill="#fff"/>
        <path id="Path_39443" data-name="Path 39443" d="M2138.546,1366.2a29.07,29.07,0,0,1,29.037,29.037v29.423a56.7,56.7,0,0,1,5.02,76.567,39.278,39.278,0,0,1-30.819,14.547h-26.948a39.256,39.256,0,0,1-30.766-14.481,56.789,56.789,0,0,1,4.967-76.7V1395.24a29.07,29.07,0,0,1,29.038-29.037Zm-31.958,46.929a56.278,56.278,0,0,1,21.737-4.313c.884,0,1.781.02,2.667.061a55.776,55.776,0,0,1,19.038,4.279c0-.125.006-.248.006-.371v-14.623a14.43,14.43,0,0,0-14.415-14.414H2121a14.431,14.431,0,0,0-14.414,14.414v14.623c0,.114,0,.228,0,.343Zm31.958-48.641h-20.472a30.785,30.785,0,0,0-30.75,30.749v28.634a58.5,58.5,0,0,0-4.586,78.5,40.961,40.961,0,0,0,32.1,15.118h26.948a40.98,40.98,0,0,0,32.153-15.186,58.408,58.408,0,0,0-4.642-78.365v-28.7a30.784,30.784,0,0,0-30.749-30.749Zm-30.25,46.137v-12.463a12.716,12.716,0,0,1,12.7-12.7h14.623a12.717,12.717,0,0,1,12.7,12.7v12.485a57.541,57.541,0,0,0-17.254-3.48c-.908-.042-1.832-.063-2.745-.063a58.112,58.112,0,0,0-20.029,3.521Z" transform="translate(-2069.776 -1364.491)" fill="#231f20"/>
      </g>
      <path id="Path_39444" data-name="Path 39444" d="M2191.285,1471.824a54.185,54.185,0,0,0-17.511-37.378c0-.136.021-.269.021-.406v-30.082a26.531,26.531,0,0,0-26.531-26.531h-20.473a26.531,26.531,0,0,0-26.531,26.531v30.082c0,.117.015.229.018.345a54.284,54.284,0,0,0-5.541,74.053,36.969,36.969,0,0,0,28.815,13.55H2150.5a37,37,0,0,0,28.867-13.612A54.116,54.116,0,0,0,2191.285,1471.824Zm-78.49-50.317v-14.623a16.921,16.921,0,0,1,16.921-16.922h14.624a16.921,16.921,0,0,1,16.921,16.922v14.623a16.912,16.912,0,0,1-.5,4.033,53.619,53.619,0,0,0-21.162-5.437,54.179,54.179,0,0,0-26.3,5.4A16.922,16.922,0,0,1,2112.8,1421.507Z" transform="translate(-2009.82 -1373.209)" fill="#cdbf41"/>
      <g id="Group_27923" data-name="Group 27923" transform="translate(88.169 50.712)">
        <path id="Path_39445" data-name="Path 39445" d="M2207.681,1770.946a31.628,31.628,0,0,1-7.874,7.177,32.929,32.929,0,0,1-9.838,4.183,31.632,31.632,0,0,1-5.3.845c-1.793.146-3.58.115-5.355.122l-10.678.027-10.677-.027c-1.776-.007-3.562.022-5.355-.116a31.93,31.93,0,0,1-5.307-.832,32.794,32.794,0,0,1-9.849-4.16,34.235,34.235,0,0,1-4.252-3.25,33.649,33.649,0,0,1-3.635-3.913,32.622,32.622,0,0,0,17.842,10.87,34.828,34.828,0,0,0,5.238.764c1.758.127,3.535.089,5.318.087l10.677-.027,10.678.027c1.783,0,3.56.041,5.317-.093a34.338,34.338,0,0,0,5.236-.776A32.663,32.663,0,0,0,2207.681,1770.946Z" transform="translate(-2129.557 -1689.11)" fill="#fff"/>
        <path id="Path_39446" data-name="Path 39446" d="M2182.088,1525.34a46.543,46.543,0,0,1,5.175-2.33,47.472,47.472,0,0,1,33.453.019,46.782,46.782,0,0,1,5.171,2.339,55,55,0,0,0-10.707-3.572,53.058,53.058,0,0,0-22.377-.007A54.588,54.588,0,0,0,2182.088,1525.34Z" transform="translate(-2164.957 -1519.997)" fill="#fff"/>
      </g>
      <path id="Path_39454" data-name="Path 39454" d="M2229.216,1548.542l3.009,6.1,6.729.978-4.869,4.746,1.149,6.7-6.018-3.164-6.019,3.164,1.149-6.7-4.869-4.746,6.729-.978Z" transform="translate(-2101.986 -1430.349)" fill="#262626"/>
    </g>
    <text id="Level_" data-name="Level " transform="translate(1084.789 479)" fill="#262626" font-size="23" font-family="Montserrat-ExtraBold, Montserrat" font-weight="800"><tspan x="0" y="0">LEVEL </tspan></text>
  </g>
</svg>
