<svg xmlns="http://www.w3.org/2000/svg" width="454" height="273.688" viewBox="0 0 454 273.688">
  <g id="Level_3" data-name="Level 3" transform="translate(-997 -372)">
    <g id="Group_27926" data-name="Group 27926" transform="translate(-862.19 -992.491)">
      <path id="Path_39431" data-name="Path 39431" d="M1874.005,1737.25l13.647-.345,13.647-.26,27.294-.514q27.293-.4,54.588-.667c18.2-.211,36.392-.259,54.588-.383l54.588-.127,54.588.121c18.2.128,36.392.169,54.588.382q27.293.233,54.588.667l27.294.517,13.647.261,13.646.347-13.646.346-13.647.262-27.294.516q-27.294.4-54.588.667c-18.2.214-36.392.254-54.588.383l-54.588.12-54.588-.127c-18.2-.124-36.391-.171-54.588-.383q-27.294-.231-54.588-.666l-27.294-.514-13.647-.261Z" transform="translate(-6.172 -154.353)" fill="#231f20"/>
      <path id="Path_39432" data-name="Path 39432" d="M1874.005,1737.25l13.647-.345,13.647-.26,27.294-.514q27.293-.4,54.588-.667c18.2-.211,36.392-.259,54.588-.383l54.588-.127,54.588.121c18.2.128,36.392.169,54.588.382q27.293.233,54.588.667l27.294.517,13.647.261,13.646.347-13.646.346-13.647.262-27.294.516q-27.294.4-54.588.667c-18.2.214-36.392.254-54.588.383l-54.588.12-54.588-.127c-18.2-.124-36.391-.171-54.588-.383q-27.294-.231-54.588-.666l-27.294-.514-13.647-.261Z" transform="translate(-6.172 -154.353)" fill="#231f20"/>
      <path id="Path_39433" data-name="Path 39433" d="M1937.586,1757.62l11.329-.345,11.329-.26,22.658-.514q22.657-.4,45.315-.666c15.105-.212,30.21-.259,45.316-.383l45.315-.127,45.316.121c15.105.128,30.21.168,45.316.383q22.657.231,45.315.666l22.658.517,11.329.261,11.329.348-11.329.346-11.329.262-22.658.517q-22.657.4-45.315.666c-15.106.213-30.211.254-45.316.382l-45.316.12-45.315-.126c-15.106-.125-30.21-.171-45.316-.384q-22.657-.23-45.315-.666l-22.658-.514-11.329-.26Z" transform="translate(-32.663 -162.84)" fill="#231f20"/>
      <path id="Path_39434" data-name="Path 39434" d="M1937.586,1757.62l11.329-.345,11.329-.26,22.658-.514q22.657-.4,45.315-.666c15.105-.212,30.21-.259,45.316-.383l45.315-.127,45.316.121c15.105.128,30.21.168,45.316.383q22.657.231,45.315.666l22.658.517,11.329.261,11.329.348-11.329.346-11.329.262-22.658.517q-22.657.4-45.315.666c-15.106.213-30.211.254-45.316.382l-45.316.12-45.315-.126c-15.106-.125-30.21-.171-45.316-.384q-22.657-.23-45.315-.666l-22.658-.514-11.329-.26Z" transform="translate(-32.663 -162.84)" fill="#231f20"/>
      <path id="Path_39435" data-name="Path 39435" d="M2022.771,1777.99c22.028-.951,44.056-1.448,66.084-1.786,11.014-.211,22.028-.259,33.042-.383l33.042-.127,33.042.12c11.014.128,22.028.169,33.042.383,22.029.336,44.057.835,66.084,1.792-22.027.956-44.056,1.455-66.084,1.792-11.014.214-22.029.254-33.042.382l-33.042.121-33.042-.127c-11.014-.124-22.028-.171-33.042-.383C2066.827,1779.438,2044.8,1778.941,2022.771,1777.99Z" transform="translate(-68.156 -171.327)" fill="#231f20"/>
      <g id="Group_27920" data-name="Group 27920" transform="translate(2155.155 1394.587)">
        <path id="Path_39436" data-name="Path 39436" d="M2386.4,1605.266c-28.549-28.892-15.112-73.551-4.059-90.746,5.37-8.353,10.919-12.978,16.287-17.45,5.057-4.212,9.831-8.193,13.475-14.723,3.132-5.612,5.689-10.492,7.158-15.748a40.82,40.82,0,0,1-2.792,20.395c-1.842,4.793-4.974,10.1-8,15.241-6.181,10.482-11.519,19.534-5.678,23.429a7.345,7.345,0,0,0,4.051,1.442c5.255,0,6.885-7.359,8.948-16.678,1.823-8.232,4.006-18.089,9.147-23.331-1.429,4.926-.372,9.465.8,14.522,1.52,6.532,3.242,13.937.2,24.733a15.449,15.449,0,0,0,2.227,13.839,13.4,13.4,0,0,0,10.309,5.489c4.66,0,7.838-3.1,8.291-8.078.538-5.918-1.284-11.735-3.046-17.363-1.616-5.158-3.143-10.031-2.892-14.786.638-12.118,8.718-22.719,16.068-28.6l.731-.584c6.1-4.867,11.579-9.245,12.721-16.746,1.077,6.419-.1,15.543-8.407,24.609-6.014,6.562-5.82,14.184-3.826,18.716,1.354,3.08,3.6,4.994,5.87,4.994a4.008,4.008,0,0,0,1.355-.234c5.876-2.093,11.91-13.548,15.016-28.5a103.6,103.6,0,0,0,1.58-31.908c4.1,15.183,4.71,31.9,3.389,41.321-.22,1.558-.855,4.536-1.66,8.305-3.536,16.555-10.117,47.369-4.156,60.2,3.911,8.418,11.066,14.768,16.641,14.768a5.441,5.441,0,0,0,4.279-1.862c7.308-8.54-.876-22.179-3.958-27.312-6.976-11.629-9.063-15.953-9.453-22.2a69.68,69.68,0,0,1,6.258-33.286c-1.257,9.171-2.1,19.75,5.761,35.846,1.381,2.829,4.062,5.688,7.164,9,11.264,12.014,28.243,30.129,9.964,73.291Z" transform="translate(-2367.698 -1429.047)" fill="#fff"/>
        <path id="Path_39437" data-name="Path 39437" d="M2482.576,1453.057a97.782,97.782,0,0,1,.067,22.286c-.211,1.5-.842,4.46-1.641,8.2-3.573,16.729-10.222,47.867-4.046,61.164,4.214,9.069,11.8,15.652,18.03,15.652a7.014,7.014,0,0,0,5.441-2.4c8.026-9.377-.571-23.7-3.806-29.1-7.248-12.081-8.888-15.9-9.239-21.509a67.423,67.423,0,0,1,2.382-22.366c.093,6.994,1.607,15.194,6.733,25.694,1.482,3.037,4.236,5.973,7.423,9.373,10.91,11.638,27.318,29.136,10.063,70.711h-128.1c-14.89-15.4-16.994-34.449-16.1-47.838,1.147-17.15,7.549-32.562,12.684-40.548,5.242-8.155,10.7-12.7,15.979-17.1,5.168-4.307,10.05-8.374,13.832-15.154,1.659-2.972,3.186-5.8,4.484-8.627a43.2,43.2,0,0,1-2.885,11.979c-1.8,4.672-4.9,9.927-7.893,15.01-6.3,10.689-12.257,20.785-5.21,25.482a8.8,8.8,0,0,0,4.9,1.7c6.485,0,8.32-8.286,10.444-17.88,1.312-5.925,2.817-12.721,5.454-17.853a47.775,47.775,0,0,0,1.511,9.061c1.478,6.353,3.152,13.553.214,23.97-1.577,5.592-.7,10.983,2.479,15.179a14.957,14.957,0,0,0,11.531,6.1c5.44,0,9.292-3.717,9.816-9.469.565-6.223-1.3-12.188-3.111-17.959-1.574-5.024-3.059-9.77-2.824-14.249.789-14.992,13.046-25.525,15.494-27.484l.729-.582c3.875-3.094,7.65-6.108,10.221-9.937a30.314,30.314,0,0,1-7.988,15.568c-6.514,7.105-6.279,15.412-4.1,20.366,1.627,3.7,4.346,5.909,7.273,5.909a5.564,5.564,0,0,0,1.87-.323c6.46-2.3,12.742-13.933,16-29.632a106.491,106.491,0,0,0,1.885-13.4Zm-7.434-36.974c11.722,33.537-1.093,73.419-11.48,77.118a2.5,2.5,0,0,1-.842.146c-4.478,0-9.525-11.752-.916-21.144,13.075-14.262,9.509-29.714,5.2-34.6,3.117,13.2-3.8,18.265-12.334,25.09-5.943,4.754-15.9,15.6-16.639,29.714-.55,10.422,6.928,21.243,5.942,32.091-.421,4.629-3.354,6.684-6.766,6.684-6.224,0-14.035-6.844-11.062-17.381,6.288-22.293-7.132-30.9,1.188-43.977-16.19,6.476-12.617,42.786-21.759,42.786a5.926,5.926,0,0,1-3.2-1.186c-7.131-4.754,8.866-22.814,14.262-36.846,5.943-15.451,1.936-24.608,1.189-30.9,0,9.508-3.665,16.616-8.32,24.96-7.211,12.923-19.017,15.451-29.714,32.091-11.34,17.639-25.333,63.325,4.711,93.1h131.408c24.49-56.74-10.7-72.079-16.764-84.49-10.007-20.5-5.569-31.713-4.591-43.043a69.515,69.515,0,0,0-10.332,41.249c.407,6.5,2.539,11.008,9.67,22.894,2.8,4.67,10.7,17.829,4.106,25.53a3.927,3.927,0,0,1-3.115,1.326c-4.456,0-11.256-5.276-15.253-13.88-7.132-15.353,4.778-59.357,5.942-67.65,1.82-12.958,0-41.6-10.533-59.686Z" transform="translate(-2366.542 -1416.082)" fill="#cdbf41"/>
      </g>
      <path id="Path_39438" data-name="Path 39438" d="M2390.772,1623.042c-25.44-27.255-12.809-68.671-2.451-84.782,5.048-7.854,10.366-12.285,15.509-16.571a84.933,84.933,0,0,0,8.73-8.01c-1.444,2.7-3.089,5.495-4.705,8.235-6.578,11.155-13.38,22.69-4.491,28.615a11.2,11.2,0,0,0,6.2,2.094c8.362,0,10.482-9.576,12.727-19.713.666-3.006,1.384-6.249,2.267-9.35.045.194.09.388.135.581,1.483,6.375,3.017,12.968.242,22.806-1.781,6.314-.764,12.432,2.864,17.226a17.335,17.335,0,0,0,13.4,7.022c6.633,0,11.515-4.659,12.146-11.6.608-6.688-1.331-12.881-3.207-18.87-1.51-4.818-2.935-9.369-2.721-13.427.736-13.993,12.308-23.929,14.62-25.78l.728-.583c.742-.592,1.487-1.187,2.224-1.788a34.29,34.29,0,0,1-3.177,4.011c-7.275,7.937-6.98,17.291-4.517,22.891,2.013,4.573,5.532,7.305,9.414,7.305a7.88,7.88,0,0,0,2.655-.459c5.261-1.874,10.3-8.855,13.973-18.688-.222,1.061-.471,2.227-.733,3.451-5.026,23.531-9.884,49.718-3.881,62.641,4.652,10.013,12.938,17.006,20.151,17.006a9.316,9.316,0,0,0,7.22-3.215c9.121-10.657-.437-26.586-3.579-31.821-7.008-11.678-8.589-15.309-8.911-20.45a64.345,64.345,0,0,1-.03-7.527,74.813,74.813,0,0,0,4.709,12.026c1.638,3.354,4.5,6.409,7.819,9.947,10.989,11.721,25.932,27.659,10.2,66.773Z" transform="translate(-215.271 -56.106)" fill="#cdbf41"/>
      <g id="Group_27921" data-name="Group 27921" transform="translate(1859.19 1394.587)">
        <path id="Path_39439" data-name="Path 39439" d="M1869.849,1605.267c-18.278-43.16-1.3-61.276,9.964-73.291,3.1-3.309,5.784-6.168,7.165-9,7.859-16.1,7.018-26.679,5.761-35.85a69.679,69.679,0,0,1,6.258,33.289c-.39,6.249-2.477,10.574-9.455,22.2-3.081,5.134-11.264,18.772-3.955,27.313a5.437,5.437,0,0,0,4.278,1.862h0c5.576,0,12.729-6.35,16.64-14.766,5.962-12.831-.618-43.644-4.153-60.2-.805-3.772-1.441-6.752-1.66-8.311-1.323-9.419-.709-26.136,3.386-41.32a103.62,103.62,0,0,0,1.58,31.907c3.105,14.954,9.14,26.408,15.016,28.5a4.013,4.013,0,0,0,1.356.234c2.267,0,4.517-1.913,5.872-4.995,1.994-4.533,2.188-12.153-3.826-18.715-8.314-9.068-9.485-18.191-8.407-24.61,1.142,7.5,6.625,11.88,12.721,16.747l.731.585c7.349,5.879,15.43,16.48,16.068,28.6.25,4.754-1.276,9.628-2.893,14.786-1.762,5.628-3.583,11.445-3.046,17.363.453,4.982,3.63,8.078,8.291,8.078a13.406,13.406,0,0,0,10.31-5.489,15.45,15.45,0,0,0,2.226-13.839c-3.046-10.8-1.323-18.2.2-24.732,1.177-5.057,2.232-9.6.8-14.523,5.142,5.244,7.325,15.1,9.148,23.331,2.064,9.317,3.694,16.678,8.948,16.678h0a7.345,7.345,0,0,0,4.051-1.442c5.842-3.895.5-12.948-5.679-23.43-3.03-5.137-6.161-10.448-8-15.24a40.854,40.854,0,0,1-2.792-20.393c1.468,5.256,4.026,10.134,7.158,15.746,3.644,6.531,8.42,10.511,13.475,14.724,5.367,4.472,10.918,9.1,16.288,17.45,11.054,17.2,24.489,61.856-4.058,90.746Z" transform="translate(-1860.274 -1429.047)" fill="#fff"/>
        <path id="Path_39440" data-name="Path 39440" d="M1901.192,1453.057a106.4,106.4,0,0,0,1.885,13.4c3.26,15.7,9.541,27.331,16,29.632a5.563,5.563,0,0,0,1.87.323c2.926,0,5.645-2.209,7.273-5.909,2.179-4.954,2.413-13.261-4.1-20.366a30.305,30.305,0,0,1-7.988-15.567c2.571,3.829,6.346,6.843,10.22,9.937l.729.582c2.449,1.959,14.705,12.492,15.495,27.484.236,4.479-1.251,9.224-2.824,14.249-1.807,5.771-3.676,11.736-3.11,17.959.523,5.752,4.376,9.469,9.815,9.469a14.955,14.955,0,0,0,11.531-6.1c3.176-4.2,4.057-9.587,2.479-15.179-2.938-10.417-1.263-17.617.215-23.97a47.8,47.8,0,0,0,1.51-9.061c2.636,5.132,4.141,11.928,5.453,17.853,2.125,9.594,3.96,17.88,10.444,17.88a8.8,8.8,0,0,0,4.9-1.7c7.047-4.7,1.093-14.794-5.21-25.482-3-5.082-6.1-10.338-7.893-15.01A43.2,43.2,0,0,1,1967,1461.5c1.3,2.826,2.825,5.654,4.483,8.627,3.782,6.78,8.664,10.847,13.832,15.154,5.279,4.4,10.737,8.946,15.98,17.1,5.134,7.987,11.536,23.4,12.684,40.548.9,13.39-1.209,32.443-16.1,47.838h-128.1c-17.256-41.575-.848-59.074,10.063-70.711,3.187-3.4,5.94-6.336,7.423-9.373,5.125-10.5,6.64-18.7,6.732-25.694a67.411,67.411,0,0,1,2.383,22.366c-.35,5.609-1.991,9.429-9.239,21.509-3.236,5.394-11.832,19.72-3.806,29.1a7.015,7.015,0,0,0,5.441,2.4c6.233,0,13.816-6.583,18.029-15.652,6.177-13.3-.473-44.435-4.045-61.164-.8-3.741-1.43-6.7-1.641-8.2a97.863,97.863,0,0,1,.067-22.286Zm7.434-36.974c-10.534,18.086-12.353,46.728-10.534,59.686,1.164,8.292,13.074,52.3,5.943,67.65-4,8.6-10.8,13.88-15.253,13.88a3.927,3.927,0,0,1-3.115-1.326c-6.592-7.7,1.3-20.86,4.106-25.53,7.131-11.886,9.264-16.392,9.67-22.894a69.519,69.519,0,0,0-10.332-41.249c.978,11.33,5.417,22.544-4.592,43.043-6.059,12.411-41.253,27.751-16.764,84.49h131.408c30.044-29.779,16.051-75.465,4.711-93.1-10.7-16.64-22.5-19.168-29.713-32.091-4.655-8.344-8.32-15.452-8.32-24.96-.748,6.294-4.755,15.451,1.188,30.9,5.4,14.032,21.394,32.092,14.263,36.846a5.928,5.928,0,0,1-3.2,1.186c-9.142,0-5.568-36.31-21.758-42.786,8.32,13.074-5.1,21.684,1.188,43.977,2.973,10.537-4.839,17.381-11.063,17.381-3.411,0-6.345-2.055-6.766-6.684-.986-10.848,6.491-21.67,5.943-32.091-.743-14.113-10.7-24.96-16.64-29.714-8.532-6.825-15.452-11.886-12.333-25.09-4.307,4.885-7.873,20.336,5.2,34.6,8.61,9.392,3.562,21.144-.916,21.144a2.5,2.5,0,0,1-.842-.146c-10.387-3.7-23.2-43.581-11.48-77.118Z" transform="translate(-1859.19 -1416.082)" fill="#cdbf41"/>
      </g>
      <path id="Path_39441" data-name="Path 39441" d="M1875.173,1623.043c-15.733-39.114-.79-55.052,10.2-66.773,3.318-3.539,6.182-6.594,7.819-9.947a74.858,74.858,0,0,0,4.709-12.026,64.276,64.276,0,0,1-.03,7.526c-.322,5.142-1.9,8.773-8.91,20.452-3.142,5.234-12.7,21.163-3.578,31.821a9.317,9.317,0,0,0,7.218,3.214h0c7.211,0,15.5-6.994,20.149-17.006,6-12.922,1.147-39.106-3.878-62.635-.262-1.224-.51-2.39-.733-3.451,3.674,9.829,8.711,16.808,13.972,18.682a7.88,7.88,0,0,0,2.655.459c3.882,0,7.4-2.732,9.413-7.308,2.464-5.6,2.758-14.953-4.516-22.889a34.317,34.317,0,0,1-3.176-4.01c.737.6,1.481,1.2,2.222,1.787l.728.583c2.313,1.849,13.884,11.786,14.621,25.779.214,4.058-1.211,8.609-2.721,13.427-1.875,5.989-3.815,12.183-3.207,18.87.631,6.937,5.511,11.6,12.145,11.6a17.333,17.333,0,0,0,13.4-7.022c3.629-4.793,4.646-10.912,2.865-17.225-2.776-9.838-1.241-16.429.24-22.8.046-.193.091-.387.136-.58.883,3.1,1.6,6.342,2.266,9.348,2.245,10.137,4.366,19.713,12.726,19.713h0a11.208,11.208,0,0,0,6.2-2.094c8.887-5.926,2.086-17.461-4.492-28.616-1.616-2.739-3.262-5.531-4.7-8.233a84.808,84.808,0,0,0,8.73,8.009c5.143,4.286,10.461,8.717,15.509,16.571,10.357,16.111,22.989,57.529-2.451,84.782Z" transform="translate(-3.818 -56.107)" fill="#cdbf41"/>
      <g id="Group_27922" data-name="Group 27922" transform="translate(1982.036 1364.491)">
        <path id="Path_39442" data-name="Path 39442" d="M2151.474,1637.742a71.75,71.75,0,0,1-56.226-26.473,103.117,103.117,0,0,1,8.544-138.812V1420.59a53.533,53.533,0,0,1,53.474-53.474h36.622a53.533,53.533,0,0,1,53.474,53.474v51.982A102.95,102.95,0,0,1,2256,1611.148a71.78,71.78,0,0,1-56.323,26.594Zm24.13-194.391c1.618,0,3.247.037,4.841.11a101.427,101.427,0,0,1,32.465,6.917v-24.554a24.281,24.281,0,0,0-24.253-24.253H2162.5a24.281,24.281,0,0,0-24.254,24.253v24.509A102.378,102.378,0,0,1,2175.6,1443.35Z" transform="translate(-2070.87 -1365.585)" fill="#fff"/>
        <path id="Path_39443" data-name="Path 39443" d="M2192.794,1367.554a52,52,0,0,1,51.943,51.943v52.633a101.424,101.424,0,0,1,8.98,136.966,70.262,70.262,0,0,1-55.13,26.022h-48.206a70.224,70.224,0,0,1-55.035-25.9,101.586,101.586,0,0,1,8.884-137.2V1419.5a52,52,0,0,1,51.943-51.943Zm-57.167,83.948a100.673,100.673,0,0,1,38.883-7.715c1.581,0,3.185.036,4.771.11a99.776,99.776,0,0,1,34.056,7.655c.008-.223.01-.443.01-.664v-26.159a25.813,25.813,0,0,0-25.785-25.785H2161.4a25.814,25.814,0,0,0-25.785,25.785v26.159c0,.2,0,.408.008.614Zm57.167-87.01h-36.622a55.068,55.068,0,0,0-55.006,55.005v51.221a104.647,104.647,0,0,0-8.2,140.418,73.271,73.271,0,0,0,57.417,27.043h48.206a73.307,73.307,0,0,0,57.516-27.165,104.482,104.482,0,0,0-8.3-140.182V1419.5a55.068,55.068,0,0,0-55.005-55.005Zm-54.112,82.532v-22.295a22.748,22.748,0,0,1,22.722-22.723h26.159a22.748,22.748,0,0,1,22.723,22.723v22.334a102.939,102.939,0,0,0-30.864-6.225c-1.625-.075-3.277-.113-4.911-.113a103.956,103.956,0,0,0-35.829,6.3Z" transform="translate(-2069.776 -1364.491)" fill="#231f20"/>
      </g>
      <path id="Path_39444" data-name="Path 39444" d="M2276.93,1546.287a96.927,96.927,0,0,0-31.324-66.863c.005-.244.037-.481.037-.726v-53.812a47.459,47.459,0,0,0-47.459-47.458h-36.622a47.459,47.459,0,0,0-47.46,47.458V1478.7c0,.209.027.409.031.617a97.105,97.105,0,0,0-9.911,132.469,66.131,66.131,0,0,0,51.546,24.239h48.206a66.177,66.177,0,0,0,51.637-24.35A96.8,96.8,0,0,0,2276.93,1546.287Zm-140.405-90.009v-26.159a30.269,30.269,0,0,1,30.269-30.27h26.159a30.269,30.269,0,0,1,30.269,30.27v26.159a30.249,30.249,0,0,1-.9,7.215,95.922,95.922,0,0,0-37.855-9.725,96.915,96.915,0,0,0-47.053,9.667A30.252,30.252,0,0,1,2136.525,1456.277Z" transform="translate(-93.13 -5.39)" fill="#cdbf41"/>
      <g id="Group_27923" data-name="Group 27923" transform="translate(2016.909 1455.206)">
        <path id="Path_39445" data-name="Path 39445" d="M2269.308,1770.946a56.583,56.583,0,0,1-14.084,12.839,58.9,58.9,0,0,1-17.6,7.483,56.582,56.582,0,0,1-9.488,1.512c-3.207.261-6.4.205-9.58.218l-19.1.049-19.1-.048c-3.177-.013-6.372.04-9.579-.207a57.1,57.1,0,0,1-9.493-1.489,58.659,58.659,0,0,1-17.618-7.441,61.253,61.253,0,0,1-7.607-5.814,60.2,60.2,0,0,1-6.5-7,58.352,58.352,0,0,0,31.917,19.445,62.26,62.26,0,0,0,9.37,1.366c3.144.228,6.323.159,9.512.155l19.1-.048,19.1.049c3.189,0,6.367.074,9.51-.167a61.435,61.435,0,0,0,9.367-1.387A58.428,58.428,0,0,0,2269.308,1770.946Z" transform="translate(-2129.557 -1624.555)" fill="#fff"/>
        <path id="Path_39446" data-name="Path 39446" d="M2182.088,1529.555a83.247,83.247,0,0,1,9.257-4.168,84.915,84.915,0,0,1,59.842.035,83.638,83.638,0,0,1,9.25,4.185,98.366,98.366,0,0,0-19.154-6.389,94.914,94.914,0,0,0-40.028-.013A97.652,97.652,0,0,0,2182.088,1529.555Z" transform="translate(-2151.444 -1519.997)" fill="#fff"/>
      </g>
      <path id="Path_39454" data-name="Path 39454" d="M2236.9,1548.542l5.383,10.907,12.037,1.749-8.71,8.49,2.056,11.988-10.766-5.66-10.766,5.66,2.056-11.988-8.709-8.49,12.036-1.749Z" transform="translate(-184.879 23.795)" fill="#262626"/>
      <path id="Path_39462" data-name="Path 39462" d="M2236.9,1548.542l5.383,10.907,12.037,1.749-8.71,8.49,2.056,11.988-10.766-5.66-10.766,5.66,2.056-11.988-8.709-8.49,12.036-1.749Z" transform="translate(-148.56 23.795)" fill="#262626"/>
      <path id="Path_39463" data-name="Path 39463" d="M2236.9,1548.542l5.383,10.907,12.037,1.749-8.71,8.49,2.056,11.988-10.766-5.66-10.766,5.66,2.056-11.988-8.709-8.49,12.036-1.749Z" transform="translate(-113.754 23.795)" fill="#262626"/>
    </g>
    <text id="Level_" data-name="Level " transform="translate(1154 565)" fill="#262626" font-size="43" font-family="Montserrat-ExtraBold, Montserrat" font-weight="800"><tspan x="0" y="0">LEVEL </tspan></text>
  </g>
</svg>
