<svg xmlns="http://www.w3.org/2000/svg" width="384.989" height="232.086" viewBox="0 0 384.989 232.086">
  <g id="Level_2" data-name="Level 2" transform="translate(-997 -372)">
    <g id="Group_27926" data-name="Group 27926" transform="translate(997 372)">
      <path id="Path_39431" data-name="Path 39431" d="M1874.005,1736.9l11.573-.292,11.573-.22,23.145-.436q23.144-.342,46.29-.565c15.431-.179,30.86-.219,46.29-.325l46.29-.108,46.291.1c15.43.109,30.86.143,46.29.324q23.144.2,46.29.565l23.145.439,11.573.222,11.572.294-11.572.294-11.573.222-23.145.438q-23.145.342-46.29.565c-15.43.181-30.861.216-46.29.324l-46.291.1-46.29-.107c-15.43-.105-30.859-.145-46.29-.325q-23.145-.2-46.29-.564l-23.145-.436-11.573-.222Z" transform="translate(-1866.677 -1551.694)" fill="#231f20"/>
      <path id="Path_39432" data-name="Path 39432" d="M1874.005,1736.9l11.573-.292,11.573-.22,23.145-.436q23.144-.342,46.29-.565c15.431-.179,30.86-.219,46.29-.325l46.29-.108,46.291.1c15.43.109,30.86.143,46.29.324q23.144.2,46.29.565l23.145.439,11.573.222,11.572.294-11.572.294-11.573.222-23.145.438q-23.145.342-46.29.565c-15.43.181-30.861.216-46.29.324l-46.291.1-46.29-.107c-15.43-.105-30.859-.145-46.29-.325q-23.145-.2-46.29-.564l-23.145-.436-11.573-.222Z" transform="translate(-1866.677 -1551.694)" fill="#231f20"/>
      <path id="Path_39433" data-name="Path 39433" d="M1937.586,1757.271l9.607-.293,9.607-.221,19.214-.436q19.213-.342,38.427-.565c12.809-.18,25.618-.219,38.427-.325l38.427-.108,38.427.1c12.809.109,25.618.143,38.428.325q19.213.2,38.426.565l19.214.439,9.606.222,9.607.295-9.607.294-9.606.222-19.214.439q-19.213.341-38.426.565c-12.81.181-25.619.216-38.428.324l-38.427.1-38.427-.107c-12.809-.106-25.618-.145-38.427-.325q-19.213-.2-38.427-.565l-19.214-.436-9.607-.221Z" transform="translate(-1898.805 -1561.988)" fill="#231f20"/>
      <path id="Path_39434" data-name="Path 39434" d="M1937.586,1757.271l9.607-.293,9.607-.221,19.214-.436q19.213-.342,38.427-.565c12.809-.18,25.618-.219,38.427-.325l38.427-.108,38.427.1c12.809.109,25.618.143,38.428.325q19.213.2,38.426.565l19.214.439,9.606.222,9.607.295-9.607.294-9.606.222-19.214.439q-19.213.341-38.426.565c-12.81.181-25.619.216-38.428.324l-38.427.1-38.427-.107c-12.809-.106-25.618-.145-38.427-.325q-19.213-.2-38.427-.565l-19.214-.436-9.607-.221Z" transform="translate(-1898.805 -1561.988)" fill="#231f20"/>
      <path id="Path_39435" data-name="Path 39435" d="M2022.771,1777.642c18.679-.806,37.359-1.228,56.039-1.514,9.34-.179,18.68-.219,28.02-.325l28.02-.107,28.019.1c9.34.109,18.679.144,28.02.325,18.68.285,37.36.708,56.039,1.52-18.679.811-37.359,1.234-56.039,1.52-9.34.181-18.68.216-28.02.324l-28.019.1-28.02-.108c-9.34-.105-18.68-.145-28.02-.325C2060.13,1778.869,2041.451,1778.447,2022.771,1777.642Z" transform="translate(-1941.851 -1572.282)" fill="#231f20"/>
      <g id="Group_27920" data-name="Group 27920" transform="translate(250.975 25.521)">
        <path id="Path_39436" data-name="Path 39436" d="M2383.8,1581.239c-24.209-24.5-12.815-62.37-3.442-76.952,4.553-7.083,9.259-11.005,13.811-14.8,4.288-3.572,8.336-6.947,11.427-12.485,2.656-4.759,4.825-8.9,6.07-13.354a34.614,34.614,0,0,1-2.368,17.294,93.968,93.968,0,0,1-6.788,12.924c-5.241,8.889-9.768,16.565-4.814,19.867a6.227,6.227,0,0,0,3.435,1.223c4.456,0,5.838-6.24,7.588-14.143,1.546-6.98,3.4-15.339,7.757-19.785-1.211,4.177-.316,8.026.682,12.314,1.289,5.539,2.75,11.819.166,20.973a13.1,13.1,0,0,0,1.888,11.735,11.361,11.361,0,0,0,8.742,4.655c3.952,0,6.647-2.625,7.031-6.85.456-5.018-1.089-9.952-2.583-14.724-1.371-4.374-2.665-8.506-2.453-12.538.541-10.276,7.392-19.266,13.625-24.252l.62-.5c5.169-4.127,9.819-7.84,10.787-14.2.914,5.443-.081,13.18-7.129,20.869-5.1,5.565-4.936,12.027-3.245,15.871,1.149,2.612,3.057,4.234,4.978,4.234a3.4,3.4,0,0,0,1.149-.2c4.983-1.775,10.1-11.489,12.733-24.169a87.851,87.851,0,0,0,1.34-27.058c3.473,12.875,3.994,27.052,2.874,35.04-.187,1.321-.725,3.846-1.407,7.043-3,14.038-8.579,40.169-3.524,51.051,3.316,7.139,9.384,12.523,14.112,12.523a4.614,4.614,0,0,0,3.629-1.579c6.2-7.242-.743-18.808-3.357-23.161-5.916-9.861-7.685-13.528-8.016-18.827a59.092,59.092,0,0,1,5.307-28.226c-1.066,7.777-1.779,16.748,4.885,30.4,1.171,2.4,3.444,4.823,6.075,7.63,9.552,10.188,23.95,25.549,8.449,62.15Z" transform="translate(-2367.944 -1431.806)" fill="#fff"/>
        <path id="Path_39437" data-name="Path 39437" d="M2464.938,1447.436a82.914,82.914,0,0,1,.057,18.9c-.179,1.276-.714,3.782-1.391,6.955-3.03,14.186-8.668,40.591-3.431,51.866,3.573,7.691,10,13.273,15.289,13.273a5.948,5.948,0,0,0,4.614-2.032c6.806-7.952-.484-20.1-3.228-24.673-6.146-10.245-7.537-13.484-7.834-18.24a57.174,57.174,0,0,1,2.02-18.966c.079,5.931,1.363,12.884,5.709,21.788,1.257,2.575,3.592,5.065,6.295,7.948,9.252,9.869,23.166,24.707,8.533,59.963H2382.943c-12.626-13.055-14.411-29.212-13.651-40.566.972-14.543,6.4-27.612,10.756-34.385,4.445-6.916,9.074-10.773,13.55-14.5,4.383-3.652,8.522-7.1,11.73-12.85,1.407-2.52,2.7-4.919,3.8-7.315a36.629,36.629,0,0,1-2.446,10.158,93.188,93.188,0,0,1-6.693,12.728c-5.345,9.064-10.394,17.625-4.418,21.609a7.458,7.458,0,0,0,4.155,1.442c5.5,0,7.055-7.026,8.856-15.162,1.113-5.024,2.389-10.787,4.625-15.139a40.506,40.506,0,0,0,1.281,7.683c1.253,5.387,2.673,11.493.181,20.326a14.372,14.372,0,0,0,2.1,12.872,12.683,12.683,0,0,0,9.779,5.169c4.613,0,7.88-3.152,8.324-8.03.479-5.277-1.106-10.336-2.638-15.229-1.334-4.261-2.594-8.285-2.395-12.083.67-12.713,11.063-21.645,13.139-23.306l.618-.494c3.286-2.624,6.487-5.179,8.667-8.427a25.705,25.705,0,0,1-6.774,13.2c-5.524,6.025-5.325,13.069-3.477,17.271,1.38,3.138,3.685,5.01,6.167,5.01a4.719,4.719,0,0,0,1.585-.273c5.478-1.952,10.805-11.815,13.569-25.128a90.284,90.284,0,0,0,1.6-11.36Zm-6.3-31.354c9.941,28.44-.927,62.259-9.735,65.4a2.123,2.123,0,0,1-.714.124c-3.8,0-8.077-9.966-.777-17.93,11.087-12.094,8.064-25.2,4.411-29.339,2.644,11.2-3.224,15.488-10.459,21.276-5.039,4.031-13.48,13.23-14.11,25.2-.466,8.837,5.875,18.014,5.039,27.213-.357,3.925-2.844,5.668-5.737,5.668-5.278,0-11.9-5.8-9.381-14.739,5.332-18.9-6.048-26.206,1.008-37.292-13.729,5.491-10.7,36.282-18.451,36.282a5.026,5.026,0,0,1-2.715-1.006c-6.047-4.032,7.518-19.346,12.094-31.245,5.039-13.1,1.642-20.867,1.008-26.2,0,8.063-3.107,14.09-7.055,21.166-6.115,10.959-16.126,13.1-25.2,27.213-9.616,14.958-21.482,53.7,4,78.951h111.433c20.768-48.115-9.077-61.122-14.216-71.647-8.486-17.384-4.723-26.893-3.893-36.5a58.948,58.948,0,0,0-8.761,34.979c.345,5.513,2.153,9.335,8.2,19.414,2.376,3.96,9.071,15.119,3.481,21.649a3.33,3.33,0,0,1-2.641,1.124c-3.778,0-9.545-4.474-12.934-11.77-6.048-13.019,4.052-50.334,5.039-57.366,1.543-10.988,0-35.276-8.932-50.613Z" transform="translate(-2366.542 -1416.082)" fill="#cdbf41"/>
      </g>
      <path id="Path_39438" data-name="Path 39438" d="M2388.506,1604.21c-21.573-23.112-10.862-58.232-2.078-71.895,4.281-6.66,8.79-10.417,13.151-14.052a72,72,0,0,0,7.4-6.792c-1.224,2.292-2.619,4.659-3.99,6.983-5.578,9.459-11.346,19.24-3.809,24.265a9.494,9.494,0,0,0,5.256,1.775c7.091,0,8.889-8.12,10.792-16.716.564-2.549,1.174-5.3,1.922-7.929.039.164.077.329.115.493,1.257,5.406,2.559,11,.205,19.339a16.313,16.313,0,0,0,2.428,14.607,14.7,14.7,0,0,0,11.36,5.954c5.625,0,9.764-3.951,10.3-9.833.515-5.672-1.129-10.923-2.719-16-1.28-4.086-2.489-7.945-2.307-11.386.624-11.866,10.437-20.292,12.4-21.861l.617-.494c.629-.5,1.261-1.006,1.886-1.516a29.064,29.064,0,0,1-2.694,3.4c-6.169,6.73-5.919,14.663-3.83,19.412,1.707,3.878,4.691,6.195,7.982,6.195a6.685,6.685,0,0,0,2.251-.389c4.461-1.589,8.733-7.509,11.849-15.848-.189.9-.4,1.888-.621,2.926-4.262,19.954-8.381,42.16-3.291,53.119,3.945,8.491,10.971,14.421,17.088,14.421a7.9,7.9,0,0,0,6.122-2.727c7.734-9.037-.371-22.545-3.035-26.984-5.942-9.9-7.283-12.982-7.556-17.341a54.546,54.546,0,0,1-.025-6.383,63.422,63.422,0,0,0,3.993,10.2c1.389,2.844,3.818,5.435,6.631,8.435,9.318,9.94,21.991,23.454,8.649,56.623Z" transform="translate(-2120.277 -1432.538)" fill="#cdbf41"/>
      <g id="Group_27921" data-name="Group 27921" transform="translate(0 25.521)">
        <path id="Path_39439" data-name="Path 39439" d="M1868.624,1581.24c-15.5-36.6-1.1-51.962,8.45-62.15,2.631-2.806,4.9-5.231,6.076-7.63,6.664-13.652,5.952-22.624,4.885-30.4a59.087,59.087,0,0,1,5.307,28.229c-.331,5.3-2.1,8.967-8.017,18.827-2.612,4.353-9.552,15.919-3.354,23.161a4.611,4.611,0,0,0,3.628,1.579h0c4.728,0,10.794-5.385,14.11-12.522,5.056-10.881-.524-37.01-3.522-51.047-.683-3.2-1.222-5.726-1.408-7.048-1.122-7.987-.6-22.163,2.872-35.039a87.867,87.867,0,0,0,1.34,27.057c2.633,12.681,7.75,22.394,12.734,24.169a3.4,3.4,0,0,0,1.15.2c1.922,0,3.831-1.623,4.979-4.235,1.691-3.844,1.855-10.306-3.245-15.87-7.05-7.689-8.043-15.426-7.129-20.869.968,6.362,5.618,10.074,10.787,14.2l.62.5c6.232,4.985,13.084,13.975,13.625,24.252.212,4.032-1.082,8.164-2.453,12.538-1.494,4.772-3.039,9.706-2.583,14.724.384,4.225,3.078,6.85,7.031,6.85a11.368,11.368,0,0,0,8.743-4.655,13.1,13.1,0,0,0,1.888-11.735c-2.583-9.155-1.122-15.433.166-20.972,1-4.288,1.893-8.138.681-12.315,4.361,4.447,6.211,12.8,7.757,19.785,1.75,7.9,3.132,14.143,7.588,14.143h0a6.228,6.228,0,0,0,3.435-1.223c4.953-3.3.425-10.979-4.816-19.868a94.149,94.149,0,0,1-6.787-12.923,34.646,34.646,0,0,1-2.368-17.293c1.245,4.457,3.414,8.594,6.07,13.353,3.09,5.538,7.14,8.913,11.427,12.485,4.552,3.792,9.258,7.714,13.812,14.8,9.374,14.582,20.766,52.454-3.442,76.952Z" transform="translate(-1860.504 -1431.807)" fill="#fff"/>
        <path id="Path_39440" data-name="Path 39440" d="M1894.808,1447.436a90.236,90.236,0,0,0,1.6,11.36c2.765,13.313,8.09,23.176,13.57,25.128a4.719,4.719,0,0,0,1.585.273c2.481,0,4.786-1.873,6.167-5.01,1.848-4.2,2.047-11.245-3.476-17.271a25.7,25.7,0,0,1-6.774-13.2c2.18,3.247,5.381,5.8,8.667,8.426l.618.494c2.077,1.661,12.47,10.593,13.14,23.306.2,3.8-1.061,7.822-2.395,12.083-1.532,4.893-3.117,9.952-2.638,15.229.443,4.878,3.711,8.03,8.323,8.03a12.682,12.682,0,0,0,9.778-5.169,14.37,14.37,0,0,0,2.1-12.872c-2.491-8.833-1.071-14.939.182-20.326a40.53,40.53,0,0,0,1.281-7.683c2.235,4.352,3.512,10.115,4.624,15.139,1.8,8.136,3.358,15.162,8.857,15.162a7.458,7.458,0,0,0,4.156-1.442c5.976-3.984.927-12.545-4.418-21.609a93.374,93.374,0,0,1-6.694-12.728,36.639,36.639,0,0,1-2.445-10.158c1.1,2.4,2.4,4.795,3.8,7.315,3.207,5.749,7.347,9.2,11.73,12.85,4.476,3.729,9.1,7.586,13.551,14.5,4.354,6.773,9.783,19.842,10.756,34.385.759,11.354-1.025,27.511-13.652,40.566H1868.175c-14.633-35.256-.719-50.094,8.533-59.963,2.7-2.883,5.037-5.373,6.295-7.948,4.346-8.9,5.631-15.858,5.709-21.788a57.162,57.162,0,0,1,2.021,18.966c-.3,4.756-1.688,8-7.835,18.239-2.745,4.574-10.034,16.722-3.228,24.674a5.949,5.949,0,0,0,4.614,2.032c5.286,0,11.716-5.582,15.289-13.273,5.238-11.275-.4-37.681-3.43-51.866-.677-3.172-1.212-5.679-1.392-6.955a82.986,82.986,0,0,1,.057-18.9Zm6.3-31.354c-8.932,15.337-10.475,39.625-8.932,50.613.987,7.032,11.087,44.347,5.039,57.366-3.39,7.3-9.156,11.77-12.934,11.77a3.33,3.33,0,0,1-2.641-1.124c-5.59-6.53,1.106-17.689,3.481-21.649,6.047-10.079,7.855-13.9,8.2-19.414a58.952,58.952,0,0,0-8.761-34.979c.829,9.608,4.594,19.117-3.894,36.5-5.138,10.525-34.983,23.532-14.216,71.647h111.433c25.477-25.253,13.611-63.994,3.995-78.951-9.071-14.111-19.082-16.255-25.2-27.213-3.948-7.075-7.055-13.1-7.055-21.166-.634,5.337-4.032,13.1,1.008,26.2,4.577,11.9,18.142,27.214,12.095,31.245a5.026,5.026,0,0,1-2.715,1.006c-7.752,0-4.722-30.791-18.45-36.282,7.055,11.087-4.325,18.388,1.008,37.292,2.521,8.935-4.1,14.739-9.381,14.739-2.893,0-5.38-1.743-5.737-5.668-.836-9.2,5.5-18.376,5.039-27.213-.63-11.967-9.071-21.166-14.11-25.2-7.235-5.788-13.1-10.079-10.458-21.276-3.652,4.142-6.676,17.245,4.411,29.339,7.3,7.964,3.021,17.93-.777,17.93a2.12,2.12,0,0,1-.714-.124c-8.808-3.137-19.675-36.956-9.735-65.4Z" transform="translate(-1859.19 -1416.082)" fill="#cdbf41"/>
      </g>
      <path id="Path_39441" data-name="Path 39441" d="M1874.137,1604.211c-13.341-33.169-.67-46.683,8.648-56.623,2.813-3,5.242-5.591,6.631-8.435a63.49,63.49,0,0,0,3.993-10.2,54.508,54.508,0,0,1-.026,6.382c-.273,4.36-1.614,7.439-7.556,17.343-2.664,4.438-10.77,17.946-3.034,26.984a7.9,7.9,0,0,0,6.121,2.726h0c6.115,0,13.142-5.931,17.086-14.421,5.091-10.958.972-33.162-3.289-53.114-.222-1.038-.433-2.026-.622-2.927,3.115,8.335,7.386,14.253,11.848,15.843a6.682,6.682,0,0,0,2.252.389c3.292,0,6.277-2.317,7.982-6.2,2.089-4.748,2.339-12.68-3.83-19.41a29.089,29.089,0,0,1-2.693-3.4c.625.51,1.256,1.014,1.884,1.516l.617.494c1.961,1.568,11.774,9.994,12.4,21.861.182,3.442-1.027,7.3-2.307,11.386-1.59,5.078-3.235,10.331-2.719,16,.535,5.882,4.674,9.834,10.3,9.833a14.7,14.7,0,0,0,11.36-5.955,16.308,16.308,0,0,0,2.429-14.607c-2.354-8.342-1.053-13.932.2-19.338.039-.164.077-.328.115-.492.749,2.628,1.358,5.378,1.922,7.927,1.9,8.6,3.7,16.716,10.792,16.716h0a9.5,9.5,0,0,0,5.254-1.776c7.536-5.025,1.769-14.807-3.809-24.266-1.371-2.323-2.766-4.69-3.989-6.981a71.9,71.9,0,0,0,7.4,6.791c4.361,3.634,8.871,7.392,13.151,14.052,8.783,13.662,19.494,48.784-2.078,71.895Z" transform="translate(-1863.821 -1432.539)" fill="#cdbf41"/>
      <g id="Group_27922" data-name="Group 27922" transform="translate(104.172)">
        <path id="Path_39442" data-name="Path 39442" d="M2139.454,1596.6a60.844,60.844,0,0,1-47.68-22.449,87.442,87.442,0,0,1,7.246-117.712v-43.982a45.4,45.4,0,0,1,45.345-45.345h31.055a45.4,45.4,0,0,1,45.346,45.345v44.08a87.3,87.3,0,0,1,7.328,117.511,60.869,60.869,0,0,1-47.761,22.551Zm20.462-164.843c1.372,0,2.754.031,4.1.093a86.011,86.011,0,0,1,27.53,5.865V1416.9a20.59,20.59,0,0,0-20.567-20.567H2148.8a20.59,20.59,0,0,0-20.567,20.567v20.783A86.816,86.816,0,0,1,2159.916,1431.762Z" transform="translate(-2071.102 -1365.818)" fill="#fff"/>
        <path id="Path_39443" data-name="Path 39443" d="M2174.094,1367.088a44.1,44.1,0,0,1,44.047,44.047v44.632a86.007,86.007,0,0,1,7.615,116.146,59.581,59.581,0,0,1-46.75,22.067h-40.879a59.549,59.549,0,0,1-46.669-21.967,86.144,86.144,0,0,1,7.534-116.344v-44.534a44.1,44.1,0,0,1,44.047-44.047Zm-48.477,71.187a85.368,85.368,0,0,1,32.973-6.542c1.341,0,2.7.031,4.045.093a84.62,84.62,0,0,1,28.879,6.491c.006-.189.009-.376.009-.563v-22.182a21.89,21.89,0,0,0-21.865-21.865h-22.182a21.89,21.89,0,0,0-21.865,21.865v22.182c0,.173,0,.346.007.521Zm48.477-73.784h-31.055a46.7,46.7,0,0,0-46.645,46.644v43.435a88.74,88.74,0,0,0-6.957,119.074,62.134,62.134,0,0,0,48.689,22.932h40.879a62.163,62.163,0,0,0,48.773-23.036,88.6,88.6,0,0,0-7.041-118.873v-43.533a46.7,46.7,0,0,0-46.644-46.644Zm-45.887,69.986v-18.906a19.29,19.29,0,0,1,19.268-19.269h22.182a19.29,19.29,0,0,1,19.269,19.269v18.939a87.283,87.283,0,0,0-26.172-5.279c-1.377-.063-2.779-.1-4.165-.1a88.153,88.153,0,0,0-30.383,5.341Z" transform="translate(-2069.776 -1364.491)" fill="#231f20"/>
      </g>
      <path id="Path_39444" data-name="Path 39444" d="M2247.407,1520.619a82.193,82.193,0,0,0-26.562-56.7c0-.207.031-.408.031-.615v-45.632a40.245,40.245,0,0,0-40.245-40.245h-31.055a40.245,40.245,0,0,0-40.246,40.245V1463.3c0,.177.023.347.027.523a82.344,82.344,0,0,0-8.4,112.333,56.079,56.079,0,0,0,43.711,20.554h40.878a56.118,56.118,0,0,0,43.788-20.649A82.088,82.088,0,0,0,2247.407,1520.619Zm-119.062-76.327v-22.182a25.668,25.668,0,0,1,25.668-25.668H2176.2a25.668,25.668,0,0,1,25.668,25.668v22.182a25.661,25.661,0,0,1-.765,6.118,81.343,81.343,0,0,0-32.1-8.247,82.183,82.183,0,0,0-39.9,8.2A25.66,25.66,0,0,1,2128.345,1444.292Z" transform="translate(-1972.141 -1371.028)" fill="#cdbf41"/>
      <g id="Group_27923" data-name="Group 27923" transform="translate(133.744 76.925)">
        <path id="Path_39445" data-name="Path 39445" d="M2248.065,1770.946a47.982,47.982,0,0,1-11.944,10.887,49.951,49.951,0,0,1-14.924,6.346,47.982,47.982,0,0,1-8.046,1.282c-2.719.221-5.431.174-8.124.185l-16.2.042-16.2-.041c-2.694-.011-5.4.034-8.124-.176a48.42,48.42,0,0,1-8.05-1.262,49.741,49.741,0,0,1-14.94-6.31,51.922,51.922,0,0,1-6.45-4.93,51.037,51.037,0,0,1-5.513-5.935,49.483,49.483,0,0,0,27.065,16.489,52.8,52.8,0,0,0,7.945,1.159c2.666.193,5.362.135,8.066.132l16.2-.041,16.2.042c2.7,0,5.4.063,8.065-.142a52.118,52.118,0,0,0,7.943-1.176A49.547,49.547,0,0,0,2248.065,1770.946Z" transform="translate(-2129.557 -1646.807)" fill="#fff"/>
        <path id="Path_39446" data-name="Path 39446" d="M2182.088,1528.1a70.592,70.592,0,0,1,7.85-3.535,72.009,72.009,0,0,1,50.745.029,70.981,70.981,0,0,1,7.844,3.549,83.422,83.422,0,0,0-16.242-5.418,80.484,80.484,0,0,0-33.944-.011A82.781,82.781,0,0,0,2182.088,1528.1Z" transform="translate(-2156.102 -1519.997)" fill="#fff"/>
      </g>
      <path id="Path_39454" data-name="Path 39454" d="M2234.25,1548.542l4.565,9.249,10.207,1.483-7.385,7.2,1.743,10.166-9.129-4.8-9.129,4.8,1.743-10.166-7.385-7.2,10.207-1.483Z" transform="translate(-2058.249 -1383.438)" fill="#262626"/>
      <path id="Path_39462" data-name="Path 39462" d="M2234.25,1548.542l4.565,9.249,10.207,1.483-7.385,7.2,1.743,10.166-9.129-4.8-9.129,4.8,1.743-10.166-7.385-7.2,10.207-1.483Z" transform="translate(-2024.329 -1383.438)" fill="#262626"/>
    </g>
    <text id="Level_" data-name="Level " transform="translate(1130 527)" fill="#262626" font-size="36" font-family="Montserrat-ExtraBold, Montserrat" font-weight="800"><tspan x="0" y="0">LEVEL </tspan></text>
  </g>
</svg>
