<svg xmlns="http://www.w3.org/2000/svg" xmlns:xlink="http://www.w3.org/1999/xlink" width="24.676" height="45.772" viewBox="0 0 24.676 45.772">
  <defs>
    <linearGradient id="linear-gradient" x1="1.293" y1="-0.526" x2="0.231" y2="0.916" gradientUnits="objectBoundingBox">
      <stop offset="0.009" stop-color="#2e3d21"/>
      <stop offset="0.166" stop-color="#417323"/>
      <stop offset="0.36" stop-color="#417323"/>
      <stop offset="0.536" stop-color="#375922"/>
      <stop offset="0.667" stop-color="#334c22"/>
      <stop offset="0.795" stop-color="#1f370a"/>
      <stop offset="0.886" stop-color="#162e00"/>
      <stop offset="0.916" stop-color="#223a0e"/>
      <stop offset="0.942" stop-color="#284015"/>
      <stop offset="0.949" stop-color="#1f3210"/>
      <stop offset="0.966" stop-color="#0e1607"/>
      <stop offset="0.981" stop-color="#030501"/>
      <stop offset="0.992"/>
    </linearGradient>
    <linearGradient id="linear-gradient-2" x1="0.214" y1="-0.29" x2="0.823" y2="0.773" gradientUnits="objectBoundingBox">
      <stop offset="0" stop-color="#ecff17"/>
      <stop offset="0.542" stop-color="#81b900"/>
      <stop offset="0.899" stop-color="#63b900"/>
    </linearGradient>
    <linearGradient id="linear-gradient-3" x1="-0.061" y1="-0.246" x2="0.869" y2="0.804" gradientUnits="objectBoundingBox">
      <stop offset="0" stop-color="#ecff17"/>
      <stop offset="0.542" stop-color="#81b900"/>
      <stop offset="0.899" stop-color="#6dba2b"/>
    </linearGradient>
    <linearGradient id="linear-gradient-4" x1="0.208" y1="-0.04" x2="0.925" y2="0.825" gradientUnits="objectBoundingBox">
      <stop offset="0" stop-color="#ecff17"/>
      <stop offset="1" stop-color="#81b900"/>
    </linearGradient>
  </defs>
  <g id="_1" data-name="1" transform="translate(-52.464 -41.556)">
    <path id="Path_40443" data-name="Path 40443" d="M75.24,46.934a6.435,6.435,0,0,0-1.891.335,40.951,40.951,0,0,0-6.361,4.787c-.835.713-1.623,1.386-2.351,1.959-.22.2-.447.4-.695.6-.2.165-.42.343-.656.528-1.622,1.286-3.852,3.047-3.7,5.08A6.224,6.224,0,0,0,62.051,64.4l-.032-.019,2.561,1.748a2.7,2.7,0,0,0,1.5.519h.011a1.979,1.979,0,0,0,.221-.012,4.523,4.523,0,0,0,2.344-1.18c-.1.993-.191,1.98-.3,2.957-.224,2.116-.527,4.273-.823,6.356-.389,2.761-.791,5.62-1.015,8.448l-.015.153c-.146,1.751-.338,4.109,1.387,5.28l-.006,0,.011.007c.089.06.183.117.282.171a3.111,3.111,0,0,1-.276-.167l2.545,1.736a3.187,3.187,0,0,0,.37.218,6.513,6.513,0,0,0,2.886.559h.084c.476,0,.958-.022,1.415-.045l.829-.035a4.715,4.715,0,0,0,3.454-1.382,4.248,4.248,0,0,0,.357-.438l.02-.024.035-.061c.073-.105.146-.21.21-.323l.068-.123.054-.124.069-.12-.013-.009h0l.013.009c.056-.117.094-.246.143-.368s.109-.26.154-.4l.039-.1c.071-.228.128-.463.18-.7l.031-.163c.022-.114.047-.227.066-.342s.023-.205.036-.307c.024-.175.045-.35.063-.528s.03-.356.041-.536c.005-.091.017-.182.02-.274l0-.082c0-.077,0-.155,0-.233l.008-.168c0-.069,0-.135,0-.2.005-.441,0-.88-.013-1.311-.027-.874-.039-1.752-.045-2.63,0-.255,0-.509,0-.763q0-1.012.016-2.025c0-.222.005-.444.01-.667q.026-1.281.071-2.562l.008-.194q.044-1.208.1-2.41c.013-.256.024-.512.037-.766q.048-.973.1-1.943c.013-.235.024-.472.038-.706q.067-1.226.137-2.443l.031-.524c.055-.949.164-1.978.272-3.073.039-.39.079-.787.117-1.188.017-.169.03-.339.046-.509.021-.244.045-.487.065-.733.015-.181.024-.364.037-.546.017-.238.036-.476.049-.716.01-.187.015-.374.025-.562.01-.236.02-.473.026-.709l0-.13c.007-.322.007-.644,0-.964l-.006-.165c-.005-.314-.019-.627-.039-.938-.006-.109-.015-.219-.023-.329-.022-.283-.049-.565-.085-.844-.011-.087-.018-.175-.031-.262l-.012-.107q-.075-.508-.18-1c-.065-.2-.145-.413-.236-.642L81.6,51.7c-.077-.189-.168-.386-.266-.583l-.085-.161c-.091-.173-.194-.343-.3-.512l-.087-.132a4.385,4.385,0,0,0-.407-.5l-.1-.106a3.843,3.843,0,0,0-.508-.416L77.28,47.54l.062.043a3.526,3.526,0,0,0-2.08-.649Z" transform="translate(-5.081 -3.842)" fill="#b4b4b4" style="mix-blend-mode: multiply;isolation: isolate"/>
    <path id="Path_40444" data-name="Path 40444" d="M76.81,55.194c.015-.181.025-.364.038-.546.017-.239.035-.476.049-.716.01-.187.015-.374.025-.562.01-.236.02-.473.026-.709,0-.044,0-.087,0-.131.006-.322.006-.644,0-.964,0-.055,0-.11-.005-.165-.006-.314-.019-.627-.039-.938-.006-.11-.015-.219-.023-.329q-.033-.425-.084-.844c-.011-.087-.019-.176-.031-.263-.005-.035-.008-.071-.012-.106q-.075-.509-.18-1.005c-.066-.2-.145-.413-.236-.642l-.007-.02c-.077-.189-.168-.386-.266-.583-.027-.054-.057-.107-.085-.161q-.138-.26-.3-.512c-.03-.044-.055-.089-.087-.132a4.361,4.361,0,0,0-.407-.5l-.1-.106a3.827,3.827,0,0,0-.507-.417l-2.561-1.748a3.694,3.694,0,0,1,.507.417,4.427,4.427,0,0,1,.512.608c.03.043.056.088.085.132.017.025.031.052.047.077l-1.36-.929a3.015,3.015,0,0,0-.862-.406l-.019-.007c-.057-.016-.117-.023-.176-.036a3.542,3.542,0,0,0-.756-.09,6.129,6.129,0,0,0-1.731.282,23.927,23.927,0,0,0-3.308,2.266l.318.217c-1.048.819-2.092,1.707-3.068,2.544-.842.713-1.637,1.392-2.358,1.966-.213.192-.448.4-.695.6-.207.172-.434.35-.675.541l-.311.246-.121.1-.223.18-.138.113c-.074.061-.148.122-.222.185l-.128.108c-.113.1-.226.2-.337.295l-.042.04c-.1.089-.194.177-.288.268l-.108.107c-.072.071-.144.143-.213.216l-.109.116c-.071.077-.139.154-.2.232-.029.033-.058.066-.085.1-.092.111-.179.222-.259.335l0,.006-.006.009a4.256,4.256,0,0,0-.359.6.1.1,0,0,1-.008.013c-.009.019-.014.039-.023.057-.042.094-.08.189-.112.283-.006.019-.016.037-.022.056s-.011.054-.018.08c-.016.056-.029.112-.04.169,0,.023-.013.047-.017.071s0,.051-.007.077c-.006.049-.01.1-.013.146,0,.023-.006.045-.006.069l0,.173c0,.065.012.133.022.2.006.038.019.081.027.121.015.086.034.172.057.261s.041.151.065.229.061.183.1.277c.017.045.028.088.046.134s.035.073.051.11c.035.081.072.16.111.241s.084.17.129.255.088.159.135.238.1.165.154.245.1.152.156.225.115.154.175.229.113.137.172.2c.031.035.059.074.091.107s.09.086.134.129.071.07.107.1a3.581,3.581,0,0,0,.367.3L58.725,60.4c-.08.015-.16.033-.241.043a2.1,2.1,0,0,1-.231.011,2.7,2.7,0,0,1-1.5-.519l2.561,1.748a2.7,2.7,0,0,0,1.5.519,1.977,1.977,0,0,0,.231-.012,5.625,5.625,0,0,0,3.164-1.962c-.016.171-.035.346-.051.517-.109,1.108-.218,2.21-.333,3.3-.224,2.13-.528,4.293-.825,6.383-.382,2.747-.785,5.594-1.014,8.4l-.008.153c-.017.213-.034.432-.05.654,0,.071-.006.143-.01.215-.01.155-.017.31-.021.466,0,.024,0,.047,0,.071,0,.1,0,.206,0,.31,0,.085,0,.17,0,.255.006.145.02.287.035.428.007.063.009.127.017.188a.2.2,0,0,0,0,.022,4.462,4.462,0,0,0,.11.524c.013.047.032.093.046.139.026.084.049.169.081.248.017.042.043.08.062.121.026.056.053.11.084.164a2.3,2.3,0,0,0,.207.314c.033.044.064.089.1.131.017.018.029.039.045.057a2.231,2.231,0,0,0,.362.306l.006.006.005,0,0,0,1.686,1.151.265.181a5.488,5.488,0,0,1-2.019-.516,3.569,3.569,0,0,1-.369-.218l2.561,1.748a3.34,3.34,0,0,0,.37.218,6.527,6.527,0,0,0,2.887.56c.5,0,1.014-.021,1.5-.045l.829-.035a4.721,4.721,0,0,0,3.454-1.384,4.473,4.473,0,0,0,.357-.437c.006-.009.013-.016.019-.025s.022-.042.036-.061c.073-.105.145-.211.21-.322l.069-.123c.021-.039.033-.084.053-.123s.049-.077.07-.12l-.013-.009h0l.013.009c.056-.117.094-.246.143-.368s.109-.26.154-.4c.011-.036.029-.068.039-.1.07-.227.128-.463.18-.7.012-.053.021-.108.032-.163.022-.114.047-.226.066-.342.016-.1.022-.2.035-.305.024-.176.045-.351.063-.53s.03-.356.04-.535c.005-.092.017-.182.021-.274l0-.083c0-.078,0-.155,0-.233,0-.057.007-.112.008-.168s0-.136,0-.2c0-.44,0-.88-.013-1.311-.027-.875-.039-1.752-.045-2.631,0-.254,0-.508,0-.762q0-1.012.017-2.026c0-.222.006-.444.01-.666q.027-1.282.071-2.563c0-.063.007-.125.008-.187q.044-1.21.1-2.419c.013-.253.024-.508.038-.761q.048-.975.1-1.947c.013-.234.024-.469.038-.7q.067-1.227.137-2.445l.031-.524c.055-.949.164-1.978.272-3.073.038-.39.079-.787.117-1.188.016-.168.029-.339.045-.509C76.767,55.683,76.79,55.441,76.81,55.194Z" transform="translate(-1.849 -0.932)" fill="url(#linear-gradient)"/>
    <path id="Path_40445" data-name="Path 40445" d="M73.308,47.276a5.632,5.632,0,0,0-1.3-2.324,2.743,2.743,0,0,0-2-.814,5.639,5.639,0,0,0-1.6.263A22.964,22.964,0,0,0,65.45,46.4c-1.108.857-2.214,1.8-3.246,2.687-.842.713-1.637,1.392-2.358,1.966-.214.192-.448.4-.695.6-.207.172-.434.35-.675.541-1.5,1.181-3.539,2.8-3.42,4.444.109,1.5,1.635,3.982,3.194,3.99l.161-.008c1.626-.177,3.276-2.3,4.6-4.013.415-.542.811-1.051,1.172-1.448l.783-.872-.149,1.168c-.257,2.064-.467,4.167-.664,6.2-.109,1.108-.218,2.21-.333,3.3-.224,2.13-.528,4.293-.825,6.383-.382,2.747-.785,5.594-1.014,8.4l-.008.153c-.141,1.751-.319,3.929,1.351,4.781a5.659,5.659,0,0,0,2.555.479c.491,0,.981-.021,1.46-.045l.646-.027.2-.009a3.949,3.949,0,0,0,2.935-1.152c1.358-1.441,1.467-4.044,1.388-6.4-.177-5.711.152-11.54.48-17.169l.024-.524c.055-.969.163-2,.272-3.106C73.59,53.672,73.939,50.214,73.308,47.276Z" transform="translate(-1.848 -1.845)" fill="url(#linear-gradient-2)"/>
    <path id="Path_40446" data-name="Path 40446" d="M96.017,44.138a2.743,2.743,0,0,1,2,.814,5.632,5.632,0,0,1,1.3,2.324c.631,2.938.283,6.4-.022,9.443-.11,1.1-.218,2.137-.272,3.106L99,60.349c-.327,5.629-.656,11.458-.48,17.169.079,2.357-.03,4.96-1.388,6.4a3.949,3.949,0,0,1-2.935,1.152l-.2.009a177.581,177.581,0,0,0,1.94-29.1c-.09-3.287-.007-7.75-3.547-9.289a4.821,4.821,0,0,0-.933-.293A22.964,22.964,0,0,1,94.413,44.4,5.639,5.639,0,0,1,96.017,44.138Z" transform="translate(-27.855 -1.845)" opacity="0.6" fill="url(#linear-gradient-3)" style="mix-blend-mode: multiply;isolation: isolate"/>
    <path id="Path_40447" data-name="Path 40447" d="M72.171,45.236a6.707,6.707,0,0,0-1.5-2.657,3.516,3.516,0,0,0-2.525-1.023,6.378,6.378,0,0,0-1.913.335,40.951,40.951,0,0,0-6.361,4.787c-.835.713-1.623,1.386-2.351,1.96-.221.2-.448.4-.695.6-.2.165-.421.343-.655.528-1.623,1.286-3.853,3.047-3.7,5.08.131,1.842,1.949,4.665,3.933,4.675a2.1,2.1,0,0,0,.231-.011c1.939-.215,3.7-2.477,5.11-4.3.12-.152.234-.3.349-.45-.194,1.672-.36,3.345-.52,4.978-.11,1.108-.212,2.2-.328,3.292-.224,2.117-.528,4.273-.823,6.357-.389,2.76-.791,5.62-1.015,8.448l-.015.152c-.155,1.865-.363,4.42,1.75,5.495a6.546,6.546,0,0,0,2.886.56c.5,0,1.015-.021,1.5-.045l.829-.036a4.718,4.718,0,0,0,3.454-1.382c1.54-1.639,1.67-4.427,1.585-6.931-.176-5.684.153-11.493.473-17.109l.031-.524c.055-.949.163-1.978.272-3.072C72.485,51.845,72.833,48.327,72.171,45.236ZM65.5,83.263c-.478.023-.969.047-1.46.045a5.659,5.659,0,0,1-2.555-.479c-1.671-.852-1.492-3.029-1.351-4.781l.008-.153c.229-2.807.632-5.654,1.014-8.4.3-2.09.6-4.253.825-6.383.115-1.088.224-2.19.333-3.3.2-2.038.407-4.141.664-6.2l.149-1.168-.783.872c-.361.4-.757.906-1.172,1.448-1.328,1.713-2.978,3.836-4.6,4.013l-.16.008c-1.559-.008-3.086-2.494-3.195-3.99-.119-1.641,1.925-3.263,3.42-4.444.241-.191.468-.369.675-.541.247-.2.481-.409.695-.6.721-.573,1.516-1.253,2.358-1.966,1.032-.884,2.137-1.831,3.246-2.687a22.963,22.963,0,0,1,2.956-1.994,5.639,5.639,0,0,1,1.6-.263,2.743,2.743,0,0,1,2,.814,5.632,5.632,0,0,1,1.3,2.324c.631,2.938.283,6.4-.022,9.443-.11,1.1-.218,2.137-.272,3.106l-.024.524c-.327,5.629-.656,11.458-.48,17.169.079,2.357-.03,4.96-1.388,6.4a3.949,3.949,0,0,1-2.935,1.152l-.2.009Z" fill="url(#linear-gradient-4)"/>
  </g>
</svg>
