<svg xmlns="http://www.w3.org/2000/svg" xmlns:xlink="http://www.w3.org/1999/xlink" width="61.953" height="49.443" viewBox="0 0 61.953 49.443">
  <defs>
    <linearGradient id="linear-gradient" x1="1.293" y1="-0.526" x2="0.231" y2="0.916" gradientUnits="objectBoundingBox">
      <stop offset="0.009" stop-color="#2e3d21"/>
      <stop offset="0.166" stop-color="#417323"/>
      <stop offset="0.36" stop-color="#417323"/>
      <stop offset="0.536" stop-color="#375922"/>
      <stop offset="0.667" stop-color="#334c22"/>
      <stop offset="0.795" stop-color="#1f370a"/>
      <stop offset="0.886" stop-color="#162e00"/>
      <stop offset="0.916" stop-color="#223a0e"/>
      <stop offset="0.942" stop-color="#284015"/>
      <stop offset="0.949" stop-color="#1f3210"/>
      <stop offset="0.966" stop-color="#0e1607"/>
      <stop offset="0.981" stop-color="#030501"/>
      <stop offset="0.992"/>
    </linearGradient>
    <linearGradient id="linear-gradient-2" x1="0.214" y1="-0.29" x2="0.823" y2="0.773" gradientUnits="objectBoundingBox">
      <stop offset="0" stop-color="#ecff17"/>
      <stop offset="0.542" stop-color="#81b900"/>
      <stop offset="0.899" stop-color="#63b900"/>
    </linearGradient>
    <linearGradient id="linear-gradient-3" x1="-0.061" y1="-0.246" x2="0.869" y2="0.804" gradientUnits="objectBoundingBox">
      <stop offset="0" stop-color="#ecff17"/>
      <stop offset="0.542" stop-color="#81b900"/>
      <stop offset="0.899" stop-color="#6dba2b"/>
    </linearGradient>
    <linearGradient id="linear-gradient-4" x1="0.208" y1="-0.04" x2="0.925" y2="0.825" gradientUnits="objectBoundingBox">
      <stop offset="0" stop-color="#ecff17"/>
      <stop offset="1" stop-color="#81b900"/>
    </linearGradient>
    <linearGradient id="linear-gradient-5" x1="-0.098" y1="1.626" x2="0.294" y2="1.293" gradientUnits="objectBoundingBox">
      <stop offset="0" stop-color="#5d9e02"/>
      <stop offset="0.141" stop-color="#580a00"/>
      <stop offset="0.934"/>
      <stop offset="1"/>
    </linearGradient>
    <linearGradient id="linear-gradient-6" x1="0.842" y1="1.361" x2="0.376" y2="0.971" gradientUnits="objectBoundingBox">
      <stop offset="0" stop-color="#75b303"/>
      <stop offset="0.141" stop-color="#580a00"/>
      <stop offset="0.934"/>
      <stop offset="1"/>
    </linearGradient>
    <linearGradient id="linear-gradient-7" x1="0.723" y1="0.645" x2="0.95" y2="0.861" gradientUnits="objectBoundingBox">
      <stop offset="0" stop-color="#72b900"/>
      <stop offset="1" stop-color="#77b104"/>
      <stop offset="1" stop-color="#970000"/>
    </linearGradient>
  </defs>
  <g id="_10" data-name="10" transform="translate(-2735.052 -7227)">
    <g id="Group_28808" data-name="Group 28808" transform="translate(2682.588 7185.444)">
      <g id="Group_28805" data-name="Group 28805" transform="translate(52.464 41.556)">
        <path id="Path_40730" data-name="Path 40730" d="M76.5,46.934a6.951,6.951,0,0,0-2.043.362,44.235,44.235,0,0,0-6.871,5.171c-.9.77-1.754,1.5-2.54,2.117-.238.221-.483.435-.75.649-.217.178-.454.371-.708.57-1.752,1.39-4.161,3.292-4,5.488A6.723,6.723,0,0,0,62.25,65.8l-.034-.021,2.767,1.888a2.921,2.921,0,0,0,1.617.56h.011a2.138,2.138,0,0,0,.238-.013,4.886,4.886,0,0,0,2.532-1.275c-.106,1.072-.206,2.138-.319,3.195-.242,2.286-.57,4.616-.889,6.866-.42,2.983-.855,6.071-1.1,9.125l-.016.165c-.157,1.891-.366,4.438,1.5,5.7l-.007,0,.012.008c.1.065.2.127.3.185a3.359,3.359,0,0,1-.3-.18l2.749,1.876a3.442,3.442,0,0,0,.4.235,7.035,7.035,0,0,0,3.118.6h.091c.515,0,1.035-.024,1.528-.048.309-.012.609-.025.9-.038a5.093,5.093,0,0,0,3.731-1.493,4.589,4.589,0,0,0,.386-.473l.021-.026.038-.066c.079-.114.157-.227.227-.349l.074-.133.058-.134.075-.129-.015-.009h0l.015.01c.06-.126.1-.265.154-.4s.118-.281.166-.429l.042-.111c.076-.247.138-.5.194-.759l.034-.176c.024-.123.051-.245.072-.37.018-.109.024-.222.039-.332.026-.189.049-.378.068-.571s.033-.385.044-.579c.006-.1.018-.2.022-.3l0-.089c0-.084,0-.168,0-.252l.009-.181c0-.074,0-.146,0-.22.006-.476,0-.951-.014-1.416-.03-.944-.042-1.893-.048-2.841,0-.275,0-.55,0-.824q0-1.094.017-2.188c0-.24.006-.48.01-.721q.028-1.383.076-2.768l.009-.209q.048-1.3.108-2.6c.014-.276.026-.553.04-.827q.051-1.051.107-2.1c.014-.254.026-.51.041-.763q.072-1.324.148-2.639l.033-.566c.06-1.026.177-2.137.294-3.319.042-.421.085-.85.126-1.283.018-.182.033-.367.05-.55.023-.263.048-.526.07-.792.016-.2.026-.393.04-.59.019-.258.039-.514.053-.773.011-.2.017-.4.027-.607.01-.255.022-.511.028-.766l.005-.141c.007-.348.007-.7,0-1.042l-.006-.178c-.006-.339-.02-.677-.042-1.014-.007-.118-.016-.236-.025-.355-.024-.306-.053-.61-.091-.912-.011-.094-.019-.189-.033-.283l-.013-.115q-.081-.549-.194-1.085c-.071-.211-.156-.446-.255-.693l-.007-.021c-.083-.2-.181-.417-.287-.63l-.092-.174c-.1-.187-.209-.371-.329-.553l-.094-.142a4.735,4.735,0,0,0-.439-.542l-.111-.115a4.151,4.151,0,0,0-.548-.45L78.7,47.589l.067.047a3.809,3.809,0,0,0-2.247-.7Z" transform="translate(-57.382 -45.275)" fill="#b4b4b4" style="mix-blend-mode: multiply;isolation: isolate"/>
        <path id="Path_40731" data-name="Path 40731" d="M78.555,56.183c.016-.2.027-.393.041-.59.018-.258.038-.515.053-.773.01-.2.017-.4.027-.607.01-.255.022-.511.028-.766,0-.047,0-.094.005-.141.007-.348.007-.7,0-1.041,0-.06,0-.118-.006-.178-.006-.339-.021-.677-.042-1.014-.007-.119-.016-.237-.025-.355q-.035-.459-.09-.912c-.012-.094-.02-.19-.034-.284-.006-.038-.009-.077-.013-.115q-.081-.549-.194-1.086c-.071-.211-.156-.446-.255-.693l-.008-.022c-.083-.2-.181-.417-.287-.63-.029-.059-.061-.115-.092-.174q-.149-.281-.329-.553c-.032-.048-.06-.1-.093-.143a4.711,4.711,0,0,0-.439-.542l-.112-.114a4.134,4.134,0,0,0-.548-.45l-2.767-1.888a3.992,3.992,0,0,1,.547.45,4.784,4.784,0,0,1,.553.657c.032.046.06.095.091.142.019.027.033.056.051.084l-1.47-1A3.257,3.257,0,0,0,72.219,43L72.2,43c-.062-.018-.127-.025-.19-.039a3.826,3.826,0,0,0-.817-.1,6.621,6.621,0,0,0-1.87.3,25.846,25.846,0,0,0-3.574,2.448l.344.235c-1.132.885-2.26,1.844-3.314,2.748-.91.77-1.768,1.5-2.548,2.123-.23.207-.483.428-.75.649-.223.185-.469.378-.729.584l-.336.266-.131.1-.241.195-.149.122c-.08.065-.16.132-.24.2l-.138.117c-.122.1-.244.211-.364.318l-.046.043c-.105.1-.209.192-.311.289-.039.038-.078.076-.117.115-.078.077-.155.154-.23.233l-.118.125c-.076.083-.15.167-.221.25-.031.036-.063.072-.092.108-.1.119-.193.24-.28.362l0,.006-.006.01a4.6,4.6,0,0,0-.388.649.108.108,0,0,1-.008.014c-.009.021-.015.042-.024.062-.046.1-.087.2-.121.306-.006.02-.017.04-.024.06s-.012.058-.02.086c-.017.061-.031.121-.044.182,0,.025-.014.051-.018.076s0,.056-.008.083c-.006.053-.011.105-.014.158,0,.025-.006.049-.007.074l0,.186c.005.07.013.143.024.218.006.041.02.088.029.131.017.093.037.186.062.282s.044.164.07.248.066.2.1.3c.018.048.03.1.05.144s.037.079.055.119c.037.087.078.173.12.26s.09.184.14.276.1.172.146.257.108.178.166.265.11.164.169.243.124.167.189.247.122.148.185.219c.034.037.064.08.1.116s.1.093.145.139.076.076.116.111a3.868,3.868,0,0,0,.4.319l1.7,1.16c-.086.017-.172.036-.26.046a2.268,2.268,0,0,1-.25.012,2.915,2.915,0,0,1-1.617-.56l2.766,1.888a2.915,2.915,0,0,0,1.618.56,2.135,2.135,0,0,0,.25-.013,6.076,6.076,0,0,0,3.417-2.119c-.017.185-.038.374-.056.558-.118,1.2-.236,2.387-.36,3.563-.242,2.3-.571,4.638-.891,6.9-.413,2.968-.848,6.043-1.1,9.075l-.009.165c-.018.23-.037.467-.054.707,0,.077-.006.154-.01.232-.01.168-.019.335-.023.5,0,.026,0,.051,0,.077,0,.112,0,.222,0,.335,0,.092,0,.184,0,.276.006.156.022.31.038.463.007.068.01.137.019.2a.212.212,0,0,0,0,.023,4.818,4.818,0,0,0,.119.566c.014.051.034.1.049.15.028.09.053.182.087.268.019.046.046.086.067.131.028.061.057.119.091.177a2.488,2.488,0,0,0,.224.339c.035.048.069.1.108.141.018.019.031.043.048.062a2.41,2.41,0,0,0,.391.33l.006.006.006,0,0,0,1.821,1.243.287.2a5.928,5.928,0,0,1-2.181-.558,3.852,3.852,0,0,1-.4-.235L66,89.4a3.61,3.61,0,0,0,.4.236,7.05,7.05,0,0,0,3.118.6c.544,0,1.1-.023,1.619-.049l.9-.037a5.1,5.1,0,0,0,3.731-1.495,4.832,4.832,0,0,0,.386-.472c.007-.009.014-.017.021-.027s.024-.045.039-.065c.078-.114.157-.227.226-.348l.074-.133c.023-.042.036-.091.057-.133s.053-.083.076-.13l-.014-.01h0l.014.01c.06-.127.1-.266.154-.4s.118-.28.166-.429c.012-.039.031-.073.042-.112.076-.245.139-.5.194-.759.013-.057.022-.116.034-.176.024-.123.051-.244.072-.37.017-.108.024-.22.038-.33.026-.19.049-.379.068-.573s.032-.384.044-.578c.006-.1.018-.2.022-.3l0-.089c0-.084,0-.168,0-.251,0-.061.008-.121.009-.182s0-.147,0-.22c0-.476,0-.951-.014-1.416-.03-.945-.042-1.893-.048-2.842,0-.274,0-.549,0-.823q0-1.093.018-2.188c0-.24.006-.48.01-.719q.029-1.385.076-2.768c0-.068.007-.135.009-.2q.047-1.307.109-2.613c.014-.274.026-.548.041-.823q.051-1.053.107-2.1c.014-.253.026-.507.041-.76q.072-1.325.148-2.641l.033-.566c.06-1.026.177-2.137.294-3.319.041-.421.085-.85.127-1.283.017-.182.031-.366.049-.55C78.509,56.712,78.534,56.449,78.555,56.183Z" transform="translate(-54.254 -42.458)" fill="url(#linear-gradient)"/>
        <path id="Path_40732" data-name="Path 40732" d="M74.772,47.528a6.084,6.084,0,0,0-1.4-2.511,2.963,2.963,0,0,0-2.159-.879,6.091,6.091,0,0,0-1.733.284,24.8,24.8,0,0,0-3.193,2.154c-1.2.925-2.391,1.948-3.506,2.9-.91.77-1.768,1.5-2.548,2.123-.231.207-.483.429-.75.649-.223.185-.469.378-.729.584-1.615,1.276-3.823,3.028-3.694,4.8.117,1.616,1.766,4.3,3.45,4.31l.173-.009c1.756-.191,3.538-2.484,4.973-4.335.448-.586.876-1.136,1.266-1.564l.846-.942-.16,1.262c-.277,2.23-.5,4.5-.717,6.7-.118,1.2-.236,2.387-.36,3.563-.242,2.3-.571,4.637-.891,6.9-.413,2.968-.848,6.043-1.1,9.075l-.009.165c-.152,1.892-.345,4.244,1.46,5.164a6.112,6.112,0,0,0,2.76.517c.53,0,1.06-.023,1.577-.048l.7-.03.212-.009a4.265,4.265,0,0,0,3.17-1.245c1.467-1.556,1.585-4.368,1.5-6.914-.191-6.169.164-12.465.518-18.546l.026-.566c.059-1.047.176-2.165.294-3.355C75.077,54.437,75.453,50.7,74.772,47.528Z" transform="translate(-54.253 -43.341)" fill="url(#linear-gradient-2)"/>
        <path id="Path_40733" data-name="Path 40733" d="M96.382,44.138a2.963,2.963,0,0,1,2.159.879,6.084,6.084,0,0,1,1.4,2.511c.682,3.174.305,6.909-.023,10.2-.118,1.19-.235,2.308-.294,3.355l-.026.566c-.354,6.081-.709,12.377-.518,18.546.085,2.546-.032,5.358-1.5,6.914a4.265,4.265,0,0,1-3.17,1.245l-.212.009a191.822,191.822,0,0,0,2.1-31.437c-.1-3.551-.007-8.371-3.832-10.034a5.208,5.208,0,0,0-1.008-.316,24.8,24.8,0,0,1,3.193-2.154A6.091,6.091,0,0,1,96.382,44.138Z" transform="translate(-79.427 -43.341)" opacity="0.6" fill="url(#linear-gradient-3)" style="mix-blend-mode: multiply;isolation: isolate"/>
        <path id="Path_40734" data-name="Path 40734" d="M73.751,45.531a7.245,7.245,0,0,0-1.616-2.87,3.8,3.8,0,0,0-2.727-1.105,6.89,6.89,0,0,0-2.066.362,44.235,44.235,0,0,0-6.871,5.171c-.9.77-1.754,1.5-2.54,2.117-.238.221-.484.435-.75.649-.217.178-.455.37-.707.57-1.753,1.389-4.162,3.292-4,5.487.141,1.989,2.106,5.039,4.249,5.05a2.267,2.267,0,0,0,.25-.012c2.094-.233,3.991-2.676,5.52-4.64.13-.164.253-.329.377-.486-.209,1.806-.389,3.613-.562,5.377-.118,1.2-.229,2.38-.354,3.556-.242,2.287-.57,4.615-.889,6.866-.42,2.982-.855,6.071-1.1,9.125l-.016.164c-.168,2.015-.392,4.775,1.89,5.935a7.071,7.071,0,0,0,3.118.6c.545,0,1.1-.023,1.62-.048l.9-.039A5.1,5.1,0,0,0,71.2,85.872c1.664-1.77,1.8-4.783,1.713-7.487-.19-6.14.165-12.415.511-18.481l.033-.566c.059-1.026.176-2.136.294-3.319C74.091,52.67,74.467,48.87,73.751,45.531Zm-7.21,41.076c-.516.025-1.046.051-1.577.048a6.112,6.112,0,0,1-2.76-.517c-1.8-.92-1.611-3.272-1.46-5.164l.009-.165c.248-3.032.682-6.108,1.1-9.075.32-2.258.649-4.594.891-6.9.124-1.175.242-2.366.36-3.563.213-2.2.44-4.473.717-6.7l.16-1.262-.846.942c-.39.429-.818.979-1.266,1.564-1.435,1.851-3.217,4.143-4.973,4.335l-.173.009c-1.684-.009-3.333-2.694-3.451-4.31-.128-1.773,2.079-3.525,3.695-4.8.26-.206.505-.4.729-.584.267-.221.52-.442.75-.649.779-.619,1.638-1.354,2.548-2.123,1.115-.955,2.309-1.978,3.506-2.9a24.8,24.8,0,0,1,3.193-2.154,6.091,6.091,0,0,1,1.733-.284,2.963,2.963,0,0,1,2.159.879,6.084,6.084,0,0,1,1.4,2.511c.682,3.174.305,6.909-.023,10.2-.118,1.19-.235,2.308-.294,3.355l-.026.566c-.354,6.081-.709,12.377-.518,18.546.085,2.546-.032,5.358-1.5,6.914a4.265,4.265,0,0,1-3.17,1.245l-.212.009Z" transform="translate(-52.464 -41.556)" fill="url(#linear-gradient-4)"/>
      </g>
      <g id="Group_28807" data-name="Group 28807" transform="translate(79.119 46.991)">
        <path id="Path_40735" data-name="Path 40735" d="M706.6,273.319l.011.008-.011-.008Zm2.72,1.425c-.223-.088-.446-.176-.665-.276.208.094.422.173.634.258l.031.019Zm4.876-8.251h-.03a6.3,6.3,0,0,1-2.427-.553l-.138-.134c-.137-.145-.259-.3-.38-.457-.063-.079-.132-.153-.19-.234a6.28,6.28,0,0,1-.462-.749c-.2-.383-.372-.772-.533-1.162-.081-.193-.158-.389-.23-.585-.033-.093-.07-.186-.1-.278-.106-.307-.2-.614-.287-.923l-.018-.076c-.076-.284-.141-.566-.2-.851-.021-.1-.037-.206-.055-.31-.035-.2-.066-.393-.091-.589s-.043-.378-.059-.567c-.014-.156-.029-.312-.038-.468-.01-.189-.011-.379-.012-.567,0-.15,0-.3,0-.446.01-.382.033-.762.078-1.14.05-.424.109-.824.171-1.207s.131-.726.205-1.062l.023-.123c.084-.372.178-.72.278-1.05.094-.3.194-.594.3-.865.068-.172.144-.344.226-.516l.042-.082c.1-.21.213-.418.332-.624l.082-.142q.2-.332.423-.654l.093-.128q.184-.253.382-.5l.108-.131c.161-.19.328-.375.5-.552l.1-.092q.227-.223.465-.427l.136-.116c.188-.155.382-.3.58-.436l.086-.054q.263-.172.536-.315l.157-.082a5.673,5.673,0,0,1,.635-.272l.058-.016a4.765,4.765,0,0,1,.6-.156l.173-.031a4.208,4.208,0,0,1,.651-.057h.019a4.271,4.271,0,0,1,1,.142,12.392,12.392,0,0,1,1.712,3.2c1.7,4.4,1.949,12.208-2,15.416a4.458,4.458,0,0,1-2.9,1.016ZM724.559,238.8l-.035-.024c-.152-.167-.3-.332-.462-.488.079.078.163.148.241.229s.172.189.256.284Zm-.909-.9c-.19-.171-.385-.333-.584-.489.079.062.162.118.239.182s.132.11.2.166l.148.141Zm-8.835-3.018a16.143,16.143,0,0,0-3.324.32c-5.518,1.174-9.842,5.368-11.867,11.491a28.145,28.145,0,0,0,2.058,21.138,16.083,16.083,0,0,0,5.229,5.683c-.1-.064-.2-.118-.3-.184L709.057,275a13.658,13.658,0,0,0,4.767,2.062c.267.06.534.111.8.156.087.014.171.024.257.037.181.028.361.054.54.075l.053.007c.176.02.35.033.524.044l.119.011h.015q.36.022.712.024h.036c.381,0,.751-.021,1.115-.053l.264-.025c.367-.04.73-.092,1.08-.163l.02,0,.06-.012.114-.03q.461-.1.9-.241l.139-.037.091-.035c.3-.1.6-.212.893-.337l.022-.008.05-.025a11.257,11.257,0,0,0,1.092-.552l.1-.051c.347-.2.681-.426,1.005-.662l.154-.111c.313-.234.614-.483.906-.745l.154-.141c.289-.267.57-.545.839-.837l.046-.046.013-.015.084-.093.013-.014.089-.106c.186-.212.367-.428.543-.65l.081-.1q.25-.32.488-.653l.05-.079c.3-.429.584-.875.854-1.333.054-.093.108-.187.161-.282.266-.469.522-.947.756-1.438l.011-.021.029-.069c.246-.522.472-1.053.683-1.591.028-.071.057-.14.085-.212.2-.535.389-1.074.559-1.616l.052-.153.036-.132q.272-.9.484-1.795c.021-.088.042-.176.061-.263q.2-.9.35-1.772l.023-.113.019-.148c.086-.54.156-1.072.209-1.591l.017-.189c.051-.541.088-1.072.105-1.579,0-.14.008-.288.011-.444v-.111c0-.078,0-.157,0-.239,0-.15,0-.308,0-.471,0-.08,0-.156,0-.239,0-.246-.008-.5-.016-.769l0-.093q-.012-.362-.033-.747c-.005-.091-.011-.184-.016-.276q-.021-.321-.047-.655c-.009-.1-.015-.191-.024-.289-.027-.3-.057-.612-.095-.928l0-.034q-.048-.422-.111-.855l-.018-.1c-.064-.433-.137-.871-.223-1.317-.012-.068-.03-.138-.044-.207q-.114-.568-.255-1.143c-.036-.149-.077-.3-.116-.445q-.126-.476-.273-.952c-.047-.154-.094-.307-.145-.46q-.179-.542-.389-1.077c-.032-.079-.055-.161-.087-.24l-.025-.057c-.089-.216-.188-.427-.285-.64-.078-.172-.149-.346-.232-.515-.109-.224-.232-.442-.352-.661-.083-.153-.159-.309-.247-.46-.142-.242-.3-.475-.453-.71-.079-.121-.151-.246-.234-.365-.245-.349-.5-.689-.781-1.016q-.243-.286-.5-.554l-.023-.022c-.258-.269-.526-.52-.8-.76-.065-.056-.13-.11-.195-.165-.284-.236-.573-.462-.875-.669l-1.229-.838-1.228-.838c.067.046.128.1.194.149a11.257,11.257,0,0,0-2.171-1.226,14.943,14.943,0,0,0-5.532-.966Z" transform="translate(-696.493 -233.404)" fill="#b4b4b4" style="mix-blend-mode: multiply;isolation: isolate"/>
        <g id="Group_28806" data-name="Group 28806" transform="translate(0.706 0.352)">
          <path id="Path_40736" data-name="Path 40736" d="M717.525,276.15c.018.208.037.417.065.625.008.057.01.114.018.171.02.14.049.279.074.418.02.118.038.236.062.354.056.282.122.563.2.843.012.043.019.085.031.128.087.32.187.639.3.956.038.108.08.216.121.324.056.152.108.3.169.454.017.043.041.084.058.126.172.413.356.824.565,1.23a6.739,6.739,0,0,0,.509.822c.063.087.137.167.2.252.135.172.271.345.423.507.015.016.026.034.041.05.126.132.265.253.4.376.078.071.149.147.23.216a8.8,8.8,0,0,0,.743.57l2.457,1.677a7.611,7.611,0,0,0,4.124,1.395,5.242,5.242,0,0,0,3.388-1.18,7.132,7.132,0,0,0,.726-.685c.1-.105.179-.223.27-.334.116-.142.24-.277.346-.428l.015-.022c.032-.045.059-.094.089-.14q.218-.319.408-.663c.048-.086.093-.175.139-.263s.1-.178.142-.27c.055-.117.1-.24.154-.359.038-.088.078-.175.113-.264.12-.3.232-.606.329-.922h0l.006-.019q.149-.491.263-1c.026-.114.044-.23.067-.345.039-.194.082-.387.114-.584.006-.037.008-.075.014-.113.048-.31.083-.623.115-.939.01-.091.023-.18.031-.271q.052-.619.065-1.244c0-.01,0-.02,0-.03,0-.033,0-.066,0-.1.006-.483-.008-.964-.034-1.443-.007-.124-.013-.247-.022-.37-.036-.5-.086-1-.155-1.483,0-.018,0-.036-.006-.054-.029-.207-.068-.408-.1-.61-.022-.129-.041-.26-.066-.387-.044-.226-.1-.443-.146-.661-.028-.119-.051-.242-.081-.36-.057-.232-.123-.451-.188-.673-.028-.095-.052-.2-.082-.288q-.145-.464-.309-.89c-.041-.107-.083-.212-.125-.316-.022-.055-.046-.1-.069-.154q-.17-.409-.346-.783c-.035-.074-.07-.152-.1-.225q-.224-.451-.456-.849c-.035-.059-.071-.111-.105-.168q-.193-.316-.395-.6c-.045-.064-.091-.127-.137-.188a6.161,6.161,0,0,0-1.4-1.38l-1.214-.828-1.243-.848a4.415,4.415,0,0,0-.9-.477,5.013,5.013,0,0,0-.661-.2l-.121-.029a4.988,4.988,0,0,0-.646-.093c-.016,0-.032-.006-.048-.007-.1-.007-.205-.01-.308-.011-2.276-.012-4.391,1.58-5.812,3.585l.588.4c-.01.013-.021.026-.031.04l-.021.033q-.231.327-.433.667c-.026.044-.051.089-.076.133-.124.215-.239.43-.344.647-.006.014-.015.027-.022.041l-.007.017-.03.065-.589-.4q-.143.3-.264.6-.173.431-.324.916l0,.015q-.157.512-.288,1.087c-.026.113-.046.241-.071.358-.059.283-.118.567-.168.873,0,.021-.008.039-.012.06q-.091.56-.165,1.175c-.047.4-.071.8-.082,1.2,0,.037-.007.073-.007.11,0,.115.007.23.007.346,0,.206,0,.412.015.618C717.5,275.837,717.511,275.993,717.525,276.15Zm11.56-11.268.126.03c.086.021.17.052.255.077.084.1.17.194.252.3.047.061.093.125.138.189q.2.283.4.6l.01.016-1.925-1.314.1.005A4.954,4.954,0,0,1,729.085,264.882Zm-3.228,21.086a7,7,0,0,1-2.795-.653c-.1-.092-.2-.18-.287-.277-.149-.159-.282-.329-.415-.5-.07-.089-.148-.172-.214-.264-.117-.162-.212-.335-.312-.5.1.073.188.151.288.219l2.456,1.677-.005,0,.006,0c-.025-.016-.047-.037-.072-.055-.208-.145-.41-.3-.6-.464-.067-.057-.127-.121-.192-.181-.143-.13-.285-.262-.417-.4s-.25-.293-.369-.444c-.066-.082-.138-.16-.2-.246a6.107,6.107,0,0,1-.461-.748c-.2-.386-.374-.776-.537-1.169-.077-.186-.149-.372-.218-.559-.037-.1-.078-.2-.113-.3-.105-.3-.2-.609-.285-.916-.008-.03-.014-.062-.022-.092q-.11-.416-.194-.834c-.021-.105-.037-.21-.056-.316-.034-.195-.065-.391-.092-.586s-.042-.379-.059-.568c-.014-.156-.029-.312-.037-.468-.01-.19-.012-.379-.013-.568,0-.149,0-.3,0-.446.011-.381.033-.763.078-1.14.051-.425.109-.825.171-1.208q.1-.6.219-1.135c0-.015.005-.032.009-.046.084-.372.177-.721.278-1.051.093-.306.193-.6.3-.867.068-.172.145-.344.226-.517l.041-.079c.1-.21.213-.418.332-.624.028-.048.054-.1.083-.144q.2-.331.421-.651c.031-.045.065-.088.1-.132q.181-.25.378-.491c.037-.045.073-.091.111-.135q.241-.285.5-.55l.1-.094q.226-.222.465-.426c.045-.039.089-.078.135-.115.19-.155.382-.3.581-.436.028-.018.057-.035.084-.053.176-.115.355-.22.537-.317.052-.027.1-.055.156-.081a5.652,5.652,0,0,1,.637-.272l.056-.016a4.773,4.773,0,0,1,.6-.156q.086-.017.172-.031a4.191,4.191,0,0,1,.67-.058,4.333,4.333,0,0,1,1.537.295,3.7,3.7,0,0,1,.658.339c.027.044.055.085.081.129q.235.4.458.852c.036.073.071.151.106.225q.172.365.339.763c.068.161.135.319.2.489.109.283.212.581.309.889.032.1.059.212.089.316.061.212.124.423.18.644.034.133.061.273.092.409.046.2.093.4.134.608.031.159.055.324.083.486.031.186.065.37.092.56.07.489.12.99.157,1.5.009.123.015.248.022.371.026.464.039.932.033,1.4,0,.061,0,.122,0,.183q-.014.613-.064,1.223c-.008.1-.024.2-.034.3-.031.311-.067.621-.115.926-.035.222-.078.441-.12.659-.025.125-.046.252-.074.375a12.737,12.737,0,0,1-.6,1.939c-.036.092-.077.181-.116.271-.092.214-.191.425-.3.629-.045.087-.089.174-.136.259-.136.245-.281.484-.437.712-.019.028-.035.057-.053.083-.148.21-.312.4-.478.6-.055.063-.1.133-.158.194a7,7,0,0,1-.73.689A5.243,5.243,0,0,1,725.856,285.968Z" transform="translate(-710.843 -253.993)" fill="url(#linear-gradient-5)"/>
          <path id="Path_40737" data-name="Path 40737" d="M726.69,252.18c0-.162,0-.331,0-.507,0-.068,0-.133,0-.2,0-.253-.008-.516-.018-.793v-.012c-.009-.268-.022-.55-.039-.838,0-.072-.009-.145-.013-.217q-.022-.359-.053-.734c-.006-.074-.012-.147-.019-.222-.053-.591-.12-1.206-.213-1.841-.006-.039-.014-.079-.02-.117-.063-.428-.135-.861-.221-1.3-.014-.075-.033-.151-.048-.227q-.113-.561-.252-1.129c-.036-.147-.076-.293-.115-.441q-.127-.48-.276-.96c-.046-.151-.093-.3-.142-.452q-.181-.546-.394-1.085c-.029-.078-.053-.157-.084-.234-.008-.018-.018-.037-.025-.055-.093-.227-.2-.449-.3-.672-.073-.16-.14-.322-.217-.48-.12-.247-.256-.488-.389-.73-.071-.13-.135-.262-.21-.39-.158-.27-.331-.53-.5-.791-.064-.094-.12-.193-.184-.285q-.367-.525-.783-1.018-.244-.287-.5-.554c-.007-.008-.016-.014-.024-.023-.258-.268-.525-.519-.8-.757-.065-.056-.13-.111-.2-.166-.284-.236-.573-.463-.874-.668l-2.457-1.675c.3.2.59.431.873.666.066.055.132.11.2.167.276.24.545.49.8.759.086.091.17.189.255.283l-2.336-1.593c-.083-.056-.167-.112-.252-.167q-.211-.136-.431-.262l-.076-.044c-.023-.013-.049-.023-.072-.035a10.645,10.645,0,0,0-1.075-.527c-.228-.1-.471-.182-.72-.263-.028-.009-.054-.021-.083-.03-.063-.02-.131-.036-.194-.055-.116-.034-.232-.067-.352-.1-.1-.027-.209-.052-.315-.077-.122-.028-.243-.055-.367-.081s-.219-.043-.329-.063q-.189-.034-.381-.063c-.112-.018-.223-.034-.336-.049-.131-.017-.262-.033-.394-.047-.067-.007-.133-.018-.2-.024l-.274-.024c-.482-.04-.967-.061-1.447-.063a16.137,16.137,0,0,0-3.36.314c-.28.063-.554.138-.829.213l.384.262c-.268.068-.534.142-.8.225-.111.036-.221.075-.332.113q-.423.146-.832.319c-.1.044-.209.085-.311.131-.359.161-.713.334-1.056.524-.04.022-.078.048-.118.07-.306.174-.6.36-.9.557-.1.067-.2.136-.3.206q-.369.261-.722.546c-.083.067-.168.131-.249.2-.3.257-.6.525-.888.809-.051.05-.1.1-.147.154q-.356.363-.693.754c-.082.094-.161.19-.241.287q-.308.374-.6.77c-.043.059-.091.112-.133.172-.015.021-.028.045-.043.066q-.383.547-.731,1.136c-.055.093-.107.189-.159.283q-.281.494-.536,1.015c-.032.065-.069.125-.1.191-.019.042-.036.086-.056.128-.111.24-.217.486-.32.734-.051.121-.1.239-.153.361-.148.374-.289.755-.418,1.146-.04.125-.081.251-.12.377-.032.106-.055.218-.086.325-.084.289-.163.58-.236.876-.043.176-.083.352-.122.53q-.1.457-.181.924c-.019.109-.045.215-.063.325-.008.049-.011.1-.019.149-.085.545-.156,1.1-.2,1.654-.008.081-.01.163-.017.243-.039.484-.063.972-.077,1.463,0,.081-.012.16-.013.242,0,.125,0,.251,0,.377,0,.169,0,.338,0,.508,0,.268.012.535.023.8.006.162.012.324.021.487.016.285.039.57.063.854.013.145.022.29.037.436q.055.544.132,1.085.118.85.284,1.687c.03.151.066.3.1.451.074.344.154.686.24,1.025.045.175.092.347.14.52.089.318.183.632.282.944.054.167.106.335.162.5.113.33.235.654.36.975.041.1.075.215.117.318.013.032.029.062.042.093.114.278.238.547.361.816.063.136.12.276.185.41.194.4.4.789.61,1.166.233.411.483.8.738,1.183.066.1.133.194.2.29.237.338.482.666.737.976.028.035.055.072.083.107.224.27.455.531.693.78.06.064.124.121.185.183s.142.14.212.21c.307.3.619.585.945.85-.244-.049-.488-.1-.731-.157.221.2.449.387.681.57.066.052.136.1.2.151.145.11.289.222.439.327l.11.075.012.008-.122-.083.132.091,2.457,1.676-.01-.007.01.007c.016.011.034.02.05.03a13.6,13.6,0,0,1-2.723-1.423l2.458,1.675a13.641,13.641,0,0,0,4.768,2.06q.4.089.8.155c.088.014.175.023.262.036.18.028.361.054.54.074l.049.007c.161.018.321.03.481.041.055,0,.11.011.166.015h.011c.24.013.477.021.712.023.4,0,.779-.021,1.158-.053.084-.008.168-.015.251-.024.371-.04.735-.093,1.088-.165l.017,0,.06-.013c.038-.008.073-.021.11-.029q.464-.1.906-.243c.046-.014.093-.022.138-.037s.06-.024.091-.034c.3-.1.6-.213.894-.339l.021-.007c.016-.007.031-.018.047-.024a11.427,11.427,0,0,0,1.094-.554l.1-.052c.346-.2.679-.426,1-.662.051-.037.1-.074.155-.112.311-.233.613-.483.9-.744l.155-.141c.289-.268.57-.546.839-.839.014-.016.03-.029.045-.045l.013-.015.085-.093.012-.014c.03-.033.057-.069.086-.1.19-.216.376-.437.556-.664l.069-.084c.168-.215.331-.434.49-.659.019-.027.035-.057.053-.084.3-.426.58-.868.846-1.322.057-.1.112-.194.168-.293.264-.467.517-.942.749-1.429,0-.008.01-.016.014-.025.013-.028.023-.057.036-.085.241-.513.464-1.037.672-1.566.03-.075.061-.149.09-.225.2-.536.388-1.076.558-1.618.015-.049.035-.1.05-.147s.022-.085.034-.126q.275-.907.488-1.813c.019-.08.038-.159.055-.24q.207-.91.354-1.8c.006-.033.014-.068.02-.1s.01-.087.017-.131c.087-.548.158-1.088.211-1.614.006-.059.01-.115.015-.173.051-.545.089-1.079.105-1.59q.006-.208.01-.444c0-.037,0-.08,0-.118C726.69,252.328,726.69,252.255,726.69,252.18ZM701.347,267.3c-.256-.313-.5-.642-.74-.981-.069-.1-.138-.2-.205-.3-.255-.38-.5-.769-.736-1.18-.214-.378-.416-.768-.61-1.167-.063-.129-.119-.264-.179-.4-.125-.273-.251-.548-.367-.83-.055-.133-.1-.272-.158-.407-.125-.321-.247-.646-.359-.976-.057-.166-.111-.335-.165-.5q-.148-.468-.281-.945c-.048-.171-.1-.342-.14-.514-.087-.34-.166-.684-.241-1.031-.032-.15-.068-.3-.1-.448-.1-.491-.186-.985-.259-1.482,0-.007,0-.013,0-.02l0-.012q-.09-.627-.153-1.259c-.015-.148-.024-.3-.037-.445-.025-.278-.047-.556-.063-.835-.01-.173-.015-.344-.022-.516-.01-.257-.019-.515-.022-.772,0-.175,0-.35,0-.525,0-.205.006-.409.011-.613q.021-.727.076-1.445c.007-.088.01-.179.018-.267.05-.552.119-1.1.2-1.636.026-.169.057-.336.087-.5.054-.308.113-.613.179-.915q.056-.257.118-.511c.073-.3.153-.6.238-.891.068-.234.131-.47.206-.7.13-.392.271-.774.419-1.148.047-.118.1-.233.148-.349.105-.252.212-.5.326-.748.049-.1.1-.207.152-.31q.26-.529.545-1.031c.051-.089.1-.18.151-.267q.35-.59.736-1.141c.057-.081.117-.158.173-.238q.289-.4.6-.771c.079-.1.159-.191.24-.285q.339-.394.7-.76c.047-.048.092-.1.14-.147.288-.285.587-.555.893-.813.078-.067.16-.129.24-.193q.358-.289.732-.554c.1-.068.191-.135.288-.2.3-.2.6-.39.912-.566.035-.02.068-.042.1-.061.345-.192.7-.365,1.061-.527.1-.045.2-.085.3-.128q.414-.175.841-.322c.109-.038.219-.077.329-.112.38-.121.764-.232,1.158-.321a23.366,23.366,0,0,1,6.185,2.315l.1.08q.42.339.819.7c.056.05.113.1.168.149.3.279.589.57.868.868.143.153.277.315.415.473.167.194.336.385.494.587.129.165.249.338.371.508.15.207.3.413.437.628.113.176.217.359.323.541.129.22.256.441.371.668.1.189.183.384.271.578.115.256.231.512.33.776q.056.149.109.3a12.6,12.6,0,0,1,.373,1.246q.192.81.314,1.646c.02.139.027.281.044.42.053.427.1.854.131,1.287.013.206.011.415.018.623.012.369.027.736.022,1.106,0,.242-.022.485-.033.727-.015.332-.026.664-.055,1-.022.247-.056.492-.085.738-.038.326-.073.652-.123.975-.038.244-.088.484-.133.727-.06.324-.12.65-.193.97-.056.252-.123.5-.187.748-.079.305-.158.611-.246.911-.135.452-.276.9-.433,1.338-.2.548-.424,1.075-.663,1.591q-.1.226-.215.448-.219.441-.457.864c-.084.149-.166.3-.253.445-.187.313-.386.617-.588.913-.071.1-.136.212-.209.313-.043.06-.088.117-.132.176-.183.25-.372.493-.567.731-.072.089-.147.177-.222.264q-.279.325-.572.634c-.066.07-.131.142-.2.21-.259.265-.528.522-.8.766-.049.043-.1.083-.15.126q-.347.3-.708.578c-.09.069-.181.136-.273.2q-.333.243-.677.468c-.082.054-.164.111-.248.162-.311.2-.626.382-.949.553-.04.021-.08.039-.12.06q-.428.222-.872.416c-.1.045-.2.087-.3.129q-.379.157-.767.292c-.1.035-.2.071-.3.1-.351.115-.706.219-1.067.309l-.087.019c-.333.079-.671.147-1.012.2-.114.02-.228.035-.342.052-.274.04-.551.072-.829.1-.114.01-.228.022-.343.031-.383.025-.77.042-1.162.04a16.837,16.837,0,0,1-2.541-.216c-.152-.167-.31-.324-.456-.5C701.4,267.361,701.372,267.327,701.347,267.3Zm17.871-32.546-2.1-1.432c.188.065.375.132.55.206.222.093.426.207.637.313.214.194.43.388.63.6C719.032,234.536,719.124,234.644,719.218,234.749Zm-16.232,34.725c-.086-.073-.174-.14-.258-.215.2.046.4.089.605.13l1.043.71.031.02A13,13,0,0,1,702.986,269.475Z" transform="translate(-694.049 -230.912)" fill="url(#linear-gradient-6)"/>
        </g>
        <path id="Path_40738" data-name="Path 40738" d="M719.178,236.136a10.867,10.867,0,0,0-4.1-3.054,14.379,14.379,0,0,0-5.265-.913,15.69,15.69,0,0,0-3.279.3l-.156.035c-5.189,1.17-9.264,5.164-11.191,10.987a27.39,27.39,0,0,0,2.011,20.565,16,16,0,0,0,3.791,4.581,12.922,12.922,0,0,0,5.428,2.633,13.418,13.418,0,0,0,2.871.334c9.9.053,13.976-11.886,14.219-19.433C723.583,249.708,723.5,241.255,719.178,236.136Zm-18.425,15.093a17.725,17.725,0,0,1,1.031-4.485c1.164-2.911,3.957-5.845,7.042-5.828a4.958,4.958,0,0,1,1.784.341c1.63.627,2.952,2.3,4.046,5.136,1.773,4.6,1.989,12.794-2.214,16.218a5.242,5.242,0,0,1-3.387,1.179,8.138,8.138,0,0,1-6.675-4.189A14.518,14.518,0,0,1,700.753,251.229Z" transform="translate(-693.335 -231.462)" fill="url(#linear-gradient-7)"/>
        <path id="Path_40739" data-name="Path 40739" d="M727.432,232.169a14.379,14.379,0,0,1,5.265.913,10.866,10.866,0,0,1,4.1,3.054c4.326,5.119,4.406,13.572,4.327,16.036-.244,7.547-4.322,19.486-14.219,19.433a13.418,13.418,0,0,1-2.871-.334,12.921,12.921,0,0,1-5.428-2.633c.208.042.417.081.627.118a16.927,16.927,0,0,0,2.79.25c6.95.037,12.641-4.413,15.09-11.192a23.833,23.833,0,0,0,.967-13.211,15.6,15.6,0,0,0-7.064-9.273A22.311,22.311,0,0,0,724,232.5l.156-.035A15.688,15.688,0,0,1,727.432,232.169Z" transform="translate(-710.955 -231.462)" fill="#75b602" opacity="0.4" style="mix-blend-mode: multiply;isolation: isolate"/>
        <path id="Path_40740" data-name="Path 40740" d="M717.933,233.881a11.586,11.586,0,0,0-4.367-3.246,14.941,14.941,0,0,0-5.532-.966,16.253,16.253,0,0,0-3.431.32c-5.518,1.174-9.842,5.368-11.867,11.491a28.143,28.143,0,0,0,2.058,21.138,14.788,14.788,0,0,0,9.685,7.555,14.343,14.343,0,0,0,3.019.353c10.4.056,14.678-12.315,14.931-20.123C722.533,247.154,722.3,239.051,717.933,233.881Zm-22.521,28.382A27.39,27.39,0,0,1,693.4,241.7c1.927-5.823,6-9.817,11.191-10.987l.156-.035a15.691,15.691,0,0,1,3.279-.3,14.379,14.379,0,0,1,5.265.913,10.869,10.869,0,0,1,4.1,3.054c4.326,5.119,4.406,13.572,4.327,16.036-.244,7.547-4.322,19.486-14.22,19.433a13.42,13.42,0,0,1-2.871-.334,12.921,12.921,0,0,1-5.428-2.633A16,16,0,0,1,695.413,262.263Z" transform="translate(-691.552 -229.668)" fill="#a2ce07"/>
        <path id="Path_40741" data-name="Path 40741" d="M727.406,263.435c1.63.627,2.952,2.3,4.046,5.136,1.773,4.6,1.989,12.794-2.214,16.218a5.242,5.242,0,0,1-3.387,1.179,8.139,8.139,0,0,1-6.675-4.189,14.517,14.517,0,0,1-1.626-8.371,17.724,17.724,0,0,1,1.031-4.485c1.164-2.911,3.957-5.845,7.042-5.828A4.959,4.959,0,0,1,727.406,263.435Zm1.386,20.8c3.946-3.208,3.7-11.012,2-15.416-1.014-2.63-2.2-4.177-3.636-4.726a4.316,4.316,0,0,0-1.537-.295c-2.741-.015-5.335,2.761-6.382,5.379a17.283,17.283,0,0,0-.978,4.307,13.813,13.813,0,0,0,1.547,7.963,7.37,7.37,0,0,0,6.055,3.8,4.469,4.469,0,0,0,2.935-1.016Z" transform="translate(-710.131 -253.641)" fill="#c4e50e"/>
      </g>
    </g>
  </g>
</svg>
