<svg xmlns="http://www.w3.org/2000/svg" xmlns:xlink="http://www.w3.org/1999/xlink" width="57.829" height="48.053" viewBox="0 0 57.829 48.053">
  <defs>
    <linearGradient id="linear-gradient" x1="1.819" y1="-4.578" x2="0.088" y2="2.086" gradientUnits="objectBoundingBox">
      <stop offset="0.066" stop-color="#00388b"/>
      <stop offset="0.667" stop-color="#162663"/>
      <stop offset="0.696" stop-color="#132157"/>
      <stop offset="0.831" stop-color="#080f28"/>
      <stop offset="0.934" stop-color="#02040a"/>
      <stop offset="0.992"/>
    </linearGradient>
    <linearGradient id="linear-gradient-2" x1="0.711" y1="-0.005" x2="0.317" y2="0.962" gradientUnits="objectBoundingBox">
      <stop offset="0.066" stop-color="#00388b"/>
      <stop offset="0.348" stop-color="#111d4b"/>
      <stop offset="0.381" stop-color="#111e4e"/>
      <stop offset="0.632" stop-color="#162663"/>
      <stop offset="0.753" stop-color="#0f1a43"/>
      <stop offset="0.832" stop-color="#080f28"/>
      <stop offset="0.934" stop-color="#02040a"/>
      <stop offset="0.992"/>
    </linearGradient>
    <linearGradient id="linear-gradient-3" x1="-1.04" y1="0.472" x2="1.362" y2="0.517" gradientUnits="objectBoundingBox">
      <stop offset="0.266" stop-color="#008ce7"/>
      <stop offset="0.786" stop-color="#2f5397"/>
      <stop offset="1" stop-color="#28418d"/>
    </linearGradient>
    <linearGradient id="linear-gradient-4" y1="0.5" x2="1" y2="0.5" gradientUnits="objectBoundingBox">
      <stop offset="0.041" stop-color="#0057e7"/>
      <stop offset="0.786" stop-color="#2f5397"/>
      <stop offset="1" stop-color="#28418d"/>
    </linearGradient>
    <linearGradient id="linear-gradient-5" x1="0.106" y1="0.497" x2="1.281" y2="0.508" gradientUnits="objectBoundingBox">
      <stop offset="0.066" stop-color="#5c9aff"/>
      <stop offset="1" stop-color="#28418d"/>
    </linearGradient>
    <linearGradient id="linear-gradient-6" x1="-1.921" y1="0.696" x2="0.231" y2="0.916" gradientUnits="objectBoundingBox">
      <stop offset="0.009" stop-color="#2e3d21"/>
      <stop offset="0.166" stop-color="#417323"/>
      <stop offset="0.36" stop-color="#417323"/>
      <stop offset="0.536" stop-color="#375922"/>
      <stop offset="0.667" stop-color="#334c22"/>
      <stop offset="0.795" stop-color="#1f370a"/>
      <stop offset="0.886" stop-color="#162e00"/>
      <stop offset="0.916" stop-color="#223a0e"/>
      <stop offset="0.942" stop-color="#284015"/>
      <stop offset="0.949" stop-color="#1f3210"/>
      <stop offset="0.966" stop-color="#0e1607"/>
      <stop offset="0.981" stop-color="#030501"/>
      <stop offset="0.992"/>
    </linearGradient>
    <linearGradient id="linear-gradient-7" x1="0.214" y1="-0.29" x2="0.823" y2="0.773" gradientUnits="objectBoundingBox">
      <stop offset="0" stop-color="#ecff17"/>
      <stop offset="0.542" stop-color="#1c6bb9"/>
      <stop offset="0.899" stop-color="#186fbe"/>
      <stop offset="1" stop-color="#1a6dbc"/>
    </linearGradient>
    <linearGradient id="linear-gradient-8" x1="-0.061" y1="-0.246" x2="0.869" y2="0.804" gradientUnits="objectBoundingBox">
      <stop offset="0" stop-color="#ecff17"/>
      <stop offset="0.007" stop-color="#6959b8"/>
      <stop offset="0.453" stop-color="#2560aa"/>
      <stop offset="1" stop-color="#6dba2b"/>
    </linearGradient>
    <linearGradient id="linear-gradient-9" x1="0.208" y1="-0.04" x2="0.925" y2="0.825" gradientUnits="objectBoundingBox">
      <stop offset="0" stop-color="#5289e9"/>
      <stop offset="1" stop-color="#568ff1"/>
    </linearGradient>
  </defs>
  <g id="_13" data-name="13" transform="translate(-30.315 -33.126)">
    <g id="Group_28077" data-name="Group 28077" transform="translate(-286.934 -13.995)">
      <path id="Path_40453" data-name="Path 40453" d="M359.235,52.5a13.916,13.916,0,0,0-5.023.9c-4.532,1.759-7.865,5.243-7.926,8.284A4.108,4.108,0,0,0,348.32,65.3l-.048-.029h0l2.7,1.839a7.675,7.675,0,0,0,1.306.705,3.354,3.354,0,0,0,1.332.3h.012a2.875,2.875,0,0,0,.575-.063l.109-.023a2.95,2.95,0,0,0,.518-.176l.093-.045a3.637,3.637,0,0,0,.462-.265l.036-.022a4.8,4.8,0,0,0,.449-.359l.09-.081c.126-.116.249-.236.367-.364l.025-.029c.211-.23.412-.477.605-.728l.151-.2c.179-.238.354-.478.523-.715.149-.2.29-.4.424-.585a6.591,6.591,0,0,1,5.149-2.647h.029a5.264,5.264,0,0,1,1.175.137c.129.03.258.07.387.112a4.087,4.087,0,0,1,1.005,3.1c-.426,3.34-4.7,4.995-8.557,5.435l-.377.04c-1.741.186-4.116.447-5.087,2.259a2.456,2.456,0,0,0-.063,2.307,3.779,3.779,0,0,0,1.42,1.519l-.148-.09,2.7,1.84a4.173,4.173,0,0,0,1.558.656,10.867,10.867,0,0,0,2.038.186h.164c.1,0,.2,0,.318,0a30.125,30.125,0,0,0,3.2-.528,20.4,20.4,0,0,1,4.113-.565h.053a8.28,8.28,0,0,1,2.087.275,4.834,4.834,0,0,1,.748,3.29,7.369,7.369,0,0,1-5.482,6.626,8.924,8.924,0,0,1-2.285.3h-.05a8.932,8.932,0,0,1-4.08-1.051l-.08-.068q-.378-.32-.747-.661c-.111-.1-.22-.2-.33-.309q-.406-.389-.8-.8l-.194-.2c-.345-.361-.683-.728-1.018-1.1l-.086-.094-.19-.181-.117-.111a3.963,3.963,0,0,0-.376-.292l-2.7-1.841.111.085a3.51,3.51,0,0,0-2.081-.708h-.02c-2.354,0-4.8,2.323-5.139,4.873-.418,3.144,1.85,5.58,4.328,7.266L348.6,93.5l2.7,1.84a24.784,24.784,0,0,0,4.987,2.553,16.913,16.913,0,0,0,5.925,1.037h.111A18.955,18.955,0,0,0,375,94.314c.38-.355.734-.728,1.073-1.107.1-.113.2-.228.293-.344q.361-.426.687-.869c.054-.074.118-.144.172-.218l.107-.165c.151-.217.291-.44.429-.662.091-.146.185-.291.271-.441.14-.243.267-.49.393-.739.056-.112.123-.221.178-.334l.031-.074c.059-.127.11-.257.166-.385.1-.225.195-.448.282-.676.056-.147.1-.3.156-.445s.114-.309.163-.466l.048-.18c.04-.135.075-.272.11-.409.06-.223.114-.447.163-.671.03-.142.058-.284.084-.426.018-.1.04-.189.057-.284.021-.13.032-.259.049-.389s.04-.286.054-.429c.025-.237.04-.473.052-.71.007-.13.018-.259.021-.389l.006-.1c0-.176-.009-.352-.013-.529s0-.348-.01-.521c-.012-.215-.038-.428-.061-.642-.016-.168-.028-.336-.051-.5l-.006-.062c-.047-.317-.108-.634-.176-.949-.018-.083-.04-.165-.059-.247-.065-.27-.137-.541-.218-.808-.028-.09-.053-.178-.082-.267-.1-.32-.216-.641-.345-.956l-.014-.03c-.157-.382-.33-.759-.522-1.132-.124-.237-.259-.471-.406-.7-.045-.072-.1-.143-.146-.216-.1-.158-.208-.318-.322-.472l-.007-.011-.04-.055-.126-.154c-.145-.19-.295-.376-.452-.561-.075-.087-.153-.172-.232-.258s-.146-.169-.224-.251l-.135-.128q-.381-.388-.789-.746l-.168-.153c-.29-.245-.588-.48-.893-.7l0,0-.2-.141-1.226-.837c.247-.42.471-.838.669-1.251l.008-.016c.182-.382.335-.759.476-1.134l.053-.125.047-.13.058-.192c.03-.092.068-.185.1-.277.053-.173.1-.345.141-.517l.038-.128.025-.1,0-.02.013-.057.015-.083c.044-.2.088-.4.12-.6.02-.119.03-.237.045-.355l.024-.193c.031-.281.051-.561.057-.838l0-.142c0-.073,0-.146-.006-.218q-.007-.433-.057-.858l-.017-.167-.009-.082c-.026-.181-.074-.359-.112-.538-.029-.142-.046-.285-.083-.425l-.026-.095,0-.012-.013-.048c-.02-.072-.054-.142-.076-.214-.079-.259-.158-.518-.262-.773l-.054-.12-.023-.064c-.033-.076-.067-.152-.1-.229l-.084-.167q-.063-.13-.131-.26c-.071-.136-.146-.271-.224-.406-.048-.084-.1-.167-.146-.25-.089-.144-.185-.289-.282-.432l-.141-.21c-.151-.211-.307-.422-.475-.63-.1-.121-.2-.241-.3-.358l-.037-.04-.071-.069-.135-.154c-.167-.176-.352-.336-.531-.5-.1-.094-.2-.195-.3-.286a12.029,12.029,0,0,0-1.053-.811l-2.7-1.84,0,0,0,0,.184.142a14.734,14.734,0,0,0-8.42-2.587Z" transform="translate(-4.973 -3.761)" fill="#b4b4b4" style="mix-blend-mode: multiply;isolation: isolate"/>
      <g id="Group_28077-2" data-name="Group 28077" transform="translate(337.907 47.505)">
        <path id="Path_40454" data-name="Path 40454" d="M361.777,145.921c.317.353.638.7.966,1.047.015.017.032.032.048.049.069.072.139.14.209.211q.386.4.783.78c.112.109.228.215.343.321.241.223.483.438.731.647.112.1.224.193.338.286.355.288.717.566,1.087.819l2.7,1.84c-.373-.253-.734-.532-1.09-.822-.11-.089-.217-.182-.325-.274q-.382-.323-.753-.667c-.107-.1-.214-.2-.32-.3q-.422-.406-.832-.83c-.052-.055-.108-.107-.159-.162-.348-.363-.689-.734-1.027-1.109l-.086-.093c-.061-.064-.125-.119-.187-.178-.041-.038-.08-.079-.121-.115a4.47,4.47,0,0,0-.375-.292l-2.7-1.84a4.176,4.176,0,0,1,.377.293c.038.033.074.071.111.106C361.59,145.731,361.686,145.821,361.777,145.921Z" transform="translate(-354.602 -116.121)" fill="url(#linear-gradient)"/>
        <path id="Path_40455" data-name="Path 40455" d="M374.711,79.407c.007-.13.019-.26.022-.391,0-.035,0-.07.006-.1,0-.176-.008-.352-.013-.529s0-.347-.01-.52c-.013-.217-.038-.432-.061-.647-.016-.166-.028-.333-.051-.5,0-.021,0-.042-.006-.064-.046-.318-.107-.634-.177-.95-.017-.082-.038-.163-.057-.244q-.1-.408-.218-.81c-.027-.089-.053-.179-.082-.266-.1-.321-.216-.64-.346-.956,0-.01-.009-.019-.013-.029-.158-.382-.33-.76-.523-1.133q-.186-.356-.406-.7c-.039-.063-.085-.123-.125-.185-.11-.169-.221-.338-.342-.5a.074.074,0,0,1-.007-.011l-.04-.055c-.04-.053-.085-.1-.126-.155-.145-.189-.294-.376-.452-.559-.075-.088-.154-.173-.232-.259s-.146-.17-.223-.251c-.042-.045-.092-.084-.134-.128-.254-.259-.516-.508-.789-.746-.057-.05-.11-.1-.168-.152-.29-.246-.588-.481-.893-.7l0,0-.2-.141-1.226-.837c.247-.42.471-.838.669-1.252l.008-.016c.182-.381.335-.758.476-1.133.016-.042.038-.084.053-.126l.047-.13c.023-.065.037-.128.058-.192.03-.092.068-.185.1-.277.053-.173.1-.345.141-.517.011-.042.027-.086.038-.128l.025-.1,0-.019.014-.057c.007-.028.008-.055.014-.083.044-.2.088-.4.12-.6.02-.119.031-.237.046-.355.007-.064.017-.13.024-.194.03-.281.051-.56.057-.837,0-.047,0-.094,0-.142,0-.074,0-.146-.005-.219q-.008-.433-.057-.858c-.006-.055-.01-.112-.017-.167,0-.028,0-.055-.009-.082-.026-.182-.074-.359-.112-.539-.029-.141-.046-.284-.083-.424l-.007,0h0l.007,0-.026-.095a.085.085,0,0,1,0-.012l-.013-.048,0,0h0l0,0c-.02-.072-.054-.142-.076-.215-.079-.259-.158-.518-.262-.772-.015-.041-.037-.08-.054-.12-.008-.021-.013-.043-.022-.064-.033-.077-.067-.152-.1-.228-.026-.056-.058-.111-.085-.167-.042-.087-.086-.174-.132-.26-.069-.136-.146-.271-.223-.406-.048-.083-.1-.166-.146-.25-.089-.144-.185-.288-.282-.431-.047-.07-.091-.141-.141-.21-.151-.212-.307-.422-.476-.63-.1-.121-.2-.241-.3-.357l-.037-.041c-.022-.024-.048-.045-.07-.069-.046-.051-.089-.1-.136-.155-.167-.175-.352-.335-.53-.5-.1-.094-.2-.2-.3-.287a11.934,11.934,0,0,0-1.053-.811l-2.7-1.84,0,0,0,0a12.087,12.087,0,0,1,1.052.81c.109.094.207.2.311.295.226.208.45.418.655.643.075.081.146.165.218.248l-.24-.164-.722-.492-.123-.084-1.36-.928c-.329-.224-.672-.429-1.022-.621-.111-.061-.226-.115-.338-.173-.248-.127-.5-.247-.756-.359-.062-.028-.121-.062-.183-.088l.04.028h0l-.04-.028c-.063-.026-.128-.043-.19-.068q-.5-.2-1.013-.363c-.081-.025-.159-.055-.24-.079-.419-.125-.844-.229-1.273-.317-.106-.022-.214-.038-.321-.058q-.507-.093-1.017-.152c-.123-.014-.246-.029-.37-.041-.436-.039-.873-.067-1.307-.07h0a13.573,13.573,0,0,0-4.959.869q-.295.116-.582.241c-.219.1-.435.195-.646.3l.369.251c-.058.027-.113.059-.171.086q-.316.151-.619.312c-.095.051-.189.1-.282.152q-.327.182-.638.376c-.06.038-.124.073-.183.112-.262.166-.513.338-.757.515-.063.046-.125.1-.187.142-.179.134-.354.271-.522.411-.076.063-.151.127-.224.191-.157.135-.306.272-.452.412-.06.058-.124.116-.182.175-.2.2-.382.392-.554.593-.021.024-.039.048-.059.073q-.226.266-.421.537c-.018.025-.04.049-.058.074-.041.059-.076.119-.116.179-.058.088-.118.175-.171.263s-.1.176-.152.264-.1.18-.146.271c-.015.03-.034.06-.048.091s-.026.07-.041.1a5.361,5.361,0,0,0-.216.544c-.011.035-.031.071-.041.106-.006.018-.008.035-.013.054-.044.149-.076.3-.1.444-.008.037-.021.075-.027.113,0,.005,0,.011,0,.017a3.82,3.82,0,0,0-.049.537v.012c0,.015,0,.03,0,.046a3.3,3.3,0,0,0,.027.439c0,.017,0,.034,0,.051s.014.041.017.063a3.077,3.077,0,0,0,.176.646.007.007,0,0,0,0,.005.183.183,0,0,0,.013.025,3.134,3.134,0,0,0,.242.459c.026.042.053.083.082.124a3.56,3.56,0,0,0,.328.412c.01.011.017.023.027.034l.01.009c.069.072.147.141.223.21.042.038.079.077.122.114.125.1.259.207.4.3l2.363,1.613c-.064,0-.123.02-.19.02a3.351,3.351,0,0,1-1.331-.3,7.688,7.688,0,0,1-1.307-.706l0,0h0l2.7,1.84a7.632,7.632,0,0,0,1.306.706,3.359,3.359,0,0,0,1.332.3,2.848,2.848,0,0,0,.586-.063c.037-.007.074-.014.109-.023a2.943,2.943,0,0,0,.517-.176c.032-.014.062-.03.093-.045a3.638,3.638,0,0,0,.462-.265l.036-.022a4.827,4.827,0,0,0,.449-.358l.091-.081c.125-.116.248-.236.365-.364l.025-.029c.211-.23.412-.476.606-.728.051-.067.1-.132.151-.2.179-.238.354-.478.523-.714q.223-.3.424-.585a6.587,6.587,0,0,1,5.179-2.647,5.261,5.261,0,0,1,1.175.137,5.6,5.6,0,0,1,1.683.725c.063.128.13.255.182.388.021.054.038.111.058.167a4.86,4.86,0,0,1,.14.467c.016.071.032.143.046.214.026.134.04.269.053.405.011.111.019.223.021.335a4.088,4.088,0,0,1-.023.6,5.2,5.2,0,0,1-.166.78c-.008.026-.012.054-.019.08a4.943,4.943,0,0,1-.288.724,5.12,5.12,0,0,1-.436.733,5.685,5.685,0,0,1-.468.568c-.054.058-.112.112-.169.168-.12.12-.243.237-.373.348-.068.059-.138.115-.208.171-.13.1-.265.2-.4.3-.07.049-.138.1-.21.144-.166.109-.336.211-.509.308-.044.025-.089.054-.134.079q-.33.179-.67.335c-.065.03-.13.056-.2.085-.166.072-.331.143-.5.207-.084.033-.168.064-.253.095-.151.056-.3.11-.452.16l-.247.081c-.162.051-.324.1-.484.143l-.19.055c-.218.059-.433.112-.641.161l-.136.03c-.163.036-.323.07-.476.1l-.207.04c-.125.023-.246.045-.363.065l-.189.031c-.115.018-.223.035-.327.049l-.147.021c-.141.019-.272.035-.385.048l-.385.039c-.2.022-.405.044-.613.07l-.156.021c-.158.02-.316.041-.476.066-.075.011-.147.026-.222.039-.137.024-.275.048-.412.077-.081.017-.16.04-.242.06-.125.03-.25.061-.371.1-.084.025-.165.057-.246.086-.112.04-.224.08-.331.127-.081.035-.157.077-.235.117-.1.051-.2.1-.288.162-.074.048-.143.1-.211.154a2.666,2.666,0,0,0-.239.206,2.41,2.41,0,0,0-.177.2c-.036.044-.08.079-.113.126a2.415,2.415,0,0,0-.153.246l-.045.09a1.94,1.94,0,0,0-.1.26c0,.01,0,.02-.007.03s-.008.036-.013.054c-.012.048-.026.1-.034.146a1.563,1.563,0,0,0-.019.208c0,.005,0,.011,0,.017v.007a1.5,1.5,0,0,0,.017.267c0,.02.013.04.017.061a1.733,1.733,0,0,0,.066.241c.015.045.018.089.037.135l.044.1a2.265,2.265,0,0,0,.193.328c.023.033.051.064.076.1a2.538,2.538,0,0,0,.174.211.323.323,0,0,0,.021.026c.01.012.027.02.038.033a3.443,3.443,0,0,0,.5.425h0l2.1,1.434c-.337-.031-.661-.076-.979-.137a4.178,4.178,0,0,1-1.559-.656l2.7,1.841a4.191,4.191,0,0,0,1.558.656,11,11,0,0,0,2.038.186c.153,0,.307,0,.482,0a29.974,29.974,0,0,0,3.2-.529,20.178,20.178,0,0,1,4.166-.565,8.241,8.241,0,0,1,2.232.306,4.944,4.944,0,0,1,.986.415v0c.06.142.108.291.155.44.022.069.051.134.069.2a5.765,5.765,0,0,1,.145.693,6.253,6.253,0,0,1,.055.9,6.561,6.561,0,0,1-.034.686c-.035.318-.1.619-.166.922-.045.217-.091.434-.15.643s-.13.416-.2.618-.145.4-.229.593a8.529,8.529,0,0,1-.444.889c-.016.026-.034.051-.051.078a8.1,8.1,0,0,1-.624.883c-.023.028-.044.06-.069.087a7.647,7.647,0,0,1-.75.772c-.046.042-.091.084-.137.124a7.7,7.7,0,0,1-.847.631q-.08.052-.165.1a7.854,7.854,0,0,1-.964.508c-.045.02-.094.038-.14.057a8.58,8.58,0,0,1-1.122.386,9.569,9.569,0,0,1-2.523.336,9.747,9.747,0,0,1-4.5-1.168c-.052-.042-.1-.086-.154-.129-.257-.217-.512-.441-.761-.673-.118-.109-.236-.218-.352-.33q-.4-.386-.794-.789c-.078-.08-.158-.158-.235-.239q-.526-.55-1.035-1.117l-.073-.078c-.015-.015-.032-.024-.046-.04a3.573,3.573,0,0,0-.517-.443l-2.7-1.84a2.7,2.7,0,0,0-1.533-.484,2.971,2.971,0,0,0-.44.034c-.047.006-.092.016-.138.024q-.157.029-.313.074c-.048.014-.1.026-.143.043a3.835,3.835,0,0,0-.366.141c-.022.009-.044.016-.067.027a4.425,4.425,0,0,0-.416.222c-.042.024-.081.051-.122.077-.1.063-.2.13-.293.2l-.126.1c-.1.082-.205.168-.3.259l-.076.067c-.12.115-.236.235-.347.361-.028.033-.055.066-.083.1-.082.1-.161.2-.237.3-.015.022-.035.043-.051.066s-.016.028-.025.041a5.207,5.207,0,0,0-.412.7c-.009.016-.02.03-.028.046s-.011.029-.016.043a4.756,4.756,0,0,0-.219.557c0,.014-.012.029-.016.043s-.013.054-.02.081c-.038.131-.068.263-.093.4-.005.029-.016.057-.021.087l-.017.112a5.083,5.083,0,0,0-.041.534c0,.008,0,.018,0,.026s.005.042.005.063a4.7,4.7,0,0,0,.039.624c0,.028,0,.059.007.087s.01.042.013.064a5.037,5.037,0,0,0,.119.555h0a5.052,5.052,0,0,0,.189.542c.008.018.012.037.019.054.015.034.034.066.048.1.058.133.121.262.189.39.026.05.053.1.081.149.093.163.19.323.3.479l.013.02c.114.164.237.326.364.484.034.042.068.083.1.124.1.118.2.234.307.349.023.024.043.051.066.075s.021.018.031.028a11.62,11.62,0,0,0,.957.887c.023.02.047.039.07.058.346.282.7.551,1.071.8l2.333,1.592.229.156.135.092a22.294,22.294,0,0,0,3.265,1.814q-.709-.193-1.381-.447a24.675,24.675,0,0,1-4.988-2.552l2.7,1.839a24.724,24.724,0,0,0,4.987,2.553A16.94,16.94,0,0,0,356.9,94.45a18.976,18.976,0,0,0,12.8-4.623c.382-.355.733-.727,1.074-1.108.1-.112.193-.226.289-.339q.363-.428.691-.874c.054-.073.118-.143.17-.216.038-.053.069-.11.106-.164.153-.22.294-.444.434-.67.089-.143.182-.285.266-.431.143-.249.274-.5.4-.758.054-.107.118-.21.169-.318.011-.023.019-.047.031-.07.062-.133.116-.268.173-.4.1-.22.191-.438.277-.661.056-.149.1-.3.158-.45s.112-.307.161-.463c.018-.059.031-.12.049-.179.04-.137.075-.275.111-.412.059-.223.113-.445.162-.669.031-.142.058-.283.085-.426.017-.095.04-.189.056-.284.02-.129.032-.259.049-.389s.04-.286.054-.429C374.683,79.879,374.7,79.644,374.711,79.407ZM358.435,56.586a5.19,5.19,0,0,1,1.464.318c.106.121.211.243.309.371.038.051.076.1.114.156.1.144.2.292.285.444.023.04.048.079.071.12.032.058.054.12.083.179Zm4.591,16.449a8.434,8.434,0,0,1,1.23.252c.035.01.065.027.1.037.057.072.117.14.168.215.037.053.079.1.113.158a5.059,5.059,0,0,1,.351.677Z" transform="translate(-339.707 -48.397)" fill="url(#linear-gradient-2)"/>
      </g>
      <path id="Path_40456" data-name="Path 40456" d="M369.789,71.7a12.2,12.2,0,0,0-5.436-5.147l-.4-.183.234-.376c2.748-4.418,2.711-8.424-.114-11.906A13.027,13.027,0,0,0,354,49.7a13.284,13.284,0,0,0-4.789.83c.085-.007.173,0,.259-.011-.1.008-.19.012-.288.022-4.252,1.655-7.38,4.84-7.431,7.573-.034,1.531.947,2.767,2.825,3.573a2.709,2.709,0,0,0,1.031.229c1.409.008,2.456-1.447,3.381-2.736.14-.2.29-.4.431-.6a7.369,7.369,0,0,1,5.811-2.957,6.014,6.014,0,0,1,1.342.157c2.543.6,5.028,3.117,4.676,5.9-.606,4.765-7.22,5.883-9.24,6.11l-.385.039c-1.649.181-3.7.407-4.484,1.85A1.717,1.717,0,0,0,347.1,71.3a3.3,3.3,0,0,0,2.275,1.655,10.439,10.439,0,0,0,1.883.171c.147,0,.3,0,.448-.006a27.993,27.993,0,0,0,3.089-.515,21.34,21.34,0,0,1,4.327-.577,8.9,8.9,0,0,1,2.441.335,5.289,5.289,0,0,1,3.859,5.927,8.128,8.128,0,0,1-6.061,7.295,9.569,9.569,0,0,1-2.523.336c-4.307-.023-7.611-3.04-10.53-6.286a2.884,2.884,0,0,0-2.169-1.046c-1.97-.011-4.1,2.033-4.386,4.2-.665,4.989,6.57,8.131,8.8,8.974a16.321,16.321,0,0,0,5.653.988c.187,0,.373,0,.56-.006a18.007,18.007,0,0,0,11.7-4.41C371.29,83.834,372.626,77.15,369.789,71.7Z" transform="translate(-1.799 -1.805)" fill="url(#linear-gradient-3)"/>
      <path id="Path_40457" data-name="Path 40457" d="M376.1,49.7a13.027,13.027,0,0,1,10.071,4.382c2.825,3.482,2.862,7.488.114,11.906l-.234.376.4.183A12.2,12.2,0,0,1,391.89,71.7c2.837,5.454,1.5,12.137-3.327,16.635a18.007,18.007,0,0,1-11.7,4.41,23.492,23.492,0,0,0,4.473-1.554,15.744,15.744,0,0,0,8.846-11.39c1.033-5.5-2.163-11.372-7.71-12.485a10.551,10.551,0,0,0,2.255-9.027c-.93-3.871-4.91-6.262-8.456-7.288a13.07,13.07,0,0,0-3.617-.521q-.674,0-1.347.056A13.284,13.284,0,0,1,376.1,49.7Z" transform="translate(-23.9 -1.805)" opacity="0.3" fill="url(#linear-gradient-4)" style="mix-blend-mode: multiply;isolation: isolate"/>
      <path id="Path_40458" data-name="Path 40458" d="M368.684,69.532a13.192,13.192,0,0,0-5.413-5.307c2.706-4.585,2.575-8.766-.4-12.438A14.669,14.669,0,0,0,347.1,48.017c-4.532,1.759-7.864,5.243-7.926,8.284-.032,1.3.518,3.106,3.293,4.3a3.351,3.351,0,0,0,1.331.3c1.815.01,2.982-1.627,4.014-3.069q.221-.3.423-.585a6.584,6.584,0,0,1,5.178-2.647,5.282,5.282,0,0,1,1.175.136c2.217.523,4.389,2.681,4.09,5.049-.427,3.34-4.7,4.995-8.557,5.435l-.378.04c-1.74.186-4.115.446-5.087,2.258a2.455,2.455,0,0,0-.063,2.307,4.072,4.072,0,0,0,2.831,2.084,11,11,0,0,0,2.037.185c.154,0,.306,0,.481,0a29.835,29.835,0,0,0,3.2-.527A20.112,20.112,0,0,1,357.312,71a8.222,8.222,0,0,1,2.232.305,4.535,4.535,0,0,1,3.3,5.1,7.37,7.37,0,0,1-5.482,6.626,8.917,8.917,0,0,1-2.335.3c-4-.021-7.148-2.908-9.945-6.023a3.673,3.673,0,0,0-2.74-1.3c-2.36-.013-4.816,2.316-5.159,4.872-.74,5.562,6.925,8.909,9.292,9.8a16.9,16.9,0,0,0,5.925,1.039,18.972,18.972,0,0,0,12.8-4.622C370.278,82.354,371.679,75.3,368.684,69.532ZM337.95,80.979c.291-2.165,2.417-4.209,4.386-4.2a2.884,2.884,0,0,1,2.169,1.046c2.918,3.246,6.223,6.263,10.53,6.286a9.569,9.569,0,0,0,2.523-.336,8.128,8.128,0,0,0,6.061-7.295,5.289,5.289,0,0,0-3.859-5.927,8.9,8.9,0,0,0-2.441-.335,21.341,21.341,0,0,0-4.327.577,27.99,27.99,0,0,1-3.089.515c-.152,0-.3.006-.448.006a10.44,10.44,0,0,1-1.883-.171,3.3,3.3,0,0,1-2.275-1.655,1.717,1.717,0,0,1,.041-1.614c.781-1.443,2.835-1.67,4.484-1.85l.385-.039c2.02-.227,8.634-1.345,9.24-6.11.352-2.78-2.133-5.3-4.676-5.9a6.014,6.014,0,0,0-1.342-.157,7.369,7.369,0,0,0-5.811,2.957c-.141.195-.29.4-.431.6-.925,1.289-1.972,2.744-3.381,2.736a2.709,2.709,0,0,1-1.031-.229c-1.878-.807-2.859-2.042-2.825-3.573.052-2.733,3.179-5.918,7.461-7.584a13.284,13.284,0,0,1,4.789-.83,13.027,13.027,0,0,1,10.071,4.382c2.825,3.482,2.862,7.488.114,11.906l-.234.376.4.183a12.2,12.2,0,0,1,5.436,5.147c2.837,5.454,1.5,12.137-3.327,16.635a18.007,18.007,0,0,1-11.7,4.41c-.187,0-.373.007-.56.006a16.32,16.32,0,0,1-5.653-.988C344.52,89.11,337.285,85.968,337.95,80.979Z" fill="url(#linear-gradient-5)"/>
    </g>
    <g id="Group_28815" data-name="Group 28815" transform="translate(-22.149 -8.429)">
      <path id="Path_40443" data-name="Path 40443" d="M75.24,46.934a6.435,6.435,0,0,0-1.891.335,40.951,40.951,0,0,0-6.361,4.787c-.835.713-1.623,1.386-2.351,1.959-.22.2-.447.4-.695.6-.2.165-.42.343-.656.528-1.622,1.286-3.852,3.047-3.7,5.08A6.224,6.224,0,0,0,62.051,64.4l-.032-.019,2.561,1.748a2.7,2.7,0,0,0,1.5.519h.011a1.979,1.979,0,0,0,.221-.012,4.523,4.523,0,0,0,2.344-1.18c-.1.993-.191,1.98-.3,2.957-.224,2.116-.527,4.273-.823,6.356-.389,2.761-.791,5.62-1.015,8.448l-.015.153c-.146,1.751-.338,4.109,1.387,5.28l-.006,0,.011.007c.089.06.183.117.282.171a3.111,3.111,0,0,1-.276-.167l2.545,1.736a3.187,3.187,0,0,0,.37.218,6.513,6.513,0,0,0,2.886.559h.084c.476,0,.958-.022,1.415-.045l.829-.035a4.715,4.715,0,0,0,3.454-1.382,4.248,4.248,0,0,0,.357-.438l.02-.024.035-.061c.073-.105.146-.21.21-.323l.068-.123.054-.124.069-.12-.013-.009h0l.013.009c.056-.117.094-.246.143-.368s.109-.26.154-.4l.039-.1c.071-.228.128-.463.18-.7l.031-.163c.022-.114.047-.227.066-.342s.023-.205.036-.307c.024-.175.045-.35.063-.528s.03-.356.041-.536c.005-.091.017-.182.02-.274l0-.082c0-.077,0-.155,0-.233l.008-.168c0-.069,0-.135,0-.2.005-.441,0-.88-.013-1.311-.027-.874-.039-1.752-.045-2.63,0-.255,0-.509,0-.763q0-1.012.016-2.025c0-.222.005-.444.01-.667q.026-1.281.071-2.562l.008-.194q.044-1.208.1-2.41c.013-.256.024-.512.037-.766q.048-.973.1-1.943c.013-.235.024-.472.038-.706q.067-1.226.137-2.443l.031-.524c.055-.949.164-1.978.272-3.073.039-.39.079-.787.117-1.188.017-.169.03-.339.046-.509.021-.244.045-.487.065-.733.015-.181.024-.364.037-.546.017-.238.036-.476.049-.716.01-.187.015-.374.025-.562.01-.236.02-.473.026-.709l0-.13c.007-.322.007-.644,0-.964l-.006-.165c-.005-.314-.019-.627-.039-.938-.006-.109-.015-.219-.023-.329-.022-.283-.049-.565-.085-.844-.011-.087-.018-.175-.031-.262l-.012-.107q-.075-.508-.18-1c-.065-.2-.145-.413-.236-.642L81.6,51.7c-.077-.189-.168-.386-.266-.583l-.085-.161c-.091-.173-.194-.343-.3-.512l-.087-.132a4.385,4.385,0,0,0-.407-.5l-.1-.106a3.843,3.843,0,0,0-.508-.416L77.28,47.54l.062.043a3.526,3.526,0,0,0-2.08-.649Z" transform="translate(-5.081 -3.842)" fill="#b4b4b4" style="mix-blend-mode: multiply;isolation: isolate"/>
      <path id="Path_40444" data-name="Path 40444" d="M76.81,55.194c.015-.181.025-.364.038-.546.017-.239.035-.476.049-.716.01-.187.015-.374.025-.562.01-.236.02-.473.026-.709,0-.044,0-.087,0-.131.006-.322.006-.644,0-.964,0-.055,0-.11-.005-.165-.006-.314-.019-.627-.039-.938-.006-.11-.015-.219-.023-.329q-.033-.425-.084-.844c-.011-.087-.019-.176-.031-.263-.005-.035-.008-.071-.012-.106q-.075-.509-.18-1.005c-.066-.2-.145-.413-.236-.642l-.007-.02c-.077-.189-.168-.386-.266-.583-.027-.054-.057-.107-.085-.161q-.138-.26-.3-.512c-.03-.044-.055-.089-.087-.132a4.361,4.361,0,0,0-.407-.5l-.1-.106a3.827,3.827,0,0,0-.507-.417l-2.561-1.748a3.694,3.694,0,0,1,.507.417,4.427,4.427,0,0,1,.512.608c.03.043.056.088.085.132.017.025.031.052.047.077l-1.36-.929a3.015,3.015,0,0,0-.862-.406l-.019-.007c-.057-.016-.117-.023-.176-.036a3.542,3.542,0,0,0-.756-.09,6.129,6.129,0,0,0-1.731.282,23.927,23.927,0,0,0-3.308,2.266l.318.217c-1.048.819-2.092,1.707-3.068,2.544-.842.713-1.637,1.392-2.358,1.966-.213.192-.448.4-.695.6-.207.172-.434.35-.675.541l-.311.246-.121.1-.223.18-.138.113c-.074.061-.148.122-.222.185l-.128.108c-.113.1-.226.2-.337.295l-.042.04c-.1.089-.194.177-.288.268l-.108.107c-.072.071-.144.143-.213.216l-.109.116c-.071.077-.139.154-.2.232-.029.033-.058.066-.085.1-.092.111-.179.222-.259.335l0,.006-.006.009a4.256,4.256,0,0,0-.359.6.1.1,0,0,1-.008.013c-.009.019-.014.039-.023.057-.042.094-.08.189-.112.283-.006.019-.016.037-.022.056s-.011.054-.018.08c-.016.056-.029.112-.04.169,0,.023-.013.047-.017.071s0,.051-.007.077c-.006.049-.01.1-.013.146,0,.023-.006.045-.006.069l0,.173c0,.065.012.133.022.2.006.038.019.081.027.121.015.086.034.172.057.261s.041.151.065.229.061.183.1.277c.017.045.028.088.046.134s.035.073.051.11c.035.081.072.16.111.241s.084.17.129.255.088.159.135.238.1.165.154.245.1.152.156.225.115.154.175.229.113.137.172.2c.031.035.059.074.091.107s.09.086.134.129.071.07.107.1a3.581,3.581,0,0,0,.367.3L58.725,60.4c-.08.015-.16.033-.241.043a2.1,2.1,0,0,1-.231.011,2.7,2.7,0,0,1-1.5-.519l2.561,1.748a2.7,2.7,0,0,0,1.5.519,1.977,1.977,0,0,0,.231-.012,5.625,5.625,0,0,0,3.164-1.962c-.016.171-.035.346-.051.517-.109,1.108-.218,2.21-.333,3.3-.224,2.13-.528,4.293-.825,6.383-.382,2.747-.785,5.594-1.014,8.4l-.008.153c-.017.213-.034.432-.05.654,0,.071-.006.143-.01.215-.01.155-.017.31-.021.466,0,.024,0,.047,0,.071,0,.1,0,.206,0,.31,0,.085,0,.17,0,.255.006.145.02.287.035.428.007.063.009.127.017.188a.2.2,0,0,0,0,.022,4.462,4.462,0,0,0,.11.524c.013.047.032.093.046.139.026.084.049.169.081.248.017.042.043.08.062.121.026.056.053.11.084.164a2.3,2.3,0,0,0,.207.314c.033.044.064.089.1.131.017.018.029.039.045.057a2.231,2.231,0,0,0,.362.306l.006.006.005,0,0,0,1.686,1.151.265.181a5.488,5.488,0,0,1-2.019-.516,3.569,3.569,0,0,1-.369-.218l2.561,1.748a3.34,3.34,0,0,0,.37.218,6.527,6.527,0,0,0,2.887.56c.5,0,1.014-.021,1.5-.045l.829-.035a4.721,4.721,0,0,0,3.454-1.384,4.473,4.473,0,0,0,.357-.437c.006-.009.013-.016.019-.025s.022-.042.036-.061c.073-.105.145-.211.21-.322l.069-.123c.021-.039.033-.084.053-.123s.049-.077.07-.12l-.013-.009h0l.013.009c.056-.117.094-.246.143-.368s.109-.26.154-.4c.011-.036.029-.068.039-.1.07-.227.128-.463.18-.7.012-.053.021-.108.032-.163.022-.114.047-.226.066-.342.016-.1.022-.2.035-.305.024-.176.045-.351.063-.53s.03-.356.04-.535c.005-.092.017-.182.021-.274l0-.083c0-.078,0-.155,0-.233,0-.057.007-.112.008-.168s0-.136,0-.2c0-.44,0-.88-.013-1.311-.027-.875-.039-1.752-.045-2.631,0-.254,0-.508,0-.762q0-1.012.017-2.026c0-.222.006-.444.01-.666q.027-1.282.071-2.563c0-.063.007-.125.008-.187q.044-1.21.1-2.419c.013-.253.024-.508.038-.761q.048-.975.1-1.947c.013-.234.024-.469.038-.7q.067-1.227.137-2.445l.031-.524c.055-.949.164-1.978.272-3.073.038-.39.079-.787.117-1.188.016-.168.029-.339.045-.509C76.767,55.683,76.79,55.441,76.81,55.194Z" transform="translate(-1.849 -0.932)" fill="url(#linear-gradient-6)"/>
      <path id="Path_40445" data-name="Path 40445" d="M73.308,47.276a5.632,5.632,0,0,0-1.3-2.324,2.743,2.743,0,0,0-2-.814,5.639,5.639,0,0,0-1.6.263A22.964,22.964,0,0,0,65.45,46.4c-1.108.857-2.214,1.8-3.246,2.687-.842.713-1.637,1.392-2.358,1.966-.214.192-.448.4-.695.6-.207.172-.434.35-.675.541-1.5,1.181-3.539,2.8-3.42,4.444.109,1.5,1.635,3.982,3.194,3.99l.161-.008c1.626-.177,3.276-2.3,4.6-4.013.415-.542.811-1.051,1.172-1.448l.783-.872-.149,1.168c-.257,2.064-.467,4.167-.664,6.2-.109,1.108-.218,2.21-.333,3.3-.224,2.13-.528,4.293-.825,6.383-.382,2.747-.785,5.594-1.014,8.4l-.008.153c-.141,1.751-.319,3.929,1.351,4.781a5.659,5.659,0,0,0,2.555.479c.491,0,.981-.021,1.46-.045l.646-.027.2-.009a3.949,3.949,0,0,0,2.935-1.152c1.358-1.441,1.467-4.044,1.388-6.4-.177-5.711.152-11.54.48-17.169l.024-.524c.055-.969.163-2,.272-3.106C73.59,53.672,73.939,50.214,73.308,47.276Z" transform="translate(-1.848 -1.845)" fill="url(#linear-gradient-7)"/>
      <path id="Path_40446" data-name="Path 40446" d="M96.017,44.138a2.743,2.743,0,0,1,2,.814,5.632,5.632,0,0,1,1.3,2.324c.631,2.938.283,6.4-.022,9.443-.11,1.1-.218,2.137-.272,3.106L99,60.349c-.327,5.629-.656,11.458-.48,17.169.079,2.357-.03,4.96-1.388,6.4a3.949,3.949,0,0,1-2.935,1.152l-.2.009a177.581,177.581,0,0,0,1.94-29.1c-.09-3.287-.007-7.75-3.547-9.289a4.821,4.821,0,0,0-.933-.293A22.964,22.964,0,0,1,94.413,44.4,5.639,5.639,0,0,1,96.017,44.138Z" transform="translate(-27.855 -1.845)" opacity="0.6" fill="url(#linear-gradient-8)" style="mix-blend-mode: multiply;isolation: isolate"/>
      <path id="Path_40447" data-name="Path 40447" d="M72.171,45.236a6.707,6.707,0,0,0-1.5-2.657,3.516,3.516,0,0,0-2.525-1.023,6.378,6.378,0,0,0-1.913.335,40.951,40.951,0,0,0-6.361,4.787c-.835.713-1.623,1.386-2.351,1.96-.221.2-.448.4-.695.6-.2.165-.421.343-.655.528-1.623,1.286-3.853,3.047-3.7,5.08.131,1.842,1.949,4.665,3.933,4.675a2.1,2.1,0,0,0,.231-.011c1.939-.215,3.7-2.477,5.11-4.3.12-.152.234-.3.349-.45-.194,1.672-.36,3.345-.52,4.978-.11,1.108-.212,2.2-.328,3.292-.224,2.117-.528,4.273-.823,6.357-.389,2.76-.791,5.62-1.015,8.448l-.015.152c-.155,1.865-.363,4.42,1.75,5.495a6.546,6.546,0,0,0,2.886.56c.5,0,1.015-.021,1.5-.045l.829-.036a4.718,4.718,0,0,0,3.454-1.382c1.54-1.639,1.67-4.427,1.585-6.931-.176-5.684.153-11.493.473-17.109l.031-.524c.055-.949.163-1.978.272-3.072C72.485,51.845,72.833,48.327,72.171,45.236ZM65.5,83.263c-.478.023-.969.047-1.46.045a5.659,5.659,0,0,1-2.555-.479c-1.671-.852-1.492-3.029-1.351-4.781l.008-.153c.229-2.807.632-5.654,1.014-8.4.3-2.09.6-4.253.825-6.383.115-1.088.224-2.19.333-3.3.2-2.038.407-4.141.664-6.2l.149-1.168-.783.872c-.361.4-.757.906-1.172,1.448-1.328,1.713-2.978,3.836-4.6,4.013l-.16.008c-1.559-.008-3.086-2.494-3.195-3.99-.119-1.641,1.925-3.263,3.42-4.444.241-.191.468-.369.675-.541.247-.2.481-.409.695-.6.721-.573,1.516-1.253,2.358-1.966,1.032-.884,2.137-1.831,3.246-2.687a22.963,22.963,0,0,1,2.956-1.994,5.639,5.639,0,0,1,1.6-.263,2.743,2.743,0,0,1,2,.814,5.632,5.632,0,0,1,1.3,2.324c.631,2.938.283,6.4-.022,9.443-.11,1.1-.218,2.137-.272,3.106l-.024.524c-.327,5.629-.656,11.458-.48,17.169.079,2.357-.03,4.96-1.388,6.4a3.949,3.949,0,0,1-2.935,1.152l-.2.009Z" fill="url(#linear-gradient-9)"/>
    </g>
  </g>
</svg>
