<svg xmlns="http://www.w3.org/2000/svg" xmlns:xlink="http://www.w3.org/1999/xlink" width="56.345" height="47.772" viewBox="0 0 56.345 47.772">
  <defs>
    <linearGradient id="linear-gradient" x1="0.698" y1="-0.469" x2="0.315" y2="1.861" gradientUnits="objectBoundingBox">
      <stop offset="0.309" stop-color="#802b0a"/>
      <stop offset="1"/>
    </linearGradient>
    <linearGradient id="linear-gradient-2" x1="0.61" y1="0.011" x2="0.442" y2="0.964" xlink:href="#linear-gradient"/>
    <linearGradient id="linear-gradient-3" x1="-0.257" y1="-0.005" x2="2.13" y2="1.588" gradientUnits="objectBoundingBox">
      <stop offset="0.02" stop-color="#ff9500"/>
      <stop offset="1" stop-color="#ba4321"/>
    </linearGradient>
    <linearGradient id="linear-gradient-4" x1="0.16" y1="0.192" x2="1.078" y2="0.8" xlink:href="#linear-gradient-3"/>
    <linearGradient id="linear-gradient-5" x1="0.223" y1="0.24" x2="1.186" y2="0.834" gradientUnits="objectBoundingBox">
      <stop offset="0.031" stop-color="#ff9d77"/>
      <stop offset="0.324" stop-color="#ff9500"/>
      <stop offset="1" stop-color="#ba4321"/>
    </linearGradient>
    <linearGradient id="linear-gradient-6" x1="0" y1="0.5" x2="1" y2="0.5" xlink:href="#linear-gradient-3"/>
  </defs>
  <g id="_14" data-name="14" transform="translate(-31.565 -35.24)">
    <g id="Group_28079" data-name="Group 28079" transform="translate(-450.292 -7.199)">
      <path id="Path_40459" data-name="Path 40459" d="M523.115,71.474l.135-.186c.417-.559.837-1.112,1.248-1.659.432-.572.869-1.153,1.306-1.74.134-.181.264-.363.4-.545.254-.348.512-.7.761-1.046.118-.168.236-.336.353-.5.344-.5.694-.974,1.042-1.46-.024.668-.046,1.33-.063,1.98-.044,1.491-.12,3.076-.252,5.1-.767.021-1.533.036-2.294.051s-1.527.01-2.306.012Zm9.025-23.657a4.294,4.294,0,0,0-2.811,1.269,63.321,63.321,0,0,0-9.08,10.824c-1.068,1.5-2.218,3-3.331,4.437-1.34,1.742-2.726,3.547-3.993,5.39-.109.163-.229.325-.349.495-1.088,1.536-2.571,3.642-1.116,5.563a5.353,5.353,0,0,0,1.333,1.243L512.726,77l0,0,0,0,2.427,1.655a9.753,9.753,0,0,0,5.423,1.312h.125c.272,0,.543,0,.812-.008l.516-.015c1.1-.036,3.418-.118,5.33-.138-.006.074-.011.149-.018.222-.113,1.383-.224,2.773-.312,4.157-.008.138-.022.289-.036.447-.1,1.164-.231,2.755.818,3.572a4.744,4.744,0,0,0,.506.324c-.093-.055-.193-.1-.281-.16h0l.985.671,1.443.985a5.438,5.438,0,0,0,3.034.9h.026c.161,0,.321-.006.479-.018l.183-.022c.1-.011.207-.021.308-.038.066-.01.128-.027.193-.04.093-.019.188-.036.278-.059.071-.018.138-.042.208-.064s.153-.043.227-.069h0l.014-.006c.085-.031.166-.067.247-.1l.183-.076c.08-.038.154-.083.231-.125l.166-.091c.079-.048.151-.1.225-.155l.139-.1a3.789,3.789,0,0,0,.323-.286,3.259,3.259,0,0,0,.358-.421l.015-.026.08-.136a2.947,2.947,0,0,0,.165-.281l.03-.076.054-.136c.024-.063.054-.123.073-.188s.032-.139.049-.207l.029-.13.017-.07a3.139,3.139,0,0,0,.041-.455v-.034c0-.12,0-.243,0-.37V87.11c0-.227,0-.461,0-.706v-.243c0-.187,0-.374,0-.569s0-.392,0-.591c0-.077,0-.153,0-.231q0-.437-.005-.88v-.059c-.007-1.314-.017-2.639-.027-3.729.274-.005.533-.012.785-.019l.128,0c.19-.005.378-.011.556-.018l.078,0,.085,0c.343-.015.672-.031.984-.052a2.882,2.882,0,0,0,.426-.063l.12-.031a2.683,2.683,0,0,0,.291-.094l.073-.023.064-.03.1-.05.085-.04.061-.037c.079-.045.156-.093.23-.145l.1-.07c.091-.068.178-.141.262-.218l.032-.027h0l.009-.007.009-.009.08-.078.055-.064q.087-.092.165-.189l.05-.058.039-.057.05-.064.031-.053.1-.136a3.493,3.493,0,0,0,.176-.317l0-.006.01-.022.009-.016.041-.107a3.39,3.39,0,0,0,.135-.344l.019-.048.035-.147.05-.185,0-.014.006-.051.016-.071a3.083,3.083,0,0,0,.04-.448v-.043a2.939,2.939,0,0,0-.028-.421V76.21l-.007-.027a2.707,2.707,0,0,0-.08-.362l-.052-.127-.023-.079-.054-.106-.04-.1-.058-.1v0l0,0,0,0-.014-.018a2.225,2.225,0,0,0-.171-.228l-.078-.1-.009-.007-.007-.009a2.132,2.132,0,0,0-.339-.287L540,72.99h0l.062.053a2.667,2.667,0,0,0-1.428-.489c-.306-.02-.612-.038-.916-.052,0-.317-.006-.63-.007-.951,0-.261,0-.526,0-.788q0-.972,0-1.96c0-.278,0-.555,0-.834q.01-1.349.032-2.714.029-1.537.085-3.086l.039-.994c.024-.535.047-1.089.064-1.674-.006-.156-.006-.333,0-.521l0-.11c.006-.215.015-.444.029-.686,0-.071.008-.142.012-.215.017-.267.035-.539.055-.821.025-.351.048-.7.068-1.051.007-.112.01-.219.015-.329.011-.2.023-.4.029-.6v-.144l.006-.127c0-.067,0-.126,0-.192,0-.106.005-.218,0-.32l-.008-.176c0-.087-.005-.171-.009-.254-.01-.159-.023-.309-.04-.452l-.014-.164-.023-.139c-.036-.208-.084-.407-.138-.6l-.056-.177c-.028-.09-.053-.184-.085-.271-.024-.066-.048-.13-.073-.194v0l0,0-.017-.035a5.409,5.409,0,0,0-.32-.653l-.066-.106-.013-.022-.035-.057a4.287,4.287,0,0,0-.432-.549l-.041-.053-.032-.027-.059-.065a3.518,3.518,0,0,0-.481-.4l-1.321-.9-1.106-.755h0l.009.008.041.035a2.888,2.888,0,0,0-1.672-.561Z" transform="translate(-5.187 -3.923)" fill="#b4b4b4" style="mix-blend-mode: multiply;isolation: isolate"/>
      <g id="Group_28079-2" data-name="Group 28079" transform="translate(504.44 42.812)">
        <path id="Path_40460" data-name="Path 40460" d="M533.6,91.8c1.54-.061,3.124-.065,4.65-.069.786,0,1.558,0,2.318-.013q1.311-.021,2.621-.062l.321-.011.022-.32c.143-2.176.228-3.856.273-5.435.081-2.768.194-5.731.526-8.6l.149-1.27-2.426-1.656-.77,1.022c-.541.716-1.094,1.456-1.652,2.206-.122.164-.241.325-.363.49q-.83,1.126-1.663,2.294c-.054.076-.108.147-.161.223q-.351.5-.7,1l-.038.054h0c-.343.491-.7.981-1.061,1.47-.137.186-.269.373-.407.559-.445.6-.893,1.193-1.337,1.775s-.907,1.2-1.36,1.814c-.142.191-.279.384-.42.577-.22.3-.443.6-.659.9q-.3.426-.594.854l-.395.57,2.427,1.657Zm7.484-1.811L540.76,90q-1.31.04-2.62.062c-.76.008-1.534.01-2.319.012-.274,0-.555,0-.832,0,.089-.122.177-.246.266-.368.128-.174.253-.35.382-.523.417-.558.835-1.11,1.245-1.655q.649-.859,1.306-1.74c.134-.181.264-.364.4-.546.254-.348.512-.694.762-1.046.118-.167.236-.335.352-.5.5-.725,1.015-1.433,1.527-2.138l.261-.362c-.046,1.027-.084,2.047-.113,3.037-.044,1.579-.129,3.258-.272,5.435Z" transform="translate(-523.935 -66.091)" fill="url(#linear-gradient)"/>
        <path id="Path_40461" data-name="Path 40461" d="M538.13,71.846s0-.006,0-.01-.006-.02-.008-.029a2.693,2.693,0,0,0-.079-.359c-.014-.044-.037-.084-.052-.129-.009-.025-.011-.052-.021-.078s-.037-.069-.054-.105-.024-.066-.041-.1l-.058-.1v0l0,0,0,0c0-.006-.009-.012-.012-.018a2.326,2.326,0,0,0-.17-.225c-.029-.035-.05-.073-.081-.107l-.01-.008a.023.023,0,0,0-.005-.008,2.07,2.07,0,0,0-.339-.288l-2.426-1.656h0a2.118,2.118,0,0,1,.346.3c.031.033.053.07.081.105a2.1,2.1,0,0,1,.175.231,2.261,2.261,0,0,1,.115.224c.013.029.023.058.036.086l-.951-.649a2.039,2.039,0,0,0-.437-.223c-.018-.007-.04-.01-.06-.017s-.062-.017-.092-.026a2.842,2.842,0,0,0-.609-.113c-.294-.021-.59-.03-.884-.044,0-.437-.008-.869-.01-1.312,0-.261,0-.525,0-.788q0-.972,0-1.96c0-.278,0-.555,0-.835q.009-1.348.033-2.713.028-1.537.083-3.087l.041-.994c.023-.535.047-1.089.064-1.673-.007-.156-.007-.333,0-.521,0-.035,0-.074,0-.11.006-.214.015-.444.029-.686,0-.071.008-.142.012-.215.017-.267.035-.539.055-.821.025-.35.048-.7.068-1.051.007-.112.01-.219.016-.329.01-.2.022-.4.028-.6,0-.05,0-.095,0-.144s.005-.086.006-.127c0-.067,0-.126,0-.192,0-.106.006-.218,0-.32,0-.061-.007-.116-.008-.176,0-.087-.006-.171-.011-.254-.009-.159-.022-.309-.039-.453-.005-.052-.007-.114-.014-.164l-.023-.139c-.036-.207-.084-.407-.138-.6-.017-.061-.037-.118-.055-.177-.028-.091-.053-.184-.085-.271-.024-.065-.048-.13-.074-.193,0,0,0,0,0,0a.012.012,0,0,1,0,0c-.006-.012-.012-.022-.018-.034a5.281,5.281,0,0,0-.321-.654l-.066-.106-.013-.022-.035-.057a4.331,4.331,0,0,0-.432-.549c-.015-.016-.027-.037-.041-.053s-.022-.017-.032-.027-.038-.045-.058-.065a3.543,3.543,0,0,0-.482-.4l-1.321-.9-1.106-.755h0a.043.043,0,0,1,.009.008,3.5,3.5,0,0,1,.532.455c.024.025.046.051.07.077a4.219,4.219,0,0,1,.47.609l.011.018.008.015-1.3-.886a2.705,2.705,0,0,0-.444-.241c-.015-.006-.029-.018-.044-.024l-.053-.021-.011,0c-.072-.028-.147-.049-.222-.07-.031-.009-.061-.021-.092-.028a2.571,2.571,0,0,0-.33-.055c.091.125.179.253.262.386a2.142,2.142,0,0,0-.5-.06,3.632,3.632,0,0,0-2.352,1.089,63.078,63.078,0,0,0-8.978,10.705c-1.075,1.517-2.232,3.014-3.344,4.462-.494.639-.992,1.289-1.488,1.942l-.3.392q-.746.989-1.465,2c-.046.064-.095.126-.14.19q-.3.417-.584.837c-.115.162-.229.332-.357.508l-.285.408-.056.081c-.1.143-.194.286-.289.431-.014.02-.026.042-.039.062-.092.143-.181.286-.266.431,0,.008-.009.017-.014.025-.084.146-.161.292-.232.439-.008.016-.018.031-.025.047s-.007.019-.011.028a4.63,4.63,0,0,0-.22.554c0,.014-.012.027-.017.041s-.005.027-.01.04a3.452,3.452,0,0,0-.093.386.019.019,0,0,1,0,.006c0,.014,0,.028,0,.044a2.656,2.656,0,0,0-.027.286c0,.012,0,.025,0,.037s0,.052.006.078a1.861,1.861,0,0,0,.014.223c0,.021,0,.042,0,.062s.01.028.012.043a2.077,2.077,0,0,0,.12.435c0,.005,0,.012.005.017.021.05.049.1.074.152.017.033.031.067.05.1a2.626,2.626,0,0,0,.18.273c.107.139.22.271.335.395.043.045.09.084.134.127s.085.081.127.12a5.07,5.07,0,0,0,.525.422l1.81,1.234.617.421h0l.012.007a7.39,7.39,0,0,1-2.85-1.1l2.428,1.656a9.755,9.755,0,0,0,5.422,1.312c.315,0,.629,0,.936-.008l.515-.016c1.235-.041,4.026-.14,6.033-.143-.008.094-.015.188-.023.281-.113,1.384-.225,2.762-.312,4.145-.008.145-.022.3-.036.466-.025.3-.051.627-.06.949,0,.021,0,.041,0,.061,0,.038,0,.076,0,.114,0,.065,0,.129,0,.193s.007.145.012.217.01.124.017.185c0,.027,0,.056.007.084s.012.038.016.06a2.4,2.4,0,0,0,.122.473c0,.012.005.027.01.039a.059.059,0,0,0,.007.013c.007.018.017.033.026.051a1.489,1.489,0,0,0,.129.23c.019.028.039.054.061.08a.839.839,0,0,0,.063.083l.142.13c.062.048.125.094.189.138l2.105,1.435c-.1-.01-.2-.008-.3-.022a5.243,5.243,0,0,1-2.2-.837h0l.618.421,1.809,1.235a5.266,5.266,0,0,0,2.2.836,6.014,6.014,0,0,0,.831.062c.169,0,.338-.005.5-.018.085-.007.167-.02.25-.03s.162-.016.241-.029.153-.032.229-.048.163-.031.242-.051.172-.052.258-.079c.059-.018.12-.034.178-.054h0l.01,0c.095-.035.185-.074.275-.114.051-.022.106-.042.158-.065.079-.038.152-.081.227-.122.057-.031.118-.06.173-.094.073-.044.14-.095.208-.144.051-.036.1-.069.155-.107a3.766,3.766,0,0,0,.322-.285,3.191,3.191,0,0,0,.358-.421l.014-.025c.032-.045.054-.094.082-.14a2.772,2.772,0,0,0,.163-.278c.012-.024.019-.05.03-.075.019-.044.036-.09.054-.136.024-.063.053-.124.073-.188s.032-.139.049-.209c.01-.043.022-.084.03-.128,0-.023.013-.045.017-.07a3.126,3.126,0,0,0,.041-.455v-.034c0-.119,0-.243,0-.37V82.03c0-.079,0-.161,0-.242,0-.187,0-.374,0-.569s0-.392,0-.591c0-.078,0-.154,0-.232q0-.437-.005-.88c0-.019,0-.038,0-.058-.007-1.314-.017-2.639-.027-3.729l.766-.018.188-.006.537-.018.056,0,.059,0c.353-.014.69-.031,1.01-.053a2.838,2.838,0,0,0,.427-.063c.04-.009.078-.02.118-.031a2.791,2.791,0,0,0,.293-.094c.023-.009.049-.014.071-.023s.043-.021.064-.03l.1-.048c.029-.014.058-.026.087-.041s.041-.028.063-.04c.078-.044.154-.092.226-.142.035-.024.07-.046.1-.071a3.233,3.233,0,0,0,.265-.22c.009-.009.019-.015.028-.024h0l.007-.007.012-.012.077-.076c.02-.02.036-.042.054-.063.057-.061.112-.124.164-.189.016-.02.035-.038.051-.059s.027-.04.041-.06.033-.04.049-.061.019-.035.029-.051c.032-.046.066-.09.1-.138a.059.059,0,0,0-.011-.007h0l.011.007c.064-.1.123-.209.176-.317l0-.007a.139.139,0,0,1,.01-.021c0-.006.007-.011.009-.017.017-.036.027-.074.044-.111.048-.112.095-.224.132-.34.006-.016.015-.032.019-.048.015-.048.021-.1.035-.146s.038-.123.051-.186l0-.015c0-.017,0-.034.006-.051s.012-.047.016-.07a3.069,3.069,0,0,0,.041-.448v-.042A2.871,2.871,0,0,0,538.13,71.846ZM531.8,70.415h.346c.808.01,1.825.027,2.878.079,0,.035.008.081.008.112a2.608,2.608,0,0,1-.044.431c-.008.045-.021.089-.032.135a2.832,2.832,0,0,1-.08.286c-.021.061-.045.12-.07.18q-.047.117-.106.231c-.041.079-.087.156-.135.231s-.082.129-.128.188a2.739,2.739,0,0,1-.188.22c-.05.053-.1.108-.152.157a2.522,2.522,0,0,1-.235.182c-.056.04-.11.085-.169.12a2.363,2.363,0,0,1-.3.139c-.055.022-.107.052-.163.07a2.1,2.1,0,0,1-.516.1c-.66.041-1.374.07-2.2.087q.074-1.874.112-3.748Zm-5.96,13.772a5.169,5.169,0,0,1-.9-.09,2.508,2.508,0,0,1-.067-.263c-.008-.047-.017-.091-.022-.138-.008-.064-.013-.129-.018-.194s-.01-.137-.012-.208,0-.135,0-.2,0-.111,0-.166c.009-.323.034-.648.06-.952.013-.165.027-.321.035-.466.087-1.384.2-2.761.312-4.145q.084-1.056.168-2.113v-.17l-.1-.107-.021-.023-.056-.049L522.8,73.245c-.141-.1-.49-.165-2.014-.173-2.03-.011-5.121.093-6.442.142l-.5.017c-.3,0-.609.009-.917.008a11.5,11.5,0,0,1-3.64-.505c-.022-.029-.05-.051-.071-.08a2.447,2.447,0,0,1-.182-.275c-.015-.027-.027-.054-.041-.081-.032-.063-.064-.125-.089-.189a2.063,2.063,0,0,1-.119-.434q-.01-.051-.016-.1a2.1,2.1,0,0,1-.014-.224c0-.037,0-.076,0-.114a2.812,2.812,0,0,1,.027-.287c0-.016,0-.031.006-.047a2.977,2.977,0,0,1,.091-.386c.008-.029.018-.057.027-.085a4.653,4.653,0,0,1,.219-.549c.012-.029.026-.057.04-.085.069-.142.144-.284.225-.425l.036-.061c.074-.128.154-.255.235-.382.021-.033.041-.065.063-.1.087-.135.177-.268.268-.4l.09-.131c.087-.125.175-.251.262-.374l.018-.025.063-.088c.1-.136.186-.267.275-.4.235-.344.479-.684.722-1.025q.719-1.007,1.466-2c.1-.133.2-.266.3-.4.494-.652.992-1.3,1.484-1.937,1.113-1.448,2.269-2.945,3.344-4.462a63.143,63.143,0,0,1,8.977-10.705,4.95,4.95,0,0,1,1.244-.831c.073.233.14.471.2.717.018.078.035.157.052.236.056.254.1.514.147.78.008.054.018.105.026.159.041.272.071.554.1.838.008.078.02.154.027.233q.049.546.073,1.119c0,.115.005.234.008.35.009.27.017.54.019.817,0,.172,0,.348,0,.523,0,.226,0,.451-.008.681-.006.261-.015.528-.025.794-.005.171-.009.339-.017.511-.012.278-.027.561-.042.844-.01.168-.016.333-.026.5-.017.3-.036.613-.056.922-.011.152-.018.3-.028.454q-.037.552-.075,1.11-.03.468-.062.941c-.017.243-.033.484-.048.729-.021.32-.04.642-.059.964-.01.156-.02.31-.029.466-.019.352-.036.706-.053,1.059-.006.127-.013.253-.018.379-.021.478-.037.956-.047,1.433-.028,1.287-.049,2.577-.077,3.868s-.057,2.554-.105,3.831c0,.01,0,.021,0,.032h0c-.02.528-.045,1.055-.071,1.582-.1,2.048-.255,4.093-.513,6.123-.016.125-.035.27-.056.421,0,.029-.007.057-.012.087-.022.162-.046.336-.073.519,0,.017-.005.035-.008.052-.021.146-.047.3-.073.455-.015.09-.031.181-.048.273-.022.124-.046.25-.07.378-.019.1-.038.191-.059.287-.027.13-.056.26-.087.392-.022.1-.045.194-.069.291-.033.133-.07.266-.107.4-.026.1-.052.191-.081.286-.045.15-.094.3-.143.444-.024.069-.046.139-.071.207Z" transform="translate(-506.319 -43.817)" fill="url(#linear-gradient-2)"/>
      </g>
      <g id="Group_28080" data-name="Group 28080" transform="translate(503.743 42.439)">
        <path id="Path_40462" data-name="Path 40462" d="M536.7,81.646c-.9,1.285-1.864,2.57-2.8,3.8-1.017,1.341-2.066,2.732-3.033,4.149l-.395.57.7-.027c1.541-.062,3.124-.065,4.651-.07.785,0,1.559,0,2.319-.012q1.31-.022,2.62-.062l.321-.011.022-.321c.143-2.176.228-3.855.272-5.435.081-2.768.194-5.731.527-8.6l.15-1.271-.77,1.022C539.795,77.346,538.224,79.452,536.7,81.646Zm3.974,2.57c-.044,1.491-.121,3.076-.252,5.1-.767.02-1.534.035-2.294.05s-1.527.011-2.306.013c-1.314,0-2.658.005-3.99.048.847-1.21,1.749-2.394,2.62-3.547.94-1.247,1.913-2.532,2.817-3.836,1.259-1.811,2.556-3.566,3.808-5.234C540.839,79.3,540.742,81.831,540.678,84.216Z" transform="translate(-523.238 -65.718)" fill="url(#linear-gradient-3)"/>
        <path id="Path_40463" data-name="Path 40463" d="M531.523,67.177c-1.187-.081-2.375-.107-3.33-.112-.043-3.794-.051-7.853.1-11.929l.041-.994c.024-.535.047-1.088.065-1.673a23.128,23.128,0,0,1,.1-2.353,19.089,19.089,0,0,0,.028-3.945c-.4-2.223-1.791-3.722-3.475-3.731a4.28,4.28,0,0,0-2.826,1.269,63.305,63.305,0,0,0-9.08,10.824c-1.068,1.505-2.218,3-3.331,4.437-1.34,1.742-2.726,3.547-3.992,5.389-.109.163-.229.326-.349.5-1.088,1.536-2.571,3.643-1.116,5.563,1.69,2.236,4.629,2.5,6.689,2.514.314,0,.629,0,.936-.007l.517-.016c1.313-.044,4.394-.153,6.409-.142.842.006,1.263.033,1.476.052q-.074.916-.147,1.83c-.113,1.384-.224,2.774-.312,4.158-.008.139-.022.289-.036.446-.1,1.164-.231,2.755.818,3.571a5.364,5.364,0,0,0,3.259,1.063,4.8,4.8,0,0,0,3.429-1.246,3.015,3.015,0,0,0,.911-2.16c0-2.083-.018-5.223-.037-7.412,1.006-.02,1.849-.046,2.615-.1a3.394,3.394,0,0,0,2.976-3.363A2.3,2.3,0,0,0,531.523,67.177Zm-10.392,15.1c-.755-.589-.643-1.9-.552-2.96.014-.163.028-.32.036-.466.087-1.383.2-2.761.312-4.145q.084-1.056.169-2.113v-.17l-.1-.107c-.119-.133-.212-.234-2.091-.244-2.03-.011-5.121.093-6.442.142l-.5.017c-.3,0-.61.009-.918.008-2.08-.012-4.647-.277-6.139-2.241-1.149-1.51.065-3.222,1.128-4.732.128-.175.242-.345.357-.508,1.254-1.831,2.633-3.623,3.974-5.359,1.112-1.448,2.269-2.945,3.344-4.462a63.078,63.078,0,0,1,8.978-10.705,3.632,3.632,0,0,1,2.352-1.089,2.143,2.143,0,0,1,.5.06c1.256.3,2.046,1.707,2.291,3.095a18.828,18.828,0,0,1-.032,3.775c-.065.925-.123,1.793-.1,2.41-.017.553-.041,1.1-.064,1.636l-.04,1c-.156,4.215-.136,8.4-.1,12.3l0,.34.345,0c1,.012,2.318.032,3.631.12a1.621,1.621,0,0,1,1.682,1.727,2.673,2.673,0,0,1-2.317,2.667c-.849.053-1.779.086-2.935.1l-.346.011,0,.346c.025,2.2.047,5.562.041,7.758a2.32,2.32,0,0,1-.7,1.664,4.011,4.011,0,0,1-2.468,1.016c-.155.014-.311.019-.47.019A4.666,4.666,0,0,1,521.131,82.272Z" transform="translate(-503.743 -42.439)" fill="url(#linear-gradient-4)"/>
      </g>
      <path id="Path_40464" data-name="Path 40464" d="M533.351,69.757c-1.313-.088-2.632-.108-3.631-.12l-.345,0,0-.34c-.036-3.9-.056-8.085.1-12.3l.04-1c.023-.535.047-1.082.064-1.636-.027-.617.031-1.485.1-2.41a18.837,18.837,0,0,0,.032-3.775c-.245-1.387-1.034-2.792-2.291-3.095a2.143,2.143,0,0,0-.5-.06,3.632,3.632,0,0,0-2.352,1.089,63.078,63.078,0,0,0-8.978,10.705c-1.075,1.517-2.232,3.014-3.344,4.462-1.341,1.735-2.72,3.528-3.974,5.359-.114.162-.229.332-.357.508-1.062,1.51-2.277,3.222-1.128,4.732,1.492,1.964,4.059,2.23,6.139,2.241.308,0,.616,0,.917-.008l.5-.017c1.32-.049,4.412-.152,6.442-.142,1.879.01,1.972.112,2.091.244l.1.107v.17q-.084,1.056-.169,2.113c-.113,1.384-.225,2.762-.312,4.145-.008.145-.022.3-.036.466-.091,1.056-.2,2.371.552,2.96a4.666,4.666,0,0,0,2.832.909c.159,0,.315-.005.47-.019a4.011,4.011,0,0,0,2.468-1.016,2.32,2.32,0,0,0,.7-1.664c.006-2.2-.015-5.562-.041-7.758l0-.346.346-.011c1.156-.013,2.086-.046,2.935-.1a2.673,2.673,0,0,0,2.317-2.668A1.621,1.621,0,0,0,533.351,69.757Zm-9.065-15.526c-.333,2.873-.446,5.837-.527,8.6-.044,1.579-.129,3.258-.272,5.435l-.022.321-.321.011q-1.31.04-2.62.062c-.76.008-1.534.01-2.319.012-1.526,0-3.11.008-4.651.07l-.7.027.395-.57c.967-1.417,2.016-2.808,3.033-4.149.941-1.235,1.908-2.52,2.8-3.8,1.52-2.194,3.091-4.3,4.577-6.268l.77-1.022Z" transform="translate(-1.879 -1.882)" fill="url(#linear-gradient-5)"/>
      <path id="Path_40465" data-name="Path 40465" d="M581.29,45.243c1.256.3,2.046,1.707,2.291,3.095a18.828,18.828,0,0,1-.032,3.775c-.065.925-.123,1.793-.1,2.41-.017.553-.041,1.1-.064,1.636l-.04,1c-.156,4.215-.136,8.4-.1,12.3l0,.34.345,0c1,.012,2.318.032,3.631.12a1.621,1.621,0,0,1,1.682,1.727,2.673,2.673,0,0,1-2.317,2.668c-.849.053-1.779.086-2.935.1l-.346.011,0,.346c.025,2.2.047,5.562.041,7.758a2.32,2.32,0,0,1-.7,1.664,4.011,4.011,0,0,1-2.468,1.016,19.158,19.158,0,0,0,1.21-5.113,149.165,149.165,0,0,0,.767-15.437C582.334,57.132,583.848,49.336,581.29,45.243Z" transform="translate(-55.756 -2.045)" opacity="0.6" fill="url(#linear-gradient-6)" style="mix-blend-mode: multiply;isolation: isolate"/>
    </g>
    <g id="Group_28818" data-name="Group 28818" transform="translate(-20.899 -4.315)">
      <path id="Path_40443" data-name="Path 40443" d="M75.24,46.934a6.435,6.435,0,0,0-1.891.335,40.951,40.951,0,0,0-6.361,4.787c-.835.713-1.623,1.386-2.351,1.959-.22.2-.447.4-.695.6-.2.165-.42.343-.656.528-1.622,1.286-3.852,3.047-3.7,5.08A6.224,6.224,0,0,0,62.051,64.4l-.032-.019,2.561,1.748a2.7,2.7,0,0,0,1.5.519h.011a1.979,1.979,0,0,0,.221-.012,4.523,4.523,0,0,0,2.344-1.18c-.1.993-.191,1.98-.3,2.957-.224,2.116-.527,4.273-.823,6.356-.389,2.761-.791,5.62-1.015,8.448l-.015.153c-.146,1.751-.338,4.109,1.387,5.28l-.006,0,.011.007c.089.06.183.117.282.171a3.111,3.111,0,0,1-.276-.167l2.545,1.736a3.187,3.187,0,0,0,.37.218,6.513,6.513,0,0,0,2.886.559h.084c.476,0,.958-.022,1.415-.045l.829-.035a4.715,4.715,0,0,0,3.454-1.382,4.248,4.248,0,0,0,.357-.438l.02-.024.035-.061c.073-.105.146-.21.21-.323l.068-.123.054-.124.069-.12-.013-.009h0l.013.009c.056-.117.094-.246.143-.368s.109-.26.154-.4l.039-.1c.071-.228.128-.463.18-.7l.031-.163c.022-.114.047-.227.066-.342s.023-.205.036-.307c.024-.175.045-.35.063-.528s.03-.356.041-.536c.005-.091.017-.182.02-.274l0-.082c0-.077,0-.155,0-.233l.008-.168c0-.069,0-.135,0-.2.005-.441,0-.88-.013-1.311-.027-.874-.039-1.752-.045-2.63,0-.255,0-.509,0-.763q0-1.012.016-2.025c0-.222.005-.444.01-.667q.026-1.281.071-2.562l.008-.194q.044-1.208.1-2.41c.013-.256.024-.512.037-.766q.048-.973.1-1.943c.013-.235.024-.472.038-.706q.067-1.226.137-2.443l.031-.524c.055-.949.164-1.978.272-3.073.039-.39.079-.787.117-1.188.017-.169.03-.339.046-.509.021-.244.045-.487.065-.733.015-.181.024-.364.037-.546.017-.238.036-.476.049-.716.01-.187.015-.374.025-.562.01-.236.02-.473.026-.709l0-.13c.007-.322.007-.644,0-.964l-.006-.165c-.005-.314-.019-.627-.039-.938-.006-.109-.015-.219-.023-.329-.022-.283-.049-.565-.085-.844-.011-.087-.018-.175-.031-.262l-.012-.107q-.075-.508-.18-1c-.065-.2-.145-.413-.236-.642L81.6,51.7c-.077-.189-.168-.386-.266-.583l-.085-.161c-.091-.173-.194-.343-.3-.512l-.087-.132a4.385,4.385,0,0,0-.407-.5l-.1-.106a3.843,3.843,0,0,0-.508-.416L77.28,47.54l.062.043a3.526,3.526,0,0,0-2.08-.649Z" transform="translate(-5.081 -3.842)" fill="#b4b4b4" style="mix-blend-mode: multiply;isolation: isolate"/>
      <path id="Path_40444" data-name="Path 40444" d="M76.81,55.194c.015-.181.025-.364.038-.546.017-.239.035-.476.049-.716.01-.187.015-.374.025-.562.01-.236.02-.473.026-.709,0-.044,0-.087,0-.131.006-.322.006-.644,0-.964,0-.055,0-.11-.005-.165-.006-.314-.019-.627-.039-.938-.006-.11-.015-.219-.023-.329q-.033-.425-.084-.844c-.011-.087-.019-.176-.031-.263-.005-.035-.008-.071-.012-.106q-.075-.509-.18-1.005c-.066-.2-.145-.413-.236-.642l-.007-.02c-.077-.189-.168-.386-.266-.583-.027-.054-.057-.107-.085-.161q-.138-.26-.3-.512c-.03-.044-.055-.089-.087-.132a4.361,4.361,0,0,0-.407-.5l-.1-.106a3.827,3.827,0,0,0-.507-.417l-2.561-1.748a3.694,3.694,0,0,1,.507.417,4.427,4.427,0,0,1,.512.608c.03.043.056.088.085.132.017.025.031.052.047.077l-1.36-.929a3.015,3.015,0,0,0-.862-.406l-.019-.007c-.057-.016-.117-.023-.176-.036a3.542,3.542,0,0,0-.756-.09,6.129,6.129,0,0,0-1.731.282,23.927,23.927,0,0,0-3.308,2.266l.318.217c-1.048.819-2.092,1.707-3.068,2.544-.842.713-1.637,1.392-2.358,1.966-.213.192-.448.4-.695.6-.207.172-.434.35-.675.541l-.311.246-.121.1-.223.18-.138.113c-.074.061-.148.122-.222.185l-.128.108c-.113.1-.226.2-.337.295l-.042.04c-.1.089-.194.177-.288.268l-.108.107c-.072.071-.144.143-.213.216l-.109.116c-.071.077-.139.154-.2.232-.029.033-.058.066-.085.1-.092.111-.179.222-.259.335l0,.006-.006.009a4.256,4.256,0,0,0-.359.6.1.1,0,0,1-.008.013c-.009.019-.014.039-.023.057-.042.094-.08.189-.112.283-.006.019-.016.037-.022.056s-.011.054-.018.08c-.016.056-.029.112-.04.169,0,.023-.013.047-.017.071s0,.051-.007.077c-.006.049-.01.1-.013.146,0,.023-.006.045-.006.069l0,.173c0,.065.012.133.022.2.006.038.019.081.027.121.015.086.034.172.057.261s.041.151.065.229.061.183.1.277c.017.045.028.088.046.134s.035.073.051.11c.035.081.072.16.111.241s.084.17.129.255.088.159.135.238.1.165.154.245.1.152.156.225.115.154.175.229.113.137.172.2c.031.035.059.074.091.107s.09.086.134.129.071.07.107.1a3.581,3.581,0,0,0,.367.3L58.725,60.4c-.08.015-.16.033-.241.043a2.1,2.1,0,0,1-.231.011,2.7,2.7,0,0,1-1.5-.519l2.561,1.748a2.7,2.7,0,0,0,1.5.519,1.977,1.977,0,0,0,.231-.012,5.625,5.625,0,0,0,3.164-1.962c-.016.171-.035.346-.051.517-.109,1.108-.218,2.21-.333,3.3-.224,2.13-.528,4.293-.825,6.383-.382,2.747-.785,5.594-1.014,8.4l-.008.153c-.017.213-.034.432-.05.654,0,.071-.006.143-.01.215-.01.155-.017.31-.021.466,0,.024,0,.047,0,.071,0,.1,0,.206,0,.31,0,.085,0,.17,0,.255.006.145.02.287.035.428.007.063.009.127.017.188a.2.2,0,0,0,0,.022,4.462,4.462,0,0,0,.11.524c.013.047.032.093.046.139.026.084.049.169.081.248.017.042.043.08.062.121.026.056.053.11.084.164a2.3,2.3,0,0,0,.207.314c.033.044.064.089.1.131.017.018.029.039.045.057a2.231,2.231,0,0,0,.362.306l.006.006.005,0,0,0,1.686,1.151.265.181a5.488,5.488,0,0,1-2.019-.516,3.569,3.569,0,0,1-.369-.218l2.561,1.748a3.34,3.34,0,0,0,.37.218,6.527,6.527,0,0,0,2.887.56c.5,0,1.014-.021,1.5-.045l.829-.035a4.721,4.721,0,0,0,3.454-1.384,4.473,4.473,0,0,0,.357-.437c.006-.009.013-.016.019-.025s.022-.042.036-.061c.073-.105.145-.211.21-.322l.069-.123c.021-.039.033-.084.053-.123s.049-.077.07-.12l-.013-.009h0l.013.009c.056-.117.094-.246.143-.368s.109-.26.154-.4c.011-.036.029-.068.039-.1.07-.227.128-.463.18-.7.012-.053.021-.108.032-.163.022-.114.047-.226.066-.342.016-.1.022-.2.035-.305.024-.176.045-.351.063-.53s.03-.356.04-.535c.005-.092.017-.182.021-.274l0-.083c0-.078,0-.155,0-.233,0-.057.007-.112.008-.168s0-.136,0-.2c0-.44,0-.88-.013-1.311-.027-.875-.039-1.752-.045-2.631,0-.254,0-.508,0-.762q0-1.012.017-2.026c0-.222.006-.444.01-.666q.027-1.282.071-2.563c0-.063.007-.125.008-.187q.044-1.21.1-2.419c.013-.253.024-.508.038-.761q.048-.975.1-1.947c.013-.234.024-.469.038-.7q.067-1.227.137-2.445l.031-.524c.055-.949.164-1.978.272-3.073.038-.39.079-.787.117-1.188.016-.168.029-.339.045-.509C76.767,55.683,76.79,55.441,76.81,55.194Z" transform="translate(-1.849 -0.932)" fill="#642208"/>
      <path id="Path_40445" data-name="Path 40445" d="M73.308,47.276a5.632,5.632,0,0,0-1.3-2.324,2.743,2.743,0,0,0-2-.814,5.639,5.639,0,0,0-1.6.263A22.964,22.964,0,0,0,65.45,46.4c-1.108.857-2.214,1.8-3.246,2.687-.842.713-1.637,1.392-2.358,1.966-.214.192-.448.4-.695.6-.207.172-.434.35-.675.541-1.5,1.181-3.539,2.8-3.42,4.444.109,1.5,1.635,3.982,3.194,3.99l.161-.008c1.626-.177,3.276-2.3,4.6-4.013.415-.542.811-1.051,1.172-1.448l.783-.872-.149,1.168c-.257,2.064-.467,4.167-.664,6.2-.109,1.108-.218,2.21-.333,3.3-.224,2.13-.528,4.293-.825,6.383-.382,2.747-.785,5.594-1.014,8.4l-.008.153c-.141,1.751-.319,3.929,1.351,4.781a5.659,5.659,0,0,0,2.555.479c.491,0,.981-.021,1.46-.045l.646-.027.2-.009a3.949,3.949,0,0,0,2.935-1.152c1.358-1.441,1.467-4.044,1.388-6.4-.177-5.711.152-11.54.48-17.169l.024-.524c.055-.969.163-2,.272-3.106C73.59,53.672,73.939,50.214,73.308,47.276Z" transform="translate(-1.848 -1.845)" fill="#ff9725"/>
      <path id="Path_40446" data-name="Path 40446" d="M96.017,44.138a2.743,2.743,0,0,1,2,.814,5.632,5.632,0,0,1,1.3,2.324c.631,2.938.283,6.4-.022,9.443-.11,1.1-.218,2.137-.272,3.106L99,60.349c-.327,5.629-.656,11.458-.48,17.169.079,2.357-.03,4.96-1.388,6.4a3.949,3.949,0,0,1-2.935,1.152l-.2.009a177.581,177.581,0,0,0,1.94-29.1c-.09-3.287-.007-7.75-3.547-9.289a4.821,4.821,0,0,0-.933-.293A22.964,22.964,0,0,1,94.413,44.4,5.639,5.639,0,0,1,96.017,44.138Z" transform="translate(-27.855 -1.845)" fill="#ce4708" opacity="0.6" style="mix-blend-mode: multiply;isolation: isolate"/>
      <path id="Path_40447" data-name="Path 40447" d="M72.171,45.236a6.707,6.707,0,0,0-1.5-2.657,3.516,3.516,0,0,0-2.525-1.023,6.378,6.378,0,0,0-1.913.335,40.951,40.951,0,0,0-6.361,4.787c-.835.713-1.623,1.386-2.351,1.96-.221.2-.448.4-.695.6-.2.165-.421.343-.655.528-1.623,1.286-3.853,3.047-3.7,5.08.131,1.842,1.949,4.665,3.933,4.675a2.1,2.1,0,0,0,.231-.011c1.939-.215,3.7-2.477,5.11-4.3.12-.152.234-.3.349-.45-.194,1.672-.36,3.345-.52,4.978-.11,1.108-.212,2.2-.328,3.292-.224,2.117-.528,4.273-.823,6.357-.389,2.76-.791,5.62-1.015,8.448l-.015.152c-.155,1.865-.363,4.42,1.75,5.495a6.546,6.546,0,0,0,2.886.56c.5,0,1.015-.021,1.5-.045l.829-.036a4.718,4.718,0,0,0,3.454-1.382c1.54-1.639,1.67-4.427,1.585-6.931-.176-5.684.153-11.493.473-17.109l.031-.524c.055-.949.163-1.978.272-3.072C72.485,51.845,72.833,48.327,72.171,45.236ZM65.5,83.263c-.478.023-.969.047-1.46.045a5.659,5.659,0,0,1-2.555-.479c-1.671-.852-1.492-3.029-1.351-4.781l.008-.153c.229-2.807.632-5.654,1.014-8.4.3-2.09.6-4.253.825-6.383.115-1.088.224-2.19.333-3.3.2-2.038.407-4.141.664-6.2l.149-1.168-.783.872c-.361.4-.757.906-1.172,1.448-1.328,1.713-2.978,3.836-4.6,4.013l-.16.008c-1.559-.008-3.086-2.494-3.195-3.99-.119-1.641,1.925-3.263,3.42-4.444.241-.191.468-.369.675-.541.247-.2.481-.409.695-.6.721-.573,1.516-1.253,2.358-1.966,1.032-.884,2.137-1.831,3.246-2.687a22.963,22.963,0,0,1,2.956-1.994,5.639,5.639,0,0,1,1.6-.263,2.743,2.743,0,0,1,2,.814,5.632,5.632,0,0,1,1.3,2.324c.631,2.938.283,6.4-.022,9.443-.11,1.1-.218,2.137-.272,3.106l-.024.524c-.327,5.629-.656,11.458-.48,17.169.079,2.357-.03,4.96-1.388,6.4a3.949,3.949,0,0,1-2.935,1.152l-.2.009Z" fill="#f68a04"/>
    </g>
  </g>
</svg>
