<svg xmlns="http://www.w3.org/2000/svg" xmlns:xlink="http://www.w3.org/1999/xlink" width="59.763" height="45.772" viewBox="0 0 59.763 45.772">
  <defs>
    <linearGradient id="linear-gradient" x1="1.195" y1="-4.556" x2="0.083" y2="3.534" gradientUnits="objectBoundingBox">
      <stop offset="0.055" stop-color="#3e2857"/>
      <stop offset="0.17" stop-color="#1b1125"/>
      <stop offset="0.249" stop-color="#482f65"/>
      <stop offset="0.958"/>
    </linearGradient>
    <linearGradient id="linear-gradient-2" x1="0.627" y1="0.014" x2="0.358" y2="1.187" xlink:href="#linear-gradient"/>
    <linearGradient id="linear-gradient-3" y1="0.5" x2="1" y2="0.5" gradientUnits="objectBoundingBox">
      <stop offset="0.026" stop-color="#d5c0ff"/>
      <stop offset="0.387" stop-color="#d58bff"/>
      <stop offset="0.963" stop-color="#6a2191"/>
    </linearGradient>
    <linearGradient id="linear-gradient-4" x1="-0.531" y1="-0.126" x2="1.491" y2="1.035" gradientUnits="objectBoundingBox">
      <stop offset="0.023" stop-color="#d25cff"/>
      <stop offset="0.934" stop-color="#995995"/>
    </linearGradient>
    <linearGradient id="linear-gradient-5" x1="0" y1="0.5" x2="1" y2="0.5" xlink:href="#linear-gradient-4"/>
  </defs>
  <g id="_15" data-name="15" transform="translate(-2666.934 -7455.293)">
    <g id="Group_28866" data-name="Group 28866" transform="translate(2020.362 7410.33)">
      <path id="Path_40471" data-name="Path 40471" d="M681.151,90.19h0l0,0Zm2.036-10.359Zm.478,11.707-.084-.034-.126-.057c.069.03.14.063.21.092Zm-.718-.327-.12-.058.12.058Zm14.944-19.837-.058-.03-.02-.012.078.042Zm7.733-3.246,0,0-.081-.085.068.069.017.019ZM698.2,52.342q-1.516,0-3.038.018c-.711.009-1.43.018-2.142.021-1.556.01-3.164.021-4.746.076l-.407.01c-1.557.042-3.5.1-4.769,1.184-1.638,1.4-1.88,3.572-2.1,5.588a44.837,44.837,0,0,0-.3,7.83l.022.407c.087,1.538.23,4.289,1.47,5.079l-.042-.019,2.454,1.674A1.358,1.358,0,0,0,685,74.4a2.552,2.552,0,0,0,.689.1h.013a3.822,3.822,0,0,0,2.317-.907,10.3,10.3,0,0,1,6.383-2.059h.065c.306,0,.611.015.912.038a12.265,12.265,0,0,1,4.4,1.185,7.906,7.906,0,0,1,.676.71,6.953,6.953,0,0,1,1.507,5.823c-.721,4.024-4.974,6.356-8.609,6.514-.094,0-.187.006-.28.006h-.04a7.069,7.069,0,0,1-3.28-.881c-.538-.437-1.067-.9-1.589-1.354-.763-.672-1.557-1.363-2.359-1.952l-.157-.111-2.455-1.675.018.013a3.082,3.082,0,0,0-1.7-.624h-.011c-1.88,0-2.794,2.44-3.017,4.73-.181,1.781-.327,3.327,1.026,4.823a9.284,9.284,0,0,0,1.71,1.454l-.057-.036h0l2.455,1.675a14.748,14.748,0,0,0,2.428,1.313c.252.11.493.208.718.3a17.648,17.648,0,0,0,6.362,1.166h.114a20.95,20.95,0,0,0,7.186-1.272c.38-.142.752-.3,1.117-.465.115-.052.227-.108.342-.163q.376-.181.743-.375c.124-.068.249-.138.372-.208.235-.133.465-.274.692-.417.112-.07.224-.14.334-.213.277-.185.55-.379.815-.579l.146-.106q.466-.358.9-.748c.086-.077.168-.157.253-.235.2-.189.4-.38.6-.579.1-.1.193-.2.289-.3.179-.19.351-.384.521-.582.089-.1.177-.207.263-.313.187-.229.366-.464.54-.7l.142-.186.026-.04c.246-.348.476-.708.7-1.074.057-.1.11-.194.165-.291q.253-.442.479-.9c.031-.064.07-.126.1-.191l.054-.124c.111-.238.213-.48.313-.724.045-.109.093-.215.135-.324.135-.351.261-.706.374-1.068l.007-.021c.1-.319.188-.643.267-.97s.143-.656.2-.982l.024-.124.018-.14c.033-.217.06-.432.082-.647.007-.074.017-.149.024-.224q.037-.421.047-.838l0-.047,0-.132q0-.369-.016-.732c0-.084-.008-.167-.015-.251-.019-.277-.046-.552-.085-.824l0-.047,0-.01c-.024-.164-.055-.326-.086-.488s-.06-.3-.094-.449-.064-.287-.1-.429c-.025-.09-.054-.178-.081-.268-.04-.134-.077-.27-.123-.4-.032-.1-.069-.19-.1-.285-.046-.124-.09-.25-.139-.373l-.011-.028-.058-.129c-.08-.191-.163-.38-.254-.567-.039-.082-.081-.162-.122-.243-.081-.158-.165-.315-.254-.472-.047-.083-.094-.167-.144-.249q-.144-.24-.3-.475c-.047-.071-.092-.143-.14-.213-.154-.224-.315-.447-.485-.665-.256-.329-.532-.644-.819-.951L708,69.705l-.17-.16q-.4-.4-.825-.777c-.1-.086-.2-.173-.3-.258-.37-.3-.748-.6-1.148-.872L703.1,65.963h0l.005,0a17.973,17.973,0,0,0-9.941-3.049h-.081c-.328,0-.655.011-.98.029.01-.2.022-.4.027-.587a34.975,34.975,0,0,0,4.319.227c.782.011,1.557.021,2.306.063.769.036,1.537.109,2.312.184,1.13.1,2.3.21,3.455.216l.35,0a4.979,4.979,0,0,0,.739-.073l.058-.006.021,0,.183-.048c.158-.035.314-.074.469-.124l.116-.031h0l.03-.011c.073-.025.144-.058.218-.088l.178-.072c.171-.074.34-.156.5-.247l.045-.024c.179-.1.352-.212.521-.33l.143-.106c.118-.089.235-.181.348-.279l.151-.133c.113-.1.222-.214.326-.325l.107-.112a5.841,5.841,0,0,0,.376-.469l.017-.021.027-.046c.076-.109.151-.22.218-.334l.005-.008c.054-.093.1-.186.154-.281l.005-.012.021-.051.024-.041c.056-.116.094-.236.14-.355.028-.074.066-.144.09-.219l.006-.029.013-.031a4.155,4.155,0,0,0,.134-.569l.011-.074.054-.162.019-.08c.038-.133.07-.268.094-.4l.018-.078,0-.03a4.174,4.174,0,0,0,.047-.522l0-.041,0-.067a4,4,0,0,0-.035-.548l0-.045,0-.018a4,4,0,0,0-.085-.415l-.031-.1c-.029-.1-.062-.2-.1-.3l-.011-.037c-.039-.1-.082-.189-.129-.28a1.566,1.566,0,0,0-.126-.2l-.094-.135a4.157,4.157,0,0,0-.535-.43L706.9,52.93l0,0a5.69,5.69,0,0,0-.662-.386l-.146-.039c-2.025-.094-4.173-.15-6.555-.163q-.667,0-1.334,0Z" transform="translate(-5.165 -3.906)" fill="#b4b4b4" style="mix-blend-mode: multiply;isolation: isolate"/>
      <g id="Group_28086" data-name="Group 28086" transform="translate(671.956 47.441)">
        <path id="Path_40472" data-name="Path 40472" d="M689.046,147.516c.8.59,1.6,1.281,2.359,1.953a31.032,31.032,0,0,0,2.873,2.325l2.455,1.675a30.773,30.773,0,0,1-2.874-2.325c-.762-.672-1.557-1.364-2.359-1.953l-.157-.112-2.454-1.675.023.017-.023-.016Z" transform="translate(-684.77 -120.393)" fill="url(#linear-gradient)"/>
        <path id="Path_40473" data-name="Path 40473" d="M706.22,75.238q.037-.422.046-.838c0-.016,0-.032,0-.047,0-.045,0-.088,0-.132q0-.368-.016-.731c0-.084-.008-.167-.015-.251-.02-.277-.046-.554-.085-.827,0-.014,0-.028,0-.043l0-.01c-.027-.184-.061-.366-.1-.547-.025-.129-.054-.256-.083-.383-.033-.146-.065-.292-.1-.436-.024-.088-.054-.174-.079-.262-.04-.137-.078-.273-.124-.408-.031-.094-.069-.187-.1-.281-.046-.126-.091-.253-.14-.377,0-.009-.006-.019-.01-.028-.018-.044-.04-.086-.058-.129-.08-.191-.164-.38-.255-.567-.039-.082-.081-.162-.122-.243-.082-.158-.165-.316-.253-.472-.047-.083-.095-.166-.145-.249q-.144-.24-.3-.474c-.047-.071-.091-.143-.14-.213-.154-.224-.314-.447-.485-.666-.256-.328-.531-.644-.819-.951-.023-.025-.043-.052-.067-.077-.053-.056-.115-.105-.17-.16q-.4-.4-.825-.776c-.1-.086-.2-.173-.3-.258-.37-.3-.748-.6-1.149-.872l-2.454-1.675h0c.4.272.778.567,1.146.87.1.086.2.174.305.262q.427.372.82.773c.08.081.162.158.24.24l.016.019c-.09-.064-.176-.133-.268-.2l-2.454-1.674h0c-.107-.073-.223-.137-.332-.209a17.7,17.7,0,0,0-9.416-2.781c-.356,0-.713.009-1.069.029.02-.33.034-.641.043-.937a35.03,35.03,0,0,0,4.319.227c.782.01,1.557.021,2.306.063.769.036,1.537.11,2.311.184,1.13.1,2.3.209,3.455.216l.349,0a4.895,4.895,0,0,0,.739-.073c.019,0,.039,0,.059-.006l-.008-.006h0l.008.006.021,0c.062-.011.122-.034.183-.048.158-.035.314-.074.469-.124.037-.013.078-.018.116-.031h0l.03-.011c.074-.025.144-.058.218-.088s.119-.046.178-.071c.171-.075.34-.157.5-.247l.046-.024a6.109,6.109,0,0,0,.521-.33c.048-.034.094-.071.143-.106.119-.089.236-.182.348-.279.051-.044.1-.088.151-.133q.17-.157.326-.326c.036-.037.074-.074.107-.112a5.864,5.864,0,0,0,.376-.469l.016-.021c.011-.015.018-.031.028-.046.076-.109.151-.22.218-.333l0-.008c.055-.093.106-.187.155-.281l.005-.013c.008-.016.013-.034.021-.051s.017-.027.024-.041c.055-.116.095-.236.14-.355.028-.074.066-.144.09-.219,0-.01,0-.019.006-.029a.285.285,0,0,0,.013-.03,4.342,4.342,0,0,0,.134-.57l.011-.074.053-.162c.008-.026.012-.053.019-.079q.057-.2.095-.4c0-.026.014-.052.018-.078,0-.01,0-.021,0-.031a4.043,4.043,0,0,0,.047-.521c0-.013,0-.027,0-.041s0-.044,0-.067a4.058,4.058,0,0,0-.034-.548c0-.015,0-.03,0-.045s0-.013,0-.019a4.107,4.107,0,0,0-.085-.415c-.009-.033-.021-.065-.032-.1-.029-.1-.062-.2-.1-.3,0-.012-.007-.025-.011-.037-.039-.1-.082-.189-.129-.28a1.593,1.593,0,0,0-.126-.2l-.094-.134a4.1,4.1,0,0,0-.535-.43l-2.453-1.675a4.3,4.3,0,0,1,.535.431l.094.134a1.618,1.618,0,0,1,.125.2c.042.082.078.168.112.254l-1.059-.723a5.636,5.636,0,0,0-.628-.367c-.394-.021-.788-.03-1.182-.045.036.115.067.232.092.349-1.7-.07-3.5-.105-5.457-.116-1.448-.008-2.9,0-4.359.015-.712.009-1.429.018-2.148.02-1.55.011-3.152.021-4.728.077l-.407.01c-1.449.037-3.254.091-4.33,1.014a3.9,3.9,0,0,0-.43.439c-.038.044-.074.09-.11.136s-.082.1-.118.147-.051.095-.082.14a4.493,4.493,0,0,0-.234.4c-.023.046-.055.086-.077.133s-.026.071-.041.106a5.94,5.94,0,0,0-.222.574c-.012.04-.032.077-.045.118,0,.014-.007.029-.011.043-.029.1-.053.2-.079.3-.03.118-.063.235-.088.354s-.043.222-.064.333c-.017.093-.037.184-.053.277,0,.016,0,.032-.005.048-.077.487-.134.984-.189,1.476-.056.515-.11,1.05-.16,1.591-.014.146-.026.289-.039.436-.048.574-.093,1.154-.125,1.749V58.9c-.022.432-.039.867-.047,1.306,0,.143,0,.287,0,.431s0,.3,0,.452c0,.605.02,1.213.061,1.822l.022.421c0,.093.011.2.018.321,0,.043.005.08.008.125.008.128.018.267.029.413,0,.039.005.075.008.114.013.155.027.314.045.48,0,.032.006.064.01.1.019.175.041.355.067.534a.03.03,0,0,1,0,.009c0,.015,0,.029.007.044.018.118.037.235.058.351.007.043.015.084.024.126.018.094.036.186.056.277.01.042.019.084.029.125.025.1.052.2.081.3l.018.068q.055.177.118.336a.229.229,0,0,0,.008.024c.007.016.015.03.022.046a2.676,2.676,0,0,0,.117.242l.045.08a1.662,1.662,0,0,0,.155.216c.007.006.011.016.017.022l0,0a.982.982,0,0,0,.165.146l1.205.823a2.823,2.823,0,0,1-.512.049,2.545,2.545,0,0,1-.688-.1,1.36,1.36,0,0,1-.395-.187l2.454,1.675a1.4,1.4,0,0,0,.395.186,2.551,2.551,0,0,0,.689.1,3.811,3.811,0,0,0,2.33-.908,10.312,10.312,0,0,1,6.449-2.059c.305,0,.61.014.912.038a11.894,11.894,0,0,1,5.721,1.946l-2.454-1.675c-.258-.177-.531-.339-.81-.494-.075-.041-.152-.08-.228-.12a12.615,12.615,0,0,1,2.556.936c.145.134.3.264.43.405s.275.3.4.449c.168.2.32.409.464.62.042.06.081.12.12.181q.167.259.312.525c.025.048.052.093.077.141.11.216.209.438.3.661.066.167.119.339.172.509.032.1.07.2.1.307.054.2.093.412.129.622.013.077.034.151.045.228,0,.021,0,.042.007.063.031.23.05.462.059.7,0,.076,0,.151,0,.226,0,.2,0,.41-.014.617,0,.055-.005.111-.009.166-.023.275-.057.553-.107.833a7.6,7.6,0,0,1-.208.856c-.02.065-.046.127-.068.191a7.722,7.722,0,0,1-.284.728c-.056.122-.113.244-.174.362-.042.079-.082.158-.126.236-.086.151-.177.3-.273.441-.038.058-.074.119-.114.175s-.078.1-.115.152a8.132,8.132,0,0,1-.559.678c-.058.064-.116.129-.177.192a8.928,8.928,0,0,1-.744.687c-.039.032-.081.061-.12.092q-.352.278-.729.522c-.076.05-.154.1-.23.147-.289.178-.585.346-.891.5-.037.018-.075.033-.112.051-.279.132-.564.252-.852.36-.086.032-.171.064-.257.095-.323.112-.648.216-.978.3l-.066.015c-.312.077-.626.138-.941.187-.087.014-.173.027-.26.038-.334.045-.667.081-1,.095-.116,0-.233.007-.348.006a7.777,7.777,0,0,1-3.655-.983c-.57-.46-1.128-.943-1.679-1.426-.789-.693-1.533-1.345-2.31-1.915l-.134-.1-2.455-1.674a2.4,2.4,0,0,0-1.3-.491,1.26,1.26,0,0,0-.338.048c-.028.007-.054.015-.081.025a1.351,1.351,0,0,0-.3.138h0a1.811,1.811,0,0,0-.277.224c-.02.02-.042.04-.061.061a3.25,3.25,0,0,0-.567.851l0,.006,0,.014a5.9,5.9,0,0,0-.3.777c0,.01-.009.019-.012.028s-.007.027-.011.04c-.052.171-.1.345-.14.524-.008.033-.015.065-.022.1-.04.182-.076.366-.106.55a.04.04,0,0,0,0,.009c0,.008,0,.016,0,.023-.036.227-.066.454-.086.675-.024.24-.046.469-.065.692-.005.069-.01.136-.014.2-.012.159-.021.316-.026.468,0,.041-.005.086-.007.127,0,.059,0,.116,0,.174s0,.125,0,.186c0,.121.014.24.026.357,0,.046.007.093.013.138,0,.012,0,.024,0,.036a3.53,3.53,0,0,0,.09.436c.007.028.019.056.027.084.031.1.062.206.1.308.008.016.019.033.026.05a3.688,3.688,0,0,0,.18.346c.032.056.058.112.094.168a3.969,3.969,0,0,0,.39.508l.116.123c.131.138.276.261.417.389.078.07.149.146.229.214a9.38,9.38,0,0,0,.76.576l.008.005-.008,0,.018.012,2.436,1.663a13.256,13.256,0,0,0,1.877,1.048,15.406,15.406,0,0,1-1.58-.522c-.224-.089-.465-.188-.716-.3a14.82,14.82,0,0,1-2.43-1.313l0,0,0,0,2.455,1.674a14.767,14.767,0,0,0,2.428,1.314c.253.11.493.209.718.3a17.648,17.648,0,0,0,6.362,1.166,20.965,20.965,0,0,0,7.3-1.271c.38-.142.752-.3,1.118-.464.114-.052.225-.108.337-.162.253-.121.5-.247.749-.378.124-.067.245-.135.367-.2.236-.135.468-.276.7-.421.11-.071.221-.138.329-.211q.419-.278.817-.58c.048-.036.1-.069.146-.106.311-.239.61-.49.9-.748.086-.077.169-.158.254-.236q.306-.282.6-.577c.1-.1.195-.2.291-.306q.265-.282.518-.579c.089-.1.179-.208.266-.315.186-.229.364-.463.538-.7.046-.063.1-.122.144-.186.009-.013.017-.028.026-.041.245-.348.475-.706.693-1.073.058-.1.112-.2.168-.294q.251-.441.477-.9c.031-.065.07-.126.1-.192.02-.041.035-.084.054-.126.111-.237.213-.478.313-.721.044-.109.092-.216.135-.326.135-.352.261-.709.374-1.071l.007-.019c.1-.319.188-.643.267-.97s.143-.657.2-.983c.007-.04.018-.083.025-.123s.01-.092.018-.138c.033-.217.059-.434.082-.65C706.2,75.386,706.214,75.312,706.22,75.238Z" transform="translate(-673.837 -48.708)" fill="url(#linear-gradient-2)"/>
      </g>
      <path id="Path_40474" data-name="Path 40474" d="M699.317,63.681a17.12,17.12,0,0,0-13.265-6.141,16.887,16.887,0,0,0-3.651.369c.008-.2.023-.407.037-.611.07-.75.107-1.4.125-1.991a34.964,34.964,0,0,0,4.318.227c.781.01,1.557.021,2.306.063.769.036,1.537.11,2.312.184,1.13.1,2.3.209,3.455.216l.349,0a5.769,5.769,0,0,0,5.4-4.552,4.017,4.017,0,0,0-.164-3.125,1.611,1.611,0,0,0-.125-.2l-.094-.134a4.82,4.82,0,0,0-1.194-.814l-.147-.039c-2.025-.094-4.173-.15-6.555-.162q-2.182-.012-4.372.015c-.711.009-1.43.018-2.142.02-1.556.011-3.164.021-4.747.077l-.407.01c-1.557.042-3.5.1-4.77,1.184-1.638,1.4-1.88,3.572-2.1,5.588a44.862,44.862,0,0,0-.3,7.83l.022.407c.094,1.674.252,4.793,1.823,5.246a2.545,2.545,0,0,0,.688.1,3.8,3.8,0,0,0,2.331-.907,10.313,10.313,0,0,1,6.448-2.059,11.2,11.2,0,0,1,8.438,3.608,6.953,6.953,0,0,1,1.507,5.823c-.721,4.024-4.974,6.356-8.609,6.515-.108,0-.214.007-.319.005-2.879-.015-5.139-1.995-7.323-3.909-.763-.672-1.557-1.363-2.359-1.953a3.21,3.21,0,0,0-1.843-.723c-1.887-.01-2.8,2.435-3.027,4.73-.181,1.781-.327,3.327,1.026,4.822a12.832,12.832,0,0,0,4.8,3.029,17.653,17.653,0,0,0,6.364,1.166,20.928,20.928,0,0,0,7.3-1.271,17.054,17.054,0,0,0,10.689-11.9A12.192,12.192,0,0,0,699.317,63.681Zm-8.711,21.974a20.118,20.118,0,0,1-7.051,1.222,16.86,16.86,0,0,1-6.11-1.114,12.231,12.231,0,0,1-4.531-2.842c-1.145-1.266-1.02-2.532-.846-4.281.181-1.9.9-4.1,2.316-4.091a2.551,2.551,0,0,1,1.432.587c.777.569,1.52,1.223,2.309,1.914,2.287,2,4.65,4.067,7.788,4.084.115,0,.231,0,.348-.006,4.011-.17,8.487-2.665,9.275-7.1a7.6,7.6,0,0,0-1.654-6.4,11.908,11.908,0,0,0-8.977-3.866,11.074,11.074,0,0,0-6.894,2.209,3.113,3.113,0,0,1-1.886.756,1.871,1.871,0,0,1-.5-.069c-1.083-.311-1.247-3.43-1.313-4.6l-.022-.421a44.131,44.131,0,0,1,.309-7.8c.207-1.869.42-3.809,1.848-5.029,1.076-.923,2.88-.977,4.33-1.014l.407-.01c1.576-.056,3.178-.066,4.728-.077.718,0,1.436-.011,2.148-.02q2.183-.027,4.359-.015c1.959.011,3.753.047,5.457.116h0q.5.021,1,.045a3.716,3.716,0,0,1,.955.673l.081.14a3.422,3.422,0,0,1,.1,2.667,5.072,5.072,0,0,1-4.717,3.97l-.338,0c-1.124-.006-2.279-.114-3.4-.215-.774-.074-1.555-.142-2.336-.184-.756-.042-1.538-.053-2.332-.063a32.768,32.768,0,0,1-4.624-.279l-.406-.066,0,.414c-.007.688-.044,1.432-.128,2.341-.03.363-.044.732-.054,1.107l-.011.464.446-.112a16.84,16.84,0,0,1,16.645,5.421,11.5,11.5,0,0,1,2.093,10.127,16.043,16.043,0,0,1-1.323,3.541A16.467,16.467,0,0,1,690.606,85.655Z" fill="url(#linear-gradient-3)"/>
      <path id="Path_40475" data-name="Path 40475" d="M700.637,65.991a16.84,16.84,0,0,0-16.645-5.421l-.446.112.011-.464c.01-.375.025-.744.054-1.107.084-.909.122-1.653.128-2.341l0-.414.406.066a32.765,32.765,0,0,0,4.624.279c.794.01,1.576.021,2.332.063.781.043,1.562.11,2.336.184,1.119.1,2.273.209,3.4.215l.337,0a5.088,5.088,0,0,0,4.73-4.041,3.322,3.322,0,0,0-.117-2.6l-.112-.185a4.035,4.035,0,0,0-.923-.628q-.493-.025-1-.045c-1.7-.07-3.5-.106-5.457-.117q-2.172-.012-4.359.015c-.712.009-1.429.018-2.148.02-1.55.011-3.152.021-4.728.077l-.407.011c-1.449.037-3.253.091-4.33,1.014-1.427,1.22-1.641,3.16-1.855,5.125a43.385,43.385,0,0,0-.3,7.709l.022.421c.065,1.171.23,4.289,1.313,4.6a1.872,1.872,0,0,0,.5.069,3.113,3.113,0,0,0,1.886-.756,11.075,11.075,0,0,1,6.894-2.209,11.908,11.908,0,0,1,8.977,3.866,7.6,7.6,0,0,1,1.654,6.4c-.788,4.43-5.264,6.925-9.275,7.1-.117,0-.233.007-.348.006-3.138-.018-5.5-2.083-7.788-4.084-.789-.691-1.533-1.345-2.309-1.914a2.551,2.551,0,0,0-1.432-.587c-1.417-.007-2.135,2.2-2.316,4.091-.174,1.749-.3,3.015.846,4.281a12.22,12.22,0,0,0,4.531,2.842,16.861,16.861,0,0,0,6.11,1.114,20.136,20.136,0,0,0,7.051-1.221,16.472,16.472,0,0,0,8.924-7.871,16.04,16.04,0,0,0,1.323-3.541A11.5,11.5,0,0,0,700.637,65.991Z" transform="translate(-1.878 -1.874)" fill="url(#linear-gradient-4)"/>
      <path id="Path_40476" data-name="Path 40476" d="M719,49.984q.5.021,1,.045a4.032,4.032,0,0,1,.923.628l.113.185a3.322,3.322,0,0,1,.117,2.6,5.088,5.088,0,0,1-4.73,4.041l-.337,0c-1.124-.006-2.279-.114-3.4-.215-.774-.074-1.555-.142-2.336-.184-.756-.042-1.538-.053-2.332-.063a32.767,32.767,0,0,1-4.624-.279l-.406-.066,0,.414c-.007.688-.044,1.432-.128,2.341-.03.363-.044.732-.054,1.107L702.79,61l.446-.112a16.84,16.84,0,0,1,16.645,5.421,11.5,11.5,0,0,1,2.093,10.127,16.047,16.047,0,0,1-1.323,3.541,16.967,16.967,0,0,0,.711-3.379,12.868,12.868,0,0,0-6.137-12.688,17.756,17.756,0,0,0-9.246-2.626,16.443,16.443,0,0,0-5.066.749,18.027,18.027,0,0,1-.567-5.151c.04-.738.566-.881,1.15-.878.192,0,.39.018.58.034.169.012.331.029.477.03.952-.009,1.829-.036,2.706-.069a43.53,43.53,0,0,0,9.8-1.284c1.981-.53,3.724-1.475,4-3.663A3.171,3.171,0,0,0,719,49.984Z" transform="translate(-21.122 -2.194)" opacity="0.5" fill="url(#linear-gradient-5)" style="mix-blend-mode: multiply;isolation: isolate"/>
    </g>
    <g id="Group_28867" data-name="Group 28867" transform="translate(2614.469 7413.738)">
      <path id="Path_40443" data-name="Path 40443" d="M75.24,46.934a6.435,6.435,0,0,0-1.891.335,40.951,40.951,0,0,0-6.361,4.787c-.835.713-1.623,1.386-2.351,1.959-.22.2-.447.4-.695.6-.2.165-.42.343-.656.528-1.622,1.286-3.852,3.047-3.7,5.08A6.224,6.224,0,0,0,62.051,64.4l-.032-.019,2.561,1.748a2.7,2.7,0,0,0,1.5.519h.011a1.979,1.979,0,0,0,.221-.012,4.523,4.523,0,0,0,2.344-1.18c-.1.993-.191,1.98-.3,2.957-.224,2.116-.527,4.273-.823,6.356-.389,2.761-.791,5.62-1.015,8.448l-.015.153c-.146,1.751-.338,4.109,1.387,5.28l-.006,0,.011.007c.089.06.183.117.282.171a3.111,3.111,0,0,1-.276-.167l2.545,1.736a3.187,3.187,0,0,0,.37.218,6.513,6.513,0,0,0,2.886.559h.084c.476,0,.958-.022,1.415-.045l.829-.035a4.715,4.715,0,0,0,3.454-1.382,4.248,4.248,0,0,0,.357-.438l.02-.024.035-.061c.073-.105.146-.21.21-.323l.068-.123.054-.124.069-.12-.013-.009h0l.013.009c.056-.117.094-.246.143-.368s.109-.26.154-.4l.039-.1c.071-.228.128-.463.18-.7l.031-.163c.022-.114.047-.227.066-.342s.023-.205.036-.307c.024-.175.045-.35.063-.528s.03-.356.041-.536c.005-.091.017-.182.02-.274l0-.082c0-.077,0-.155,0-.233l.008-.168c0-.069,0-.135,0-.2.005-.441,0-.88-.013-1.311-.027-.874-.039-1.752-.045-2.63,0-.255,0-.509,0-.763q0-1.012.016-2.025c0-.222.005-.444.01-.667q.026-1.281.071-2.562l.008-.194q.044-1.208.1-2.41c.013-.256.024-.512.037-.766q.048-.973.1-1.943c.013-.235.024-.472.038-.706q.067-1.226.137-2.443l.031-.524c.055-.949.164-1.978.272-3.073.039-.39.079-.787.117-1.188.017-.169.03-.339.046-.509.021-.244.045-.487.065-.733.015-.181.024-.364.037-.546.017-.238.036-.476.049-.716.01-.187.015-.374.025-.562.01-.236.02-.473.026-.709l0-.13c.007-.322.007-.644,0-.964l-.006-.165c-.005-.314-.019-.627-.039-.938-.006-.109-.015-.219-.023-.329-.022-.283-.049-.565-.085-.844-.011-.087-.018-.175-.031-.262l-.012-.107q-.075-.508-.18-1c-.065-.2-.145-.413-.236-.642L81.6,51.7c-.077-.189-.168-.386-.266-.583l-.085-.161c-.091-.173-.194-.343-.3-.512l-.087-.132a4.385,4.385,0,0,0-.407-.5l-.1-.106a3.843,3.843,0,0,0-.508-.416L77.28,47.54l.062.043a3.526,3.526,0,0,0-2.08-.649Z" transform="translate(-5.081 -3.842)" fill="#b4b4b4" style="mix-blend-mode: multiply;isolation: isolate"/>
      <path id="Path_40444" data-name="Path 40444" d="M76.81,55.194c.015-.181.025-.364.038-.546.017-.239.035-.476.049-.716.01-.187.015-.374.025-.562.01-.236.02-.473.026-.709,0-.044,0-.087,0-.131.006-.322.006-.644,0-.964,0-.055,0-.11-.005-.165-.006-.314-.019-.627-.039-.938-.006-.11-.015-.219-.023-.329q-.033-.425-.084-.844c-.011-.087-.019-.176-.031-.263-.005-.035-.008-.071-.012-.106q-.075-.509-.18-1.005c-.066-.2-.145-.413-.236-.642l-.007-.02c-.077-.189-.168-.386-.266-.583-.027-.054-.057-.107-.085-.161q-.138-.26-.3-.512c-.03-.044-.055-.089-.087-.132a4.361,4.361,0,0,0-.407-.5l-.1-.106a3.827,3.827,0,0,0-.507-.417l-2.561-1.748a3.694,3.694,0,0,1,.507.417,4.427,4.427,0,0,1,.512.608c.03.043.056.088.085.132.017.025.031.052.047.077l-1.36-.929a3.015,3.015,0,0,0-.862-.406l-.019-.007c-.057-.016-.117-.023-.176-.036a3.542,3.542,0,0,0-.756-.09,6.129,6.129,0,0,0-1.731.282,23.927,23.927,0,0,0-3.308,2.266l.318.217c-1.048.819-2.092,1.707-3.068,2.544-.842.713-1.637,1.392-2.358,1.966-.213.192-.448.4-.695.6-.207.172-.434.35-.675.541l-.311.246-.121.1-.223.18-.138.113c-.074.061-.148.122-.222.185l-.128.108c-.113.1-.226.2-.337.295l-.042.04c-.1.089-.194.177-.288.268l-.108.107c-.072.071-.144.143-.213.216l-.109.116c-.071.077-.139.154-.2.232-.029.033-.058.066-.085.1-.092.111-.179.222-.259.335l0,.006-.006.009a4.256,4.256,0,0,0-.359.6.1.1,0,0,1-.008.013c-.009.019-.014.039-.023.057-.042.094-.08.189-.112.283-.006.019-.016.037-.022.056s-.011.054-.018.08c-.016.056-.029.112-.04.169,0,.023-.013.047-.017.071s0,.051-.007.077c-.006.049-.01.1-.013.146,0,.023-.006.045-.006.069l0,.173c0,.065.012.133.022.2.006.038.019.081.027.121.015.086.034.172.057.261s.041.151.065.229.061.183.1.277c.017.045.028.088.046.134s.035.073.051.11c.035.081.072.16.111.241s.084.17.129.255.088.159.135.238.1.165.154.245.1.152.156.225.115.154.175.229.113.137.172.2c.031.035.059.074.091.107s.09.086.134.129.071.07.107.1a3.581,3.581,0,0,0,.367.3L58.725,60.4c-.08.015-.16.033-.241.043a2.1,2.1,0,0,1-.231.011,2.7,2.7,0,0,1-1.5-.519l2.561,1.748a2.7,2.7,0,0,0,1.5.519,1.977,1.977,0,0,0,.231-.012,5.625,5.625,0,0,0,3.164-1.962c-.016.171-.035.346-.051.517-.109,1.108-.218,2.21-.333,3.3-.224,2.13-.528,4.293-.825,6.383-.382,2.747-.785,5.594-1.014,8.4l-.008.153c-.017.213-.034.432-.05.654,0,.071-.006.143-.01.215-.01.155-.017.31-.021.466,0,.024,0,.047,0,.071,0,.1,0,.206,0,.31,0,.085,0,.17,0,.255.006.145.02.287.035.428.007.063.009.127.017.188a.2.2,0,0,0,0,.022,4.462,4.462,0,0,0,.11.524c.013.047.032.093.046.139.026.084.049.169.081.248.017.042.043.08.062.121.026.056.053.11.084.164a2.3,2.3,0,0,0,.207.314c.033.044.064.089.1.131.017.018.029.039.045.057a2.231,2.231,0,0,0,.362.306l.006.006.005,0,0,0,1.686,1.151.265.181a5.488,5.488,0,0,1-2.019-.516,3.569,3.569,0,0,1-.369-.218l2.561,1.748a3.34,3.34,0,0,0,.37.218,6.527,6.527,0,0,0,2.887.56c.5,0,1.014-.021,1.5-.045l.829-.035a4.721,4.721,0,0,0,3.454-1.384,4.473,4.473,0,0,0,.357-.437c.006-.009.013-.016.019-.025s.022-.042.036-.061c.073-.105.145-.211.21-.322l.069-.123c.021-.039.033-.084.053-.123s.049-.077.07-.12l-.013-.009h0l.013.009c.056-.117.094-.246.143-.368s.109-.26.154-.4c.011-.036.029-.068.039-.1.07-.227.128-.463.18-.7.012-.053.021-.108.032-.163.022-.114.047-.226.066-.342.016-.1.022-.2.035-.305.024-.176.045-.351.063-.53s.03-.356.04-.535c.005-.092.017-.182.021-.274l0-.083c0-.078,0-.155,0-.233,0-.057.007-.112.008-.168s0-.136,0-.2c0-.44,0-.88-.013-1.311-.027-.875-.039-1.752-.045-2.631,0-.254,0-.508,0-.762q0-1.012.017-2.026c0-.222.006-.444.01-.666q.027-1.282.071-2.563c0-.063.007-.125.008-.187q.044-1.21.1-2.419c.013-.253.024-.508.038-.761q.048-.975.1-1.947c.013-.234.024-.469.038-.7q.067-1.227.137-2.445l.031-.524c.055-.949.164-1.978.272-3.073.038-.39.079-.787.117-1.188.016-.168.029-.339.045-.509C76.767,55.683,76.79,55.441,76.81,55.194Z" transform="translate(-1.849 -0.932)" fill="#3d2755"/>
      <path id="Path_40445" data-name="Path 40445" d="M73.308,47.276a5.632,5.632,0,0,0-1.3-2.324,2.743,2.743,0,0,0-2-.814,5.639,5.639,0,0,0-1.6.263A22.964,22.964,0,0,0,65.45,46.4c-1.108.857-2.214,1.8-3.246,2.687-.842.713-1.637,1.392-2.358,1.966-.214.192-.448.4-.695.6-.207.172-.434.35-.675.541-1.5,1.181-3.539,2.8-3.42,4.444.109,1.5,1.635,3.982,3.194,3.99l.161-.008c1.626-.177,3.276-2.3,4.6-4.013.415-.542.811-1.051,1.172-1.448l.783-.872-.149,1.168c-.257,2.064-.467,4.167-.664,6.2-.109,1.108-.218,2.21-.333,3.3-.224,2.13-.528,4.293-.825,6.383-.382,2.747-.785,5.594-1.014,8.4l-.008.153c-.141,1.751-.319,3.929,1.351,4.781a5.659,5.659,0,0,0,2.555.479c.491,0,.981-.021,1.46-.045l.646-.027.2-.009a3.949,3.949,0,0,0,2.935-1.152c1.358-1.441,1.467-4.044,1.388-6.4-.177-5.711.152-11.54.48-17.169l.024-.524c.055-.969.163-2,.272-3.106C73.59,53.672,73.939,50.214,73.308,47.276Z" transform="translate(-1.848 -1.845)" fill="#be5bd9"/>
      <path id="Path_40446" data-name="Path 40446" d="M96.017,44.138a2.743,2.743,0,0,1,2,.814,5.632,5.632,0,0,1,1.3,2.324c.631,2.938.283,6.4-.022,9.443-.11,1.1-.218,2.137-.272,3.106L99,60.349c-.327,5.629-.656,11.458-.48,17.169.079,2.357-.03,4.96-1.388,6.4a3.949,3.949,0,0,1-2.935,1.152l-.2.009a177.581,177.581,0,0,0,1.94-29.1c-.09-3.287-.007-7.75-3.547-9.289a4.821,4.821,0,0,0-.933-.293A22.964,22.964,0,0,1,94.413,44.4,5.639,5.639,0,0,1,96.017,44.138Z" transform="translate(-27.855 -1.845)" fill="#923da2" opacity="0.6" style="mix-blend-mode: multiply;isolation: isolate"/>
      <path id="Path_40447" data-name="Path 40447" d="M72.171,45.236a6.707,6.707,0,0,0-1.5-2.657,3.516,3.516,0,0,0-2.525-1.023,6.378,6.378,0,0,0-1.913.335,40.951,40.951,0,0,0-6.361,4.787c-.835.713-1.623,1.386-2.351,1.96-.221.2-.448.4-.695.6-.2.165-.421.343-.655.528-1.623,1.286-3.853,3.047-3.7,5.08.131,1.842,1.949,4.665,3.933,4.675a2.1,2.1,0,0,0,.231-.011c1.939-.215,3.7-2.477,5.11-4.3.12-.152.234-.3.349-.45-.194,1.672-.36,3.345-.52,4.978-.11,1.108-.212,2.2-.328,3.292-.224,2.117-.528,4.273-.823,6.357-.389,2.76-.791,5.62-1.015,8.448l-.015.152c-.155,1.865-.363,4.42,1.75,5.495a6.546,6.546,0,0,0,2.886.56c.5,0,1.015-.021,1.5-.045l.829-.036a4.718,4.718,0,0,0,3.454-1.382c1.54-1.639,1.67-4.427,1.585-6.931-.176-5.684.153-11.493.473-17.109l.031-.524c.055-.949.163-1.978.272-3.072C72.485,51.845,72.833,48.327,72.171,45.236ZM65.5,83.263c-.478.023-.969.047-1.46.045a5.659,5.659,0,0,1-2.555-.479c-1.671-.852-1.492-3.029-1.351-4.781l.008-.153c.229-2.807.632-5.654,1.014-8.4.3-2.09.6-4.253.825-6.383.115-1.088.224-2.19.333-3.3.2-2.038.407-4.141.664-6.2l.149-1.168-.783.872c-.361.4-.757.906-1.172,1.448-1.328,1.713-2.978,3.836-4.6,4.013l-.16.008c-1.559-.008-3.086-2.494-3.195-3.99-.119-1.641,1.925-3.263,3.42-4.444.241-.191.468-.369.675-.541.247-.2.481-.409.695-.6.721-.573,1.516-1.253,2.358-1.966,1.032-.884,2.137-1.831,3.246-2.687a22.963,22.963,0,0,1,2.956-1.994,5.639,5.639,0,0,1,1.6-.263,2.743,2.743,0,0,1,2,.814,5.632,5.632,0,0,1,1.3,2.324c.631,2.938.283,6.4-.022,9.443-.11,1.1-.218,2.137-.272,3.106l-.024.524c-.327,5.629-.656,11.458-.48,17.169.079,2.357-.03,4.96-1.388,6.4a3.949,3.949,0,0,1-2.935,1.152l-.2.009Z" fill="#d5b6ff"/>
    </g>
  </g>
</svg>
