<svg xmlns="http://www.w3.org/2000/svg" xmlns:xlink="http://www.w3.org/1999/xlink" width="55.726" height="40.135" viewBox="0 0 55.726 40.135">
  <defs>
    <linearGradient id="linear-gradient" x1="0.665" y1="-0.08" x2="-0.226" y2="0.978" gradientUnits="objectBoundingBox">
      <stop offset="0.395" stop-color="#6d5214"/>
      <stop offset="1"/>
    </linearGradient>
    <linearGradient id="linear-gradient-2" x1="-0.044" y1="0.283" x2="0.83" y2="0.637" gradientUnits="objectBoundingBox">
      <stop offset="0" stop-color="#e1a700"/>
      <stop offset="0.214" stop-color="#fac73d"/>
      <stop offset="0.532" stop-color="#ecb329"/>
      <stop offset="0.915" stop-color="#d59208"/>
      <stop offset="1" stop-color="#d08a00"/>
    </linearGradient>
    <linearGradient id="linear-gradient-3" y1="0.5" x2="1" y2="0.5" gradientUnits="objectBoundingBox">
      <stop offset="0" stop-color="#ffcf45"/>
      <stop offset="0.128" stop-color="#f7c842"/>
      <stop offset="0.318" stop-color="#e3b73b"/>
      <stop offset="0.548" stop-color="#c29a30"/>
      <stop offset="0.805" stop-color="#947321"/>
      <stop offset="1" stop-color="#6d5214"/>
    </linearGradient>
    <linearGradient id="linear-gradient-4" x1="0.028" y1="0.465" x2="1.164" y2="0.551" gradientUnits="objectBoundingBox">
      <stop offset="0.005" stop-color="#fff05c"/>
      <stop offset="1" stop-color="#e7ad00"/>
    </linearGradient>
  </defs>
  <g id="_17" data-name="17" transform="translate(-31.366 -36.86)">
    <g id="Group_28798" data-name="Group 28798" transform="translate(-155.147 -193.705)">
      <path id="Path_40710" data-name="Path 40710" d="M221.707,273.023l-.065-.012.059.007.006.005Zm.223-.617-.084-.006-.079-.015.163.021Zm-2.207-.74a2.889,2.889,0,0,1-.229-.19l.022.019c.068.058.133.119.206.171Zm24.628-30.439h0l.009-.024-.009.025Zm.314-2.357a5.055,5.055,0,0,0-.651-.55,5.029,5.029,0,0,1,.651.55Zm-4.452-1.766c-.522,0-1.1.049-1.643.1-.451.049-.879.092-1.266.1-.553.009-1.1.017-1.653.031-.752.008-1.5.021-2.251.045s-1.476.049-2.218.085c-1.27.053-2.569.109-3.868.109h-.236q-.722,0-1.441-.035l-.593-.026c-.632-.032-1.281-.07-1.948-.073h-.108a10.789,10.789,0,0,0-3.28.416,2.1,2.1,0,0,0-1.586,1.487c-.421,1.875,2.213,4.405,2.744,4.893a4.756,4.756,0,0,0,.607.466l-.072-.04,2.2,1.5a6.016,6.016,0,0,0,3.448.932h.054a18.284,18.284,0,0,0,2.524-.22c1.779-.248,3.807-.539,5.983-.9-2.313,2.9-4.57,5.747-6.759,8.588-1.792,2.324-3.437,4.809-5.031,7.214l-.86,1.3c-.433.648-.957,1.313-1.516,2.012a16.149,16.149,0,0,0-2.924,4.668,3.348,3.348,0,0,0-.169,1.158l.022.108a1.921,1.921,0,0,0,.163.321,3.041,3.041,0,0,0,.968.935l-.105-.057,2.2,1.5a5.95,5.95,0,0,0,3.157.871h.047a8.789,8.789,0,0,0,2.955-.525l.172-.1a3.284,3.284,0,0,0,.384-.271c.219-.275.43-.559.636-.848l.014-.018.061-.092c.243-.348.479-.7.708-1.06.071-.112.142-.221.213-.334.226-.358.448-.716.667-1.071.393-.648.8-1.314,1.225-1.945.144-.216.294-.433.444-.649l.312-.448.544-.951c1.376-2.378,2.794-4.834,4.307-7.177l.63-.984c1.305-2.03,2.652-4.128,4.065-6.169.95-1.729,1.835-3.276,2.7-4.732.173-.3.376-.614.584-.938.136-.214.276-.436.416-.662l.123-.2c.136-.223.27-.452.4-.685l.048-.083c.109-.2.215-.4.313-.612l.07-.157c.027-.058.051-.117.077-.175a7.678,7.678,0,0,0,.3-.8l.007-.021a5.285,5.285,0,0,0,.134-.578l.017-.072,0-.053a4.42,4.42,0,0,0,.049-.544l0-.028c0-.11,0-.22-.006-.332a1.893,1.893,0,0,0-.082-.255l-.081-.156-.055-.1a2,2,0,0,0-.266-.357l-.026-.027a5,5,0,0,0-.751-.626l-2.2-1.5.036.028a7.21,7.21,0,0,0-2.832-1.1,4.924,4.924,0,0,0-.862-.07Z" transform="translate(-5.144 -3.89)" fill="#b4b4b4" style="mix-blend-mode: multiply;isolation: isolate"/>
      <path id="Path_40711" data-name="Path 40711" d="M242.349,237.341c0-.009,0-.018,0-.028,0-.109,0-.22-.006-.332a1.884,1.884,0,0,0-.082-.255c-.022-.054-.054-.1-.081-.154-.019-.036-.035-.072-.056-.106a2.063,2.063,0,0,0-.266-.357l-.026-.026a5.009,5.009,0,0,0-.751-.626l-2.2-1.5a5.012,5.012,0,0,1,.751.626,1.994,1.994,0,0,1,.292.384c.021.033.036.068.054.1.005.009.007.02.012.029l-1.277-.871a5.761,5.761,0,0,0-1.131-.586,8.437,8.437,0,0,0-1.556-.442c-.068-.013-.141-.019-.212-.028a5.14,5.14,0,0,0-.629-.043c-.957-.005-2.024.188-2.905.2-.505.013-1.012.02-1.518.028-.8.012-1.592.025-2.386.048-.569.017-1.137.04-1.706.064l-1.411.059-.523.018c-.353.013-.7.026-1.057.035-.207.005-.415.006-.621.009-.355.006-.71.013-1.066.011-.467,0-.934-.012-1.4-.032-.793-.037-1.665-.1-2.547-.1a10.639,10.639,0,0,0-3.274.4,2.8,2.8,0,0,0-.842.429l.279.191a1.562,1.562,0,0,0-.133.1c-.024.02-.041.043-.063.064a1.2,1.2,0,0,0-.118.13c-.006.007-.014.013-.019.02l-.09.154-.005.011-.055.14-.022.082-.013.069c-.007.044-.009.089-.011.135,0,.018,0,.035,0,.054v.006c0,.017,0,.036,0,.054a1.819,1.819,0,0,0,.015.214.113.113,0,0,1,0,.013c0,.022.011.045.015.068.013.071.027.142.048.215.011.039.025.078.037.117.021.063.042.126.067.19.007.017.01.034.018.051s.026.053.037.08c.027.06.054.12.084.181.021.043.043.086.066.129.033.064.069.128.106.193.023.041.046.081.071.121.042.069.085.137.129.206.024.036.046.073.071.109.051.075.1.15.157.224l.062.087c.071.1.143.191.217.285l.016.021c.082.1.165.2.249.3l.046.054c.067.078.134.155.2.229l.087.094c.053.059.107.117.159.173l.029.031.052.053c.07.072.138.142.206.209l.081.081c.087.086.174.168.255.242a4.169,4.169,0,0,0,.473.377l2.007,1.37a5.4,5.4,0,0,1-2.37-.856l2.2,1.5a6.013,6.013,0,0,0,3.449.932,17.949,17.949,0,0,0,2.578-.22c2.024-.282,4.368-.619,6.888-1.055-.11.156-.222.313-.356.478-2.327,2.926-4.6,5.784-6.8,8.647-.555.721-1.092,1.459-1.622,2.2-.047.065-.1.129-.144.2-.1.144-.2.291-.3.437q-.582.831-1.148,1.665c-.134.2-.268.393-.4.591-.469.7-.933,1.393-1.392,2.082l-.865,1.3c-.188.287-.4.575-.618.865-.068.09-.133.181-.2.273-.231.3-.47.6-.718.919q-.292.368-.582.741l-.178.23c-.2.258-.392.518-.579.779-.02.028-.043.055-.063.084s-.042.065-.064.1c-.174.249-.341.5-.5.749-.011.018-.024.036-.035.055-.16.264-.3.529-.434.795-.016.031-.036.062-.051.093s-.02.056-.033.083a6.763,6.763,0,0,0-.3.759l-.017.055a2.8,2.8,0,0,0-.09.381s0,0,0,.006c0,.018,0,.035-.005.054a2.328,2.328,0,0,0-.026.283v.109l0,.011.086.161a2.072,2.072,0,0,0,.257.33c.007.007.017.012.023.02a2.609,2.609,0,0,0,.4.338l1.951,1.331a5.405,5.405,0,0,1-2.308-.807l2.2,1.5a5.956,5.956,0,0,0,3.157.872,8.756,8.756,0,0,0,3-.526l.172-.1a3.173,3.173,0,0,0,.384-.272c.218-.273.427-.554.631-.841l.018-.025c.029-.04.054-.083.083-.124.233-.334.459-.674.679-1.017.078-.121.155-.24.231-.362.222-.352.441-.7.656-1.053.393-.648.8-1.314,1.225-1.945.144-.216.294-.432.444-.648l.312-.449.543-.95c1.377-2.378,2.794-4.835,4.307-7.178l.63-.984c1.306-2.03,2.652-4.128,4.065-6.169.95-1.729,1.835-3.276,2.7-4.732.174-.3.376-.614.584-.938.135-.212.273-.432.411-.655.044-.071.086-.141.13-.212q.2-.328.39-.67c.018-.032.037-.064.055-.1q.165-.3.313-.61c.023-.05.043-.1.066-.151s.055-.124.082-.187a7.761,7.761,0,0,0,.3-.8l.007-.021a5.376,5.376,0,0,0,.133-.573c0-.026.014-.052.018-.078s0-.038.005-.057A4.329,4.329,0,0,0,242.349,237.341Z" transform="translate(-1.858 -0.92)" fill="url(#linear-gradient)"/>
      <path id="Path_40712" data-name="Path 40712" d="M239.184,235.979a5.883,5.883,0,0,0-3.218-1.518,4.323,4.323,0,0,0-.769-.062,15.492,15.492,0,0,0-1.6.1c-.462.049-.9.092-1.312.1-.553.009-1.106.017-1.658.031-.746.008-1.494.02-2.24.045s-1.47.049-2.206.085c-1.36.056-2.752.115-4.144.108-.486,0-.973-.013-1.458-.035l-.6-.026c-.621-.032-1.271-.064-1.92-.067a10.2,10.2,0,0,0-3.189.383,2.715,2.715,0,0,0-.557.242,1.2,1.2,0,0,0-.608.772c-.28,1.271,1.476,3.3,2.555,4.293a4.99,4.99,0,0,0,3.562,1.189,17.744,17.744,0,0,0,2.487-.21c2.242-.319,4.878-.693,7.742-1.208a7.21,7.21,0,0,0,.936-.137,5.5,5.5,0,0,1,1.091-.128,2.887,2.887,0,0,1,.648.074l.535.123-.374.4a8.929,8.929,0,0,0-.98,1.318,12.794,12.794,0,0,1-.779,1.1c-2.327,2.926-4.6,5.784-6.8,8.647-1.781,2.313-3.42,4.786-5.008,7.174l-.865,1.3c-.44.671-.975,1.341-1.539,2.058a15.666,15.666,0,0,0-2.82,4.464,2.588,2.588,0,0,0-.138.889.811.811,0,0,0,.09.173c.652,1.041,2.25,1.427,3.486,1.445.17,0,.338,0,.507-.014a7.863,7.863,0,0,0,2.33-.513c.08-.051.166-.107.247-.164a32.386,32.386,0,0,0,2.228-3.326c.4-.648.809-1.325,1.236-1.962.15-.221.3-.438.456-.66l.289-.426.538-.927c1.377-2.383,2.8-4.846,4.319-7.206l.635-.984c1.305-2.03,2.651-4.134,4.053-6.152.938-1.712,1.823-3.265,2.691-4.727.179-.307.381-.626.6-.956a14.246,14.246,0,0,0,1.674-3.232,3.971,3.971,0,0,0,.194-1.311A1.331,1.331,0,0,0,239.184,235.979Z" transform="translate(-1.857 -1.87)" fill="url(#linear-gradient-2)"/>
      <path id="Path_40713" data-name="Path 40713" d="M237.076,234.4a4.323,4.323,0,0,1,.769.062,5.883,5.883,0,0,1,3.218,1.518,1.331,1.331,0,0,1,.337.572,3.972,3.972,0,0,1-.194,1.311,14.245,14.245,0,0,1-1.674,3.232c-.214.33-.416.648-.6.956-.868,1.462-1.753,3.014-2.691,4.727-1.4,2.018-2.748,4.122-4.053,6.152l-.635.984c-1.518,2.36-2.942,4.823-4.319,7.206l-.538.927-.289.426c-.156.222-.306.438-.456.66-.427.637-.837,1.314-1.236,1.962a32.385,32.385,0,0,1-2.228,3.326c-.081.057-.166.113-.247.164a7.864,7.864,0,0,1-2.33.513q6.32-9.94,12.64-19.886c1.375-2.149,2.953-4.115,4.446-6.184,1.1-1.541,2.676-3.637,2.425-5.653-.234-1.9-2.8-2.161-4.271-2.3-.554-.054-1.112-.08-1.671-.083a66.826,66.826,0,0,0-8.571.913,22.633,22.633,0,0,1-2.941.173,28.122,28.122,0,0,1-3.115-.2,17.313,17.313,0,0,1-2.665-.51,2.714,2.714,0,0,1,.557-.242,10.2,10.2,0,0,1,3.189-.383c.65,0,1.3.036,1.92.067l.6.026c.485.022.971.033,1.458.035,1.392.008,2.784-.051,4.144-.108.736-.036,1.471-.067,2.206-.085s1.494-.038,2.24-.045c.553-.014,1.106-.023,1.658-.031.416-.009.849-.052,1.312-.1A15.492,15.492,0,0,1,237.076,234.4Z" transform="translate(-3.736 -1.87)" opacity="0.3" fill="url(#linear-gradient-3)" style="mix-blend-mode: multiply;isolation: isolate"/>
      <path id="Path_40714" data-name="Path 40714" d="M238.287,234.558a1.928,1.928,0,0,0-.511-.9,6.453,6.453,0,0,0-3.546-1.7,4.874,4.874,0,0,0-.862-.07c-.534,0-1.126.047-1.685.1-.451.049-.879.092-1.266.1-.553.009-1.1.017-1.653.031-.752.008-1.5.021-2.251.045s-1.476.049-2.218.085c-1.347.057-2.727.116-4.1.108-.481,0-.962-.013-1.44-.035l-.593-.026c-.632-.032-1.281-.07-1.948-.074a10.965,10.965,0,0,0-3.388.416,2.1,2.1,0,0,0-1.586,1.486c-.421,1.875,2.213,4.406,2.744,4.893a5.65,5.65,0,0,0,3.983,1.356,17.906,17.906,0,0,0,2.577-.22c2.248-.313,4.89-.693,7.731-1.2a8.6,8.6,0,0,0,.982-.143,4.3,4.3,0,0,1,.924-.121c-.254.324-.456.637-.658.944a11.476,11.476,0,0,1-.739,1.052c-2.333,2.926-4.609,5.8-6.816,8.659-1.792,2.325-3.437,4.809-5.031,7.213l-.86,1.3c-.432.648-.957,1.312-1.516,2.012a16.141,16.141,0,0,0-2.924,4.668,3.362,3.362,0,0,0-.169,1.158l.022.108a1.914,1.914,0,0,0,.162.32c.787,1.259,2.556,1.725,4.02,1.75a8.8,8.8,0,0,0,3-.526l.173-.1a3.232,3.232,0,0,0,.384-.273,33.821,33.821,0,0,0,2.3-3.422c.393-.648.8-1.313,1.225-1.945.144-.216.294-.431.444-.648l.311-.449.544-.95c1.377-2.378,2.794-4.836,4.307-7.178l.63-.983c1.305-2.03,2.65-4.128,4.064-6.169.95-1.729,1.835-3.277,2.7-4.733.174-.3.376-.614.584-.938a14.443,14.443,0,0,0,1.755-3.4A4.59,4.59,0,0,0,238.287,234.558ZM215.6,267.239c-1.167-.017-2.765-.4-3.417-1.444a.811.811,0,0,1-.09-.173,2.588,2.588,0,0,1,.138-.889,15.666,15.666,0,0,1,2.82-4.464c.564-.716,1.1-1.387,1.539-2.058l.865-1.3c1.588-2.388,3.228-4.861,5.008-7.174,2.2-2.864,4.477-5.722,6.8-8.647a12.778,12.778,0,0,0,.779-1.1,8.927,8.927,0,0,1,.98-1.318l.374-.4-.535-.123a2.885,2.885,0,0,0-.648-.074,5.5,5.5,0,0,0-1.091.128,7.21,7.21,0,0,1-.936.137c-2.864.516-5.5.889-7.742,1.208a17.675,17.675,0,0,1-2.487.209,4.987,4.987,0,0,1-3.562-1.189c-1.08-.993-2.835-3.022-2.555-4.293a1.2,1.2,0,0,1,.608-.772,2.716,2.716,0,0,1,.557-.242,10.2,10.2,0,0,1,3.189-.383c.65,0,1.3.036,1.92.067l.6.026c.485.022.971.033,1.458.035,1.392.008,2.784-.051,4.144-.108.736-.036,1.471-.067,2.206-.085s1.494-.038,2.24-.045c.553-.014,1.106-.023,1.658-.031.416-.009.849-.052,1.312-.1a15.484,15.484,0,0,1,1.6-.1,4.322,4.322,0,0,1,.769.062,5.884,5.884,0,0,1,3.218,1.518,1.33,1.33,0,0,1,.337.572,4.31,4.31,0,0,1-.211,1.391,14.646,14.646,0,0,1-1.657,3.152c-.214.33-.416.648-.6.956-.868,1.462-1.753,3.014-2.691,4.727-1.4,2.018-2.748,4.122-4.053,6.152l-.635.984c-1.518,2.36-2.942,4.823-4.319,7.206l-.538.927-.289.426c-.156.222-.306.438-.456.659-.427.637-.837,1.314-1.236,1.962a32.386,32.386,0,0,1-2.228,3.326c-.081.057-.166.113-.327.216a8.411,8.411,0,0,1-2.25.461C216.011,267.236,215.843,267.24,215.6,267.239Z" transform="translate(0 0)" fill="url(#linear-gradient-4)"/>
    </g>
    <g id="Group_28825" data-name="Group 28825" transform="translate(-21.098 -4.696)">
      <path id="Path_40443" data-name="Path 40443" d="M73.311,46.934a5.643,5.643,0,0,0-1.658.294,35.908,35.908,0,0,0-5.577,4.2c-.732.625-1.424,1.215-2.061,1.718-.193.18-.392.353-.609.527-.176.145-.369.3-.575.463-1.422,1.128-3.378,2.672-3.248,4.454a5.458,5.458,0,0,0,2.164,3.662l-.028-.017,2.246,1.533a2.371,2.371,0,0,0,1.313.455h.009a1.735,1.735,0,0,0,.194-.011,3.966,3.966,0,0,0,2.056-1.035c-.086.871-.167,1.736-.259,2.593-.2,1.856-.462,3.747-.722,5.573-.341,2.421-.694,4.928-.89,7.407l-.013.134c-.128,1.535-.3,3.6,1.216,4.63l-.006,0,.01.006c.078.053.161.1.247.15a2.728,2.728,0,0,1-.242-.146l2.231,1.522a2.8,2.8,0,0,0,.324.191,5.711,5.711,0,0,0,2.531.49h.074c.418,0,.84-.02,1.24-.039l.727-.031a4.134,4.134,0,0,0,3.028-1.212,3.725,3.725,0,0,0,.313-.384l.017-.021.031-.053c.064-.092.128-.184.184-.283l.06-.108.047-.109.061-.1-.012-.008h0l.012.008c.049-.1.083-.215.125-.323s.1-.228.135-.348l.034-.09c.062-.2.112-.406.158-.616l.028-.143c.02-.1.042-.2.058-.3s.02-.18.031-.269c.021-.153.04-.307.055-.463s.027-.312.036-.47c0-.08.015-.159.018-.24l0-.072c0-.068,0-.136,0-.2l.007-.147c0-.06,0-.118,0-.178,0-.386,0-.772-.011-1.149-.024-.767-.034-1.536-.039-2.306,0-.223,0-.446,0-.669q0-.888.014-1.776c0-.195,0-.39.009-.585q.023-1.123.062-2.246l.007-.17q.039-1.059.088-2.113c.011-.224.021-.449.033-.671q.042-.853.087-1.7c.012-.206.021-.414.033-.619q.059-1.075.12-2.143l.027-.46c.048-.832.144-1.734.239-2.694.034-.342.069-.69.1-1.042.015-.148.027-.3.041-.446.019-.214.039-.427.057-.643.013-.159.021-.319.032-.479.015-.209.031-.417.043-.628.009-.164.014-.328.022-.492.009-.207.018-.414.023-.622l0-.114c.006-.283.006-.564,0-.846l-.005-.144c0-.275-.017-.55-.034-.823-.006-.1-.013-.192-.02-.288-.02-.248-.043-.5-.074-.74-.009-.076-.016-.154-.027-.23l-.011-.094q-.065-.446-.158-.881c-.057-.171-.127-.362-.207-.563l-.006-.017c-.068-.166-.147-.338-.233-.511l-.075-.142c-.08-.152-.17-.3-.267-.449l-.076-.115a3.844,3.844,0,0,0-.357-.44l-.09-.093A3.37,3.37,0,0,0,77.345,49L75.1,47.465l.054.038a3.092,3.092,0,0,0-1.824-.569Z" transform="translate(-5.331 -4.031)" fill="#b4b4b4" style="mix-blend-mode: multiply;isolation: isolate"/>
      <path id="Path_40444" data-name="Path 40444" d="M74.13,53.675c.013-.159.022-.319.034-.479.015-.209.031-.418.043-.628.009-.164.014-.328.022-.493.009-.207.018-.414.023-.622,0-.038,0-.076,0-.114.006-.283.006-.565,0-.845,0-.049,0-.1,0-.144-.005-.275-.017-.55-.034-.823-.006-.1-.013-.192-.02-.289q-.029-.373-.073-.74c-.01-.077-.017-.154-.028-.23,0-.031-.007-.062-.011-.093q-.065-.446-.158-.881c-.058-.171-.127-.362-.207-.562l-.006-.018c-.067-.166-.147-.338-.233-.511-.024-.048-.05-.093-.075-.141q-.121-.228-.267-.449c-.026-.039-.048-.078-.076-.116a3.823,3.823,0,0,0-.357-.44l-.091-.093a3.356,3.356,0,0,0-.445-.365l-2.246-1.532a3.24,3.24,0,0,1,.444.365,3.883,3.883,0,0,1,.449.533c.026.038.049.077.074.115.015.022.027.045.041.068l-1.193-.814a2.644,2.644,0,0,0-.756-.356l-.017-.006c-.05-.014-.1-.02-.154-.032a3.106,3.106,0,0,0-.663-.079,5.374,5.374,0,0,0-1.518.247,20.98,20.98,0,0,0-2.9,1.987l.279.191c-.919.719-1.834,1.5-2.69,2.23-.739.625-1.436,1.221-2.068,1.724-.187.168-.392.348-.609.527-.181.151-.38.307-.592.474l-.273.216-.106.085-.2.158-.121.1c-.065.053-.13.107-.195.162l-.112.095c-.1.085-.2.171-.3.258l-.037.035c-.085.078-.17.156-.252.235l-.095.093c-.063.062-.126.125-.187.189l-.1.1c-.062.067-.121.135-.18.2-.025.029-.051.058-.075.087-.081.1-.157.195-.227.294l0,.005-.005.008a3.732,3.732,0,0,0-.315.527.088.088,0,0,1-.007.011c-.008.017-.012.034-.02.05-.037.083-.07.166-.1.248-.005.016-.014.033-.019.049s-.01.047-.016.07c-.014.049-.026.1-.035.148,0,.021-.011.041-.015.062s0,.045-.007.068c-.005.043-.009.085-.012.128,0,.02-.005.04-.006.06l0,.151c0,.057.011.116.02.177.005.034.017.071.023.106.014.075.03.151.05.229s.036.133.057.2.053.16.084.243c.015.039.025.077.041.117s.03.064.044.1c.03.071.063.14.1.211s.073.149.113.224.077.139.118.208.088.144.135.215.09.133.137.2.1.135.153.2.1.12.151.178c.027.03.052.065.08.094s.079.075.118.113.062.061.094.09a3.14,3.14,0,0,0,.322.259l1.379.941c-.07.014-.14.029-.211.037a1.842,1.842,0,0,1-.2.01,2.366,2.366,0,0,1-1.313-.455l2.245,1.532a2.366,2.366,0,0,0,1.313.455,1.733,1.733,0,0,0,.2-.01,4.932,4.932,0,0,0,2.774-1.72c-.014.15-.031.3-.045.453-.1.971-.191,1.938-.292,2.892-.2,1.868-.463,3.764-.723,5.6-.335,2.409-.688,4.905-.889,7.367l-.007.134c-.015.187-.03.379-.044.574,0,.063-.005.125-.009.189-.009.136-.015.272-.019.409,0,.021,0,.041,0,.062,0,.091,0,.181,0,.272,0,.074,0,.149,0,.224.005.127.018.251.031.376.006.055.008.111.015.165a.172.172,0,0,0,0,.019,3.912,3.912,0,0,0,.1.459c.012.042.028.081.04.122.023.073.043.148.071.218.015.037.037.07.055.106s.047.1.074.144a2.019,2.019,0,0,0,.182.275c.029.039.056.078.088.115.015.016.025.035.039.05a1.956,1.956,0,0,0,.318.268l.005.005,0,0,0,0,1.478,1.009.233.159a4.812,4.812,0,0,1-1.77-.453,3.129,3.129,0,0,1-.324-.191l2.246,1.532a2.929,2.929,0,0,0,.324.191,5.723,5.723,0,0,0,2.531.491c.441,0,.889-.019,1.314-.04l.727-.03a4.14,4.14,0,0,0,3.028-1.213,3.923,3.923,0,0,0,.313-.383c.006-.008.012-.014.017-.022s.02-.037.031-.053c.064-.092.127-.185.184-.283l.06-.108c.018-.034.029-.074.047-.108s.043-.068.061-.105l-.012-.008h0l.012.008c.049-.1.083-.216.125-.323s.1-.228.135-.348c.01-.032.025-.06.034-.091.062-.2.112-.406.158-.616.011-.047.018-.094.028-.143.02-.1.042-.2.058-.3s.02-.179.031-.267c.021-.154.04-.308.055-.465s.026-.312.035-.469c0-.081.015-.16.018-.241l0-.072c0-.068,0-.136,0-.2,0-.05.007-.1.007-.148s0-.119,0-.178c0-.386,0-.772-.012-1.15-.024-.767-.034-1.536-.039-2.307,0-.223,0-.445,0-.668q0-.887.015-1.776c0-.195,0-.39.009-.584q.023-1.124.062-2.247c0-.055.006-.109.007-.164q.038-1.061.088-2.121c.011-.222.021-.445.033-.668q.042-.855.087-1.707c.011-.205.021-.411.033-.617q.059-1.076.12-2.144l.027-.46c.048-.832.144-1.735.239-2.695.034-.342.069-.69.1-1.042.014-.148.026-.3.04-.446C74.093,54.1,74.113,53.891,74.13,53.675Z" transform="translate(-1.94 -0.978)" fill="#6d5214"/>
      <path id="Path_40445" data-name="Path 40445" d="M71.059,46.89a4.939,4.939,0,0,0-1.14-2.038,2.4,2.4,0,0,0-1.752-.714,4.945,4.945,0,0,0-1.407.231,20.136,20.136,0,0,0-2.592,1.748c-.972.751-1.941,1.581-2.846,2.356-.739.625-1.436,1.221-2.068,1.724-.187.168-.392.348-.609.527-.181.151-.38.307-.592.474-1.311,1.036-3.1,2.458-3,3.9.1,1.312,1.434,3.491,2.8,3.5L58,58.587c1.426-.155,2.872-2.016,4.037-3.519.364-.475.711-.922,1.028-1.27l.687-.765-.13,1.024c-.225,1.81-.409,3.654-.582,5.441-.1.971-.191,1.938-.292,2.892-.2,1.868-.463,3.764-.723,5.6-.335,2.409-.688,4.905-.889,7.367l-.007.134c-.124,1.536-.28,3.445,1.185,4.192a4.962,4.962,0,0,0,2.241.42c.431,0,.861-.019,1.28-.039l.567-.024.172-.008a3.462,3.462,0,0,0,2.573-1.011c1.191-1.263,1.286-3.546,1.217-5.613-.155-5.008.133-10.119.42-15.055l.021-.46c.048-.85.143-1.758.239-2.723A28.02,28.02,0,0,0,71.059,46.89Z" transform="translate(-1.939 -1.935)" fill="#f2cb2a"/>
      <path id="Path_40446" data-name="Path 40446" d="M95.455,44.138a2.4,2.4,0,0,1,1.752.714,4.939,4.939,0,0,1,1.14,2.038,28.02,28.02,0,0,1-.019,8.28c-.1.966-.191,1.874-.239,2.723l-.021.46c-.287,4.936-.576,10.047-.42,15.055.069,2.067-.026,4.349-1.217,5.613a3.462,3.462,0,0,1-2.573,1.011l-.172.008a155.711,155.711,0,0,0,1.7-25.519c-.079-2.882-.006-6.8-3.111-8.145a4.228,4.228,0,0,0-.818-.257,20.136,20.136,0,0,1,2.592-1.748A4.945,4.945,0,0,1,95.455,44.138Z" transform="translate(-29.227 -1.935)" fill="#c58710" opacity="0.6" style="mix-blend-mode: multiply;isolation: isolate"/>
      <path id="Path_40447" data-name="Path 40447" d="M69.744,44.783a5.881,5.881,0,0,0-1.312-2.33,3.083,3.083,0,0,0-2.214-.9,5.593,5.593,0,0,0-1.677.294,35.907,35.907,0,0,0-5.577,4.2c-.732.625-1.424,1.215-2.062,1.719-.193.179-.393.353-.609.526-.176.144-.369.3-.574.463-1.423,1.128-3.378,2.672-3.248,4.454.115,1.615,1.709,4.091,3.449,4.1a1.842,1.842,0,0,0,.2-.01c1.7-.189,3.24-2.172,4.48-3.766.105-.133.205-.267.306-.394-.17,1.466-.316,2.933-.456,4.365-.1.971-.186,1.932-.287,2.886-.2,1.856-.463,3.746-.722,5.574-.341,2.42-.694,4.928-.89,7.407l-.013.133c-.136,1.635-.318,3.876,1.534,4.818a5.74,5.74,0,0,0,2.531.491c.443,0,.89-.019,1.315-.039l.727-.032a4.137,4.137,0,0,0,3.028-1.212c1.35-1.437,1.464-3.882,1.39-6.078-.154-4.984.134-10.078.415-15l.027-.46c.048-.832.143-1.734.238-2.694A28.413,28.413,0,0,0,69.744,44.783ZM63.891,78.126c-.419.02-.849.042-1.28.039a4.962,4.962,0,0,1-2.241-.42c-1.465-.747-1.308-2.656-1.185-4.192l.007-.134c.2-2.461.554-4.958.889-7.367.26-1.833.526-3.729.723-5.6.1-.954.2-1.92.292-2.892.173-1.787.357-3.631.582-5.441l.13-1.024-.687.765c-.317.348-.664.794-1.028,1.27-1.165,1.5-2.611,3.363-4.037,3.519l-.14.007c-1.367-.007-2.706-2.187-2.8-3.5-.1-1.439,1.688-2.861,3-3.9.211-.167.41-.324.592-.474.217-.179.422-.359.609-.527.632-.5,1.329-1.1,2.068-1.724.9-.775,1.874-1.605,2.846-2.356a20.136,20.136,0,0,1,2.592-1.748,4.945,4.945,0,0,1,1.407-.231,2.4,2.4,0,0,1,1.752.714,4.938,4.938,0,0,1,1.14,2.038,28.02,28.02,0,0,1-.019,8.28c-.1.966-.191,1.874-.239,2.723l-.021.46c-.287,4.936-.576,10.047-.42,15.055.069,2.067-.026,4.349-1.217,5.613a3.462,3.462,0,0,1-2.573,1.011l-.172.008Z" fill="#f5d538"/>
    </g>
  </g>
</svg>
