<svg xmlns="http://www.w3.org/2000/svg" xmlns:xlink="http://www.w3.org/1999/xlink" width="66.377" height="46.239" viewBox="0 0 66.377 46.239">
  <defs>
    <linearGradient id="linear-gradient" x1="-0.098" y1="1.626" x2="0.294" y2="1.293" gradientUnits="objectBoundingBox">
      <stop offset="0" stop-color="#5d9e02"/>
      <stop offset="0.141" stop-color="#580a00"/>
      <stop offset="0.934"/>
      <stop offset="1"/>
    </linearGradient>
    <linearGradient id="linear-gradient-2" x1="0.842" y1="1.361" x2="0.376" y2="0.971" gradientUnits="objectBoundingBox">
      <stop offset="0" stop-color="#75b303"/>
      <stop offset="0.141" stop-color="#580a00"/>
      <stop offset="0.934"/>
      <stop offset="1"/>
    </linearGradient>
    <linearGradient id="linear-gradient-3" x1="0.723" y1="0.645" x2="0.95" y2="0.861" gradientUnits="objectBoundingBox">
      <stop offset="0" stop-color="#72b900"/>
      <stop offset="1" stop-color="#77b104"/>
      <stop offset="1" stop-color="#970000"/>
    </linearGradient>
    <linearGradient id="linear-gradient-4" y1="0.5" x2="1" y2="0.5" gradientUnits="objectBoundingBox">
      <stop offset="0" stop-color="#47b27a"/>
      <stop offset="1" stop-color="#087a4e"/>
    </linearGradient>
  </defs>
  <g id="_20" data-name="20" transform="translate(-25.293 -35.417)">
    <g id="Group_28809" data-name="Group 28809" transform="translate(-2704.586 -7202.321)">
      <g id="Group_28808" data-name="Group 28808" transform="translate(2761.708 7239.181)">
        <g id="Group_28807" data-name="Group 28807" transform="translate(0 0)">
          <path id="Path_40735" data-name="Path 40735" d="M706.427,272.5l.011.007-.011-.007Zm2.662,1.394c-.219-.086-.436-.173-.651-.27.2.092.413.17.62.252l.03.018Zm4.773-8.076h-.03a6.165,6.165,0,0,1-2.375-.541l-.135-.131c-.134-.142-.253-.295-.372-.447-.061-.077-.13-.15-.186-.229a6.15,6.15,0,0,1-.452-.733c-.193-.375-.364-.756-.522-1.138-.08-.189-.154-.381-.225-.573-.032-.091-.069-.182-.1-.272-.1-.3-.2-.6-.281-.9l-.017-.075c-.074-.278-.138-.554-.194-.833-.021-.1-.037-.2-.054-.3-.034-.192-.065-.385-.089-.577s-.042-.37-.058-.555c-.014-.153-.029-.306-.037-.458-.009-.185-.011-.371-.012-.555,0-.146,0-.291,0-.437.009-.374.032-.746.077-1.116.049-.415.106-.806.167-1.181s.128-.71.2-1.04l.023-.12c.083-.364.174-.7.272-1.027.092-.3.19-.582.3-.846.066-.168.141-.337.221-.505l.041-.08c.1-.205.209-.409.325-.611l.081-.139q.194-.325.414-.64l.091-.125q.18-.248.374-.486l.106-.128c.157-.186.321-.367.492-.54l.094-.091q.222-.218.455-.418l.133-.113c.184-.152.374-.3.567-.426l.084-.053q.258-.168.524-.308l.154-.08a5.561,5.561,0,0,1,.621-.266l.057-.016a4.674,4.674,0,0,1,.586-.153l.169-.03a4.117,4.117,0,0,1,.637-.056H716a4.178,4.178,0,0,1,.982.139,12.127,12.127,0,0,1,1.676,3.135c1.662,4.311,1.908,11.949-1.954,15.089a4.363,4.363,0,0,1-2.843.995ZM724,238.716l-.034-.024c-.148-.164-.3-.325-.452-.478.077.076.16.145.236.224s.168.185.25.278Zm-.89-.884c-.186-.168-.377-.326-.572-.479.077.061.159.115.234.178s.129.107.193.163l.145.138Zm-8.647-2.954a15.8,15.8,0,0,0-3.254.313c-5.4,1.149-9.633,5.254-11.615,11.247a27.548,27.548,0,0,0,2.014,20.689,15.742,15.742,0,0,0,5.118,5.563c-.1-.063-.2-.115-.293-.18l2.394,1.634a13.367,13.367,0,0,0,4.666,2.018c.261.058.523.108.782.152.085.014.168.024.251.036.177.027.354.053.528.073l.051.007c.172.019.343.032.513.043l.116.011h.014q.352.021.7.024h.035c.373,0,.735-.02,1.092-.052l.258-.024c.36-.039.714-.09,1.057-.16l.019,0,.059-.012.112-.03q.451-.1.882-.236l.136-.037.089-.034c.3-.1.59-.208.874-.33l.021-.008.049-.024a11.021,11.021,0,0,0,1.069-.54l.094-.05c.339-.2.666-.417.984-.648l.151-.109c.306-.229.6-.473.887-.729l.15-.138c.283-.261.558-.534.821-.819l.045-.045.013-.015.082-.091.012-.014.087-.1c.182-.207.36-.419.532-.636l.079-.1q.245-.313.477-.639l.049-.077c.3-.42.572-.856.836-1.3.053-.091.106-.183.158-.276.261-.46.511-.927.74-1.408l.011-.02.028-.068c.241-.511.462-1.031.668-1.557.027-.069.056-.137.083-.208.2-.524.38-1.052.547-1.582l.051-.15.035-.129q.267-.88.474-1.757c.02-.086.041-.172.06-.258q.2-.877.343-1.735l.022-.111.019-.145c.084-.529.153-1.049.2-1.557l.016-.185c.05-.53.086-1.049.1-1.545,0-.137.008-.282.011-.435v-.109c0-.076,0-.154,0-.234,0-.147,0-.3,0-.461,0-.078,0-.153,0-.234,0-.241-.008-.49-.016-.753l0-.091q-.012-.354-.032-.732c-.005-.089-.011-.18-.016-.27q-.02-.314-.046-.641c-.008-.094-.015-.187-.024-.282-.027-.3-.056-.6-.093-.909l0-.033q-.047-.413-.109-.837l-.017-.1c-.063-.424-.134-.853-.218-1.289-.012-.067-.03-.135-.043-.2q-.112-.556-.249-1.119c-.035-.146-.075-.29-.114-.436q-.123-.466-.267-.932c-.046-.151-.092-.3-.142-.45q-.176-.53-.381-1.054c-.031-.078-.054-.157-.085-.235l-.024-.056c-.087-.211-.184-.418-.279-.626-.076-.168-.146-.338-.227-.5-.107-.219-.228-.432-.344-.647-.081-.15-.156-.3-.242-.45-.139-.237-.292-.465-.444-.695-.077-.118-.147-.241-.229-.357-.24-.342-.493-.674-.764-.995q-.237-.28-.486-.542l-.023-.021c-.252-.263-.515-.508-.784-.743-.063-.055-.127-.108-.191-.161-.278-.231-.561-.453-.856-.654l-1.2-.82-1.2-.82c.066.045.125.1.19.146a11.017,11.017,0,0,0-2.125-1.2,14.625,14.625,0,0,0-5.415-.946Z" transform="translate(-696.534 -233.436)" fill="#b4b4b4" style="mix-blend-mode: multiply;isolation: isolate"/>
          <g id="Group_28806" data-name="Group 28806" transform="translate(0.691 0.344)">
            <path id="Path_40736" data-name="Path 40736" d="M717.524,275.873c.017.2.037.408.063.612.008.056.01.112.018.167.02.137.048.273.073.409.02.115.037.231.061.346.055.276.12.551.192.826.011.042.019.083.03.125.086.313.183.625.291.936.037.106.079.211.118.317.055.148.105.3.165.445.017.042.04.082.057.124.168.4.348.807.553,1.2a6.6,6.6,0,0,0,.5.8c.061.085.134.163.2.247.133.168.265.337.414.5.014.016.026.033.04.049.123.13.26.247.391.368.076.07.146.144.225.212a8.6,8.6,0,0,0,.727.558l2.405,1.642a7.449,7.449,0,0,0,4.037,1.365,5.13,5.13,0,0,0,3.316-1.155,6.988,6.988,0,0,0,.71-.67c.095-.1.175-.219.265-.327.114-.139.235-.271.339-.419l.014-.022c.031-.044.057-.092.087-.137q.214-.313.4-.649c.047-.085.091-.171.136-.258s.1-.174.139-.265c.054-.114.1-.234.151-.352.037-.086.076-.171.111-.259.118-.294.227-.594.322-.9h0l.006-.019q.146-.48.258-.981c.025-.112.043-.225.066-.338.038-.19.08-.378.112-.572.006-.036.008-.074.014-.11.047-.3.082-.61.112-.919.009-.089.023-.176.03-.266q.051-.606.063-1.217c0-.01,0-.02,0-.03,0-.033,0-.065,0-.1.006-.473-.007-.944-.033-1.413-.007-.121-.013-.241-.022-.362-.036-.491-.084-.977-.152-1.452,0-.017,0-.035-.006-.053-.029-.2-.067-.4-.1-.6-.022-.126-.04-.254-.064-.378-.043-.221-.094-.433-.143-.647-.027-.117-.05-.237-.079-.352-.056-.227-.12-.442-.184-.658-.027-.093-.051-.191-.08-.282q-.142-.454-.3-.871c-.04-.1-.081-.208-.123-.31-.022-.054-.045-.1-.067-.151q-.166-.4-.339-.766c-.034-.073-.068-.149-.1-.22q-.219-.441-.446-.831c-.034-.057-.069-.109-.1-.165q-.189-.309-.386-.583c-.044-.063-.089-.125-.134-.184a6.03,6.03,0,0,0-1.373-1.35l-1.188-.811-1.216-.83a4.32,4.32,0,0,0-.886-.467,4.909,4.909,0,0,0-.647-.2l-.118-.028a4.882,4.882,0,0,0-.633-.091c-.016,0-.031-.006-.047-.007-.1-.007-.2-.01-.3-.011-2.227-.012-4.3,1.547-5.689,3.509l.575.393c-.01.013-.021.025-.03.039l-.021.033q-.226.321-.423.652c-.026.043-.05.087-.075.13q-.181.315-.337.633c-.006.014-.015.027-.021.04l-.007.016-.029.063-.576-.393c-.093.2-.18.393-.259.59q-.169.422-.317.9l0,.015q-.153.5-.282,1.064c-.025.111-.045.236-.069.35-.058.277-.115.555-.164.855,0,.021-.008.038-.012.059q-.089.548-.161,1.15c-.046.389-.07.781-.08,1.174,0,.036-.007.071-.007.107,0,.113.007.226.007.339,0,.2,0,.4.014.605C717.495,275.566,717.51,275.719,717.524,275.873Zm11.314-11.029.123.029c.084.02.167.051.249.076.082.1.166.19.247.3.046.06.091.123.135.185q.2.277.39.589l.009.016-1.884-1.286.1.005A4.849,4.849,0,0,1,728.838,264.844Zm-3.16,20.639a6.847,6.847,0,0,1-2.735-.639c-.094-.091-.192-.177-.281-.271-.145-.156-.276-.322-.406-.487-.068-.087-.145-.169-.209-.258-.115-.159-.207-.327-.306-.494.094.071.184.148.282.215l2.4,1.642-.005,0,.006,0c-.024-.016-.046-.037-.07-.053-.2-.142-.4-.293-.59-.454-.066-.056-.124-.119-.188-.177-.14-.128-.279-.256-.408-.394s-.245-.287-.362-.435c-.064-.081-.135-.157-.2-.24a5.978,5.978,0,0,1-.451-.732c-.195-.378-.366-.759-.525-1.144-.075-.182-.146-.364-.213-.547-.037-.1-.076-.2-.11-.3-.1-.3-.2-.6-.279-.9-.008-.03-.013-.06-.022-.09q-.108-.407-.19-.817c-.021-.1-.036-.206-.055-.309-.034-.191-.064-.383-.09-.573s-.041-.371-.057-.556c-.014-.153-.028-.305-.036-.458-.01-.186-.012-.371-.013-.556,0-.146,0-.291,0-.437.01-.373.032-.747.076-1.116.05-.416.107-.807.168-1.182q.1-.586.214-1.111c0-.015.005-.031.009-.045.083-.365.173-.706.272-1.028.091-.3.189-.583.3-.849.067-.168.142-.337.221-.506l.04-.078c.1-.205.208-.409.325-.611.027-.047.053-.095.081-.141q.193-.324.412-.638c.031-.044.063-.086.095-.129q.178-.245.37-.48c.037-.044.072-.089.109-.132q.236-.279.491-.538c.031-.031.063-.061.095-.092q.221-.218.455-.417c.044-.038.087-.076.132-.113.186-.152.374-.3.569-.427.027-.018.056-.034.082-.051.172-.113.347-.216.526-.31.051-.027.1-.054.153-.079a5.518,5.518,0,0,1,.623-.266l.055-.016a4.67,4.67,0,0,1,.588-.153q.084-.017.169-.03a4.1,4.1,0,0,1,.656-.056,4.241,4.241,0,0,1,1.5.289,3.619,3.619,0,0,1,.644.332c.027.043.053.083.079.127q.23.391.448.834c.035.071.069.148.1.22q.169.357.331.747c.066.158.132.312.2.478.107.277.208.569.3.87.031.1.058.207.088.309.06.208.122.414.177.63.033.13.06.267.09.4.045.2.091.392.131.595.031.156.054.317.081.476.031.182.064.363.09.548.069.479.118.969.154,1.464.009.121.015.242.022.363.025.455.038.912.033,1.371,0,.059,0,.119,0,.179q-.013.6-.062,1.2c-.008.1-.024.194-.033.293-.031.3-.065.607-.112.907-.034.217-.076.431-.118.645-.024.123-.045.247-.072.367a12.466,12.466,0,0,1-.585,1.9c-.035.09-.076.177-.114.265-.09.21-.187.416-.29.616-.044.085-.087.17-.133.253-.133.24-.275.474-.428.7-.018.027-.034.056-.052.081-.144.205-.306.395-.468.583-.053.061-.1.13-.155.19a6.847,6.847,0,0,1-.714.675A5.131,5.131,0,0,1,725.678,285.482Z" transform="translate(-710.983 -254.186)" fill="url(#linear-gradient)"/>
            <path id="Path_40737" data-name="Path 40737" d="M726,251.728c0-.158,0-.324,0-.5,0-.067,0-.131,0-.2,0-.248-.008-.505-.017-.776v-.012c-.009-.262-.022-.538-.038-.82,0-.071-.009-.142-.013-.213q-.022-.351-.052-.718c-.006-.073-.011-.144-.018-.217-.051-.578-.117-1.18-.208-1.8-.005-.038-.014-.077-.02-.114-.062-.419-.132-.843-.216-1.274-.014-.073-.032-.148-.047-.222q-.111-.549-.247-1.105c-.035-.143-.075-.287-.113-.432-.083-.313-.173-.626-.27-.94-.045-.148-.091-.295-.139-.443q-.177-.535-.386-1.062c-.029-.076-.052-.154-.082-.229-.008-.018-.017-.036-.024-.054-.091-.222-.194-.439-.293-.658-.071-.156-.137-.315-.212-.47-.118-.242-.25-.478-.381-.714-.07-.127-.132-.257-.205-.382-.154-.264-.324-.519-.494-.774-.062-.092-.117-.188-.18-.279q-.359-.514-.766-1-.238-.281-.487-.542c-.007-.008-.016-.014-.023-.022-.252-.263-.514-.508-.784-.741-.063-.055-.127-.109-.192-.162-.278-.231-.561-.453-.855-.654l-2.405-1.639c.294.2.578.422.855.652.064.054.129.108.193.163.271.235.534.48.786.743.084.089.167.185.249.277l-2.286-1.56c-.081-.055-.163-.11-.247-.163q-.206-.133-.422-.257l-.074-.043c-.023-.013-.048-.022-.071-.035a10.412,10.412,0,0,0-1.052-.515c-.223-.094-.461-.178-.7-.257-.028-.009-.053-.021-.081-.03-.061-.02-.128-.035-.19-.054-.114-.033-.228-.066-.345-.1-.1-.026-.2-.051-.308-.075-.119-.027-.238-.054-.359-.079s-.214-.042-.322-.062q-.185-.033-.373-.062c-.11-.017-.219-.034-.329-.048-.128-.017-.257-.032-.385-.046-.066-.007-.131-.017-.2-.023l-.268-.024c-.471-.039-.946-.059-1.416-.061a15.794,15.794,0,0,0-3.288.307c-.274.061-.543.135-.811.208l.376.256c-.262.067-.523.139-.78.22-.109.035-.217.074-.325.111q-.414.143-.815.312c-.1.043-.2.084-.3.128-.352.158-.7.327-1.033.513-.039.022-.076.047-.115.069-.3.17-.592.352-.878.545-.1.066-.193.133-.289.2q-.361.256-.707.535c-.081.065-.164.128-.244.2-.3.251-.588.514-.869.792-.049.049-.1.1-.144.15q-.348.355-.678.738c-.08.092-.158.186-.236.281q-.3.366-.583.754c-.042.058-.089.11-.13.169-.015.02-.027.044-.042.065q-.375.535-.716,1.111c-.054.091-.1.185-.156.277q-.275.484-.525.993c-.031.064-.068.122-.1.187-.019.041-.035.084-.055.125-.109.235-.212.476-.314.719-.05.118-.1.234-.15.354-.145.366-.283.739-.409,1.122-.04.122-.079.246-.118.369-.032.1-.054.213-.085.318-.082.283-.16.568-.231.858-.042.172-.081.344-.119.519q-.1.448-.177.9c-.019.107-.044.21-.061.318-.008.048-.011.1-.019.146-.083.534-.152,1.073-.2,1.619-.008.079-.01.159-.017.238-.038.474-.062.952-.075,1.432,0,.079-.011.157-.013.237,0,.123,0,.246,0,.369,0,.166,0,.331,0,.5,0,.262.012.524.023.786.006.159.012.318.02.477.015.279.038.558.062.836.013.142.022.284.036.427q.054.532.129,1.062.116.832.278,1.651c.03.148.064.293.1.441.073.337.15.672.235,1,.044.171.09.34.137.509.088.311.179.619.276.924.052.164.1.328.159.49.111.323.23.64.352.955.04.1.073.21.114.311.013.031.028.06.041.091.112.272.233.535.353.8.061.133.117.27.181.4.19.39.388.772.6,1.141.228.4.473.786.722,1.158.064.1.13.19.2.284.232.331.472.652.721.956.028.034.054.07.081.1.22.265.446.52.678.764.059.063.121.118.181.179s.139.137.208.205c.3.291.606.573.924.832-.239-.048-.477-.1-.716-.154.216.193.44.378.667.558.065.051.133.1.2.148.142.108.283.218.429.32l.108.073.012.008-.12-.081.129.089,2.4,1.64-.009-.007.01.007c.015.011.033.02.049.029a13.308,13.308,0,0,1-2.665-1.393l2.406,1.64a13.351,13.351,0,0,0,4.667,2.016q.392.087.78.152c.086.014.171.023.257.036.177.027.353.053.528.073l.048.007c.158.018.314.029.471.04.054,0,.108.011.162.014h.011c.235.013.467.021.7.022.388,0,.763-.021,1.133-.052.083-.008.164-.015.246-.024.363-.039.719-.091,1.065-.161l.017,0,.059-.012c.037-.007.071-.02.108-.028q.454-.1.887-.238c.045-.014.091-.022.135-.036s.059-.024.089-.034c.3-.1.591-.208.875-.331l.02-.007c.016-.007.031-.017.046-.024a11.184,11.184,0,0,0,1.07-.542l.094-.051c.339-.2.665-.417.983-.648.05-.037.1-.072.152-.11.3-.228.6-.473.886-.729l.152-.138c.283-.262.558-.535.821-.822.014-.016.03-.028.044-.044l.013-.015.083-.091.012-.013c.029-.032.055-.068.084-.1.186-.211.368-.427.544-.65l.067-.082c.164-.211.324-.425.479-.645.019-.027.034-.055.052-.082.292-.417.567-.85.828-1.294.056-.095.109-.19.164-.287.259-.457.506-.922.733-1.4,0-.008.009-.016.014-.025.013-.027.022-.056.035-.083.236-.5.454-1.015.658-1.533.029-.074.059-.146.088-.221.2-.524.38-1.053.546-1.584.015-.048.035-.1.049-.144s.021-.083.034-.123q.269-.888.478-1.774c.019-.079.037-.156.054-.234q.2-.891.346-1.76c.005-.032.014-.066.02-.1s.01-.085.017-.128c.085-.536.154-1.065.206-1.579.006-.058.009-.112.015-.169.05-.534.087-1.056.1-1.556,0-.136.007-.281.01-.435,0-.037,0-.078,0-.116C726,251.874,726,251.8,726,251.728Zm-24.8,14.8c-.251-.306-.491-.628-.724-.96-.068-.1-.135-.193-.2-.292-.249-.372-.492-.752-.721-1.155-.209-.37-.407-.752-.6-1.142-.061-.126-.116-.259-.175-.387-.123-.268-.246-.536-.359-.812-.053-.13-.1-.266-.154-.4-.122-.314-.241-.632-.351-.956-.056-.163-.108-.328-.161-.493q-.145-.458-.275-.925c-.047-.168-.094-.335-.137-.5-.086-.333-.162-.67-.236-1.009-.031-.146-.066-.291-.1-.439-.1-.48-.182-.964-.254-1.451,0-.006,0-.013,0-.019l0-.012q-.088-.613-.149-1.232c-.014-.145-.024-.291-.036-.436-.024-.272-.046-.544-.062-.817-.009-.169-.015-.337-.022-.505-.01-.252-.018-.5-.022-.755,0-.172,0-.343,0-.514,0-.2.006-.4.011-.6q.02-.711.075-1.414c.007-.087.01-.175.017-.261.049-.54.117-1.074.2-1.6.026-.166.056-.329.086-.492.053-.3.11-.6.175-.9q.055-.252.116-.5c.071-.295.15-.585.233-.872.067-.229.129-.46.2-.684.127-.383.265-.757.41-1.124.046-.116.1-.228.145-.342.1-.247.208-.493.319-.732.048-.1.1-.2.149-.3q.254-.517.533-1.009c.05-.087.1-.176.148-.261q.342-.578.72-1.117c.055-.079.114-.155.17-.233q.283-.389.584-.755c.078-.094.155-.187.234-.279q.332-.386.684-.744c.046-.047.09-.1.137-.144.282-.279.574-.543.874-.8.076-.065.156-.126.235-.189q.35-.283.716-.542c.093-.066.187-.133.282-.2.292-.2.589-.382.893-.554.034-.019.066-.041.1-.06.338-.188.686-.358,1.039-.516.1-.044.2-.084.3-.125q.405-.171.823-.315c.107-.037.214-.075.322-.11.372-.118.748-.227,1.134-.314a22.869,22.869,0,0,1,6.053,2.266l.1.078q.411.331.8.684c.055.049.111.1.164.146.294.273.576.558.85.85.14.15.272.308.406.463.164.19.329.377.483.574.127.162.244.331.363.5.147.2.293.4.427.614.111.173.213.352.316.529.126.216.25.431.363.654.095.185.18.376.265.565.113.251.226.5.323.76q.055.146.107.293a12.329,12.329,0,0,1,.365,1.219q.188.793.307,1.611c.019.136.026.275.043.411.052.418.1.836.128,1.26.013.2.011.406.018.61.012.361.026.721.022,1.083,0,.237-.022.474-.032.711-.014.325-.025.65-.053.974-.021.242-.055.482-.083.723-.037.319-.071.638-.12.954-.037.239-.086.474-.13.711-.059.317-.117.636-.189.949-.055.246-.121.488-.183.732-.078.3-.155.6-.241.892-.132.442-.27.882-.424,1.31-.194.536-.415,1.052-.649,1.557q-.1.221-.211.439-.214.432-.447.846c-.082.146-.163.292-.248.435-.183.307-.378.6-.575.894-.069.1-.133.207-.2.306-.042.059-.086.114-.129.172-.179.245-.364.482-.555.715-.071.087-.144.173-.217.259q-.273.318-.56.62c-.065.068-.128.139-.193.206-.254.259-.516.51-.786.75-.048.042-.1.081-.146.123q-.339.294-.693.566c-.088.068-.177.133-.267.2q-.326.238-.662.458c-.081.053-.161.108-.243.159-.3.192-.613.373-.929.541-.039.021-.079.038-.118.058q-.419.217-.853.407c-.1.044-.2.085-.3.126q-.371.153-.75.286c-.1.034-.193.07-.29.1-.343.112-.691.215-1.044.3l-.085.018c-.326.078-.656.143-.991.2-.111.019-.223.035-.335.051-.268.04-.539.071-.812.095-.112.01-.223.022-.336.03-.375.025-.753.042-1.137.039a16.485,16.485,0,0,1-2.487-.211c-.149-.163-.3-.317-.446-.488C701.241,266.587,701.217,266.554,701.192,266.523Zm17.491-31.855-2.056-1.4c.184.063.367.13.538.2.217.091.417.2.624.306.21.19.42.38.616.584C718.5,234.459,718.591,234.564,718.684,234.668ZM702.8,268.656c-.084-.071-.17-.137-.252-.211.2.045.395.087.592.127l1.021.695.03.019A12.734,12.734,0,0,1,702.8,268.656Z" transform="translate(-694.049 -230.912)" fill="url(#linear-gradient-2)"/>
          </g>
          <path id="Path_40738" data-name="Path 40738" d="M718.644,236.052a10.636,10.636,0,0,0-4.014-2.989,14.073,14.073,0,0,0-5.154-.894,15.357,15.357,0,0,0-3.21.294l-.153.034c-5.079,1.145-9.068,5.054-10.953,10.754a26.809,26.809,0,0,0,1.968,20.128,15.662,15.662,0,0,0,3.71,4.484,12.648,12.648,0,0,0,5.313,2.577,13.134,13.134,0,0,0,2.81.327c9.687.052,13.679-11.634,13.918-19.021C722.956,249.335,722.878,241.062,718.644,236.052Zm-18.033,14.772a17.346,17.346,0,0,1,1.009-4.39c1.14-2.849,3.873-5.721,6.892-5.7a4.853,4.853,0,0,1,1.746.333c1.6.613,2.889,2.253,3.96,5.027,1.736,4.5,1.947,12.522-2.167,15.873a5.131,5.131,0,0,1-3.315,1.154,7.965,7.965,0,0,1-6.534-4.1A14.209,14.209,0,0,1,700.611,250.824Z" transform="translate(-693.35 -231.477)" fill="url(#linear-gradient-3)"/>
          <path id="Path_40739" data-name="Path 40739" d="M727.244,232.169a14.073,14.073,0,0,1,5.154.894,10.636,10.636,0,0,1,4.014,2.989c4.234,5.01,4.312,13.283,4.235,15.7-.239,7.387-4.23,19.072-13.918,19.021a13.134,13.134,0,0,1-2.81-.327,12.646,12.646,0,0,1-5.312-2.577c.2.042.408.079.614.115a16.563,16.563,0,0,0,2.73.244c6.8.037,12.373-4.32,14.769-10.955a23.327,23.327,0,0,0,.946-12.931,15.271,15.271,0,0,0-6.914-9.076,21.838,21.838,0,0,0-6.872-2.764l.153-.034A15.355,15.355,0,0,1,727.244,232.169Z" transform="translate(-711.118 -231.477)" fill="#75b602" opacity="0.4" style="mix-blend-mode: multiply;isolation: isolate"/>
          <path id="Path_40740" data-name="Path 40740" d="M717.373,233.791a11.339,11.339,0,0,0-4.274-3.177,14.624,14.624,0,0,0-5.415-.946,15.908,15.908,0,0,0-3.359.313c-5.4,1.149-9.633,5.254-11.615,11.247a27.546,27.546,0,0,0,2.014,20.689,14.474,14.474,0,0,0,9.48,7.395,14.043,14.043,0,0,0,2.955.346c10.179.055,14.367-12.054,14.614-19.7C721.875,246.782,721.65,238.851,717.373,233.791Zm-22.042,27.78a26.809,26.809,0,0,1-1.968-20.128c1.886-5.7,5.875-9.608,10.954-10.754l.153-.034a15.359,15.359,0,0,1,3.21-.294,14.073,14.073,0,0,1,5.154.894,10.637,10.637,0,0,1,4.014,2.989c4.234,5.01,4.312,13.283,4.235,15.7-.239,7.387-4.23,19.072-13.918,19.021a13.132,13.132,0,0,1-2.81-.327,12.646,12.646,0,0,1-5.312-2.577A15.663,15.663,0,0,1,695.331,261.571Z" transform="translate(-691.552 -229.668)" fill="#a2ce07"/>
          <path id="Path_40741" data-name="Path 40741" d="M727.194,263.428c1.6.613,2.889,2.253,3.96,5.027,1.736,4.5,1.947,12.522-2.167,15.873a5.131,5.131,0,0,1-3.315,1.154,7.966,7.966,0,0,1-6.534-4.1,14.208,14.208,0,0,1-1.591-8.194,17.346,17.346,0,0,1,1.009-4.39c1.14-2.849,3.873-5.721,6.892-5.7A4.855,4.855,0,0,1,727.194,263.428Zm1.356,20.362c3.862-3.14,3.617-10.778,1.954-15.089-.993-2.574-2.157-4.089-3.559-4.626a4.224,4.224,0,0,0-1.5-.288c-2.683-.015-5.222,2.7-6.246,5.265a16.913,16.913,0,0,0-.958,4.215,13.519,13.519,0,0,0,1.514,7.794,7.213,7.213,0,0,0,5.926,3.723,4.374,4.374,0,0,0,2.873-.995Z" transform="translate(-710.286 -253.842)" fill="#c4e50e"/>
        </g>
      </g>
    </g>
    <g id="Group_28833" data-name="Group 28833" transform="translate(-156.86 -9.911)">
      <path id="Path_40466" data-name="Path 40466" d="M206.144,50.7a11.651,11.651,0,0,0-2.717.323,17.82,17.82,0,0,0-11.239,9.463,11.916,11.916,0,0,0-1.1,4.273l-.015.173c-.107,1.516-.288,4.044.858,5.281a2.059,2.059,0,0,0,.688.5,2,2,0,0,1-.316-.172l2.567,1.751a2.183,2.183,0,0,0,1.254.364,3.349,3.349,0,0,0,.361-.019,5.8,5.8,0,0,0,.665-.108l.194-.049c.147-.038.293-.081.432-.13l.191-.07c.149-.058.291-.122.43-.192l.123-.059a5.279,5.279,0,0,0,.5-.306l.112-.083c.123-.088.242-.18.357-.278l.143-.126q.158-.141.307-.293l.121-.123c.133-.143.263-.289.387-.443l.015-.018c.12-.15.236-.3.349-.461l.037-.049.03-.046c.267-.383.518-.785.758-1.2l.033-.06c.242-.419.472-.847.7-1.273s.474-.875.716-1.3l.007-.011c.24-.417.49-.818.755-1.194l.019-.026c.105-.149.214-.292.324-.431l.09-.106c.083-.1.167-.2.256-.3l.125-.132c.082-.086.169-.17.255-.25l.126-.115c.114-.1.231-.194.353-.284l.051-.04a5.062,5.062,0,0,1,.433-.276l.138-.071c.109-.058.221-.112.338-.162l.172-.069c.118-.045.239-.084.361-.121l.169-.049a5.074,5.074,0,0,1,.566-.113,4.442,4.442,0,0,1,.61-.042h.022a4.613,4.613,0,0,1,1.194.175,3.793,3.793,0,0,1,.712,2.627c-.3,2.813-3.08,4.915-5.314,6.606l-.469.357Q203,73,201.594,74.021c-2.087,1.532-4.247,3.117-6.216,4.891a25.319,25.319,0,0,0-4.759,5.358c-1.328,2.162-1.691,4.136-1.039,5.717a4.5,4.5,0,0,0,1.9,2.119c-.084-.052-.174-.1-.254-.154L193.8,93.7a8.038,8.038,0,0,0,2.616,1.105c.292.068.591.136.89.191a23.354,23.354,0,0,0,4.415.4h.14c.323,0,.645,0,.969-.012.122,0,.246-.012.37-.017.2-.007.4-.015.6-.026.345-.017.688-.037,1.033-.062.195-.013.389-.027.583-.042q.565-.046,1.127-.1L207,95.1c.514-.051,1.026-.1,1.532-.157.539-.057,1.079-.113,1.616-.164.417-.04.85-.088,1.288-.141.131-.015.26-.032.391-.05.337-.043.675-.091,1.015-.145.093-.014.184-.023.276-.039l.173-.029.094-.017c.14-.024.277-.052.416-.078.218-.042.434-.083.649-.13.145-.031.285-.065.428-.1q.307-.073.605-.154c.141-.039.279-.08.416-.122.193-.06.38-.121.565-.186.13-.046.26-.094.386-.144l.2-.076q.225-.093.435-.195l.125-.062.011-.006.013-.006.139-.073q.214-.115.411-.239c.078-.05.155-.1.23-.154a3.149,3.149,0,0,0,.449-.394l.043-.037c.07-.077.137-.156.2-.24l.017-.03.027-.031a3.277,3.277,0,0,0,.248-.425l.026-.043,0,0v0l0-.006c.037-.079.073-.159.105-.243l-.009-.006.009.006.065-.193.019-.049.005-.025.016-.048c.031-.111.059-.227.083-.345l-.007-.005.007,0,.008-.038.007-.062.014-.065c.012-.074.011-.157.021-.234.017-.152.034-.3.04-.467l.009-.1c0-.139-.006-.287-.013-.434v-.135l0-.064v-.01l0-.076c-.007-.082-.015-.165-.024-.248l-.028-.2-.017-.161-.02-.109c-.044-.283-.1-.573-.168-.879a6.722,6.722,0,0,0-.234-.788l-.022-.074-.017-.044-.015-.034-.013-.04-.03-.06c-.045-.106-.09-.213-.139-.311s-.091-.159-.137-.236l-.05-.088-.032-.054q-.091-.138-.191-.265l-.123-.133-.054-.071L218.44,85a3.042,3.042,0,0,0-.435-.372l-.006,0-2.566-1.751.113.1a3.778,3.778,0,0,0-2.34-.7h-.044a11.675,11.675,0,0,0-2.078.221c-.77.139-1.529.325-2.28.518l.027-.023q.625-.52,1.245-1.048c.132-.113.261-.227.391-.34q.425-.364.846-.734c.156-.138.309-.279.466-.418.249-.226.5-.45.744-.678.163-.153.324-.307.486-.461q.347-.329.688-.662c.163-.161.322-.323.481-.485q.327-.331.643-.667c.157-.166.311-.335.463-.5q.306-.338.6-.682c.147-.171.292-.343.435-.518.19-.233.374-.468.555-.7.134-.175.268-.349.4-.526.053-.073.112-.145.165-.218.089-.126.165-.258.251-.385.12-.176.25-.35.364-.528.081-.127.16-.255.239-.384l.059-.1.1-.169c.256-.434.494-.875.71-1.324l.038-.072.014-.031.018-.036.089-.191-.007,0,.007,0c.088-.191.164-.386.244-.58.037-.09.078-.178.113-.268l.025-.06q.053-.14.106-.281c.033-.092.056-.189.088-.282.048-.141.1-.278.147-.421.04-.126.07-.256.105-.383.019-.068.046-.134.064-.2s.031-.139.048-.208c.029-.121.057-.244.085-.366.02-.094.046-.185.064-.28.015-.069.02-.14.033-.209.017-.1.041-.192.057-.289.025-.151.039-.3.059-.455.015-.116.031-.231.044-.348.038-.368.066-.74.074-1.118v-.058c.008-.386-.006-.77-.033-1.153-.008-.113-.024-.226-.036-.339-.019-.2-.032-.394-.06-.589-.015-.1-.037-.2-.054-.307q-.02-.118-.042-.234c-.069-.369-.151-.734-.253-1.095l-.048-.158q-.148-.5-.335-1l-.06-.161-.033-.09c-.092-.228-.2-.447-.309-.669-.062-.132-.115-.268-.183-.4-.166-.321-.348-.634-.54-.941l-.084-.145c-.225-.351-.47-.692-.73-1.022-.077-.1-.165-.189-.246-.285-.175-.209-.347-.42-.536-.619l-.088-.09a12.046,12.046,0,0,0-1.863-1.572l-1.526-1.041-1.041-.711,0,0,0,0,.032.024a11.381,11.381,0,0,0-6.4-2.023Z" transform="translate(-5.076 -3.836)" fill="#b4b4b4" style="mix-blend-mode: multiply;isolation: isolate"/>
      <path id="Path_40467" data-name="Path 40467" d="M215.4,60.9v-.058c.007-.386-.007-.771-.033-1.153-.008-.113-.024-.226-.036-.339-.018-.2-.032-.394-.06-.59-.015-.1-.037-.2-.054-.306q-.02-.118-.042-.234c-.069-.369-.151-.734-.253-1.095-.015-.053-.031-.106-.048-.158q-.147-.5-.335-1c-.02-.054-.04-.108-.06-.161-.011-.03-.021-.06-.033-.09-.092-.227-.2-.447-.309-.669-.062-.132-.116-.268-.183-.4-.166-.322-.349-.635-.54-.941-.03-.047-.054-.1-.084-.145q-.339-.528-.73-1.022c-.077-.1-.165-.189-.246-.285-.175-.209-.347-.421-.536-.619l-.087-.09a12.03,12.03,0,0,0-1.863-1.572l-1.526-1.041-1.041-.71,0,0,0,0a12.053,12.053,0,0,1,1.864,1.572c.11.114.206.239.314.357l-2.408-1.643a11.4,11.4,0,0,0-.987-.6c-.069-.037-.138-.076-.208-.112a10.93,10.93,0,0,0-1.024-.466c-.062-.024-.124-.045-.186-.068-.331-.123-.668-.232-1.013-.322-.05-.013-.1-.029-.148-.042a10.78,10.78,0,0,0-1.135-.213c-.041-.005-.082-.018-.123-.023h-.01l.014.01h0l-.014-.01c-.045,0-.091,0-.136-.009a10.864,10.864,0,0,0-1.125-.072h0a11.376,11.376,0,0,0-2.73.323,14.776,14.776,0,0,0-3.608,1.438l.344.235c-.229.123-.456.25-.68.384-.108.065-.214.134-.32.2q-.394.249-.776.522c-.1.074-.208.147-.311.223-.34.254-.675.518-1,.8l-.027.025c-.316.273-.618.561-.914.857-.093.092-.18.186-.27.279q-.331.344-.641.7c-.084.1-.169.192-.249.29-.272.33-.536.665-.782,1.013l0,0c-.039.054-.07.112-.108.167-.226.327-.445.659-.644,1-.082.138-.149.281-.225.421-.133.242-.27.482-.389.729l-.059.124c-.132.286-.249.577-.358.87-.031.085-.06.172-.09.258-.038.11-.08.219-.114.329s-.06.223-.09.334c-.025.09-.05.178-.073.268-.076.3-.143.611-.194.922q-.082.51-.12,1.031l-.007.173c-.013.176-.026.375-.039.586,0,.067-.005.135-.009.2-.008.159-.015.321-.019.49,0,.047,0,.09-.005.137s0,.09,0,.135c0,.166,0,.331.005.5,0,.094.005.184.01.278.01.189.028.374.05.558.007.056.007.115.016.17,0,.013,0,.025.008.039.008.06.022.114.033.173.025.138.052.273.087.4.019.07.043.134.064.2s.042.147.069.213c.018.046.043.084.064.128s.039.083.061.122a1.871,1.871,0,0,0,.268.392l.011.013a1.489,1.489,0,0,0,.228.194l1.375.938c-.058.007-.11.021-.169.027a3.281,3.281,0,0,1-.361.018,2.182,2.182,0,0,1-1.254-.364l2.567,1.752a2.188,2.188,0,0,0,1.254.364,3.34,3.34,0,0,0,.361-.018,5.845,5.845,0,0,0,.665-.109c.067-.015.129-.033.194-.049.147-.038.293-.081.432-.13.065-.022.129-.045.191-.069.148-.058.292-.123.43-.192.04-.02.083-.038.123-.059a5.415,5.415,0,0,0,.5-.306c.038-.026.074-.056.112-.083.122-.088.242-.18.357-.278.049-.042.1-.084.144-.126q.158-.142.307-.293c.04-.041.081-.081.12-.123.133-.143.263-.289.388-.442,0-.006.009-.013.014-.018.121-.149.236-.3.349-.461.011-.017.025-.032.037-.048s.019-.032.03-.047c.268-.383.518-.785.758-1.2l.033-.06c.242-.419.472-.847.7-1.273s.474-.875.716-1.3a.03.03,0,0,0,.007-.011c.241-.416.49-.817.755-1.194.007-.009.013-.018.019-.027q.158-.222.324-.431c.029-.037.06-.071.09-.107.083-.1.167-.2.256-.3.04-.045.083-.088.125-.132.083-.086.169-.17.256-.251.042-.038.083-.078.126-.115.114-.1.231-.193.353-.283.017-.013.033-.028.051-.04a5.065,5.065,0,0,1,.433-.275c.045-.025.092-.048.138-.072.109-.058.221-.112.338-.162.056-.024.114-.047.172-.069.117-.045.239-.084.361-.121.057-.017.112-.034.169-.049a5.06,5.06,0,0,1,.566-.113,4.41,4.41,0,0,1,.632-.042,4.711,4.711,0,0,1,2.292.631c0,.01.011.02.015.03.023.055.044.11.065.165.036.1.071.2.1.3.019.064.037.129.053.195.026.1.048.207.064.312.011.058.021.117.029.176a4.556,4.556,0,0,1,.04.638c0,.143-.009.287-.023.43s-.04.272-.065.407a5.873,5.873,0,0,1-.141.6c-.01.031-.016.064-.026.095a6.171,6.171,0,0,1-.3.755c-.029.064-.06.127-.09.19-.057.115-.118.227-.181.339-.04.069-.079.138-.12.207-.071.116-.146.229-.223.341-.041.06-.079.121-.122.18-.13.181-.266.358-.41.532-.027.033-.057.064-.084.1-.121.142-.244.283-.373.419-.051.056-.1.111-.157.166-.111.115-.225.23-.341.342-.054.053-.107.105-.161.157-.137.128-.274.254-.414.378l-.1.088c-.174.153-.351.3-.528.449l-.143.115c-.133.109-.266.216-.4.321l-.184.145-.387.3-.15.116-.5.382-.468.357c-.923.707-1.86,1.394-2.8,2.082a76.216,76.216,0,0,0-6.163,4.837c-.321.29-.642.588-.963.892l-.161.152c-.31.3-.618.6-.921.917l-.172.18c-.305.322-.606.651-.894.993-.034.04-.066.082-.1.122q-.419.5-.8,1.035c-.02.028-.043.053-.062.081s-.017.026-.027.039c-.181.257-.356.52-.522.788-.193.312-.354.616-.5.917-.017.036-.042.074-.06.109-.04.086-.074.169-.11.253-.031.069-.064.14-.092.209-.078.189-.147.376-.2.56-.005.018-.015.037-.02.056a.022.022,0,0,1,0,.007c0,.016-.005.031-.011.047a5.888,5.888,0,0,0-.162.685c0,.025-.014.05-.018.074-.011.064-.01.124-.017.187-.016.13-.03.258-.035.383,0,.035-.009.073-.011.107,0,.054.009.1.011.157,0,.122.008.242.021.359,0,.042,0,.088.007.129.011.065.027.127.039.19.01.047.017.094.029.139a3.345,3.345,0,0,0,.147.469l0,.009a3.317,3.317,0,0,0,.27.511c.033.052.074.1.111.153a3.529,3.529,0,0,0,.253.317c.02.022.035.048.056.07.051.054.111.1.166.156.04.037.077.075.118.11a4.587,4.587,0,0,0,.42.327l2.566,1.751c.031.021.068.039.1.06-.159-.035-.318-.066-.474-.1a8.035,8.035,0,0,1-2.617-1.106l2.566,1.752a8.042,8.042,0,0,0,2.617,1.1c.292.069.591.137.889.191a23.407,23.407,0,0,0,4.415.4q.554,0,1.109-.012c.127,0,.254-.012.382-.016.2-.007.392-.017.589-.027q.512-.025,1.024-.061c.2-.015.406-.028.609-.044q.546-.044,1.091-.1c.163-.015.325-.029.488-.045.511-.05,1.021-.1,1.526-.155.539-.058,1.078-.114,1.616-.165.414-.04.843-.088,1.276-.139.14-.017.279-.035.42-.054.328-.042.656-.088.986-.139.1-.015.192-.025.289-.041l.173-.029.1-.019c.135-.023.268-.05.4-.076.22-.041.44-.084.657-.131.146-.031.287-.066.429-.1.2-.049.406-.1.606-.154.141-.039.278-.079.415-.121.193-.058.38-.121.564-.187.132-.046.262-.094.39-.144.066-.026.138-.048.2-.075q.225-.094.435-.2l.129-.064,0,0,.016-.007.139-.073q.214-.115.411-.239c.078-.051.155-.1.23-.154a3.1,3.1,0,0,0,.451-.394c.013-.014.029-.023.042-.037.07-.076.137-.157.2-.241a.305.305,0,0,1,.018-.029c.007-.011.018-.02.027-.031a3.179,3.179,0,0,0,.255-.437.287.287,0,0,0,.019-.031v-.006s0-.008,0-.011c.037-.078.072-.158.1-.239.023-.062.044-.128.064-.192.006-.017.014-.033.02-.051a.259.259,0,0,1,.006-.025.433.433,0,0,1,.016-.047c.031-.111.059-.227.083-.346l-.007-.005h0l.007.005.008-.039c0-.02,0-.042.007-.061s.012-.043.015-.066c.012-.074.011-.158.02-.235.018-.152.035-.3.041-.466,0-.033.007-.062.008-.1,0-.139-.005-.287-.013-.434,0-.046,0-.088,0-.135l0-.065s0-.006,0-.009l0-.076c-.007-.082-.015-.165-.024-.248-.006-.064-.02-.132-.028-.2s-.009-.1-.017-.159c0-.035-.015-.074-.02-.108-.044-.284-.1-.574-.168-.88a6.655,6.655,0,0,0-.234-.788c-.009-.023-.014-.052-.022-.074l-.017-.044,0,0h0l0,0c0-.011-.01-.021-.015-.033s-.009-.027-.014-.04-.021-.04-.032-.063c-.045-.1-.088-.212-.137-.309s-.091-.158-.137-.236c-.017-.029-.032-.059-.05-.088s-.02-.037-.031-.054q-.092-.139-.192-.264l-.044-.03h0l.045.03c-.039-.048-.082-.088-.123-.133-.018-.021-.034-.05-.054-.071s-.037-.029-.054-.046a3.065,3.065,0,0,0-.434-.372l-.006,0L210.162,78.4a3.038,3.038,0,0,1,.438.373c.038.039.076.081.112.122a3.279,3.279,0,0,1,.345.452c.016.025.031.054.046.079s.029.061.045.09l-1.2-.816c-.061-.042-.129-.07-.192-.106s-.123-.075-.189-.105c-.02-.008-.036-.022-.057-.03a2.432,2.432,0,0,0-.246-.084h0c-.065-.022-.127-.048-.195-.066-.013,0-.024-.009-.036-.012h0l-.014,0-.148-.034c-.07-.015-.144-.021-.216-.032-.045-.007-.088-.017-.135-.023l-.068-.007c-.17-.017-.345-.027-.527-.029h-.131c-.03,0-.065.006-.1.007a9.71,9.71,0,0,0-.97.075,2.463,2.463,0,0,1,.234.344c-.307.035-.644.085-1.023.151-1.038.187-2.09.467-3.1.728-.2.052-.395.1-.592.152.483-.411.936-.8,1.314-1.111q.625-.52,1.245-1.048c.133-.113.262-.228.394-.342q.423-.364.842-.73c.159-.141.315-.283.473-.426.247-.222.493-.444.736-.669.167-.155.33-.311.494-.467.228-.217.456-.435.679-.655.165-.163.327-.328.489-.491.216-.219.427-.439.636-.66.159-.169.314-.339.469-.51.2-.223.4-.448.593-.674q.225-.26.441-.524c.189-.23.371-.465.552-.7.134-.175.27-.351.4-.529.053-.073.111-.144.164-.217.09-.126.165-.258.251-.385.12-.176.25-.349.364-.528.081-.127.16-.254.239-.383.02-.034.039-.07.06-.1.033-.056.063-.112.1-.169.255-.434.494-.875.71-1.324.012-.024.027-.047.038-.072s.009-.021.014-.031l.018-.036.089-.191-.007,0h0l.007,0c.087-.191.164-.386.243-.58.037-.09.078-.178.114-.268.008-.02.017-.04.025-.061.036-.093.071-.187.106-.281s.056-.189.087-.282c.048-.141.1-.279.148-.421.04-.126.069-.256.105-.383.02-.069.046-.134.064-.2s.031-.138.048-.207q.044-.182.085-.366c.021-.094.046-.186.064-.28.015-.069.021-.141.034-.21.017-.1.041-.191.057-.289.025-.15.039-.3.059-.455.015-.116.032-.231.044-.348C215.364,61.645,215.392,61.273,215.4,60.9Z" transform="translate(-1.841 -0.897)"/>
      <path id="Path_40468" data-name="Path 40468" d="M207.928,79.479a5.638,5.638,0,0,0-.957.075,3.815,3.815,0,0,1,.072,3.866,3.824,3.824,0,0,0-.082-3.883c-.307.035-.644.085-1.023.151-1.038.187-2.09.467-3.1.728-.966.254-1.958.516-2.964.7-.258.051-1.305.326-2.23.567-.907.234-1.765.456-2.025.507l-1.464.292,1.165-.939c.168-.139.351-.289.544-.451.741-.618,1.637-1.385,2.508-2.135.8-.674,1.559-1.329,2.149-1.824,5.77-4.807,11.418-10.08,11.578-17.06a12.338,12.338,0,0,0-3.459-8.822,10.7,10.7,0,0,0-10.309-3.043A13.881,13.881,0,0,0,195.4,49.3a17.5,17.5,0,0,0-7.811,7.964,11.4,11.4,0,0,0-1.038,4.014l-.007.173c-.091,1.3-.266,3.724.663,4.727a1.438,1.438,0,0,0,1.1.455,2.34,2.34,0,0,0,.267-.014c2.788-.285,4.017-2.567,5.314-4.983,1.323-2.455,2.694-5,5.8-5.425a5.4,5.4,0,0,1,.732-.05,5.521,5.521,0,0,1,4.031,1.818,4.56,4.56,0,0,1,1.173,3.553c-.333,3.132-3.25,5.339-5.6,7.116l-.468.357c-.923.707-1.86,1.394-2.8,2.082a76.315,76.315,0,0,0-6.163,4.837,24.711,24.711,0,0,0-4.623,5.2c-1.2,1.95-1.54,3.692-.987,5.045.515,1.247,1.809,2.16,3.759,2.635.285.068.57.13.856.185a22.164,22.164,0,0,0,3.416.372q.425.014.867.017a63.194,63.194,0,0,0,6.736-.45l1.623-.172c2.734-.265,6.113-.732,7.919-2.006,1.084-.767,1.363-2.322.83-4.62C210.565,80.258,209.675,79.487,207.928,79.479Z" transform="translate(-1.84 -1.841)" fill="#72b900"/>
      <path id="Path_40469" data-name="Path 40469" d="M206.095,76.9a11.668,11.668,0,0,0-2.122.221c-1.072.194-2.13.475-3.163.742-.952.247-1.931.5-2.91.689-.287.052-1.259.307-2.284.574-.14.039-.287.078-.427.11.576-.489,1.205-1.025,1.821-1.553.79-.675,1.554-1.33,2.142-1.819,5.9-4.913,11.673-10.326,11.843-17.618a13.059,13.059,0,0,0-3.667-9.349,11.514,11.514,0,0,0-8.236-3.569,11.661,11.661,0,0,0-2.776.322,17.819,17.819,0,0,0-11.238,9.463,11.887,11.887,0,0,0-1.1,4.272l-.015.173c-.106,1.517-.287,4.044.858,5.281a2.117,2.117,0,0,0,1.626.688,3.343,3.343,0,0,0,.362-.019c3.173-.323,4.558-2.883,5.889-5.365,1.3-2.4,2.518-4.665,5.254-5.043a4.508,4.508,0,0,1,.631-.042,4.738,4.738,0,0,1,3.475,1.568,3.84,3.84,0,0,1,1,2.986c-.3,2.813-3.08,4.915-5.314,6.607l-.469.357q-1.385,1.049-2.79,2.067c-2.086,1.532-4.245,3.118-6.214,4.892a25.3,25.3,0,0,0-4.759,5.358c-1.327,2.162-1.69,4.136-1.039,5.717.6,1.474,2.078,2.533,4.266,3.071.292.068.591.136.889.191a23.424,23.424,0,0,0,4.415.4,62.238,62.238,0,0,0,6.816-.456c.538-.056,1.078-.114,1.617-.165,2.833-.278,6.327-.771,8.272-2.144,1.358-.958,1.739-2.773,1.129-5.391C209.374,77.935,208.167,76.912,206.095,76.9ZM186.908,86.965c-1.95-.475-3.245-1.388-3.759-2.635-.554-1.353-.213-3.1.987-5.045a24.7,24.7,0,0,1,4.623-5.2,76.3,76.3,0,0,1,6.163-4.838c.935-.688,1.873-1.374,2.8-2.081l.468-.357c2.348-1.777,5.264-3.984,5.6-7.116a4.554,4.554,0,0,0-1.173-3.554,5.522,5.522,0,0,0-4.03-1.818,5.341,5.341,0,0,0-.732.05c-3.108.429-4.478,2.97-5.8,5.425-1.3,2.416-2.526,4.7-5.314,4.983a2.547,2.547,0,0,1-.267.015,1.442,1.442,0,0,1-1.1-.456c-.929-1-.755-3.423-.664-4.727l.008-.174a11.407,11.407,0,0,1,1.038-4.013,17.5,17.5,0,0,1,7.811-7.964,13.91,13.91,0,0,1,2.933-1.088,10.9,10.9,0,0,1,2.6-.3,10.785,10.785,0,0,1,7.709,3.347,12.337,12.337,0,0,1,3.459,8.823c-.159,6.98-5.808,12.253-11.578,17.06-.589.5-1.352,1.151-2.149,1.824-.87.75-1.767,1.517-2.508,2.135-.193.162-.376.312-.544.452l-1.164.938,1.464-.292c.26-.052,1.119-.273,2.026-.507.925-.242,1.971-.516,2.23-.568,1-.187,2-.448,2.964-.7,1.012-.26,2.064-.54,3.1-.728.379-.065.716-.116,1.024-.151a7.879,7.879,0,0,1,.966-.058c1.748.009,2.638.78,3.068,2.652.532,2.3.253,3.854-.831,4.62-1.8,1.273-5.185,1.742-7.919,2.006l-1.622.172a63.37,63.37,0,0,1-6.736.45c-.3,0-.583-.009-.866-.018a22.039,22.039,0,0,1-3.416-.373C187.477,87.095,187.192,87.032,186.908,86.965Z" transform="translate(0 0)" fill="#a2ce07"/>
      <path id="Path_40470" data-name="Path 40470" d="M224.638,47.908a10.785,10.785,0,0,1,7.71,3.347,12.338,12.338,0,0,1,3.459,8.822c-.16,6.98-5.808,12.253-11.578,17.06-.59.5-1.352,1.151-2.149,1.824-.871.75-1.767,1.517-2.508,2.135a4.07,4.07,0,0,1-.513.033c-.9,0-1.494-.4-.816-1.816a15.814,15.814,0,0,1,3.819-4.379c2.438-2.216,4.927-4.132,6.832-6.87,2.812-4.031,3.9-9.488.6-13.532A14.962,14.962,0,0,0,219.106,49.3a13.88,13.88,0,0,1,2.933-1.088A10.85,10.85,0,0,1,224.638,47.908Z" transform="translate(-25.551 -1.841)" opacity="0.3" fill="url(#linear-gradient-4)" style="mix-blend-mode: multiply;isolation: isolate"/>
    </g>
  </g>
</svg>
