<svg xmlns="http://www.w3.org/2000/svg" xmlns:xlink="http://www.w3.org/1999/xlink" width="71.389" height="48.053" viewBox="0 0 71.389 48.053">
  <defs>
    <linearGradient id="linear-gradient" x1="1.819" y1="-4.578" x2="0.088" y2="2.086" gradientUnits="objectBoundingBox">
      <stop offset="0.066" stop-color="#00388b"/>
      <stop offset="0.667" stop-color="#162663"/>
      <stop offset="0.696" stop-color="#132157"/>
      <stop offset="0.831" stop-color="#080f28"/>
      <stop offset="0.934" stop-color="#02040a"/>
      <stop offset="0.992"/>
    </linearGradient>
    <linearGradient id="linear-gradient-2" x1="0.711" y1="-0.005" x2="0.317" y2="0.962" gradientUnits="objectBoundingBox">
      <stop offset="0.066" stop-color="#00388b"/>
      <stop offset="0.348" stop-color="#111d4b"/>
      <stop offset="0.381" stop-color="#111e4e"/>
      <stop offset="0.632" stop-color="#162663"/>
      <stop offset="0.753" stop-color="#0f1a43"/>
      <stop offset="0.832" stop-color="#080f28"/>
      <stop offset="0.934" stop-color="#02040a"/>
      <stop offset="0.992"/>
    </linearGradient>
    <linearGradient id="linear-gradient-3" x1="-1.04" y1="0.472" x2="1.362" y2="0.517" gradientUnits="objectBoundingBox">
      <stop offset="0.266" stop-color="#008ce7"/>
      <stop offset="0.786" stop-color="#2f5397"/>
      <stop offset="1" stop-color="#28418d"/>
    </linearGradient>
    <linearGradient id="linear-gradient-4" y1="0.5" x2="1" y2="0.5" gradientUnits="objectBoundingBox">
      <stop offset="0.041" stop-color="#0057e7"/>
      <stop offset="0.786" stop-color="#2f5397"/>
      <stop offset="1" stop-color="#28418d"/>
    </linearGradient>
    <linearGradient id="linear-gradient-5" x1="0.106" y1="0.497" x2="1.281" y2="0.508" gradientUnits="objectBoundingBox">
      <stop offset="0.066" stop-color="#5c9aff"/>
      <stop offset="1" stop-color="#28418d"/>
    </linearGradient>
    <linearGradient id="linear-gradient-6" y1="0.5" x2="1" y2="0.5" gradientUnits="objectBoundingBox">
      <stop offset="0" stop-color="#47b27a"/>
      <stop offset="1" stop-color="#087a4e"/>
    </linearGradient>
  </defs>
  <g id="_23" data-name="23" transform="translate(-23.605 -36.1)">
    <g id="Group_28077" data-name="Group 28077" transform="translate(-280.083 -11.021)">
      <path id="Path_40453" data-name="Path 40453" d="M359.235,52.5a13.916,13.916,0,0,0-5.023.9c-4.532,1.759-7.865,5.243-7.926,8.284A4.108,4.108,0,0,0,348.32,65.3l-.048-.029h0l2.7,1.839a7.675,7.675,0,0,0,1.306.705,3.354,3.354,0,0,0,1.332.3h.012a2.875,2.875,0,0,0,.575-.063l.109-.023a2.95,2.95,0,0,0,.518-.176l.093-.045a3.637,3.637,0,0,0,.462-.265l.036-.022a4.8,4.8,0,0,0,.449-.359l.09-.081c.126-.116.249-.236.367-.364l.025-.029c.211-.23.412-.477.605-.728l.151-.2c.179-.238.354-.478.523-.715.149-.2.29-.4.424-.585a6.591,6.591,0,0,1,5.149-2.647h.029a5.264,5.264,0,0,1,1.175.137c.129.03.258.07.387.112a4.087,4.087,0,0,1,1.005,3.1c-.426,3.34-4.7,4.995-8.557,5.435l-.377.04c-1.741.186-4.116.447-5.087,2.259a2.456,2.456,0,0,0-.063,2.307,3.779,3.779,0,0,0,1.42,1.519l-.148-.09,2.7,1.84a4.173,4.173,0,0,0,1.558.656,10.867,10.867,0,0,0,2.038.186h.164c.1,0,.2,0,.318,0a30.125,30.125,0,0,0,3.2-.528,20.4,20.4,0,0,1,4.113-.565h.053a8.28,8.28,0,0,1,2.087.275,4.834,4.834,0,0,1,.748,3.29,7.369,7.369,0,0,1-5.482,6.626,8.924,8.924,0,0,1-2.285.3h-.05a8.932,8.932,0,0,1-4.08-1.051l-.08-.068q-.378-.32-.747-.661c-.111-.1-.22-.2-.33-.309q-.406-.389-.8-.8l-.194-.2c-.345-.361-.683-.728-1.018-1.1l-.086-.094-.19-.181-.117-.111a3.963,3.963,0,0,0-.376-.292l-2.7-1.841.111.085a3.51,3.51,0,0,0-2.081-.708h-.02c-2.354,0-4.8,2.323-5.139,4.873-.418,3.144,1.85,5.58,4.328,7.266L348.6,93.5l2.7,1.84a24.784,24.784,0,0,0,4.987,2.553,16.913,16.913,0,0,0,5.925,1.037h.111A18.955,18.955,0,0,0,375,94.314c.38-.355.734-.728,1.073-1.107.1-.113.2-.228.293-.344q.361-.426.687-.869c.054-.074.118-.144.172-.218l.107-.165c.151-.217.291-.44.429-.662.091-.146.185-.291.271-.441.14-.243.267-.49.393-.739.056-.112.123-.221.178-.334l.031-.074c.059-.127.11-.257.166-.385.1-.225.195-.448.282-.676.056-.147.1-.3.156-.445s.114-.309.163-.466l.048-.18c.04-.135.075-.272.11-.409.06-.223.114-.447.163-.671.03-.142.058-.284.084-.426.018-.1.04-.189.057-.284.021-.13.032-.259.049-.389s.04-.286.054-.429c.025-.237.04-.473.052-.71.007-.13.018-.259.021-.389l.006-.1c0-.176-.009-.352-.013-.529s0-.348-.01-.521c-.012-.215-.038-.428-.061-.642-.016-.168-.028-.336-.051-.5l-.006-.062c-.047-.317-.108-.634-.176-.949-.018-.083-.04-.165-.059-.247-.065-.27-.137-.541-.218-.808-.028-.09-.053-.178-.082-.267-.1-.32-.216-.641-.345-.956l-.014-.03c-.157-.382-.33-.759-.522-1.132-.124-.237-.259-.471-.406-.7-.045-.072-.1-.143-.146-.216-.1-.158-.208-.318-.322-.472l-.007-.011-.04-.055-.126-.154c-.145-.19-.295-.376-.452-.561-.075-.087-.153-.172-.232-.258s-.146-.169-.224-.251l-.135-.128q-.381-.388-.789-.746l-.168-.153c-.29-.245-.588-.48-.893-.7l0,0-.2-.141-1.226-.837c.247-.42.471-.838.669-1.251l.008-.016c.182-.382.335-.759.476-1.134l.053-.125.047-.13.058-.192c.03-.092.068-.185.1-.277.053-.173.1-.345.141-.517l.038-.128.025-.1,0-.02.013-.057.015-.083c.044-.2.088-.4.12-.6.02-.119.03-.237.045-.355l.024-.193c.031-.281.051-.561.057-.838l0-.142c0-.073,0-.146-.006-.218q-.007-.433-.057-.858l-.017-.167-.009-.082c-.026-.181-.074-.359-.112-.538-.029-.142-.046-.285-.083-.425l-.026-.095,0-.012-.013-.048c-.02-.072-.054-.142-.076-.214-.079-.259-.158-.518-.262-.773l-.054-.12-.023-.064c-.033-.076-.067-.152-.1-.229l-.084-.167q-.063-.13-.131-.26c-.071-.136-.146-.271-.224-.406-.048-.084-.1-.167-.146-.25-.089-.144-.185-.289-.282-.432l-.141-.21c-.151-.211-.307-.422-.475-.63-.1-.121-.2-.241-.3-.358l-.037-.04-.071-.069-.135-.154c-.167-.176-.352-.336-.531-.5-.1-.094-.2-.195-.3-.286a12.029,12.029,0,0,0-1.053-.811l-2.7-1.84,0,0,0,0,.184.142a14.734,14.734,0,0,0-8.42-2.587Z" transform="translate(-4.973 -3.761)" fill="#b4b4b4" style="mix-blend-mode: multiply;isolation: isolate"/>
      <g id="Group_28077-2" data-name="Group 28077" transform="translate(337.907 47.505)">
        <path id="Path_40454" data-name="Path 40454" d="M361.777,145.921c.317.353.638.7.966,1.047.015.017.032.032.048.049.069.072.139.14.209.211q.386.4.783.78c.112.109.228.215.343.321.241.223.483.438.731.647.112.1.224.193.338.286.355.288.717.566,1.087.819l2.7,1.84c-.373-.253-.734-.532-1.09-.822-.11-.089-.217-.182-.325-.274q-.382-.323-.753-.667c-.107-.1-.214-.2-.32-.3q-.422-.406-.832-.83c-.052-.055-.108-.107-.159-.162-.348-.363-.689-.734-1.027-1.109l-.086-.093c-.061-.064-.125-.119-.187-.178-.041-.038-.08-.079-.121-.115a4.47,4.47,0,0,0-.375-.292l-2.7-1.84a4.176,4.176,0,0,1,.377.293c.038.033.074.071.111.106C361.59,145.731,361.686,145.821,361.777,145.921Z" transform="translate(-354.602 -116.121)" fill="url(#linear-gradient)"/>
        <path id="Path_40455" data-name="Path 40455" d="M374.711,79.407c.007-.13.019-.26.022-.391,0-.035,0-.07.006-.1,0-.176-.008-.352-.013-.529s0-.347-.01-.52c-.013-.217-.038-.432-.061-.647-.016-.166-.028-.333-.051-.5,0-.021,0-.042-.006-.064-.046-.318-.107-.634-.177-.95-.017-.082-.038-.163-.057-.244q-.1-.408-.218-.81c-.027-.089-.053-.179-.082-.266-.1-.321-.216-.64-.346-.956,0-.01-.009-.019-.013-.029-.158-.382-.33-.76-.523-1.133q-.186-.356-.406-.7c-.039-.063-.085-.123-.125-.185-.11-.169-.221-.338-.342-.5a.074.074,0,0,1-.007-.011l-.04-.055c-.04-.053-.085-.1-.126-.155-.145-.189-.294-.376-.452-.559-.075-.088-.154-.173-.232-.259s-.146-.17-.223-.251c-.042-.045-.092-.084-.134-.128-.254-.259-.516-.508-.789-.746-.057-.05-.11-.1-.168-.152-.29-.246-.588-.481-.893-.7l0,0-.2-.141-1.226-.837c.247-.42.471-.838.669-1.252l.008-.016c.182-.381.335-.758.476-1.133.016-.042.038-.084.053-.126l.047-.13c.023-.065.037-.128.058-.192.03-.092.068-.185.1-.277.053-.173.1-.345.141-.517.011-.042.027-.086.038-.128l.025-.1,0-.019.014-.057c.007-.028.008-.055.014-.083.044-.2.088-.4.12-.6.02-.119.031-.237.046-.355.007-.064.017-.13.024-.194.03-.281.051-.56.057-.837,0-.047,0-.094,0-.142,0-.074,0-.146-.005-.219q-.008-.433-.057-.858c-.006-.055-.01-.112-.017-.167,0-.028,0-.055-.009-.082-.026-.182-.074-.359-.112-.539-.029-.141-.046-.284-.083-.424l-.007,0h0l.007,0-.026-.095a.085.085,0,0,1,0-.012l-.013-.048,0,0h0l0,0c-.02-.072-.054-.142-.076-.215-.079-.259-.158-.518-.262-.772-.015-.041-.037-.08-.054-.12-.008-.021-.013-.043-.022-.064-.033-.077-.067-.152-.1-.228-.026-.056-.058-.111-.085-.167-.042-.087-.086-.174-.132-.26-.069-.136-.146-.271-.223-.406-.048-.083-.1-.166-.146-.25-.089-.144-.185-.288-.282-.431-.047-.07-.091-.141-.141-.21-.151-.212-.307-.422-.476-.63-.1-.121-.2-.241-.3-.357l-.037-.041c-.022-.024-.048-.045-.07-.069-.046-.051-.089-.1-.136-.155-.167-.175-.352-.335-.53-.5-.1-.094-.2-.2-.3-.287a11.934,11.934,0,0,0-1.053-.811l-2.7-1.84,0,0,0,0a12.087,12.087,0,0,1,1.052.81c.109.094.207.2.311.295.226.208.45.418.655.643.075.081.146.165.218.248l-.24-.164-.722-.492-.123-.084-1.36-.928c-.329-.224-.672-.429-1.022-.621-.111-.061-.226-.115-.338-.173-.248-.127-.5-.247-.756-.359-.062-.028-.121-.062-.183-.088l.04.028h0l-.04-.028c-.063-.026-.128-.043-.19-.068q-.5-.2-1.013-.363c-.081-.025-.159-.055-.24-.079-.419-.125-.844-.229-1.273-.317-.106-.022-.214-.038-.321-.058q-.507-.093-1.017-.152c-.123-.014-.246-.029-.37-.041-.436-.039-.873-.067-1.307-.07h0a13.573,13.573,0,0,0-4.959.869q-.295.116-.582.241c-.219.1-.435.195-.646.3l.369.251c-.058.027-.113.059-.171.086q-.316.151-.619.312c-.095.051-.189.1-.282.152q-.327.182-.638.376c-.06.038-.124.073-.183.112-.262.166-.513.338-.757.515-.063.046-.125.1-.187.142-.179.134-.354.271-.522.411-.076.063-.151.127-.224.191-.157.135-.306.272-.452.412-.06.058-.124.116-.182.175-.2.2-.382.392-.554.593-.021.024-.039.048-.059.073q-.226.266-.421.537c-.018.025-.04.049-.058.074-.041.059-.076.119-.116.179-.058.088-.118.175-.171.263s-.1.176-.152.264-.1.18-.146.271c-.015.03-.034.06-.048.091s-.026.07-.041.1a5.361,5.361,0,0,0-.216.544c-.011.035-.031.071-.041.106-.006.018-.008.035-.013.054-.044.149-.076.3-.1.444-.008.037-.021.075-.027.113,0,.005,0,.011,0,.017a3.82,3.82,0,0,0-.049.537v.012c0,.015,0,.03,0,.046a3.3,3.3,0,0,0,.027.439c0,.017,0,.034,0,.051s.014.041.017.063a3.077,3.077,0,0,0,.176.646.007.007,0,0,0,0,.005.183.183,0,0,0,.013.025,3.134,3.134,0,0,0,.242.459c.026.042.053.083.082.124a3.56,3.56,0,0,0,.328.412c.01.011.017.023.027.034l.01.009c.069.072.147.141.223.21.042.038.079.077.122.114.125.1.259.207.4.3l2.363,1.613c-.064,0-.123.02-.19.02a3.351,3.351,0,0,1-1.331-.3,7.688,7.688,0,0,1-1.307-.706l0,0h0l2.7,1.84a7.632,7.632,0,0,0,1.306.706,3.359,3.359,0,0,0,1.332.3,2.848,2.848,0,0,0,.586-.063c.037-.007.074-.014.109-.023a2.943,2.943,0,0,0,.517-.176c.032-.014.062-.03.093-.045a3.638,3.638,0,0,0,.462-.265l.036-.022a4.827,4.827,0,0,0,.449-.358l.091-.081c.125-.116.248-.236.365-.364l.025-.029c.211-.23.412-.476.606-.728.051-.067.1-.132.151-.2.179-.238.354-.478.523-.714q.223-.3.424-.585a6.587,6.587,0,0,1,5.179-2.647,5.261,5.261,0,0,1,1.175.137,5.6,5.6,0,0,1,1.683.725c.063.128.13.255.182.388.021.054.038.111.058.167a4.86,4.86,0,0,1,.14.467c.016.071.032.143.046.214.026.134.04.269.053.405.011.111.019.223.021.335a4.088,4.088,0,0,1-.023.6,5.2,5.2,0,0,1-.166.78c-.008.026-.012.054-.019.08a4.943,4.943,0,0,1-.288.724,5.12,5.12,0,0,1-.436.733,5.685,5.685,0,0,1-.468.568c-.054.058-.112.112-.169.168-.12.12-.243.237-.373.348-.068.059-.138.115-.208.171-.13.1-.265.2-.4.3-.07.049-.138.1-.21.144-.166.109-.336.211-.509.308-.044.025-.089.054-.134.079q-.33.179-.67.335c-.065.03-.13.056-.2.085-.166.072-.331.143-.5.207-.084.033-.168.064-.253.095-.151.056-.3.11-.452.16l-.247.081c-.162.051-.324.1-.484.143l-.19.055c-.218.059-.433.112-.641.161l-.136.03c-.163.036-.323.07-.476.1l-.207.04c-.125.023-.246.045-.363.065l-.189.031c-.115.018-.223.035-.327.049l-.147.021c-.141.019-.272.035-.385.048l-.385.039c-.2.022-.405.044-.613.07l-.156.021c-.158.02-.316.041-.476.066-.075.011-.147.026-.222.039-.137.024-.275.048-.412.077-.081.017-.16.04-.242.06-.125.03-.25.061-.371.1-.084.025-.165.057-.246.086-.112.04-.224.08-.331.127-.081.035-.157.077-.235.117-.1.051-.2.1-.288.162-.074.048-.143.1-.211.154a2.666,2.666,0,0,0-.239.206,2.41,2.41,0,0,0-.177.2c-.036.044-.08.079-.113.126a2.415,2.415,0,0,0-.153.246l-.045.09a1.94,1.94,0,0,0-.1.26c0,.01,0,.02-.007.03s-.008.036-.013.054c-.012.048-.026.1-.034.146a1.563,1.563,0,0,0-.019.208c0,.005,0,.011,0,.017v.007a1.5,1.5,0,0,0,.017.267c0,.02.013.04.017.061a1.733,1.733,0,0,0,.066.241c.015.045.018.089.037.135l.044.1a2.265,2.265,0,0,0,.193.328c.023.033.051.064.076.1a2.538,2.538,0,0,0,.174.211.323.323,0,0,0,.021.026c.01.012.027.02.038.033a3.443,3.443,0,0,0,.5.425h0l2.1,1.434c-.337-.031-.661-.076-.979-.137a4.178,4.178,0,0,1-1.559-.656l2.7,1.841a4.191,4.191,0,0,0,1.558.656,11,11,0,0,0,2.038.186c.153,0,.307,0,.482,0a29.974,29.974,0,0,0,3.2-.529,20.178,20.178,0,0,1,4.166-.565,8.241,8.241,0,0,1,2.232.306,4.944,4.944,0,0,1,.986.415v0c.06.142.108.291.155.44.022.069.051.134.069.2a5.765,5.765,0,0,1,.145.693,6.253,6.253,0,0,1,.055.9,6.561,6.561,0,0,1-.034.686c-.035.318-.1.619-.166.922-.045.217-.091.434-.15.643s-.13.416-.2.618-.145.4-.229.593a8.529,8.529,0,0,1-.444.889c-.016.026-.034.051-.051.078a8.1,8.1,0,0,1-.624.883c-.023.028-.044.06-.069.087a7.647,7.647,0,0,1-.75.772c-.046.042-.091.084-.137.124a7.7,7.7,0,0,1-.847.631q-.08.052-.165.1a7.854,7.854,0,0,1-.964.508c-.045.02-.094.038-.14.057a8.58,8.58,0,0,1-1.122.386,9.569,9.569,0,0,1-2.523.336,9.747,9.747,0,0,1-4.5-1.168c-.052-.042-.1-.086-.154-.129-.257-.217-.512-.441-.761-.673-.118-.109-.236-.218-.352-.33q-.4-.386-.794-.789c-.078-.08-.158-.158-.235-.239q-.526-.55-1.035-1.117l-.073-.078c-.015-.015-.032-.024-.046-.04a3.573,3.573,0,0,0-.517-.443l-2.7-1.84a2.7,2.7,0,0,0-1.533-.484,2.971,2.971,0,0,0-.44.034c-.047.006-.092.016-.138.024q-.157.029-.313.074c-.048.014-.1.026-.143.043a3.835,3.835,0,0,0-.366.141c-.022.009-.044.016-.067.027a4.425,4.425,0,0,0-.416.222c-.042.024-.081.051-.122.077-.1.063-.2.13-.293.2l-.126.1c-.1.082-.205.168-.3.259l-.076.067c-.12.115-.236.235-.347.361-.028.033-.055.066-.083.1-.082.1-.161.2-.237.3-.015.022-.035.043-.051.066s-.016.028-.025.041a5.207,5.207,0,0,0-.412.7c-.009.016-.02.03-.028.046s-.011.029-.016.043a4.756,4.756,0,0,0-.219.557c0,.014-.012.029-.016.043s-.013.054-.02.081c-.038.131-.068.263-.093.4-.005.029-.016.057-.021.087l-.017.112a5.083,5.083,0,0,0-.041.534c0,.008,0,.018,0,.026s.005.042.005.063a4.7,4.7,0,0,0,.039.624c0,.028,0,.059.007.087s.01.042.013.064a5.037,5.037,0,0,0,.119.555h0a5.052,5.052,0,0,0,.189.542c.008.018.012.037.019.054.015.034.034.066.048.1.058.133.121.262.189.39.026.05.053.1.081.149.093.163.19.323.3.479l.013.02c.114.164.237.326.364.484.034.042.068.083.1.124.1.118.2.234.307.349.023.024.043.051.066.075s.021.018.031.028a11.62,11.62,0,0,0,.957.887c.023.02.047.039.07.058.346.282.7.551,1.071.8l2.333,1.592.229.156.135.092a22.294,22.294,0,0,0,3.265,1.814q-.709-.193-1.381-.447a24.675,24.675,0,0,1-4.988-2.552l2.7,1.839a24.724,24.724,0,0,0,4.987,2.553A16.94,16.94,0,0,0,356.9,94.45a18.976,18.976,0,0,0,12.8-4.623c.382-.355.733-.727,1.074-1.108.1-.112.193-.226.289-.339q.363-.428.691-.874c.054-.073.118-.143.17-.216.038-.053.069-.11.106-.164.153-.22.294-.444.434-.67.089-.143.182-.285.266-.431.143-.249.274-.5.4-.758.054-.107.118-.21.169-.318.011-.023.019-.047.031-.07.062-.133.116-.268.173-.4.1-.22.191-.438.277-.661.056-.149.1-.3.158-.45s.112-.307.161-.463c.018-.059.031-.12.049-.179.04-.137.075-.275.111-.412.059-.223.113-.445.162-.669.031-.142.058-.283.085-.426.017-.095.04-.189.056-.284.02-.129.032-.259.049-.389s.04-.286.054-.429C374.683,79.879,374.7,79.644,374.711,79.407ZM358.435,56.586a5.19,5.19,0,0,1,1.464.318c.106.121.211.243.309.371.038.051.076.1.114.156.1.144.2.292.285.444.023.04.048.079.071.12.032.058.054.12.083.179Zm4.591,16.449a8.434,8.434,0,0,1,1.23.252c.035.01.065.027.1.037.057.072.117.14.168.215.037.053.079.1.113.158a5.059,5.059,0,0,1,.351.677Z" transform="translate(-339.707 -48.397)" fill="url(#linear-gradient-2)"/>
      </g>
      <path id="Path_40456" data-name="Path 40456" d="M369.789,71.7a12.2,12.2,0,0,0-5.436-5.147l-.4-.183.234-.376c2.748-4.418,2.711-8.424-.114-11.906A13.027,13.027,0,0,0,354,49.7a13.284,13.284,0,0,0-4.789.83c.085-.007.173,0,.259-.011-.1.008-.19.012-.288.022-4.252,1.655-7.38,4.84-7.431,7.573-.034,1.531.947,2.767,2.825,3.573a2.709,2.709,0,0,0,1.031.229c1.409.008,2.456-1.447,3.381-2.736.14-.2.29-.4.431-.6a7.369,7.369,0,0,1,5.811-2.957,6.014,6.014,0,0,1,1.342.157c2.543.6,5.028,3.117,4.676,5.9-.606,4.765-7.22,5.883-9.24,6.11l-.385.039c-1.649.181-3.7.407-4.484,1.85A1.717,1.717,0,0,0,347.1,71.3a3.3,3.3,0,0,0,2.275,1.655,10.439,10.439,0,0,0,1.883.171c.147,0,.3,0,.448-.006a27.993,27.993,0,0,0,3.089-.515,21.34,21.34,0,0,1,4.327-.577,8.9,8.9,0,0,1,2.441.335,5.289,5.289,0,0,1,3.859,5.927,8.128,8.128,0,0,1-6.061,7.295,9.569,9.569,0,0,1-2.523.336c-4.307-.023-7.611-3.04-10.53-6.286a2.884,2.884,0,0,0-2.169-1.046c-1.97-.011-4.1,2.033-4.386,4.2-.665,4.989,6.57,8.131,8.8,8.974a16.321,16.321,0,0,0,5.653.988c.187,0,.373,0,.56-.006a18.007,18.007,0,0,0,11.7-4.41C371.29,83.834,372.626,77.15,369.789,71.7Z" transform="translate(-1.799 -1.805)" fill="url(#linear-gradient-3)"/>
      <path id="Path_40457" data-name="Path 40457" d="M376.1,49.7a13.027,13.027,0,0,1,10.071,4.382c2.825,3.482,2.862,7.488.114,11.906l-.234.376.4.183A12.2,12.2,0,0,1,391.89,71.7c2.837,5.454,1.5,12.137-3.327,16.635a18.007,18.007,0,0,1-11.7,4.41,23.492,23.492,0,0,0,4.473-1.554,15.744,15.744,0,0,0,8.846-11.39c1.033-5.5-2.163-11.372-7.71-12.485a10.551,10.551,0,0,0,2.255-9.027c-.93-3.871-4.91-6.262-8.456-7.288a13.07,13.07,0,0,0-3.617-.521q-.674,0-1.347.056A13.284,13.284,0,0,1,376.1,49.7Z" transform="translate(-23.9 -1.805)" opacity="0.3" fill="url(#linear-gradient-4)" style="mix-blend-mode: multiply;isolation: isolate"/>
      <path id="Path_40458" data-name="Path 40458" d="M368.684,69.532a13.192,13.192,0,0,0-5.413-5.307c2.706-4.585,2.575-8.766-.4-12.438A14.669,14.669,0,0,0,347.1,48.017c-4.532,1.759-7.864,5.243-7.926,8.284-.032,1.3.518,3.106,3.293,4.3a3.351,3.351,0,0,0,1.331.3c1.815.01,2.982-1.627,4.014-3.069q.221-.3.423-.585a6.584,6.584,0,0,1,5.178-2.647,5.282,5.282,0,0,1,1.175.136c2.217.523,4.389,2.681,4.09,5.049-.427,3.34-4.7,4.995-8.557,5.435l-.378.04c-1.74.186-4.115.446-5.087,2.258a2.455,2.455,0,0,0-.063,2.307,4.072,4.072,0,0,0,2.831,2.084,11,11,0,0,0,2.037.185c.154,0,.306,0,.481,0a29.835,29.835,0,0,0,3.2-.527A20.112,20.112,0,0,1,357.312,71a8.222,8.222,0,0,1,2.232.305,4.535,4.535,0,0,1,3.3,5.1,7.37,7.37,0,0,1-5.482,6.626,8.917,8.917,0,0,1-2.335.3c-4-.021-7.148-2.908-9.945-6.023a3.673,3.673,0,0,0-2.74-1.3c-2.36-.013-4.816,2.316-5.159,4.872-.74,5.562,6.925,8.909,9.292,9.8a16.9,16.9,0,0,0,5.925,1.039,18.972,18.972,0,0,0,12.8-4.622C370.278,82.354,371.679,75.3,368.684,69.532ZM337.95,80.979c.291-2.165,2.417-4.209,4.386-4.2a2.884,2.884,0,0,1,2.169,1.046c2.918,3.246,6.223,6.263,10.53,6.286a9.569,9.569,0,0,0,2.523-.336,8.128,8.128,0,0,0,6.061-7.295,5.289,5.289,0,0,0-3.859-5.927,8.9,8.9,0,0,0-2.441-.335,21.341,21.341,0,0,0-4.327.577,27.99,27.99,0,0,1-3.089.515c-.152,0-.3.006-.448.006a10.44,10.44,0,0,1-1.883-.171,3.3,3.3,0,0,1-2.275-1.655,1.717,1.717,0,0,1,.041-1.614c.781-1.443,2.835-1.67,4.484-1.85l.385-.039c2.02-.227,8.634-1.345,9.24-6.11.352-2.78-2.133-5.3-4.676-5.9a6.014,6.014,0,0,0-1.342-.157,7.369,7.369,0,0,0-5.811,2.957c-.141.195-.29.4-.431.6-.925,1.289-1.972,2.744-3.381,2.736a2.709,2.709,0,0,1-1.031-.229c-1.878-.807-2.859-2.042-2.825-3.573.052-2.733,3.179-5.918,7.461-7.584a13.284,13.284,0,0,1,4.789-.83,13.027,13.027,0,0,1,10.071,4.382c2.825,3.482,2.862,7.488.114,11.906l-.234.376.4.183a12.2,12.2,0,0,1,5.436,5.147c2.837,5.454,1.5,12.137-3.327,16.635a18.007,18.007,0,0,1-11.7,4.41c-.187,0-.373.007-.56.006a16.32,16.32,0,0,1-5.653-.988C344.52,89.11,337.285,85.968,337.95,80.979Z" fill="url(#linear-gradient-5)"/>
    </g>
    <g id="Group_28843" data-name="Group 28843" transform="translate(-158.548 -9.228)">
      <path id="Path_40466" data-name="Path 40466" d="M206.144,50.7a11.651,11.651,0,0,0-2.717.323,17.82,17.82,0,0,0-11.239,9.463,11.916,11.916,0,0,0-1.1,4.273l-.015.173c-.107,1.516-.288,4.044.858,5.281a2.059,2.059,0,0,0,.688.5,2,2,0,0,1-.316-.172l2.567,1.751a2.183,2.183,0,0,0,1.254.364,3.349,3.349,0,0,0,.361-.019,5.8,5.8,0,0,0,.665-.108l.194-.049c.147-.038.293-.081.432-.13l.191-.07c.149-.058.291-.122.43-.192l.123-.059a5.279,5.279,0,0,0,.5-.306l.112-.083c.123-.088.242-.18.357-.278l.143-.126q.158-.141.307-.293l.121-.123c.133-.143.263-.289.387-.443l.015-.018c.12-.15.236-.3.349-.461l.037-.049.03-.046c.267-.383.518-.785.758-1.2l.033-.06c.242-.419.472-.847.7-1.273s.474-.875.716-1.3l.007-.011c.24-.417.49-.818.755-1.194l.019-.026c.105-.149.214-.292.324-.431l.09-.106c.083-.1.167-.2.256-.3l.125-.132c.082-.086.169-.17.255-.25l.126-.115c.114-.1.231-.194.353-.284l.051-.04a5.062,5.062,0,0,1,.433-.276l.138-.071c.109-.058.221-.112.338-.162l.172-.069c.118-.045.239-.084.361-.121l.169-.049a5.074,5.074,0,0,1,.566-.113,4.442,4.442,0,0,1,.61-.042h.022a4.613,4.613,0,0,1,1.194.175,3.793,3.793,0,0,1,.712,2.627c-.3,2.813-3.08,4.915-5.314,6.606l-.469.357Q203,73,201.594,74.021c-2.087,1.532-4.247,3.117-6.216,4.891a25.319,25.319,0,0,0-4.759,5.358c-1.328,2.162-1.691,4.136-1.039,5.717a4.5,4.5,0,0,0,1.9,2.119c-.084-.052-.174-.1-.254-.154L193.8,93.7a8.038,8.038,0,0,0,2.616,1.105c.292.068.591.136.89.191a23.354,23.354,0,0,0,4.415.4h.14c.323,0,.645,0,.969-.012.122,0,.246-.012.37-.017.2-.007.4-.015.6-.026.345-.017.688-.037,1.033-.062.195-.013.389-.027.583-.042q.565-.046,1.127-.1L207,95.1c.514-.051,1.026-.1,1.532-.157.539-.057,1.079-.113,1.616-.164.417-.04.85-.088,1.288-.141.131-.015.26-.032.391-.05.337-.043.675-.091,1.015-.145.093-.014.184-.023.276-.039l.173-.029.094-.017c.14-.024.277-.052.416-.078.218-.042.434-.083.649-.13.145-.031.285-.065.428-.1q.307-.073.605-.154c.141-.039.279-.08.416-.122.193-.06.38-.121.565-.186.13-.046.26-.094.386-.144l.2-.076q.225-.093.435-.195l.125-.062.011-.006.013-.006.139-.073q.214-.115.411-.239c.078-.05.155-.1.23-.154a3.149,3.149,0,0,0,.449-.394l.043-.037c.07-.077.137-.156.2-.24l.017-.03.027-.031a3.277,3.277,0,0,0,.248-.425l.026-.043,0,0v0l0-.006c.037-.079.073-.159.105-.243l-.009-.006.009.006.065-.193.019-.049.005-.025.016-.048c.031-.111.059-.227.083-.345l-.007-.005.007,0,.008-.038.007-.062.014-.065c.012-.074.011-.157.021-.234.017-.152.034-.3.04-.467l.009-.1c0-.139-.006-.287-.013-.434v-.135l0-.064v-.01l0-.076c-.007-.082-.015-.165-.024-.248l-.028-.2-.017-.161-.02-.109c-.044-.283-.1-.573-.168-.879a6.722,6.722,0,0,0-.234-.788l-.022-.074-.017-.044-.015-.034-.013-.04-.03-.06c-.045-.106-.09-.213-.139-.311s-.091-.159-.137-.236l-.05-.088-.032-.054q-.091-.138-.191-.265l-.123-.133-.054-.071L218.44,85a3.042,3.042,0,0,0-.435-.372l-.006,0-2.566-1.751.113.1a3.778,3.778,0,0,0-2.34-.7h-.044a11.675,11.675,0,0,0-2.078.221c-.77.139-1.529.325-2.28.518l.027-.023q.625-.52,1.245-1.048c.132-.113.261-.227.391-.34q.425-.364.846-.734c.156-.138.309-.279.466-.418.249-.226.5-.45.744-.678.163-.153.324-.307.486-.461q.347-.329.688-.662c.163-.161.322-.323.481-.485q.327-.331.643-.667c.157-.166.311-.335.463-.5q.306-.338.6-.682c.147-.171.292-.343.435-.518.19-.233.374-.468.555-.7.134-.175.268-.349.4-.526.053-.073.112-.145.165-.218.089-.126.165-.258.251-.385.12-.176.25-.35.364-.528.081-.127.16-.255.239-.384l.059-.1.1-.169c.256-.434.494-.875.71-1.324l.038-.072.014-.031.018-.036.089-.191-.007,0,.007,0c.088-.191.164-.386.244-.58.037-.09.078-.178.113-.268l.025-.06q.053-.14.106-.281c.033-.092.056-.189.088-.282.048-.141.1-.278.147-.421.04-.126.07-.256.105-.383.019-.068.046-.134.064-.2s.031-.139.048-.208c.029-.121.057-.244.085-.366.02-.094.046-.185.064-.28.015-.069.02-.14.033-.209.017-.1.041-.192.057-.289.025-.151.039-.3.059-.455.015-.116.031-.231.044-.348.038-.368.066-.74.074-1.118v-.058c.008-.386-.006-.77-.033-1.153-.008-.113-.024-.226-.036-.339-.019-.2-.032-.394-.06-.589-.015-.1-.037-.2-.054-.307q-.02-.118-.042-.234c-.069-.369-.151-.734-.253-1.095l-.048-.158q-.148-.5-.335-1l-.06-.161-.033-.09c-.092-.228-.2-.447-.309-.669-.062-.132-.115-.268-.183-.4-.166-.321-.348-.634-.54-.941l-.084-.145c-.225-.351-.47-.692-.73-1.022-.077-.1-.165-.189-.246-.285-.175-.209-.347-.42-.536-.619l-.088-.09a12.046,12.046,0,0,0-1.863-1.572l-1.526-1.041-1.041-.711,0,0,0,0,.032.024a11.381,11.381,0,0,0-6.4-2.023Z" transform="translate(-5.076 -3.836)" fill="#b4b4b4" style="mix-blend-mode: multiply;isolation: isolate"/>
      <path id="Path_40467" data-name="Path 40467" d="M215.4,60.9v-.058c.007-.386-.007-.771-.033-1.153-.008-.113-.024-.226-.036-.339-.018-.2-.032-.394-.06-.59-.015-.1-.037-.2-.054-.306q-.02-.118-.042-.234c-.069-.369-.151-.734-.253-1.095-.015-.053-.031-.106-.048-.158q-.147-.5-.335-1c-.02-.054-.04-.108-.06-.161-.011-.03-.021-.06-.033-.09-.092-.227-.2-.447-.309-.669-.062-.132-.116-.268-.183-.4-.166-.322-.349-.635-.54-.941-.03-.047-.054-.1-.084-.145q-.339-.528-.73-1.022c-.077-.1-.165-.189-.246-.285-.175-.209-.347-.421-.536-.619l-.087-.09a12.03,12.03,0,0,0-1.863-1.572l-1.526-1.041-1.041-.71,0,0,0,0a12.053,12.053,0,0,1,1.864,1.572c.11.114.206.239.314.357l-2.408-1.643a11.4,11.4,0,0,0-.987-.6c-.069-.037-.138-.076-.208-.112a10.93,10.93,0,0,0-1.024-.466c-.062-.024-.124-.045-.186-.068-.331-.123-.668-.232-1.013-.322-.05-.013-.1-.029-.148-.042a10.78,10.78,0,0,0-1.135-.213c-.041-.005-.082-.018-.123-.023h-.01l.014.01h0l-.014-.01c-.045,0-.091,0-.136-.009a10.864,10.864,0,0,0-1.125-.072h0a11.376,11.376,0,0,0-2.73.323,14.776,14.776,0,0,0-3.608,1.438l.344.235c-.229.123-.456.25-.68.384-.108.065-.214.134-.32.2q-.394.249-.776.522c-.1.074-.208.147-.311.223-.34.254-.675.518-1,.8l-.027.025c-.316.273-.618.561-.914.857-.093.092-.18.186-.27.279q-.331.344-.641.7c-.084.1-.169.192-.249.29-.272.33-.536.665-.782,1.013l0,0c-.039.054-.07.112-.108.167-.226.327-.445.659-.644,1-.082.138-.149.281-.225.421-.133.242-.27.482-.389.729l-.059.124c-.132.286-.249.577-.358.87-.031.085-.06.172-.09.258-.038.11-.08.219-.114.329s-.06.223-.09.334c-.025.09-.05.178-.073.268-.076.3-.143.611-.194.922q-.082.51-.12,1.031l-.007.173c-.013.176-.026.375-.039.586,0,.067-.005.135-.009.2-.008.159-.015.321-.019.49,0,.047,0,.09-.005.137s0,.09,0,.135c0,.166,0,.331.005.5,0,.094.005.184.01.278.01.189.028.374.05.558.007.056.007.115.016.17,0,.013,0,.025.008.039.008.06.022.114.033.173.025.138.052.273.087.4.019.07.043.134.064.2s.042.147.069.213c.018.046.043.084.064.128s.039.083.061.122a1.871,1.871,0,0,0,.268.392l.011.013a1.489,1.489,0,0,0,.228.194l1.375.938c-.058.007-.11.021-.169.027a3.281,3.281,0,0,1-.361.018,2.182,2.182,0,0,1-1.254-.364l2.567,1.752a2.188,2.188,0,0,0,1.254.364,3.34,3.34,0,0,0,.361-.018,5.845,5.845,0,0,0,.665-.109c.067-.015.129-.033.194-.049.147-.038.293-.081.432-.13.065-.022.129-.045.191-.069.148-.058.292-.123.43-.192.04-.02.083-.038.123-.059a5.415,5.415,0,0,0,.5-.306c.038-.026.074-.056.112-.083.122-.088.242-.18.357-.278.049-.042.1-.084.144-.126q.158-.142.307-.293c.04-.041.081-.081.12-.123.133-.143.263-.289.388-.442,0-.006.009-.013.014-.018.121-.149.236-.3.349-.461.011-.017.025-.032.037-.048s.019-.032.03-.047c.268-.383.518-.785.758-1.2l.033-.06c.242-.419.472-.847.7-1.273s.474-.875.716-1.3a.03.03,0,0,0,.007-.011c.241-.416.49-.817.755-1.194.007-.009.013-.018.019-.027q.158-.222.324-.431c.029-.037.06-.071.09-.107.083-.1.167-.2.256-.3.04-.045.083-.088.125-.132.083-.086.169-.17.256-.251.042-.038.083-.078.126-.115.114-.1.231-.193.353-.283.017-.013.033-.028.051-.04a5.065,5.065,0,0,1,.433-.275c.045-.025.092-.048.138-.072.109-.058.221-.112.338-.162.056-.024.114-.047.172-.069.117-.045.239-.084.361-.121.057-.017.112-.034.169-.049a5.06,5.06,0,0,1,.566-.113,4.41,4.41,0,0,1,.632-.042,4.711,4.711,0,0,1,2.292.631c0,.01.011.02.015.03.023.055.044.11.065.165.036.1.071.2.1.3.019.064.037.129.053.195.026.1.048.207.064.312.011.058.021.117.029.176a4.556,4.556,0,0,1,.04.638c0,.143-.009.287-.023.43s-.04.272-.065.407a5.873,5.873,0,0,1-.141.6c-.01.031-.016.064-.026.095a6.171,6.171,0,0,1-.3.755c-.029.064-.06.127-.09.19-.057.115-.118.227-.181.339-.04.069-.079.138-.12.207-.071.116-.146.229-.223.341-.041.06-.079.121-.122.18-.13.181-.266.358-.41.532-.027.033-.057.064-.084.1-.121.142-.244.283-.373.419-.051.056-.1.111-.157.166-.111.115-.225.23-.341.342-.054.053-.107.105-.161.157-.137.128-.274.254-.414.378l-.1.088c-.174.153-.351.3-.528.449l-.143.115c-.133.109-.266.216-.4.321l-.184.145-.387.3-.15.116-.5.382-.468.357c-.923.707-1.86,1.394-2.8,2.082a76.216,76.216,0,0,0-6.163,4.837c-.321.29-.642.588-.963.892l-.161.152c-.31.3-.618.6-.921.917l-.172.18c-.305.322-.606.651-.894.993-.034.04-.066.082-.1.122q-.419.5-.8,1.035c-.02.028-.043.053-.062.081s-.017.026-.027.039c-.181.257-.356.52-.522.788-.193.312-.354.616-.5.917-.017.036-.042.074-.06.109-.04.086-.074.169-.11.253-.031.069-.064.14-.092.209-.078.189-.147.376-.2.56-.005.018-.015.037-.02.056a.022.022,0,0,1,0,.007c0,.016-.005.031-.011.047a5.888,5.888,0,0,0-.162.685c0,.025-.014.05-.018.074-.011.064-.01.124-.017.187-.016.13-.03.258-.035.383,0,.035-.009.073-.011.107,0,.054.009.1.011.157,0,.122.008.242.021.359,0,.042,0,.088.007.129.011.065.027.127.039.19.01.047.017.094.029.139a3.345,3.345,0,0,0,.147.469l0,.009a3.317,3.317,0,0,0,.27.511c.033.052.074.1.111.153a3.529,3.529,0,0,0,.253.317c.02.022.035.048.056.07.051.054.111.1.166.156.04.037.077.075.118.11a4.587,4.587,0,0,0,.42.327l2.566,1.751c.031.021.068.039.1.06-.159-.035-.318-.066-.474-.1a8.035,8.035,0,0,1-2.617-1.106l2.566,1.752a8.042,8.042,0,0,0,2.617,1.1c.292.069.591.137.889.191a23.407,23.407,0,0,0,4.415.4q.554,0,1.109-.012c.127,0,.254-.012.382-.016.2-.007.392-.017.589-.027q.512-.025,1.024-.061c.2-.015.406-.028.609-.044q.546-.044,1.091-.1c.163-.015.325-.029.488-.045.511-.05,1.021-.1,1.526-.155.539-.058,1.078-.114,1.616-.165.414-.04.843-.088,1.276-.139.14-.017.279-.035.42-.054.328-.042.656-.088.986-.139.1-.015.192-.025.289-.041l.173-.029.1-.019c.135-.023.268-.05.4-.076.22-.041.44-.084.657-.131.146-.031.287-.066.429-.1.2-.049.406-.1.606-.154.141-.039.278-.079.415-.121.193-.058.38-.121.564-.187.132-.046.262-.094.39-.144.066-.026.138-.048.2-.075q.225-.094.435-.2l.129-.064,0,0,.016-.007.139-.073q.214-.115.411-.239c.078-.051.155-.1.23-.154a3.1,3.1,0,0,0,.451-.394c.013-.014.029-.023.042-.037.07-.076.137-.157.2-.241a.305.305,0,0,1,.018-.029c.007-.011.018-.02.027-.031a3.179,3.179,0,0,0,.255-.437.287.287,0,0,0,.019-.031v-.006s0-.008,0-.011c.037-.078.072-.158.1-.239.023-.062.044-.128.064-.192.006-.017.014-.033.02-.051a.259.259,0,0,1,.006-.025.433.433,0,0,1,.016-.047c.031-.111.059-.227.083-.346l-.007-.005h0l.007.005.008-.039c0-.02,0-.042.007-.061s.012-.043.015-.066c.012-.074.011-.158.02-.235.018-.152.035-.3.041-.466,0-.033.007-.062.008-.1,0-.139-.005-.287-.013-.434,0-.046,0-.088,0-.135l0-.065s0-.006,0-.009l0-.076c-.007-.082-.015-.165-.024-.248-.006-.064-.02-.132-.028-.2s-.009-.1-.017-.159c0-.035-.015-.074-.02-.108-.044-.284-.1-.574-.168-.88a6.655,6.655,0,0,0-.234-.788c-.009-.023-.014-.052-.022-.074l-.017-.044,0,0h0l0,0c0-.011-.01-.021-.015-.033s-.009-.027-.014-.04-.021-.04-.032-.063c-.045-.1-.088-.212-.137-.309s-.091-.158-.137-.236c-.017-.029-.032-.059-.05-.088s-.02-.037-.031-.054q-.092-.139-.192-.264l-.044-.03h0l.045.03c-.039-.048-.082-.088-.123-.133-.018-.021-.034-.05-.054-.071s-.037-.029-.054-.046a3.065,3.065,0,0,0-.434-.372l-.006,0L210.162,78.4a3.038,3.038,0,0,1,.438.373c.038.039.076.081.112.122a3.279,3.279,0,0,1,.345.452c.016.025.031.054.046.079s.029.061.045.09l-1.2-.816c-.061-.042-.129-.07-.192-.106s-.123-.075-.189-.105c-.02-.008-.036-.022-.057-.03a2.432,2.432,0,0,0-.246-.084h0c-.065-.022-.127-.048-.195-.066-.013,0-.024-.009-.036-.012h0l-.014,0-.148-.034c-.07-.015-.144-.021-.216-.032-.045-.007-.088-.017-.135-.023l-.068-.007c-.17-.017-.345-.027-.527-.029h-.131c-.03,0-.065.006-.1.007a9.71,9.71,0,0,0-.97.075,2.463,2.463,0,0,1,.234.344c-.307.035-.644.085-1.023.151-1.038.187-2.09.467-3.1.728-.2.052-.395.1-.592.152.483-.411.936-.8,1.314-1.111q.625-.52,1.245-1.048c.133-.113.262-.228.394-.342q.423-.364.842-.73c.159-.141.315-.283.473-.426.247-.222.493-.444.736-.669.167-.155.33-.311.494-.467.228-.217.456-.435.679-.655.165-.163.327-.328.489-.491.216-.219.427-.439.636-.66.159-.169.314-.339.469-.51.2-.223.4-.448.593-.674q.225-.26.441-.524c.189-.23.371-.465.552-.7.134-.175.27-.351.4-.529.053-.073.111-.144.164-.217.09-.126.165-.258.251-.385.12-.176.25-.349.364-.528.081-.127.16-.254.239-.383.02-.034.039-.07.06-.1.033-.056.063-.112.1-.169.255-.434.494-.875.71-1.324.012-.024.027-.047.038-.072s.009-.021.014-.031l.018-.036.089-.191-.007,0h0l.007,0c.087-.191.164-.386.243-.58.037-.09.078-.178.114-.268.008-.02.017-.04.025-.061.036-.093.071-.187.106-.281s.056-.189.087-.282c.048-.141.1-.279.148-.421.04-.126.069-.256.105-.383.02-.069.046-.134.064-.2s.031-.138.048-.207q.044-.182.085-.366c.021-.094.046-.186.064-.28.015-.069.021-.141.034-.21.017-.1.041-.191.057-.289.025-.15.039-.3.059-.455.015-.116.032-.231.044-.348C215.364,61.645,215.392,61.273,215.4,60.9Z" transform="translate(-1.841 -0.897)" fill="#082b6c"/>
      <path id="Path_40468" data-name="Path 40468" d="M207.928,79.479a5.638,5.638,0,0,0-.957.075,3.815,3.815,0,0,1,.072,3.866,3.824,3.824,0,0,0-.082-3.883c-.307.035-.644.085-1.023.151-1.038.187-2.09.467-3.1.728-.966.254-1.958.516-2.964.7-.258.051-1.305.326-2.23.567-.907.234-1.765.456-2.025.507l-1.464.292,1.165-.939c.168-.139.351-.289.544-.451.741-.618,1.637-1.385,2.508-2.135.8-.674,1.559-1.329,2.149-1.824,5.77-4.807,11.418-10.08,11.578-17.06a12.338,12.338,0,0,0-3.459-8.822,10.7,10.7,0,0,0-10.309-3.043A13.881,13.881,0,0,0,195.4,49.3a17.5,17.5,0,0,0-7.811,7.964,11.4,11.4,0,0,0-1.038,4.014l-.007.173c-.091,1.3-.266,3.724.663,4.727a1.438,1.438,0,0,0,1.1.455,2.34,2.34,0,0,0,.267-.014c2.788-.285,4.017-2.567,5.314-4.983,1.323-2.455,2.694-5,5.8-5.425a5.4,5.4,0,0,1,.732-.05,5.521,5.521,0,0,1,4.031,1.818,4.56,4.56,0,0,1,1.173,3.553c-.333,3.132-3.25,5.339-5.6,7.116l-.468.357c-.923.707-1.86,1.394-2.8,2.082a76.315,76.315,0,0,0-6.163,4.837,24.711,24.711,0,0,0-4.623,5.2c-1.2,1.95-1.54,3.692-.987,5.045.515,1.247,1.809,2.16,3.759,2.635.285.068.57.13.856.185a22.164,22.164,0,0,0,3.416.372q.425.014.867.017a63.194,63.194,0,0,0,6.736-.45l1.623-.172c2.734-.265,6.113-.732,7.919-2.006,1.084-.767,1.363-2.322.83-4.62C210.565,80.258,209.675,79.487,207.928,79.479Z" transform="translate(-1.84 -1.841)" fill="#1e68b4"/>
      <path id="Path_40469" data-name="Path 40469" d="M206.095,76.9a11.668,11.668,0,0,0-2.122.221c-1.072.194-2.13.475-3.163.742-.952.247-1.931.5-2.91.689-.287.052-1.259.307-2.284.574-.14.039-.287.078-.427.11.576-.489,1.205-1.025,1.821-1.553.79-.675,1.554-1.33,2.142-1.819,5.9-4.913,11.673-10.326,11.843-17.618a13.059,13.059,0,0,0-3.667-9.349,11.514,11.514,0,0,0-8.236-3.569,11.661,11.661,0,0,0-2.776.322,17.819,17.819,0,0,0-11.238,9.463,11.887,11.887,0,0,0-1.1,4.272l-.015.173c-.106,1.517-.287,4.044.858,5.281a2.117,2.117,0,0,0,1.626.688,3.343,3.343,0,0,0,.362-.019c3.173-.323,4.558-2.883,5.889-5.365,1.3-2.4,2.518-4.665,5.254-5.043a4.508,4.508,0,0,1,.631-.042,4.738,4.738,0,0,1,3.475,1.568,3.84,3.84,0,0,1,1,2.986c-.3,2.813-3.08,4.915-5.314,6.607l-.469.357q-1.385,1.049-2.79,2.067c-2.086,1.532-4.245,3.118-6.214,4.892a25.3,25.3,0,0,0-4.759,5.358c-1.327,2.162-1.69,4.136-1.039,5.717.6,1.474,2.078,2.533,4.266,3.071.292.068.591.136.889.191a23.424,23.424,0,0,0,4.415.4,62.238,62.238,0,0,0,6.816-.456c.538-.056,1.078-.114,1.617-.165,2.833-.278,6.327-.771,8.272-2.144,1.358-.958,1.739-2.773,1.129-5.391C209.374,77.935,208.167,76.912,206.095,76.9ZM186.908,86.965c-1.95-.475-3.245-1.388-3.759-2.635-.554-1.353-.213-3.1.987-5.045a24.7,24.7,0,0,1,4.623-5.2,76.3,76.3,0,0,1,6.163-4.838c.935-.688,1.873-1.374,2.8-2.081l.468-.357c2.348-1.777,5.264-3.984,5.6-7.116a4.554,4.554,0,0,0-1.173-3.554,5.522,5.522,0,0,0-4.03-1.818,5.341,5.341,0,0,0-.732.05c-3.108.429-4.478,2.97-5.8,5.425-1.3,2.416-2.526,4.7-5.314,4.983a2.547,2.547,0,0,1-.267.015,1.442,1.442,0,0,1-1.1-.456c-.929-1-.755-3.423-.664-4.727l.008-.174a11.407,11.407,0,0,1,1.038-4.013,17.5,17.5,0,0,1,7.811-7.964,13.91,13.91,0,0,1,2.933-1.088,10.9,10.9,0,0,1,2.6-.3,10.785,10.785,0,0,1,7.709,3.347,12.337,12.337,0,0,1,3.459,8.823c-.159,6.98-5.808,12.253-11.578,17.06-.589.5-1.352,1.151-2.149,1.824-.87.75-1.767,1.517-2.508,2.135-.193.162-.376.312-.544.452l-1.164.938,1.464-.292c.26-.052,1.119-.273,2.026-.507.925-.242,1.971-.516,2.23-.568,1-.187,2-.448,2.964-.7,1.012-.26,2.064-.54,3.1-.728.379-.065.716-.116,1.024-.151a7.879,7.879,0,0,1,.966-.058c1.748.009,2.638.78,3.068,2.652.532,2.3.253,3.854-.831,4.62-1.8,1.273-5.185,1.742-7.919,2.006l-1.622.172a63.37,63.37,0,0,1-6.736.45c-.3,0-.583-.009-.866-.018a22.039,22.039,0,0,1-3.416-.373C187.477,87.095,187.192,87.032,186.908,86.965Z" transform="translate(0 0)" fill="#3e68be"/>
      <path id="Path_40470" data-name="Path 40470" d="M224.638,47.908a10.785,10.785,0,0,1,7.71,3.347,12.338,12.338,0,0,1,3.459,8.822c-.16,6.98-5.808,12.253-11.578,17.06-.59.5-1.352,1.151-2.149,1.824-.871.75-1.767,1.517-2.508,2.135a4.07,4.07,0,0,1-.513.033c-.9,0-1.494-.4-.816-1.816a15.814,15.814,0,0,1,3.819-4.379c2.438-2.216,4.927-4.132,6.832-6.87,2.812-4.031,3.9-9.488.6-13.532A14.962,14.962,0,0,0,219.106,49.3a13.88,13.88,0,0,1,2.933-1.088A10.85,10.85,0,0,1,224.638,47.908Z" transform="translate(-25.551 -1.841)" opacity="0.3" fill="url(#linear-gradient-6)" style="mix-blend-mode: multiply;isolation: isolate"/>
    </g>
  </g>
</svg>
