<svg xmlns="http://www.w3.org/2000/svg" xmlns:xlink="http://www.w3.org/1999/xlink" width="67.267" height="46.239" viewBox="0 0 67.267 46.239">
  <defs>
    <linearGradient id="linear-gradient" x1="1.195" y1="-4.556" x2="0.083" y2="3.534" gradientUnits="objectBoundingBox">
      <stop offset="0.055" stop-color="#3e2857"/>
      <stop offset="0.17" stop-color="#1b1125"/>
      <stop offset="0.249" stop-color="#482f65"/>
      <stop offset="0.958"/>
    </linearGradient>
    <linearGradient id="linear-gradient-2" x1="0.627" y1="0.014" x2="0.358" y2="1.187" xlink:href="#linear-gradient"/>
    <linearGradient id="linear-gradient-3" y1="0.5" x2="1" y2="0.5" gradientUnits="objectBoundingBox">
      <stop offset="0.026" stop-color="#d5c0ff"/>
      <stop offset="0.387" stop-color="#d58bff"/>
      <stop offset="0.963" stop-color="#6a2191"/>
    </linearGradient>
    <linearGradient id="linear-gradient-4" x1="-0.531" y1="-0.126" x2="1.491" y2="1.035" gradientUnits="objectBoundingBox">
      <stop offset="0.023" stop-color="#d25cff"/>
      <stop offset="0.934" stop-color="#995995"/>
    </linearGradient>
    <linearGradient id="linear-gradient-5" x1="0" y1="0.5" x2="1" y2="0.5" xlink:href="#linear-gradient-4"/>
    <linearGradient id="linear-gradient-6" y1="0.5" x2="1" y2="0.5" gradientUnits="objectBoundingBox">
      <stop offset="0" stop-color="#47b27a"/>
      <stop offset="1" stop-color="#087a4e"/>
    </linearGradient>
  </defs>
  <g id="_25" data-name="25" transform="translate(-16.985 -37.326)">
    <g id="Group_28087" data-name="Group 28087" transform="translate(-623.173 -8.531)">
      <path id="Path_40471" data-name="Path 40471" d="M681.238,91.366h0l0,0Zm2.1-10.681Zm.493,12.071-.087-.036-.13-.059c.072.031.145.065.217.095Zm-.74-.337-.124-.06.124.06ZM698.5,71.965l-.06-.031-.02-.012.08.043Zm7.973-3.347,0,0-.083-.087.07.071.017.019Zm-7.651-16.276q-1.564,0-3.133.019c-.733.009-1.475.019-2.209.021-1.6.011-3.262.021-4.894.079l-.42.011c-1.606.044-3.61.1-4.918,1.22-1.689,1.447-1.939,3.683-2.166,5.761a46.237,46.237,0,0,0-.312,8.074l.023.42c.089,1.586.237,4.422,1.516,5.237l-.044-.02,2.531,1.726a1.4,1.4,0,0,0,.407.193,2.632,2.632,0,0,0,.711.1h.013a3.941,3.941,0,0,0,2.389-.935,10.615,10.615,0,0,1,6.581-2.123h.067c.315,0,.63.016.941.04a12.646,12.646,0,0,1,4.533,1.222,8.143,8.143,0,0,1,.7.733,7.169,7.169,0,0,1,1.554,6c-.744,4.149-5.128,6.553-8.877,6.717-.1,0-.193.006-.288.006h-.041a7.289,7.289,0,0,1-3.382-.908c-.555-.451-1.1-.924-1.638-1.4-.786-.693-1.606-1.4-2.433-2.013l-.162-.115-2.531-1.727.018.013a3.177,3.177,0,0,0-1.756-.643h-.011c-1.939,0-2.881,2.516-3.11,4.877-.187,1.836-.337,3.43,1.058,4.973a9.572,9.572,0,0,0,1.763,1.5l-.059-.037h0l2.531,1.727a15.2,15.2,0,0,0,2.5,1.354c.26.114.508.215.74.307a18.2,18.2,0,0,0,6.56,1.2h.118a21.6,21.6,0,0,0,7.41-1.311c.391-.146.775-.308,1.152-.479.119-.053.234-.112.352-.168q.388-.186.766-.387c.128-.07.257-.142.384-.215.242-.137.48-.282.714-.43.115-.073.231-.144.344-.22.286-.191.567-.391.841-.6l.151-.11q.481-.37.931-.771c.089-.079.173-.162.261-.242.211-.195.417-.392.618-.6.1-.1.2-.207.3-.313.184-.2.362-.4.538-.6.091-.107.183-.213.271-.323.193-.236.377-.479.557-.725l.147-.191.027-.041c.253-.359.491-.73.717-1.108.059-.1.114-.2.171-.3q.261-.456.494-.929c.032-.066.073-.13.1-.2l.056-.128c.114-.245.219-.495.323-.746.046-.112.1-.221.139-.334.139-.362.269-.728.385-1.1l.007-.021c.1-.329.194-.663.275-1s.148-.676.207-1.012l.025-.128.019-.144c.034-.223.061-.446.085-.667.008-.076.017-.153.025-.231q.038-.434.049-.864l0-.048,0-.137q0-.381-.016-.754c0-.087-.008-.172-.015-.259-.02-.285-.048-.569-.088-.85l0-.048,0-.011c-.025-.17-.057-.336-.089-.5s-.062-.309-.1-.463-.066-.3-.105-.442c-.026-.093-.056-.184-.084-.277-.041-.138-.079-.278-.126-.415-.032-.1-.071-.2-.106-.294-.048-.128-.093-.258-.143-.385l-.011-.029-.06-.133c-.083-.2-.168-.392-.262-.584-.04-.084-.083-.167-.126-.251-.084-.163-.17-.325-.262-.486-.048-.086-.1-.172-.148-.257q-.148-.247-.308-.489c-.048-.073-.095-.148-.144-.22-.159-.231-.325-.461-.5-.686-.264-.339-.548-.664-.844-.98l-.07-.08-.176-.165q-.408-.415-.85-.8c-.1-.089-.2-.179-.309-.266-.381-.314-.771-.618-1.184-.9l-2.531-1.727h0l.006,0a18.532,18.532,0,0,0-10.25-3.144h-.084c-.338,0-.676.011-1.011.03.01-.2.022-.414.028-.605a36.063,36.063,0,0,0,4.453.234c.806.011,1.605.022,2.378.065.793.037,1.585.113,2.383.19,1.165.1,2.369.216,3.562.223l.361,0a5.133,5.133,0,0,0,.762-.075l.06-.006.021,0,.188-.049c.163-.036.324-.076.484-.128l.119-.032h0l.031-.011c.076-.026.148-.06.224-.09l.183-.074c.177-.077.351-.161.521-.254l.047-.025c.185-.1.363-.219.537-.341l.147-.11c.122-.092.243-.187.359-.287l.155-.137c.117-.108.229-.22.336-.336l.111-.116a6.025,6.025,0,0,0,.387-.484l.017-.022.028-.047c.079-.113.156-.227.225-.344l.006-.008c.056-.1.108-.192.159-.29l.006-.012.022-.053.025-.043c.057-.119.1-.244.144-.366.029-.076.068-.148.093-.225l.007-.03.013-.032a4.291,4.291,0,0,0,.138-.587l.011-.076.056-.167.019-.082c.039-.137.072-.276.1-.415l.019-.081,0-.031a4.306,4.306,0,0,0,.049-.538l0-.042,0-.069a4.117,4.117,0,0,0-.036-.565l0-.047,0-.019a4.124,4.124,0,0,0-.088-.428l-.032-.1c-.03-.106-.064-.21-.1-.312l-.012-.038c-.04-.1-.084-.2-.133-.289a1.617,1.617,0,0,0-.13-.211l-.1-.139a4.287,4.287,0,0,0-.552-.443l-2.529-1.727,0,0a5.866,5.866,0,0,0-.683-.4l-.151-.04c-2.088-.1-4.3-.155-6.759-.168q-.687,0-1.376,0Z" transform="translate(-5.104 -3.86)" fill="#b4b4b4" style="mix-blend-mode: multiply;isolation: isolate"/>
      <g id="Group_28086" data-name="Group 28086" transform="translate(671.978 47.456)">
        <path id="Path_40472" data-name="Path 40472" d="M689.051,147.519c.827.608,1.646,1.321,2.433,2.014a32.006,32.006,0,0,0,2.963,2.4l2.531,1.727a31.721,31.721,0,0,1-2.964-2.4c-.786-.693-1.606-1.406-2.433-2.013l-.162-.115-2.531-1.728.023.017-.023-.017Z" transform="translate(-684.641 -119.553)" fill="url(#linear-gradient)"/>
        <path id="Path_40473" data-name="Path 40473" d="M707.227,76.063q.038-.435.048-.864c0-.017,0-.033,0-.049,0-.046,0-.091,0-.137q0-.38-.017-.754c0-.086-.008-.173-.015-.259-.021-.286-.048-.571-.088-.853,0-.014,0-.029,0-.044s0-.007,0-.01c-.028-.189-.063-.377-.1-.564-.026-.133-.056-.264-.086-.4-.034-.151-.067-.3-.107-.45-.024-.091-.055-.179-.082-.27-.041-.141-.081-.282-.128-.421-.032-.1-.071-.193-.1-.289-.047-.13-.093-.26-.145-.389,0-.01-.007-.019-.011-.029-.019-.045-.041-.089-.06-.133-.083-.2-.169-.392-.262-.585-.04-.084-.083-.167-.126-.25-.084-.163-.17-.326-.261-.487-.049-.086-.1-.172-.149-.257-.1-.165-.2-.328-.308-.489-.048-.074-.094-.148-.144-.22-.159-.231-.324-.461-.5-.686-.264-.339-.548-.664-.845-.98-.023-.025-.044-.054-.069-.08-.054-.058-.119-.108-.175-.165q-.408-.414-.851-.8c-.1-.089-.2-.179-.309-.266-.381-.314-.772-.618-1.184-.9l-2.53-1.727h0c.412.281.8.584,1.182.9.107.088.211.18.315.27q.44.384.846.8c.082.083.168.163.247.247l.016.02c-.093-.066-.181-.137-.276-.2l-2.53-1.726h0c-.111-.076-.23-.141-.343-.215a18.255,18.255,0,0,0-9.709-2.868c-.367,0-.735.009-1.1.03.021-.341.035-.661.045-.966a36.116,36.116,0,0,0,4.453.234c.806.011,1.605.022,2.378.065.793.038,1.585.113,2.383.19,1.165.1,2.37.216,3.562.222l.36,0a5.044,5.044,0,0,0,.762-.075c.02,0,.041,0,.06-.006l-.008-.006h0l.008.006.022,0c.064-.012.126-.036.188-.049.163-.036.324-.076.484-.128.039-.013.08-.018.119-.032h0l.031-.011c.076-.026.149-.06.225-.09s.122-.047.184-.073c.177-.077.35-.161.52-.255l.047-.025a6.3,6.3,0,0,0,.537-.341c.05-.035.1-.073.147-.109.123-.092.243-.188.359-.288.052-.045.1-.09.155-.137q.175-.162.336-.336c.037-.039.076-.076.11-.115a6.019,6.019,0,0,0,.387-.484l.017-.022c.011-.015.018-.032.029-.047.079-.113.156-.227.225-.344l0-.008c.057-.1.109-.192.16-.29l.005-.013c.008-.017.014-.036.022-.052s.018-.028.025-.043c.057-.12.1-.244.144-.366.029-.076.068-.149.093-.226a.3.3,0,0,0,.006-.03.267.267,0,0,0,.013-.031,4.48,4.48,0,0,0,.138-.587l.012-.077.055-.167c.008-.027.012-.055.019-.082q.059-.206.1-.416c0-.027.014-.053.018-.08,0-.011,0-.021,0-.032a4.164,4.164,0,0,0,.049-.538c0-.014,0-.028,0-.042s0-.046,0-.069a4.169,4.169,0,0,0-.035-.565c0-.015,0-.031,0-.047s0-.013,0-.019a4.2,4.2,0,0,0-.088-.428c-.01-.034-.022-.067-.033-.1-.03-.105-.064-.21-.1-.311,0-.012-.008-.026-.011-.038-.04-.1-.084-.195-.133-.289a1.637,1.637,0,0,0-.13-.211l-.1-.139a4.234,4.234,0,0,0-.552-.444l-2.53-1.727a4.438,4.438,0,0,1,.551.444l.1.138a1.669,1.669,0,0,1,.129.211c.043.085.08.174.116.262l-1.092-.745a5.8,5.8,0,0,0-.648-.378c-.406-.022-.812-.03-1.219-.046.037.119.069.239.1.36-1.757-.072-3.607-.109-5.627-.12-1.493-.008-2.994,0-4.494.015-.734.009-1.474.018-2.215.021-1.6.011-3.25.022-4.875.079l-.42.011c-1.494.038-3.355.094-4.464,1.046a4.016,4.016,0,0,0-.444.453c-.039.045-.076.093-.113.14s-.084.1-.121.152-.052.1-.084.144a4.634,4.634,0,0,0-.241.413c-.024.047-.056.089-.079.137s-.027.074-.042.109a6.136,6.136,0,0,0-.229.592c-.012.041-.033.08-.046.121,0,.015-.007.03-.012.045-.03.1-.054.208-.081.313-.031.122-.065.242-.091.365s-.044.229-.066.343c-.017.1-.038.189-.054.286,0,.016,0,.033-.006.05-.079.5-.138,1.015-.195,1.522-.058.531-.113,1.082-.164,1.641-.014.15-.027.3-.04.45-.049.591-.1,1.19-.128,1.8v.018c-.023.445-.04.894-.048,1.346,0,.147,0,.3,0,.444s0,.31,0,.466c0,.624.02,1.25.063,1.879l.023.434c0,.1.011.21.019.331,0,.044.005.082.008.129.008.132.019.276.03.426,0,.04.006.077.008.118.014.159.028.324.046.5,0,.033.007.066.01.1.02.181.042.366.069.551a.031.031,0,0,1,0,.009c0,.015,0,.03.007.045.019.122.038.242.06.362.007.044.016.086.025.13.019.1.037.192.058.286.01.043.02.087.03.129.025.107.053.211.084.312l.019.071q.057.182.122.347c0,.008,0,.017.008.025s.016.03.023.047a2.768,2.768,0,0,0,.121.25l.047.083a1.708,1.708,0,0,0,.16.223c.007.006.011.016.017.023l0,0a1.013,1.013,0,0,0,.17.15l1.243.849a2.91,2.91,0,0,1-.528.051,2.625,2.625,0,0,1-.71-.1,1.4,1.4,0,0,1-.407-.192l2.531,1.728a1.446,1.446,0,0,0,.407.192,2.631,2.631,0,0,0,.711.1,3.929,3.929,0,0,0,2.4-.936A10.633,10.633,0,0,1,689.712,68c.315,0,.629.015.94.039a12.263,12.263,0,0,1,5.9,2.006l-2.53-1.727c-.266-.182-.547-.35-.835-.51-.077-.043-.157-.082-.235-.124a13.006,13.006,0,0,1,2.636.965c.15.138.3.272.443.418s.283.3.415.463c.173.207.33.422.478.639.043.062.083.124.124.187q.172.267.321.542c.026.049.054.1.08.145.114.223.216.451.306.682.068.172.122.349.177.525.033.106.073.209.1.317.055.21.1.425.133.641.014.079.035.155.047.235,0,.021,0,.044.007.065.032.237.051.477.061.719,0,.078,0,.155,0,.233,0,.211,0,.422-.014.636,0,.057-.006.114-.01.171-.024.284-.059.57-.111.859a7.819,7.819,0,0,1-.214.883c-.021.067-.048.131-.07.2a7.941,7.941,0,0,1-.293.75c-.058.126-.117.251-.18.373-.043.081-.084.163-.129.243-.089.155-.183.306-.281.455-.04.06-.076.122-.118.181s-.08.1-.119.157a8.363,8.363,0,0,1-.576.7c-.06.066-.119.133-.182.2a9.221,9.221,0,0,1-.767.708c-.04.033-.084.063-.124.095-.242.191-.493.37-.751.539-.078.051-.158.1-.238.152-.3.183-.6.357-.919.511-.038.019-.077.034-.116.052-.287.136-.582.259-.878.371-.089.033-.176.066-.265.1-.333.116-.668.222-1.008.308l-.068.015c-.322.08-.646.142-.97.193-.09.014-.179.027-.269.04-.344.047-.687.084-1.028.1-.12,0-.24.007-.358.006a8.019,8.019,0,0,1-3.768-1.013c-.588-.475-1.163-.973-1.731-1.47-.813-.714-1.581-1.387-2.382-1.975l-.138-.1-2.531-1.726a2.48,2.48,0,0,0-1.336-.507,1.3,1.3,0,0,0-.349.05c-.029.007-.056.016-.083.025a1.394,1.394,0,0,0-.312.142h0a1.864,1.864,0,0,0-.286.231c-.021.021-.043.041-.063.063a3.353,3.353,0,0,0-.585.877l0,.006,0,.015a6.082,6.082,0,0,0-.307.8c0,.011-.009.019-.012.029s-.007.028-.011.041c-.053.176-.1.356-.144.54-.008.034-.015.067-.023.1-.041.187-.078.377-.11.567a.041.041,0,0,0,0,.009c0,.008,0,.016,0,.024-.037.234-.068.468-.089.7-.025.247-.048.484-.067.714-.006.071-.01.14-.014.209-.012.164-.021.326-.027.483,0,.043-.005.089-.007.131,0,.061,0,.119,0,.179s0,.129,0,.192c0,.125.014.248.027.368,0,.047.007.1.013.143,0,.012,0,.025,0,.037a3.643,3.643,0,0,0,.093.45c.007.029.02.058.028.087.032.107.064.213.106.318.008.017.02.034.026.051a3.811,3.811,0,0,0,.185.356c.033.058.06.116.1.174a4.089,4.089,0,0,0,.4.523l.119.127c.135.143.284.269.429.4.08.072.154.151.236.22a9.681,9.681,0,0,0,.784.594l.008.006-.008,0,.018.012,2.512,1.715a13.67,13.67,0,0,0,1.936,1.08,15.877,15.877,0,0,1-1.629-.539c-.231-.092-.479-.194-.739-.306a15.279,15.279,0,0,1-2.505-1.354l0,0,0,0,2.531,1.726a15.223,15.223,0,0,0,2.5,1.355c.261.113.508.215.74.307a18.2,18.2,0,0,0,6.56,1.2,21.617,21.617,0,0,0,7.527-1.31c.391-.146.775-.308,1.153-.479.117-.054.233-.111.348-.167.261-.125.519-.254.772-.39.128-.069.253-.139.378-.211.244-.139.483-.284.72-.434.114-.073.228-.142.339-.218q.432-.287.843-.6c.049-.037.1-.071.15-.109.32-.246.629-.5.931-.771.089-.079.174-.163.262-.243q.316-.291.617-.595c.1-.1.2-.209.3-.315q.273-.291.534-.6c.092-.108.184-.214.274-.325.192-.236.376-.477.555-.723.048-.065.1-.126.148-.192.01-.014.018-.028.027-.042.253-.359.489-.728.715-1.106.06-.1.115-.2.173-.3q.259-.455.492-.926c.032-.067.073-.13.1-.2.021-.042.036-.087.056-.13.114-.244.219-.493.322-.743.046-.113.1-.222.139-.336.14-.363.269-.731.385-1.1l.007-.02c.1-.329.194-.663.275-1s.148-.677.206-1.014c.007-.042.019-.086.026-.127s.01-.095.019-.143c.034-.224.061-.447.085-.67C707.21,76.216,707.22,76.14,707.227,76.063Z" transform="translate(-673.837 -48.708)" fill="url(#linear-gradient-2)"/>
      </g>
      <path id="Path_40474" data-name="Path 40474" d="M700.189,64.2a17.652,17.652,0,0,0-13.678-6.332,17.412,17.412,0,0,0-3.764.38c.008-.21.023-.42.039-.63.072-.774.11-1.443.129-2.053a36.052,36.052,0,0,0,4.452.234c.806.01,1.6.021,2.377.065.793.037,1.585.113,2.384.19,1.165.1,2.37.216,3.563.222l.36,0a5.948,5.948,0,0,0,5.571-4.694,4.142,4.142,0,0,0-.169-3.222,1.661,1.661,0,0,0-.129-.211l-.1-.138a4.97,4.97,0,0,0-1.231-.84l-.151-.04c-2.088-.1-4.3-.155-6.759-.167q-2.25-.012-4.508.015c-.733.009-1.474.018-2.208.021-1.6.011-3.262.022-4.894.079l-.42.011c-1.606.044-3.611.1-4.918,1.22-1.689,1.447-1.938,3.683-2.166,5.762a46.25,46.25,0,0,0-.312,8.074l.023.42c.1,1.726.26,4.942,1.88,5.409a2.624,2.624,0,0,0,.71.1,3.918,3.918,0,0,0,2.4-.935,10.633,10.633,0,0,1,6.649-2.123,11.543,11.543,0,0,1,8.7,3.72,7.169,7.169,0,0,1,1.554,6c-.744,4.149-5.128,6.553-8.877,6.717-.111,0-.221.007-.329.006-2.968-.016-5.3-2.057-7.55-4.03-.787-.693-1.606-1.406-2.433-2.014a3.309,3.309,0,0,0-1.9-.745c-1.946-.01-2.892,2.511-3.121,4.878-.187,1.837-.338,3.43,1.058,4.972a13.231,13.231,0,0,0,4.946,3.123,18.2,18.2,0,0,0,6.562,1.2,21.58,21.58,0,0,0,7.525-1.311,17.584,17.584,0,0,0,11.022-12.274A12.571,12.571,0,0,0,700.189,64.2Zm-8.982,22.657a20.744,20.744,0,0,1-7.27,1.26,17.385,17.385,0,0,1-6.3-1.149,12.611,12.611,0,0,1-4.672-2.931c-1.181-1.306-1.051-2.611-.872-4.414.187-1.954.927-4.226,2.388-4.219a2.63,2.63,0,0,1,1.476.606c.8.587,1.568,1.261,2.381,1.974,2.358,2.063,4.795,4.193,8.03,4.211.118,0,.238,0,.358-.006,4.136-.176,8.751-2.748,9.563-7.316a7.831,7.831,0,0,0-1.705-6.6,12.278,12.278,0,0,0-9.256-3.986,11.419,11.419,0,0,0-7.108,2.278,3.21,3.21,0,0,1-1.945.779,1.928,1.928,0,0,1-.513-.071c-1.117-.321-1.286-3.536-1.354-4.744l-.023-.434a45.5,45.5,0,0,1,.318-8.048c.213-1.927.433-3.927,1.905-5.185,1.11-.952,2.97-1.007,4.464-1.045l.42-.011c1.625-.057,3.277-.068,4.875-.079.741,0,1.481-.011,2.215-.021q2.251-.028,4.494-.015c2.02.011,3.87.048,5.627.12h0q.52.021,1.028.047a3.831,3.831,0,0,1,.985.694l.083.145a3.529,3.529,0,0,1,.107,2.75,5.23,5.23,0,0,1-4.863,4.094l-.348,0c-1.159-.006-2.35-.117-3.5-.222-.8-.076-1.6-.146-2.409-.19-.779-.043-1.586-.054-2.4-.065a33.788,33.788,0,0,1-4.768-.288l-.419-.068,0,.426c-.007.709-.046,1.476-.132,2.414-.03.374-.045.755-.056,1.141l-.011.479.46-.115a17.364,17.364,0,0,1,17.162,5.59,11.861,11.861,0,0,1,2.158,10.442,16.541,16.541,0,0,1-1.364,3.651A16.979,16.979,0,0,1,691.208,86.858Z" transform="translate(0 0)" fill="url(#linear-gradient-3)"/>
      <path id="Path_40475" data-name="Path 40475" d="M701.471,66.5a17.364,17.364,0,0,0-17.163-5.59l-.46.115.011-.479c.01-.387.025-.768.056-1.141.087-.937.126-1.7.132-2.414l0-.426.419.068a33.784,33.784,0,0,0,4.768.288c.819.011,1.625.022,2.4.065.806.044,1.61.114,2.409.19,1.153.1,2.344.216,3.5.222l.348,0a5.246,5.246,0,0,0,4.877-4.166,3.425,3.425,0,0,0-.121-2.677l-.116-.191a4.162,4.162,0,0,0-.952-.648q-.508-.025-1.028-.047c-1.757-.072-3.607-.109-5.627-.12q-2.24-.012-4.494.015c-.734.009-1.474.018-2.215.021-1.6.011-3.25.022-4.875.079l-.42.011c-1.494.038-3.355.093-4.464,1.045-1.472,1.258-1.692,3.258-1.913,5.284a44.739,44.739,0,0,0-.311,7.949l.023.434c.067,1.207.237,4.423,1.354,4.744a1.93,1.93,0,0,0,.513.071,3.21,3.21,0,0,0,1.945-.779,11.419,11.419,0,0,1,7.108-2.278,12.278,12.278,0,0,1,9.256,3.986,7.831,7.831,0,0,1,1.705,6.6c-.813,4.568-5.428,7.14-9.563,7.316-.12,0-.24.007-.358.006-3.235-.018-5.672-2.148-8.03-4.211-.813-.713-1.58-1.387-2.381-1.974a2.631,2.631,0,0,0-1.476-.606c-1.461-.008-2.2,2.264-2.388,4.219-.179,1.8-.309,3.108.872,4.414a12.6,12.6,0,0,0,4.672,2.931,17.385,17.385,0,0,0,6.3,1.149,20.763,20.763,0,0,0,7.27-1.259,16.984,16.984,0,0,0,9.2-8.115,16.541,16.541,0,0,0,1.364-3.651A11.861,11.861,0,0,0,701.471,66.5Z" transform="translate(-1.856 -1.852)" fill="url(#linear-gradient-4)"/>
      <path id="Path_40476" data-name="Path 40476" d="M719.58,49.984q.52.021,1.028.047a4.157,4.157,0,0,1,.952.648l.116.191a3.425,3.425,0,0,1,.121,2.677,5.247,5.247,0,0,1-4.877,4.166l-.348,0c-1.159-.006-2.35-.117-3.5-.222-.8-.076-1.6-.146-2.409-.19-.779-.043-1.586-.054-2.4-.065a33.785,33.785,0,0,1-4.768-.288l-.419-.068,0,.426c-.007.709-.046,1.476-.132,2.414-.03.374-.045.755-.056,1.141l-.011.479.46-.115a17.364,17.364,0,0,1,17.162,5.59,11.861,11.861,0,0,1,2.158,10.442,16.541,16.541,0,0,1-1.364,3.651,17.493,17.493,0,0,0,.733-3.484,13.268,13.268,0,0,0-6.328-13.082,18.309,18.309,0,0,0-9.534-2.707,16.954,16.954,0,0,0-5.223.772,18.59,18.59,0,0,1-.584-5.311c.042-.76.583-.909,1.186-.906.2,0,.4.019.6.036.174.013.341.03.492.031.981-.01,1.886-.037,2.79-.071a44.882,44.882,0,0,0,10.1-1.324c2.043-.547,3.84-1.521,4.121-3.776A3.267,3.267,0,0,0,719.58,49.984Z" transform="translate(-20.875 -2.168)" opacity="0.5" fill="url(#linear-gradient-5)" style="mix-blend-mode: multiply;isolation: isolate"/>
    </g>
    <g id="Group_28845" data-name="Group 28845" transform="translate(-165.168 -8.001)">
      <path id="Path_40466" data-name="Path 40466" d="M206.144,50.7a11.651,11.651,0,0,0-2.717.323,17.82,17.82,0,0,0-11.239,9.463,11.916,11.916,0,0,0-1.1,4.273l-.015.173c-.107,1.516-.288,4.044.858,5.281a2.059,2.059,0,0,0,.688.5,2,2,0,0,1-.316-.172l2.567,1.751a2.183,2.183,0,0,0,1.254.364,3.349,3.349,0,0,0,.361-.019,5.8,5.8,0,0,0,.665-.108l.194-.049c.147-.038.293-.081.432-.13l.191-.07c.149-.058.291-.122.43-.192l.123-.059a5.279,5.279,0,0,0,.5-.306l.112-.083c.123-.088.242-.18.357-.278l.143-.126q.158-.141.307-.293l.121-.123c.133-.143.263-.289.387-.443l.015-.018c.12-.15.236-.3.349-.461l.037-.049.03-.046c.267-.383.518-.785.758-1.2l.033-.06c.242-.419.472-.847.7-1.273s.474-.875.716-1.3l.007-.011c.24-.417.49-.818.755-1.194l.019-.026c.105-.149.214-.292.324-.431l.09-.106c.083-.1.167-.2.256-.3l.125-.132c.082-.086.169-.17.255-.25l.126-.115c.114-.1.231-.194.353-.284l.051-.04a5.062,5.062,0,0,1,.433-.276l.138-.071c.109-.058.221-.112.338-.162l.172-.069c.118-.045.239-.084.361-.121l.169-.049a5.074,5.074,0,0,1,.566-.113,4.442,4.442,0,0,1,.61-.042h.022a4.613,4.613,0,0,1,1.194.175,3.793,3.793,0,0,1,.712,2.627c-.3,2.813-3.08,4.915-5.314,6.606l-.469.357Q203,73,201.594,74.021c-2.087,1.532-4.247,3.117-6.216,4.891a25.319,25.319,0,0,0-4.759,5.358c-1.328,2.162-1.691,4.136-1.039,5.717a4.5,4.5,0,0,0,1.9,2.119c-.084-.052-.174-.1-.254-.154L193.8,93.7a8.038,8.038,0,0,0,2.616,1.105c.292.068.591.136.89.191a23.354,23.354,0,0,0,4.415.4h.14c.323,0,.645,0,.969-.012.122,0,.246-.012.37-.017.2-.007.4-.015.6-.026.345-.017.688-.037,1.033-.062.195-.013.389-.027.583-.042q.565-.046,1.127-.1L207,95.1c.514-.051,1.026-.1,1.532-.157.539-.057,1.079-.113,1.616-.164.417-.04.85-.088,1.288-.141.131-.015.26-.032.391-.05.337-.043.675-.091,1.015-.145.093-.014.184-.023.276-.039l.173-.029.094-.017c.14-.024.277-.052.416-.078.218-.042.434-.083.649-.13.145-.031.285-.065.428-.1q.307-.073.605-.154c.141-.039.279-.08.416-.122.193-.06.38-.121.565-.186.13-.046.26-.094.386-.144l.2-.076q.225-.093.435-.195l.125-.062.011-.006.013-.006.139-.073q.214-.115.411-.239c.078-.05.155-.1.23-.154a3.149,3.149,0,0,0,.449-.394l.043-.037c.07-.077.137-.156.2-.24l.017-.03.027-.031a3.277,3.277,0,0,0,.248-.425l.026-.043,0,0v0l0-.006c.037-.079.073-.159.105-.243l-.009-.006.009.006.065-.193.019-.049.005-.025.016-.048c.031-.111.059-.227.083-.345l-.007-.005.007,0,.008-.038.007-.062.014-.065c.012-.074.011-.157.021-.234.017-.152.034-.3.04-.467l.009-.1c0-.139-.006-.287-.013-.434v-.135l0-.064v-.01l0-.076c-.007-.082-.015-.165-.024-.248l-.028-.2-.017-.161-.02-.109c-.044-.283-.1-.573-.168-.879a6.722,6.722,0,0,0-.234-.788l-.022-.074-.017-.044-.015-.034-.013-.04-.03-.06c-.045-.106-.09-.213-.139-.311s-.091-.159-.137-.236l-.05-.088-.032-.054q-.091-.138-.191-.265l-.123-.133-.054-.071L218.44,85a3.042,3.042,0,0,0-.435-.372l-.006,0-2.566-1.751.113.1a3.778,3.778,0,0,0-2.34-.7h-.044a11.675,11.675,0,0,0-2.078.221c-.77.139-1.529.325-2.28.518l.027-.023q.625-.52,1.245-1.048c.132-.113.261-.227.391-.34q.425-.364.846-.734c.156-.138.309-.279.466-.418.249-.226.5-.45.744-.678.163-.153.324-.307.486-.461q.347-.329.688-.662c.163-.161.322-.323.481-.485q.327-.331.643-.667c.157-.166.311-.335.463-.5q.306-.338.6-.682c.147-.171.292-.343.435-.518.19-.233.374-.468.555-.7.134-.175.268-.349.4-.526.053-.073.112-.145.165-.218.089-.126.165-.258.251-.385.12-.176.25-.35.364-.528.081-.127.16-.255.239-.384l.059-.1.1-.169c.256-.434.494-.875.71-1.324l.038-.072.014-.031.018-.036.089-.191-.007,0,.007,0c.088-.191.164-.386.244-.58.037-.09.078-.178.113-.268l.025-.06q.053-.14.106-.281c.033-.092.056-.189.088-.282.048-.141.1-.278.147-.421.04-.126.07-.256.105-.383.019-.068.046-.134.064-.2s.031-.139.048-.208c.029-.121.057-.244.085-.366.02-.094.046-.185.064-.28.015-.069.02-.14.033-.209.017-.1.041-.192.057-.289.025-.151.039-.3.059-.455.015-.116.031-.231.044-.348.038-.368.066-.74.074-1.118v-.058c.008-.386-.006-.77-.033-1.153-.008-.113-.024-.226-.036-.339-.019-.2-.032-.394-.06-.589-.015-.1-.037-.2-.054-.307q-.02-.118-.042-.234c-.069-.369-.151-.734-.253-1.095l-.048-.158q-.148-.5-.335-1l-.06-.161-.033-.09c-.092-.228-.2-.447-.309-.669-.062-.132-.115-.268-.183-.4-.166-.321-.348-.634-.54-.941l-.084-.145c-.225-.351-.47-.692-.73-1.022-.077-.1-.165-.189-.246-.285-.175-.209-.347-.42-.536-.619l-.088-.09a12.046,12.046,0,0,0-1.863-1.572l-1.526-1.041-1.041-.711,0,0,0,0,.032.024a11.381,11.381,0,0,0-6.4-2.023Z" transform="translate(-5.076 -3.836)" fill="#b4b4b4" style="mix-blend-mode: multiply;isolation: isolate"/>
      <path id="Path_40467" data-name="Path 40467" d="M215.4,60.9v-.058c.007-.386-.007-.771-.033-1.153-.008-.113-.024-.226-.036-.339-.018-.2-.032-.394-.06-.59-.015-.1-.037-.2-.054-.306q-.02-.118-.042-.234c-.069-.369-.151-.734-.253-1.095-.015-.053-.031-.106-.048-.158q-.147-.5-.335-1c-.02-.054-.04-.108-.06-.161-.011-.03-.021-.06-.033-.09-.092-.227-.2-.447-.309-.669-.062-.132-.116-.268-.183-.4-.166-.322-.349-.635-.54-.941-.03-.047-.054-.1-.084-.145q-.339-.528-.73-1.022c-.077-.1-.165-.189-.246-.285-.175-.209-.347-.421-.536-.619l-.087-.09a12.03,12.03,0,0,0-1.863-1.572l-1.526-1.041-1.041-.71,0,0,0,0a12.053,12.053,0,0,1,1.864,1.572c.11.114.206.239.314.357l-2.408-1.643a11.4,11.4,0,0,0-.987-.6c-.069-.037-.138-.076-.208-.112a10.93,10.93,0,0,0-1.024-.466c-.062-.024-.124-.045-.186-.068-.331-.123-.668-.232-1.013-.322-.05-.013-.1-.029-.148-.042a10.78,10.78,0,0,0-1.135-.213c-.041-.005-.082-.018-.123-.023h-.01l.014.01h0l-.014-.01c-.045,0-.091,0-.136-.009a10.864,10.864,0,0,0-1.125-.072h0a11.376,11.376,0,0,0-2.73.323,14.776,14.776,0,0,0-3.608,1.438l.344.235c-.229.123-.456.25-.68.384-.108.065-.214.134-.32.2q-.394.249-.776.522c-.1.074-.208.147-.311.223-.34.254-.675.518-1,.8l-.027.025c-.316.273-.618.561-.914.857-.093.092-.18.186-.27.279q-.331.344-.641.7c-.084.1-.169.192-.249.29-.272.33-.536.665-.782,1.013l0,0c-.039.054-.07.112-.108.167-.226.327-.445.659-.644,1-.082.138-.149.281-.225.421-.133.242-.27.482-.389.729l-.059.124c-.132.286-.249.577-.358.87-.031.085-.06.172-.09.258-.038.11-.08.219-.114.329s-.06.223-.09.334c-.025.09-.05.178-.073.268-.076.3-.143.611-.194.922q-.082.51-.12,1.031l-.007.173c-.013.176-.026.375-.039.586,0,.067-.005.135-.009.2-.008.159-.015.321-.019.49,0,.047,0,.09-.005.137s0,.09,0,.135c0,.166,0,.331.005.5,0,.094.005.184.01.278.01.189.028.374.05.558.007.056.007.115.016.17,0,.013,0,.025.008.039.008.06.022.114.033.173.025.138.052.273.087.4.019.07.043.134.064.2s.042.147.069.213c.018.046.043.084.064.128s.039.083.061.122a1.871,1.871,0,0,0,.268.392l.011.013a1.489,1.489,0,0,0,.228.194l1.375.938c-.058.007-.11.021-.169.027a3.281,3.281,0,0,1-.361.018,2.182,2.182,0,0,1-1.254-.364l2.567,1.752a2.188,2.188,0,0,0,1.254.364,3.34,3.34,0,0,0,.361-.018,5.845,5.845,0,0,0,.665-.109c.067-.015.129-.033.194-.049.147-.038.293-.081.432-.13.065-.022.129-.045.191-.069.148-.058.292-.123.43-.192.04-.02.083-.038.123-.059a5.415,5.415,0,0,0,.5-.306c.038-.026.074-.056.112-.083.122-.088.242-.18.357-.278.049-.042.1-.084.144-.126q.158-.142.307-.293c.04-.041.081-.081.12-.123.133-.143.263-.289.388-.442,0-.006.009-.013.014-.018.121-.149.236-.3.349-.461.011-.017.025-.032.037-.048s.019-.032.03-.047c.268-.383.518-.785.758-1.2l.033-.06c.242-.419.472-.847.7-1.273s.474-.875.716-1.3a.03.03,0,0,0,.007-.011c.241-.416.49-.817.755-1.194.007-.009.013-.018.019-.027q.158-.222.324-.431c.029-.037.06-.071.09-.107.083-.1.167-.2.256-.3.04-.045.083-.088.125-.132.083-.086.169-.17.256-.251.042-.038.083-.078.126-.115.114-.1.231-.193.353-.283.017-.013.033-.028.051-.04a5.065,5.065,0,0,1,.433-.275c.045-.025.092-.048.138-.072.109-.058.221-.112.338-.162.056-.024.114-.047.172-.069.117-.045.239-.084.361-.121.057-.017.112-.034.169-.049a5.06,5.06,0,0,1,.566-.113,4.41,4.41,0,0,1,.632-.042,4.711,4.711,0,0,1,2.292.631c0,.01.011.02.015.03.023.055.044.11.065.165.036.1.071.2.1.3.019.064.037.129.053.195.026.1.048.207.064.312.011.058.021.117.029.176a4.556,4.556,0,0,1,.04.638c0,.143-.009.287-.023.43s-.04.272-.065.407a5.873,5.873,0,0,1-.141.6c-.01.031-.016.064-.026.095a6.171,6.171,0,0,1-.3.755c-.029.064-.06.127-.09.19-.057.115-.118.227-.181.339-.04.069-.079.138-.12.207-.071.116-.146.229-.223.341-.041.06-.079.121-.122.18-.13.181-.266.358-.41.532-.027.033-.057.064-.084.1-.121.142-.244.283-.373.419-.051.056-.1.111-.157.166-.111.115-.225.23-.341.342-.054.053-.107.105-.161.157-.137.128-.274.254-.414.378l-.1.088c-.174.153-.351.3-.528.449l-.143.115c-.133.109-.266.216-.4.321l-.184.145-.387.3-.15.116-.5.382-.468.357c-.923.707-1.86,1.394-2.8,2.082a76.216,76.216,0,0,0-6.163,4.837c-.321.29-.642.588-.963.892l-.161.152c-.31.3-.618.6-.921.917l-.172.18c-.305.322-.606.651-.894.993-.034.04-.066.082-.1.122q-.419.5-.8,1.035c-.02.028-.043.053-.062.081s-.017.026-.027.039c-.181.257-.356.52-.522.788-.193.312-.354.616-.5.917-.017.036-.042.074-.06.109-.04.086-.074.169-.11.253-.031.069-.064.14-.092.209-.078.189-.147.376-.2.56-.005.018-.015.037-.02.056a.022.022,0,0,1,0,.007c0,.016-.005.031-.011.047a5.888,5.888,0,0,0-.162.685c0,.025-.014.05-.018.074-.011.064-.01.124-.017.187-.016.13-.03.258-.035.383,0,.035-.009.073-.011.107,0,.054.009.1.011.157,0,.122.008.242.021.359,0,.042,0,.088.007.129.011.065.027.127.039.19.01.047.017.094.029.139a3.345,3.345,0,0,0,.147.469l0,.009a3.317,3.317,0,0,0,.27.511c.033.052.074.1.111.153a3.529,3.529,0,0,0,.253.317c.02.022.035.048.056.07.051.054.111.1.166.156.04.037.077.075.118.11a4.587,4.587,0,0,0,.42.327l2.566,1.751c.031.021.068.039.1.06-.159-.035-.318-.066-.474-.1a8.035,8.035,0,0,1-2.617-1.106l2.566,1.752a8.042,8.042,0,0,0,2.617,1.1c.292.069.591.137.889.191a23.407,23.407,0,0,0,4.415.4q.554,0,1.109-.012c.127,0,.254-.012.382-.016.2-.007.392-.017.589-.027q.512-.025,1.024-.061c.2-.015.406-.028.609-.044q.546-.044,1.091-.1c.163-.015.325-.029.488-.045.511-.05,1.021-.1,1.526-.155.539-.058,1.078-.114,1.616-.165.414-.04.843-.088,1.276-.139.14-.017.279-.035.42-.054.328-.042.656-.088.986-.139.1-.015.192-.025.289-.041l.173-.029.1-.019c.135-.023.268-.05.4-.076.22-.041.44-.084.657-.131.146-.031.287-.066.429-.1.2-.049.406-.1.606-.154.141-.039.278-.079.415-.121.193-.058.38-.121.564-.187.132-.046.262-.094.39-.144.066-.026.138-.048.2-.075q.225-.094.435-.2l.129-.064,0,0,.016-.007.139-.073q.214-.115.411-.239c.078-.051.155-.1.23-.154a3.1,3.1,0,0,0,.451-.394c.013-.014.029-.023.042-.037.07-.076.137-.157.2-.241a.305.305,0,0,1,.018-.029c.007-.011.018-.02.027-.031a3.179,3.179,0,0,0,.255-.437.287.287,0,0,0,.019-.031v-.006s0-.008,0-.011c.037-.078.072-.158.1-.239.023-.062.044-.128.064-.192.006-.017.014-.033.02-.051a.259.259,0,0,1,.006-.025.433.433,0,0,1,.016-.047c.031-.111.059-.227.083-.346l-.007-.005h0l.007.005.008-.039c0-.02,0-.042.007-.061s.012-.043.015-.066c.012-.074.011-.158.02-.235.018-.152.035-.3.041-.466,0-.033.007-.062.008-.1,0-.139-.005-.287-.013-.434,0-.046,0-.088,0-.135l0-.065s0-.006,0-.009l0-.076c-.007-.082-.015-.165-.024-.248-.006-.064-.02-.132-.028-.2s-.009-.1-.017-.159c0-.035-.015-.074-.02-.108-.044-.284-.1-.574-.168-.88a6.655,6.655,0,0,0-.234-.788c-.009-.023-.014-.052-.022-.074l-.017-.044,0,0h0l0,0c0-.011-.01-.021-.015-.033s-.009-.027-.014-.04-.021-.04-.032-.063c-.045-.1-.088-.212-.137-.309s-.091-.158-.137-.236c-.017-.029-.032-.059-.05-.088s-.02-.037-.031-.054q-.092-.139-.192-.264l-.044-.03h0l.045.03c-.039-.048-.082-.088-.123-.133-.018-.021-.034-.05-.054-.071s-.037-.029-.054-.046a3.065,3.065,0,0,0-.434-.372l-.006,0L210.162,78.4a3.038,3.038,0,0,1,.438.373c.038.039.076.081.112.122a3.279,3.279,0,0,1,.345.452c.016.025.031.054.046.079s.029.061.045.09l-1.2-.816c-.061-.042-.129-.07-.192-.106s-.123-.075-.189-.105c-.02-.008-.036-.022-.057-.03a2.432,2.432,0,0,0-.246-.084h0c-.065-.022-.127-.048-.195-.066-.013,0-.024-.009-.036-.012h0l-.014,0-.148-.034c-.07-.015-.144-.021-.216-.032-.045-.007-.088-.017-.135-.023l-.068-.007c-.17-.017-.345-.027-.527-.029h-.131c-.03,0-.065.006-.1.007a9.71,9.71,0,0,0-.97.075,2.463,2.463,0,0,1,.234.344c-.307.035-.644.085-1.023.151-1.038.187-2.09.467-3.1.728-.2.052-.395.1-.592.152.483-.411.936-.8,1.314-1.111q.625-.52,1.245-1.048c.133-.113.262-.228.394-.342q.423-.364.842-.73c.159-.141.315-.283.473-.426.247-.222.493-.444.736-.669.167-.155.33-.311.494-.467.228-.217.456-.435.679-.655.165-.163.327-.328.489-.491.216-.219.427-.439.636-.66.159-.169.314-.339.469-.51.2-.223.4-.448.593-.674q.225-.26.441-.524c.189-.23.371-.465.552-.7.134-.175.27-.351.4-.529.053-.073.111-.144.164-.217.09-.126.165-.258.251-.385.12-.176.25-.349.364-.528.081-.127.16-.254.239-.383.02-.034.039-.07.06-.1.033-.056.063-.112.1-.169.255-.434.494-.875.71-1.324.012-.024.027-.047.038-.072s.009-.021.014-.031l.018-.036.089-.191-.007,0h0l.007,0c.087-.191.164-.386.243-.58.037-.09.078-.178.114-.268.008-.02.017-.04.025-.061.036-.093.071-.187.106-.281s.056-.189.087-.282c.048-.141.1-.279.148-.421.04-.126.069-.256.105-.383.02-.069.046-.134.064-.2s.031-.138.048-.207q.044-.182.085-.366c.021-.094.046-.186.064-.28.015-.069.021-.141.034-.21.017-.1.041-.191.057-.289.025-.15.039-.3.059-.455.015-.116.032-.231.044-.348C215.364,61.645,215.392,61.273,215.4,60.9Z" transform="translate(-1.841 -0.897)" fill="#3a2551"/>
      <path id="Path_40468" data-name="Path 40468" d="M207.928,79.479a5.638,5.638,0,0,0-.957.075,3.815,3.815,0,0,1,.072,3.866,3.824,3.824,0,0,0-.082-3.883c-.307.035-.644.085-1.023.151-1.038.187-2.09.467-3.1.728-.966.254-1.958.516-2.964.7-.258.051-1.305.326-2.23.567-.907.234-1.765.456-2.025.507l-1.464.292,1.165-.939c.168-.139.351-.289.544-.451.741-.618,1.637-1.385,2.508-2.135.8-.674,1.559-1.329,2.149-1.824,5.77-4.807,11.418-10.08,11.578-17.06a12.338,12.338,0,0,0-3.459-8.822,10.7,10.7,0,0,0-10.309-3.043A13.881,13.881,0,0,0,195.4,49.3a17.5,17.5,0,0,0-7.811,7.964,11.4,11.4,0,0,0-1.038,4.014l-.007.173c-.091,1.3-.266,3.724.663,4.727a1.438,1.438,0,0,0,1.1.455,2.34,2.34,0,0,0,.267-.014c2.788-.285,4.017-2.567,5.314-4.983,1.323-2.455,2.694-5,5.8-5.425a5.4,5.4,0,0,1,.732-.05,5.521,5.521,0,0,1,4.031,1.818,4.56,4.56,0,0,1,1.173,3.553c-.333,3.132-3.25,5.339-5.6,7.116l-.468.357c-.923.707-1.86,1.394-2.8,2.082a76.315,76.315,0,0,0-6.163,4.837,24.711,24.711,0,0,0-4.623,5.2c-1.2,1.95-1.54,3.692-.987,5.045.515,1.247,1.809,2.16,3.759,2.635.285.068.57.13.856.185a22.164,22.164,0,0,0,3.416.372q.425.014.867.017a63.194,63.194,0,0,0,6.736-.45l1.623-.172c2.734-.265,6.113-.732,7.919-2.006,1.084-.767,1.363-2.322.83-4.62C210.565,80.258,209.675,79.487,207.928,79.479Z" transform="translate(-1.84 -1.841)" fill="#bf5bdb"/>
      <path id="Path_40469" data-name="Path 40469" d="M206.095,76.9a11.668,11.668,0,0,0-2.122.221c-1.072.194-2.13.475-3.163.742-.952.247-1.931.5-2.91.689-.287.052-1.259.307-2.284.574-.14.039-.287.078-.427.11.576-.489,1.205-1.025,1.821-1.553.79-.675,1.554-1.33,2.142-1.819,5.9-4.913,11.673-10.326,11.843-17.618a13.059,13.059,0,0,0-3.667-9.349,11.514,11.514,0,0,0-8.236-3.569,11.661,11.661,0,0,0-2.776.322,17.819,17.819,0,0,0-11.238,9.463,11.887,11.887,0,0,0-1.1,4.272l-.015.173c-.106,1.517-.287,4.044.858,5.281a2.117,2.117,0,0,0,1.626.688,3.343,3.343,0,0,0,.362-.019c3.173-.323,4.558-2.883,5.889-5.365,1.3-2.4,2.518-4.665,5.254-5.043a4.508,4.508,0,0,1,.631-.042,4.738,4.738,0,0,1,3.475,1.568,3.84,3.84,0,0,1,1,2.986c-.3,2.813-3.08,4.915-5.314,6.607l-.469.357q-1.385,1.049-2.79,2.067c-2.086,1.532-4.245,3.118-6.214,4.892a25.3,25.3,0,0,0-4.759,5.358c-1.327,2.162-1.69,4.136-1.039,5.717.6,1.474,2.078,2.533,4.266,3.071.292.068.591.136.889.191a23.424,23.424,0,0,0,4.415.4,62.238,62.238,0,0,0,6.816-.456c.538-.056,1.078-.114,1.617-.165,2.833-.278,6.327-.771,8.272-2.144,1.358-.958,1.739-2.773,1.129-5.391C209.374,77.935,208.167,76.912,206.095,76.9ZM186.908,86.965c-1.95-.475-3.245-1.388-3.759-2.635-.554-1.353-.213-3.1.987-5.045a24.7,24.7,0,0,1,4.623-5.2,76.3,76.3,0,0,1,6.163-4.838c.935-.688,1.873-1.374,2.8-2.081l.468-.357c2.348-1.777,5.264-3.984,5.6-7.116a4.554,4.554,0,0,0-1.173-3.554,5.522,5.522,0,0,0-4.03-1.818,5.341,5.341,0,0,0-.732.05c-3.108.429-4.478,2.97-5.8,5.425-1.3,2.416-2.526,4.7-5.314,4.983a2.547,2.547,0,0,1-.267.015,1.442,1.442,0,0,1-1.1-.456c-.929-1-.755-3.423-.664-4.727l.008-.174a11.407,11.407,0,0,1,1.038-4.013,17.5,17.5,0,0,1,7.811-7.964,13.91,13.91,0,0,1,2.933-1.088,10.9,10.9,0,0,1,2.6-.3,10.785,10.785,0,0,1,7.709,3.347,12.337,12.337,0,0,1,3.459,8.823c-.159,6.98-5.808,12.253-11.578,17.06-.589.5-1.352,1.151-2.149,1.824-.87.75-1.767,1.517-2.508,2.135-.193.162-.376.312-.544.452l-1.164.938,1.464-.292c.26-.052,1.119-.273,2.026-.507.925-.242,1.971-.516,2.23-.568,1-.187,2-.448,2.964-.7,1.012-.26,2.064-.54,3.1-.728.379-.065.716-.116,1.024-.151a7.879,7.879,0,0,1,.966-.058c1.748.009,2.638.78,3.068,2.652.532,2.3.253,3.854-.831,4.62-1.8,1.273-5.185,1.742-7.919,2.006l-1.622.172a63.37,63.37,0,0,1-6.736.45c-.3,0-.583-.009-.866-.018a22.039,22.039,0,0,1-3.416-.373C187.477,87.095,187.192,87.032,186.908,86.965Z" transform="translate(0 0)" fill="#d5b5ff"/>
      <path id="Path_40470" data-name="Path 40470" d="M224.638,47.908a10.785,10.785,0,0,1,7.71,3.347,12.338,12.338,0,0,1,3.459,8.822c-.16,6.98-5.808,12.253-11.578,17.06-.59.5-1.352,1.151-2.149,1.824-.871.75-1.767,1.517-2.508,2.135a4.07,4.07,0,0,1-.513.033c-.9,0-1.494-.4-.816-1.816a15.814,15.814,0,0,1,3.819-4.379c2.438-2.216,4.927-4.132,6.832-6.87,2.812-4.031,3.9-9.488.6-13.532A14.962,14.962,0,0,0,219.106,49.3a13.88,13.88,0,0,1,2.933-1.088A10.85,10.85,0,0,1,224.638,47.908Z" transform="translate(-25.551 -1.841)" opacity="0.3" fill="url(#linear-gradient-6)" style="mix-blend-mode: multiply;isolation: isolate"/>
    </g>
  </g>
</svg>
