<svg xmlns="http://www.w3.org/2000/svg" xmlns:xlink="http://www.w3.org/1999/xlink" width="37.602" height="48.621" viewBox="0 0 37.602 48.621">
  <defs>
    <linearGradient id="linear-gradient" x1="0.698" y1="-0.469" x2="0.315" y2="1.861" gradientUnits="objectBoundingBox">
      <stop offset="0.309" stop-color="#802b0a"/>
      <stop offset="1"/>
    </linearGradient>
    <linearGradient id="linear-gradient-2" x1="0.61" y1="0.011" x2="0.442" y2="0.964" xlink:href="#linear-gradient"/>
    <linearGradient id="linear-gradient-3" x1="-0.257" y1="-0.005" x2="2.13" y2="1.588" gradientUnits="objectBoundingBox">
      <stop offset="0.02" stop-color="#ff9500"/>
      <stop offset="1" stop-color="#ba4321"/>
    </linearGradient>
    <linearGradient id="linear-gradient-4" x1="0.16" y1="0.192" x2="1.078" y2="0.8" xlink:href="#linear-gradient-3"/>
    <linearGradient id="linear-gradient-5" x1="0.223" y1="0.24" x2="1.186" y2="0.834" gradientUnits="objectBoundingBox">
      <stop offset="0.031" stop-color="#ff9d77"/>
      <stop offset="0.324" stop-color="#ff9500"/>
      <stop offset="1" stop-color="#ba4321"/>
    </linearGradient>
    <linearGradient id="linear-gradient-6" x1="0" y1="0.5" x2="1" y2="0.5" xlink:href="#linear-gradient-3"/>
  </defs>
  <g id="_4" data-name="4" transform="translate(-503.743 -42.439)">
    <path id="Path_40459" data-name="Path 40459" d="M524.233,73.631l.147-.2c.455-.61.913-1.214,1.362-1.81.472-.624.949-1.259,1.425-1.9.146-.2.288-.4.434-.6.277-.38.559-.758.831-1.142.129-.183.258-.366.385-.55.376-.54.757-1.062,1.137-1.593-.027.729-.05,1.451-.069,2.161-.048,1.627-.131,3.356-.275,5.56-.837.022-1.673.039-2.5.056s-1.666.011-2.516.013Zm9.848-25.814a4.685,4.685,0,0,0-3.067,1.384,69.093,69.093,0,0,0-9.908,11.811c-1.165,1.642-2.42,3.269-3.634,4.842-1.462,1.9-2.974,3.87-4.357,5.882-.118.177-.25.355-.381.54-1.187,1.676-2.805,3.974-1.218,6.07A5.842,5.842,0,0,0,512.97,79.7l-.073-.043,0,0,0,0,2.648,1.806a10.642,10.642,0,0,0,5.918,1.432h.136c.3,0,.593,0,.886-.009l.563-.017c1.2-.04,3.73-.129,5.816-.151-.007.081-.012.162-.02.242-.123,1.509-.245,3.026-.341,4.536-.009.151-.024.316-.039.487-.107,1.27-.252,3.006.892,3.9a5.183,5.183,0,0,0,.552.354c-.1-.06-.21-.109-.307-.174h0l1.074.732,1.574,1.075a5.934,5.934,0,0,0,3.31.98h.028c.175,0,.35-.007.523-.02l.2-.024c.113-.012.226-.023.336-.042.072-.011.139-.029.21-.043.1-.021.2-.039.3-.064.077-.02.151-.046.227-.069s.167-.047.248-.075h0l.015-.006c.092-.034.181-.073.27-.112l.2-.083c.087-.042.168-.09.252-.136l.181-.1c.086-.053.164-.111.245-.169l.152-.105a4.144,4.144,0,0,0,.353-.312,3.558,3.558,0,0,0,.391-.46l.016-.028.087-.149a3.21,3.21,0,0,0,.18-.306l.032-.082.059-.149c.026-.069.059-.134.079-.2s.035-.151.054-.226l.032-.142.018-.076a3.42,3.42,0,0,0,.045-.5v-.037c0-.131,0-.265,0-.4v-.037c0-.248,0-.5,0-.77v-.265c0-.2,0-.408,0-.62s0-.428,0-.645c0-.084,0-.167,0-.253q0-.477-.006-.96v-.064c-.007-1.434-.019-2.88-.03-4.069.3-.006.582-.013.856-.02l.14,0c.207-.006.412-.012.607-.019l.085,0,.092,0c.374-.017.733-.034,1.073-.057a3.144,3.144,0,0,0,.465-.069l.131-.034a2.926,2.926,0,0,0,.317-.1l.079-.025.07-.033.113-.054.093-.044.066-.041c.086-.049.17-.1.25-.158l.111-.076c.1-.075.195-.154.286-.237l.035-.03h0l.009-.008.009-.01.087-.085.06-.07q.094-.1.18-.206l.055-.063.042-.062.054-.07.034-.058.1-.149a3.811,3.811,0,0,0,.192-.346l0-.007.011-.024.01-.018.045-.117a3.7,3.7,0,0,0,.147-.376l.02-.053.038-.16.055-.2,0-.016.007-.056.018-.077a3.356,3.356,0,0,0,.044-.489v-.047a3.2,3.2,0,0,0-.03-.459V78.8l-.007-.029a2.953,2.953,0,0,0-.087-.4l-.056-.139-.025-.086-.058-.115-.043-.106-.063-.113v0l0,0,0,0-.015-.02a2.418,2.418,0,0,0-.186-.249l-.085-.112-.009-.008-.007-.009a2.325,2.325,0,0,0-.37-.314l-2.648-1.808h0l.067.058a2.911,2.911,0,0,0-1.559-.534c-.334-.022-.668-.042-1-.057,0-.346-.006-.688-.008-1.037,0-.285,0-.574,0-.86q0-1.061,0-2.139c0-.3,0-.606,0-.91q.011-1.472.035-2.961.031-1.678.093-3.368l.043-1.084c.026-.584.051-1.188.07-1.827-.007-.17-.007-.363,0-.568l0-.12c.007-.234.017-.485.032-.748,0-.078.009-.155.013-.235.018-.291.038-.588.06-.9.027-.383.052-.768.074-1.147.008-.123.011-.239.016-.359.012-.218.025-.439.031-.65v-.157l.006-.139c0-.073,0-.137,0-.209,0-.115.006-.237,0-.349l-.009-.192c0-.1-.006-.187-.01-.278-.011-.174-.025-.337-.044-.493l-.015-.179-.025-.152c-.039-.227-.092-.444-.15-.656l-.061-.193c-.031-.1-.058-.2-.092-.3-.026-.072-.053-.142-.08-.211v0l0,0-.019-.038a5.9,5.9,0,0,0-.35-.713l-.072-.115-.014-.024-.038-.062a4.676,4.676,0,0,0-.471-.6l-.045-.057-.035-.03-.064-.071a3.835,3.835,0,0,0-.525-.434l-1.441-.983-1.206-.824h0l.009.009.045.038a3.151,3.151,0,0,0-1.825-.612Z" transform="translate(-5.011 -3.79)" fill="#b4b4b4" style="mix-blend-mode: multiply;isolation: isolate"/>
    <g id="Group_28079" data-name="Group 28079" transform="translate(504.504 42.846)">
      <path id="Path_40460" data-name="Path 40460" d="M533.882,93.389c1.68-.067,3.408-.071,5.074-.076.858,0,1.7,0,2.529-.014q1.43-.023,2.86-.067l.351-.012.024-.35c.156-2.375.248-4.207.3-5.93.088-3.021.212-6.254.574-9.389l.163-1.386-2.647-1.807-.84,1.115c-.59.781-1.194,1.589-1.8,2.407-.133.179-.263.354-.4.535q-.906,1.228-1.815,2.5c-.058.082-.118.161-.176.243q-.383.542-.764,1.092l-.042.059h0c-.374.536-.767,1.071-1.158,1.6-.149.2-.294.408-.444.61-.485.653-.975,1.3-1.459,1.937s-.99,1.31-1.484,1.979c-.155.209-.3.419-.458.63-.24.328-.483.654-.719.986q-.328.465-.648.932l-.431.622,2.648,1.808Zm8.166-1.976-.351.012q-1.43.043-2.859.067c-.829.009-1.674.011-2.531.013-.3,0-.606,0-.908.005.1-.133.193-.268.291-.4.139-.19.276-.382.417-.571.454-.608.911-1.212,1.359-1.806q.708-.937,1.425-1.9c.146-.2.288-.4.434-.6.278-.38.559-.758.831-1.141.128-.183.258-.366.385-.55.55-.791,1.108-1.564,1.667-2.333l.285-.4c-.05,1.121-.092,2.233-.123,3.314-.048,1.723-.14,3.555-.3,5.93Z" transform="translate(-523.339 -65.338)" fill="url(#linear-gradient)"/>
      <path id="Path_40461" data-name="Path 40461" d="M541.03,74.4s0-.007,0-.011-.007-.022-.008-.032a2.934,2.934,0,0,0-.086-.392c-.015-.048-.04-.092-.057-.14-.01-.027-.012-.057-.023-.085s-.04-.076-.058-.115-.026-.072-.044-.107l-.063-.113v0l0,0,0,0c0-.006-.01-.013-.013-.019a2.538,2.538,0,0,0-.185-.246c-.032-.038-.054-.08-.088-.117l-.011-.009a.025.025,0,0,0-.006-.008,2.261,2.261,0,0,0-.37-.314l-2.647-1.807h0a2.309,2.309,0,0,1,.378.325c.034.036.058.077.089.115a2.289,2.289,0,0,1,.19.252,2.468,2.468,0,0,1,.126.245c.014.031.025.063.039.094l-1.038-.708a2.224,2.224,0,0,0-.477-.243c-.02-.008-.044-.011-.065-.019s-.067-.018-.1-.028a3.1,3.1,0,0,0-.664-.123c-.321-.023-.643-.032-.965-.048,0-.476-.009-.948-.011-1.431,0-.285,0-.573,0-.86q0-1.061,0-2.138c0-.3,0-.605,0-.911q.01-1.471.036-2.96.03-1.678.091-3.368l.044-1.084c.025-.584.051-1.188.07-1.826-.007-.171-.007-.363,0-.569,0-.038,0-.081,0-.12.007-.234.017-.484.032-.748,0-.077.009-.155.013-.235.018-.291.038-.589.06-.9.027-.382.052-.767.075-1.146.007-.123.011-.239.017-.359.011-.218.024-.439.031-.651,0-.054,0-.1,0-.157s.006-.094.007-.139c0-.073,0-.138,0-.209,0-.115.006-.238.005-.349,0-.067-.007-.126-.009-.192,0-.1-.006-.187-.012-.278-.009-.174-.024-.337-.042-.494-.006-.057-.007-.124-.015-.179l-.025-.152c-.04-.226-.092-.444-.15-.656-.019-.066-.041-.128-.06-.193-.03-.1-.058-.2-.092-.3-.026-.071-.053-.142-.08-.211,0,0,0,0,0,0a.013.013,0,0,1,0,0c-.006-.013-.013-.024-.019-.037a5.763,5.763,0,0,0-.35-.713l-.072-.115-.014-.024-.038-.062a4.726,4.726,0,0,0-.471-.6c-.017-.017-.029-.04-.045-.057s-.024-.019-.035-.03-.042-.049-.063-.071a3.867,3.867,0,0,0-.526-.433l-1.441-.984-1.206-.824h0a.046.046,0,0,1,.01.009,3.817,3.817,0,0,1,.581.5c.027.027.051.056.076.084a4.605,4.605,0,0,1,.513.665l.012.019.009.017-1.417-.967a2.952,2.952,0,0,0-.484-.263c-.016-.007-.031-.019-.048-.026l-.058-.023-.012,0c-.079-.03-.16-.053-.242-.076-.034-.009-.067-.022-.1-.031a2.8,2.8,0,0,0-.36-.06c.1.136.2.276.286.421a2.338,2.338,0,0,0-.542-.066,3.963,3.963,0,0,0-2.567,1.188,68.828,68.828,0,0,0-9.8,11.681c-1.173,1.655-2.435,3.289-3.648,4.869-.539.7-1.083,1.406-1.623,2.119l-.325.428q-.814,1.079-1.6,2.179c-.051.07-.1.137-.152.207q-.323.455-.637.913c-.125.177-.25.363-.39.554l-.311.445-.061.089c-.107.156-.212.312-.315.471-.015.022-.028.046-.043.068-.1.156-.2.312-.29.47,0,.009-.01.018-.015.027-.091.16-.175.319-.253.479-.009.017-.019.033-.028.051s-.007.021-.012.031a5.05,5.05,0,0,0-.24.6c-.005.015-.014.03-.018.045s-.006.029-.011.043a3.771,3.771,0,0,0-.1.422.021.021,0,0,1,0,.007c0,.015,0,.031,0,.048a2.887,2.887,0,0,0-.029.312c0,.014,0,.027,0,.04,0,.029.005.057.007.085a2.029,2.029,0,0,0,.015.243c0,.022,0,.045,0,.068s.011.031.013.047a2.266,2.266,0,0,0,.131.474c0,.006,0,.013.006.019.022.055.054.11.081.166.019.036.034.074.055.11a2.864,2.864,0,0,0,.2.3c.117.152.24.3.366.431.047.05.1.091.146.138s.092.089.139.131a5.531,5.531,0,0,0,.573.46l1.975,1.347.673.46h0l.013.008a8.064,8.064,0,0,1-3.11-1.2l2.649,1.807a10.644,10.644,0,0,0,5.917,1.431c.343,0,.686,0,1.022-.009l.562-.017c1.348-.045,4.393-.153,6.583-.156-.009.1-.016.2-.025.306-.123,1.51-.245,3.013-.34,4.523-.009.158-.024.33-.039.508-.028.33-.056.684-.065,1.035,0,.023,0,.044,0,.066,0,.042,0,.083,0,.125,0,.071,0,.14,0,.21s.008.158.013.236.01.136.019.2c0,.03,0,.061.008.091s.014.042.017.065a2.621,2.621,0,0,0,.133.516c.005.013.006.029.011.043a.064.064,0,0,0,.007.014c.008.02.019.036.028.056a1.628,1.628,0,0,0,.141.251c.021.03.043.059.066.087a.918.918,0,0,0,.068.09l.155.142c.067.053.136.1.206.151l2.3,1.566c-.109-.011-.221-.009-.327-.024a5.721,5.721,0,0,1-2.4-.913h0l.675.46,1.974,1.348a5.745,5.745,0,0,0,2.4.913,6.562,6.562,0,0,0,.907.067c.185,0,.368-.006.548-.02.092-.008.182-.022.273-.033s.177-.018.263-.032.167-.035.25-.052.178-.034.264-.056.188-.057.282-.087c.064-.02.131-.037.194-.059h0l.011,0c.1-.038.2-.081.3-.124.056-.024.116-.045.172-.071.086-.041.165-.088.247-.133.063-.034.128-.066.189-.1.08-.048.153-.1.227-.157.056-.039.115-.075.169-.117a4.107,4.107,0,0,0,.352-.311,3.48,3.48,0,0,0,.391-.46c.006-.009.01-.019.016-.028.035-.049.058-.1.09-.153a3.023,3.023,0,0,0,.178-.3c.014-.026.021-.055.032-.082.021-.048.039-.1.058-.149.026-.069.058-.135.079-.2s.035-.152.053-.229c.011-.047.024-.092.032-.14,0-.025.014-.05.018-.076a3.417,3.417,0,0,0,.045-.5v-.038c0-.13,0-.265,0-.4v-.808c0-.087,0-.175,0-.264,0-.2,0-.408,0-.621s0-.428,0-.644c0-.085,0-.168,0-.254q0-.477-.006-.96c0-.021,0-.042,0-.063-.007-1.433-.019-2.879-.03-4.069l.836-.019.205-.007.586-.019.061,0,.064,0c.385-.016.753-.034,1.1-.058a3.1,3.1,0,0,0,.466-.069c.043-.01.085-.022.129-.034a3.043,3.043,0,0,0,.32-.1c.025-.01.053-.015.078-.025s.046-.022.07-.033l.112-.053c.031-.015.064-.029.1-.045s.045-.03.069-.043c.085-.048.168-.1.247-.155.038-.026.077-.05.113-.078a3.529,3.529,0,0,0,.29-.24c.009-.009.021-.017.031-.026h0l.008-.008.013-.013.084-.083c.022-.022.04-.046.059-.069.062-.067.122-.135.179-.206.018-.022.038-.042.056-.064s.03-.044.044-.066.036-.043.053-.066.021-.038.032-.056c.035-.05.072-.1.1-.151a.062.062,0,0,0-.011-.007h0l.011.007c.07-.113.134-.228.192-.346l0-.007a.145.145,0,0,1,.011-.023c0-.006.007-.012.01-.018.019-.039.029-.081.048-.122.053-.122.1-.245.143-.371.007-.018.016-.035.021-.053.017-.053.023-.106.038-.159s.042-.135.056-.2l0-.016c0-.019,0-.037.006-.056s.013-.051.017-.077a3.351,3.351,0,0,0,.045-.489V74.86A3.125,3.125,0,0,0,541.03,74.4Zm-6.9-1.562h.377c.881.011,1.992.029,3.14.086,0,.039.009.088.009.122a2.842,2.842,0,0,1-.048.47c-.009.049-.023.1-.035.148a3.085,3.085,0,0,1-.087.312c-.022.066-.049.131-.077.2q-.052.128-.115.252c-.045.087-.1.17-.147.252s-.089.14-.139.205a2.966,2.966,0,0,1-.205.24c-.055.058-.108.118-.165.172a2.751,2.751,0,0,1-.256.2c-.061.044-.12.092-.185.131a2.579,2.579,0,0,1-.328.151c-.06.025-.116.057-.177.076a2.291,2.291,0,0,1-.564.106c-.721.045-1.5.076-2.4.094q.081-2.045.122-4.09Zm-6.5,15.027a5.641,5.641,0,0,1-.98-.1,2.718,2.718,0,0,1-.073-.287c-.009-.051-.019-.1-.025-.151-.009-.069-.014-.14-.02-.211s-.011-.15-.013-.227,0-.147,0-.221,0-.121,0-.182c.009-.353.037-.708.066-1.039.014-.18.03-.35.038-.508.1-1.51.217-3.013.341-4.523q.092-1.153.183-2.306l0-.186-.108-.117-.023-.025-.061-.053L524.3,75.928c-.153-.106-.535-.18-2.2-.188-2.215-.012-5.588.1-7.029.154l-.549.018c-.329,0-.665.01-1,.008a12.553,12.553,0,0,1-3.971-.551c-.024-.031-.054-.056-.078-.088a2.668,2.668,0,0,1-.2-.3c-.016-.03-.029-.059-.045-.089-.035-.069-.069-.137-.1-.206a2.251,2.251,0,0,1-.129-.473q-.011-.056-.017-.113a2.291,2.291,0,0,1-.016-.244c0-.041,0-.082,0-.125a3.059,3.059,0,0,1,.03-.314c0-.017,0-.034.007-.051a3.243,3.243,0,0,1,.1-.421c.009-.031.019-.062.029-.093a5.075,5.075,0,0,1,.24-.6c.014-.031.028-.062.044-.092.075-.155.157-.31.245-.464l.039-.067c.081-.139.168-.278.256-.417.023-.036.045-.071.068-.107.1-.147.193-.293.293-.436l.1-.143c.1-.136.191-.274.286-.408l.02-.027.069-.1c.1-.148.2-.291.3-.431.256-.375.522-.746.787-1.119q.785-1.1,1.6-2.179c.109-.145.219-.29.33-.435.539-.711,1.082-1.418,1.619-2.114,1.214-1.58,2.476-3.214,3.649-4.869a68.9,68.9,0,0,1,9.8-11.681,5.4,5.4,0,0,1,1.358-.907c.079.254.152.514.216.783.02.085.038.172.057.258.061.277.114.561.16.851.009.058.02.115.029.173.045.3.078.6.109.914.009.086.022.168.03.255q.053.6.079,1.221c.005.125.006.255.009.382.01.294.019.589.021.891,0,.187,0,.38,0,.571,0,.247,0,.492-.008.743-.006.285-.016.576-.027.866-.006.186-.01.37-.018.558-.013.3-.03.612-.045.921-.011.183-.018.364-.029.548-.019.333-.04.669-.061,1.006-.012.165-.02.329-.031.5q-.04.6-.082,1.212-.033.511-.068,1.027c-.018.265-.036.529-.052.8-.023.349-.043.7-.064,1.052-.011.17-.022.338-.032.509-.021.385-.039.77-.057,1.155-.006.138-.014.276-.02.414q-.034.782-.051,1.564c-.03,1.4-.054,2.812-.084,4.22-.028,1.393-.062,2.787-.115,4.18,0,.011,0,.023,0,.035h0c-.022.576-.05,1.151-.077,1.727-.111,2.235-.279,4.466-.559,6.681-.018.136-.038.294-.061.459,0,.032-.008.063-.013.095-.024.177-.051.366-.08.567,0,.019-.006.038-.009.057-.023.159-.051.327-.08.5-.017.1-.034.2-.052.3-.024.135-.05.273-.077.412-.021.1-.042.208-.064.313-.03.142-.061.284-.095.428-.024.106-.049.211-.076.317-.036.146-.076.291-.116.435-.028.1-.056.208-.088.312-.049.163-.1.324-.156.484-.026.075-.05.152-.077.226Z" transform="translate(-506.319 -43.817)" fill="url(#linear-gradient-2)"/>
    </g>
    <g id="Group_28080" data-name="Group 28080" transform="translate(503.743 42.439)">
      <path id="Path_40462" data-name="Path 40462" d="M537.272,82.311c-.979,1.4-2.033,2.8-3.061,4.151-1.109,1.463-2.254,2.981-3.309,4.527l-.431.622.761-.03c1.681-.067,3.409-.071,5.075-.076.857,0,1.7,0,2.531-.013q1.429-.024,2.859-.067l.351-.012.024-.351c.156-2.375.249-4.207.3-5.93.088-3.02.212-6.253.575-9.389l.163-1.387-.84,1.115C540.645,77.619,538.931,79.917,537.272,82.311Zm4.336,2.8c-.048,1.627-.132,3.356-.275,5.56-.837.022-1.673.039-2.5.055s-1.666.012-2.516.014c-1.433,0-2.9.006-4.354.052.924-1.32,1.908-2.612,2.859-3.87,1.026-1.361,2.087-2.763,3.074-4.186,1.373-1.977,2.789-3.891,4.156-5.711C541.785,79.753,541.679,82.513,541.609,85.115Z" transform="translate(-522.578 -64.931)" fill="url(#linear-gradient-3)"/>
      <path id="Path_40463" data-name="Path 40463" d="M534.055,69.432c-1.295-.089-2.591-.117-3.633-.123-.047-4.14-.056-8.568.105-13.017l.044-1.084c.026-.584.051-1.187.071-1.826a25.232,25.232,0,0,1,.1-2.567,20.833,20.833,0,0,0,.03-4.3c-.431-2.426-1.954-4.061-3.792-4.072a4.67,4.67,0,0,0-3.083,1.385,69.08,69.08,0,0,0-9.908,11.811c-1.165,1.642-2.42,3.269-3.634,4.842-1.462,1.9-2.974,3.87-4.356,5.881-.118.178-.25.356-.381.541-1.187,1.676-2.806,3.975-1.218,6.07,1.844,2.44,5.051,2.731,7.3,2.744.343,0,.686,0,1.022-.008l.564-.018c1.433-.048,4.794-.167,6.994-.155.919.006,1.379.036,1.611.057q-.081,1-.161,2c-.123,1.511-.245,3.027-.34,4.537-.009.152-.024.315-.039.487-.107,1.27-.252,3.006.892,3.9a5.853,5.853,0,0,0,3.556,1.159,5.243,5.243,0,0,0,3.741-1.36,3.29,3.29,0,0,0,.994-2.357c.005-2.273-.019-5.7-.04-8.088,1.1-.022,2.017-.05,2.854-.109a3.7,3.7,0,0,0,3.247-3.669A2.513,2.513,0,0,0,534.055,69.432ZM522.716,85.9c-.824-.643-.7-2.078-.6-3.23.015-.178.031-.35.039-.508.1-1.509.217-3.013.34-4.523q.091-1.153.185-2.306v-.186l-.109-.117c-.129-.145-.231-.255-2.281-.266-2.215-.012-5.588.1-7.029.154l-.549.018c-.329,0-.665.01-1,.008-2.269-.013-5.071-.3-6.7-2.446-1.254-1.648.071-3.516,1.23-5.163.14-.191.265-.377.39-.554,1.368-2,2.873-3.953,4.336-5.847,1.213-1.58,2.476-3.213,3.648-4.869a68.828,68.828,0,0,1,9.8-11.681,3.963,3.963,0,0,1,2.567-1.188,2.338,2.338,0,0,1,.542.066c1.371.33,2.232,1.863,2.5,3.377a20.547,20.547,0,0,1-.035,4.119c-.071,1.009-.134,1.956-.105,2.629-.019.6-.045,1.2-.07,1.785l-.044,1.092c-.171,4.6-.148,9.164-.109,13.422l0,.371.377,0c1.09.013,2.529.035,3.962.131a1.769,1.769,0,0,1,1.836,1.884,2.917,2.917,0,0,1-2.528,2.911c-.926.058-1.941.093-3.2.107l-.377.012,0,.378c.027,2.4.051,6.069.044,8.465a2.531,2.531,0,0,1-.763,1.816,4.376,4.376,0,0,1-2.693,1.109c-.169.015-.339.021-.512.021A5.092,5.092,0,0,1,522.716,85.9Z" transform="translate(-503.743 -42.439)" fill="url(#linear-gradient-4)"/>
    </g>
    <path id="Path_40464" data-name="Path 40464" d="M535.816,72.012c-1.433-.1-2.872-.118-3.962-.131l-.377,0,0-.371c-.039-4.257-.061-8.822.109-13.422L531.626,57c.025-.584.051-1.181.07-1.785-.029-.673.034-1.62.105-2.629a20.551,20.551,0,0,0,.035-4.119c-.268-1.514-1.129-3.047-2.5-3.377a2.338,2.338,0,0,0-.543-.066,3.963,3.963,0,0,0-2.567,1.188,68.828,68.828,0,0,0-9.8,11.681c-1.173,1.655-2.435,3.289-3.648,4.869-1.463,1.894-2.968,3.85-4.336,5.847-.125.177-.25.363-.39.554-1.159,1.648-2.484,3.515-1.23,5.163,1.628,2.143,4.43,2.433,6.7,2.446.336,0,.672,0,1-.008l.549-.018c1.441-.053,4.814-.166,7.029-.154,2.05.011,2.152.122,2.281.266l.109.117,0,.186q-.092,1.152-.185,2.306c-.123,1.51-.245,3.013-.34,4.523-.009.158-.024.33-.039.508-.1,1.152-.221,2.587.6,3.23a5.092,5.092,0,0,0,3.091.992c.173,0,.344-.006.512-.021a4.376,4.376,0,0,0,2.693-1.109,2.531,2.531,0,0,0,.763-1.816c.007-2.4-.017-6.069-.044-8.465l0-.378.377-.012c1.261-.014,2.276-.05,3.2-.107a2.917,2.917,0,0,0,2.528-2.911A1.769,1.769,0,0,0,535.816,72.012ZM525.924,55.07c-.363,3.135-.487,6.369-.575,9.389-.048,1.723-.14,3.555-.3,5.93l-.024.351-.351.012q-1.43.043-2.859.067c-.829.009-1.674.011-2.531.013-1.666.005-3.394.009-5.075.076l-.761.03.431-.622c1.056-1.546,2.2-3.064,3.309-4.527,1.027-1.348,2.081-2.749,3.06-4.151,1.659-2.394,3.372-4.692,4.995-6.839l.84-1.115Z" transform="translate(-1.815 -1.819)" fill="url(#linear-gradient-5)"/>
    <path id="Path_40465" data-name="Path 40465" d="M581.391,45.243c1.371.33,2.232,1.863,2.5,3.377a20.547,20.547,0,0,1-.035,4.119c-.071,1.009-.134,1.956-.105,2.629-.019.6-.045,1.2-.07,1.785l-.044,1.092c-.171,4.6-.148,9.164-.109,13.422l0,.371.377,0c1.09.013,2.529.035,3.962.131a1.769,1.769,0,0,1,1.836,1.884,2.917,2.917,0,0,1-2.528,2.911c-.926.058-1.941.093-3.2.107l-.377.012,0,.378c.027,2.4.051,6.069.044,8.465a2.531,2.531,0,0,1-.763,1.816,4.377,4.377,0,0,1-2.693,1.109,20.905,20.905,0,0,0,1.32-5.579,162.771,162.771,0,0,0,.837-16.844C582.529,58.216,584.182,49.709,581.391,45.243Z" transform="translate(-53.869 -1.976)" opacity="0.6" fill="url(#linear-gradient-6)" style="mix-blend-mode: multiply;isolation: isolate"/>
  </g>
</svg>
