<svg xmlns="http://www.w3.org/2000/svg" xmlns:xlink="http://www.w3.org/1999/xlink" width="36.292" height="45.276" viewBox="0 0 36.292 45.276">
  <defs>
    <linearGradient id="linear-gradient" x1="1.195" y1="-4.556" x2="0.083" y2="3.534" gradientUnits="objectBoundingBox">
      <stop offset="0.055" stop-color="#3e2857"/>
      <stop offset="0.17" stop-color="#1b1125"/>
      <stop offset="0.249" stop-color="#482f65"/>
      <stop offset="0.958"/>
    </linearGradient>
    <linearGradient id="linear-gradient-2" x1="0.627" y1="0.014" x2="0.358" y2="1.187" xlink:href="#linear-gradient"/>
    <linearGradient id="linear-gradient-3" y1="0.5" x2="1" y2="0.5" gradientUnits="objectBoundingBox">
      <stop offset="0.026" stop-color="#d5c0ff"/>
      <stop offset="0.387" stop-color="#d58bff"/>
      <stop offset="0.963" stop-color="#6a2191"/>
    </linearGradient>
    <linearGradient id="linear-gradient-4" x1="-0.531" y1="-0.126" x2="1.491" y2="1.035" gradientUnits="objectBoundingBox">
      <stop offset="0.023" stop-color="#d25cff"/>
      <stop offset="0.934" stop-color="#995995"/>
    </linearGradient>
    <linearGradient id="linear-gradient-5" x1="0" y1="0.5" x2="1" y2="0.5" xlink:href="#linear-gradient-4"/>
  </defs>
  <g id="_5" data-name="5" transform="translate(-671.248 -46.964)">
    <path id="Path_40471" data-name="Path 40471" d="M681.247,91.49h0l0,0Zm2.106-10.715Zm.495,12.109-.087-.036-.13-.059c.072.031.145.066.217.1Zm-.742-.339-.124-.06.124.06Zm15.457-20.519L698.5,72l-.02-.012.081.044Zm8-3.358,0,0-.083-.087.07.072.017.019Zm-7.675-16.327q-1.569,0-3.143.019c-.735.009-1.479.019-2.216.021-1.61.011-3.272.021-4.909.079l-.421.011c-1.611.044-3.622.1-4.933,1.224-1.695,1.452-1.945,3.694-2.173,5.78a46.387,46.387,0,0,0-.313,8.1L680.8,68c.089,1.591.238,4.436,1.521,5.254l-.044-.02,2.539,1.732a1.4,1.4,0,0,0,.408.193,2.64,2.64,0,0,0,.713.1h.013a3.953,3.953,0,0,0,2.4-.938,10.648,10.648,0,0,1,6.6-2.13h.067c.317,0,.632.016.944.04a12.685,12.685,0,0,1,4.547,1.225,8.176,8.176,0,0,1,.7.735,7.192,7.192,0,0,1,1.559,6.023c-.746,4.162-5.145,6.574-8.9,6.738-.1,0-.194.006-.289.006h-.041a7.313,7.313,0,0,1-3.392-.911c-.557-.452-1.1-.927-1.643-1.4-.789-.695-1.611-1.409-2.44-2.019l-.162-.115-2.539-1.733.018.013a3.187,3.187,0,0,0-1.762-.645H681.6c-1.945,0-2.89,2.524-3.12,4.893-.187,1.842-.338,3.441,1.061,4.988a9.6,9.6,0,0,0,1.769,1.5l-.059-.037h0l2.539,1.732A15.255,15.255,0,0,0,686.3,94.58c.261.114.51.215.742.308a18.254,18.254,0,0,0,6.581,1.206h.118a21.67,21.67,0,0,0,7.433-1.315c.393-.147.778-.309,1.155-.481.119-.053.235-.112.353-.169q.389-.187.768-.388c.129-.07.258-.142.385-.215.243-.138.481-.283.716-.432.116-.073.232-.145.345-.22.287-.192.569-.392.843-.6l.151-.11q.482-.371.934-.773c.089-.079.174-.163.262-.243.211-.2.419-.393.62-.6.1-.1.2-.207.3-.314.185-.2.363-.4.539-.6.092-.108.183-.214.272-.324.193-.237.378-.48.558-.728l.147-.192.027-.041c.254-.36.493-.732.719-1.111.059-.1.114-.2.171-.3q.262-.457.5-.932c.032-.067.073-.13.1-.2l.056-.129c.114-.246.22-.5.324-.748.046-.112.1-.222.14-.335.14-.363.27-.731.386-1.105l.007-.021c.1-.33.195-.665.276-1s.148-.678.207-1.015l.025-.129.019-.145c.034-.224.062-.447.085-.669.008-.077.017-.154.025-.231q.039-.435.049-.867l0-.048,0-.137q0-.382-.016-.757c0-.087-.008-.173-.015-.26-.02-.286-.048-.571-.088-.852l0-.048,0-.011c-.025-.17-.057-.337-.089-.505s-.062-.31-.1-.464-.066-.3-.106-.443c-.026-.093-.056-.185-.084-.277-.041-.139-.08-.279-.127-.416-.033-.1-.071-.2-.106-.295-.048-.129-.093-.259-.144-.386l-.011-.029-.06-.134c-.083-.2-.169-.393-.263-.586-.04-.085-.084-.167-.126-.252-.084-.163-.17-.326-.262-.488-.048-.086-.1-.172-.149-.258q-.148-.248-.309-.491c-.048-.074-.095-.148-.145-.221-.159-.232-.326-.462-.5-.688-.265-.34-.55-.666-.847-.983l-.07-.08-.176-.166q-.409-.416-.853-.8c-.1-.089-.205-.179-.31-.266-.382-.315-.773-.62-1.187-.9l-2.539-1.732h0l.006,0a18.591,18.591,0,0,0-10.282-3.154h-.084c-.339,0-.678.011-1.014.03.01-.205.022-.415.028-.607a36.176,36.176,0,0,0,4.467.234c.809.011,1.61.022,2.385.066.8.037,1.59.113,2.391.19,1.169.105,2.377.217,3.573.223l.362,0a5.15,5.15,0,0,0,.764-.075l.06-.007.022,0,.189-.05c.163-.037.325-.077.485-.128l.12-.032h0l.031-.011c.076-.026.149-.06.225-.091l.184-.074c.177-.077.352-.161.522-.255l.047-.025c.185-.1.364-.219.539-.342l.148-.11c.122-.092.244-.188.36-.288l.156-.138c.117-.108.23-.221.337-.337l.111-.116a6.055,6.055,0,0,0,.388-.485l.017-.022.028-.047c.079-.113.157-.227.226-.345l.006-.008c.056-.1.108-.193.159-.291l.006-.012.022-.053.025-.043c.058-.12.1-.245.145-.367.029-.076.069-.149.093-.226l.007-.03.013-.032a4.3,4.3,0,0,0,.138-.589l.011-.077.056-.168.019-.083c.039-.138.072-.277.1-.416l.019-.081,0-.031a4.322,4.322,0,0,0,.049-.54l0-.042,0-.069a4.133,4.133,0,0,0-.036-.566l0-.047,0-.019a4.133,4.133,0,0,0-.088-.429l-.032-.1c-.03-.106-.064-.211-.1-.313l-.012-.038c-.041-.1-.085-.2-.133-.29a1.618,1.618,0,0,0-.13-.211l-.1-.14a4.3,4.3,0,0,0-.554-.445l-2.537-1.733,0,0a5.882,5.882,0,0,0-.685-.4l-.151-.04c-2.095-.1-4.316-.155-6.78-.168q-.69,0-1.38,0Z" transform="translate(-5.098 -3.856)" fill="#b4b4b4" style="mix-blend-mode: multiply;isolation: isolate"/>
    <g id="Group_28086" data-name="Group 28086" transform="translate(671.98 47.458)">
      <path id="Path_40472" data-name="Path 40472" d="M689.052,147.52c.83.61,1.651,1.325,2.44,2.02a32.1,32.1,0,0,0,2.972,2.4L697,153.677a31.826,31.826,0,0,1-2.973-2.4c-.789-.695-1.611-1.411-2.44-2.02l-.163-.115-2.539-1.733.023.017-.023-.017Z" transform="translate(-684.628 -119.465)" fill="url(#linear-gradient)"/>
      <path id="Path_40473" data-name="Path 40473" d="M707.332,76.15q.039-.436.048-.867c0-.017,0-.033,0-.049,0-.046,0-.091,0-.137q0-.381-.017-.756c0-.087-.008-.173-.015-.26-.021-.287-.048-.573-.088-.856,0-.014,0-.029,0-.044l0-.01c-.028-.19-.063-.378-.1-.566-.026-.133-.056-.265-.086-.4-.034-.151-.067-.3-.107-.451-.024-.091-.056-.18-.082-.271-.041-.141-.081-.283-.129-.422-.032-.1-.071-.194-.1-.29-.047-.13-.094-.261-.145-.39,0-.01-.006-.02-.011-.029-.019-.045-.041-.089-.06-.133-.083-.2-.17-.393-.263-.587-.04-.084-.084-.167-.126-.251-.084-.164-.17-.327-.262-.488-.049-.086-.1-.172-.149-.258-.1-.165-.2-.329-.309-.491-.048-.074-.094-.148-.145-.221-.16-.232-.325-.462-.5-.688-.264-.34-.55-.666-.848-.983-.023-.025-.044-.054-.069-.08-.055-.058-.119-.109-.176-.166q-.409-.416-.853-.8c-.1-.089-.2-.179-.31-.267-.383-.315-.774-.62-1.188-.9L698.692,62.3h0c.414.282.805.586,1.186.9.107.089.211.18.316.271q.442.385.848.8c.082.084.168.163.248.248l.016.02c-.093-.067-.182-.138-.277-.2l-2.538-1.732h0c-.111-.076-.231-.142-.344-.216a18.312,18.312,0,0,0-9.74-2.877c-.368,0-.738.009-1.105.03.021-.342.035-.663.045-.969a36.23,36.23,0,0,0,4.467.235c.809.011,1.61.022,2.385.065.8.038,1.59.114,2.391.191,1.169.1,2.377.216,3.573.223l.361,0a5.063,5.063,0,0,0,.764-.075c.02,0,.041,0,.061-.006l-.008-.006h0l.008.006.022,0c.064-.012.126-.036.189-.05.163-.036.325-.077.485-.128.039-.013.08-.018.12-.032h0l.031-.011c.076-.026.149-.06.225-.091s.123-.047.184-.074c.177-.077.352-.162.522-.256l.047-.025a6.316,6.316,0,0,0,.539-.342c.05-.035.1-.073.147-.11.123-.093.244-.188.36-.289.052-.045.1-.091.156-.137q.175-.163.337-.337c.037-.039.076-.076.111-.116a6.064,6.064,0,0,0,.389-.485l.017-.022c.011-.015.019-.032.029-.047.079-.113.156-.227.226-.345l0-.008c.057-.1.11-.193.16-.291l.005-.013c.008-.017.014-.036.022-.053s.018-.028.025-.043c.057-.12.1-.245.145-.367.029-.076.069-.149.093-.226,0-.01,0-.02.006-.03a.258.258,0,0,0,.013-.031,4.5,4.5,0,0,0,.139-.589l.012-.077.055-.168c.008-.027.012-.055.019-.082q.059-.207.1-.417c0-.027.014-.054.018-.08,0-.011,0-.021,0-.032a4.191,4.191,0,0,0,.049-.539c0-.014,0-.028,0-.042s0-.046,0-.069a4.2,4.2,0,0,0-.035-.566c0-.015,0-.031,0-.047s0-.013,0-.019a4.246,4.246,0,0,0-.088-.429c-.01-.034-.022-.067-.033-.1-.031-.106-.065-.211-.1-.312,0-.012-.008-.026-.012-.038-.04-.1-.085-.2-.133-.29a1.644,1.644,0,0,0-.13-.211l-.1-.139a4.246,4.246,0,0,0-.553-.445l-2.538-1.732a4.454,4.454,0,0,1,.553.446l.1.139a1.669,1.669,0,0,1,.129.211c.044.085.08.174.116.263l-1.1-.748a5.806,5.806,0,0,0-.65-.38c-.408-.022-.815-.031-1.223-.046.037.119.069.24.1.361-1.762-.072-3.618-.109-5.645-.12-1.5-.008-3,0-4.509.015-.736.009-1.478.018-2.222.021-1.6.011-3.26.022-4.89.08l-.421.011c-1.5.038-3.365.094-4.478,1.049a4.031,4.031,0,0,0-.445.454c-.04.046-.076.093-.114.14s-.084.1-.122.152-.053.1-.085.145a4.675,4.675,0,0,0-.242.415c-.024.048-.057.089-.08.138s-.027.074-.042.11a6.188,6.188,0,0,0-.23.594c-.012.042-.033.08-.046.122,0,.015-.007.03-.012.045-.03.1-.055.209-.082.314-.031.122-.065.243-.091.366s-.044.23-.066.345c-.017.1-.038.19-.055.286,0,.016,0,.033-.006.05-.079.5-.138,1.018-.2,1.527-.058.533-.114,1.086-.165,1.646-.014.151-.027.3-.04.451-.05.593-.1,1.194-.129,1.809v.018c-.023.446-.04.9-.048,1.351,0,.148,0,.3,0,.446s0,.311,0,.468c0,.626.02,1.254.063,1.884l.023.435c0,.1.011.211.019.332,0,.044.005.082.008.129.008.133.019.277.03.427,0,.04.006.078.008.118.014.16.028.325.047.5,0,.033.007.066.01.1.02.181.042.367.069.553a.032.032,0,0,1,0,.009c0,.015,0,.03.007.045.019.122.038.243.06.363.007.044.016.087.025.13.019.1.037.192.058.287.01.043.02.087.03.13.026.107.054.211.084.313l.019.071q.057.183.123.348a.243.243,0,0,0,.008.025c.007.017.016.031.023.047a2.783,2.783,0,0,0,.121.251l.047.083a1.7,1.7,0,0,0,.16.224c.007.007.011.016.017.023l0,0a1.018,1.018,0,0,0,.171.151l1.247.851a2.918,2.918,0,0,1-.53.051,2.633,2.633,0,0,1-.712-.1,1.406,1.406,0,0,1-.408-.193l2.539,1.733a1.449,1.449,0,0,0,.409.193,2.638,2.638,0,0,0,.713.1,3.942,3.942,0,0,0,2.41-.939,10.667,10.667,0,0,1,6.671-2.13c.316,0,.631.015.943.039a12.3,12.3,0,0,1,5.917,2.013l-2.538-1.732c-.267-.183-.549-.351-.838-.511-.078-.043-.157-.083-.236-.124a13.047,13.047,0,0,1,2.644.968c.15.138.306.273.445.419s.284.305.416.464c.174.208.331.423.48.641.043.062.083.125.124.187q.172.268.322.544c.026.049.054.1.08.145.114.224.216.453.307.684.068.173.123.35.178.527.033.106.073.209.1.318.055.211.1.427.133.643.014.08.036.156.047.236,0,.022,0,.044.007.065.032.238.052.478.061.721,0,.078,0,.156,0,.234,0,.211,0,.424-.014.638,0,.057-.006.115-.01.172-.024.284-.059.572-.111.861a7.852,7.852,0,0,1-.215.886c-.021.068-.048.132-.07.2a7.97,7.97,0,0,1-.294.753c-.058.127-.117.252-.18.374-.043.082-.084.164-.13.244-.089.156-.183.307-.282.457-.04.06-.077.123-.118.181s-.08.1-.119.157a8.382,8.382,0,0,1-.578.7c-.06.067-.12.134-.183.2a9.239,9.239,0,0,1-.77.711c-.04.033-.084.063-.124.1q-.364.287-.754.54c-.079.052-.159.1-.238.152-.3.184-.605.358-.922.512-.038.019-.077.034-.116.053-.288.137-.583.26-.881.373-.089.033-.177.066-.266.1-.334.116-.67.223-1.011.309l-.068.015c-.323.08-.648.142-.973.194-.09.014-.179.027-.269.04-.345.047-.69.084-1.031.1-.12,0-.241.007-.359.007a8.044,8.044,0,0,1-3.78-1.017c-.589-.476-1.166-.976-1.737-1.475-.816-.717-1.586-1.392-2.389-1.981l-.138-.1-2.54-1.732a2.488,2.488,0,0,0-1.341-.508,1.3,1.3,0,0,0-.35.05c-.029.007-.056.016-.084.025a1.4,1.4,0,0,0-.312.143h0a1.871,1.871,0,0,0-.286.232c-.021.021-.043.041-.063.063a3.362,3.362,0,0,0-.586.88l0,.006s0,.01,0,.015a6.106,6.106,0,0,0-.308.8c0,.011-.009.019-.012.029s-.007.028-.011.042c-.053.177-.1.357-.145.542l-.023.1c-.042.188-.078.378-.11.568a.036.036,0,0,0,0,.009c0,.008,0,.016,0,.024-.037.235-.068.469-.089.7-.025.248-.048.485-.067.716-.006.071-.01.14-.014.21-.012.164-.021.327-.027.484,0,.043-.005.089-.007.131,0,.061,0,.119,0,.179s0,.129,0,.193c0,.125.015.249.027.369,0,.047.007.1.013.143,0,.012,0,.025,0,.037a3.677,3.677,0,0,0,.093.451c.007.029.02.058.028.087.032.107.064.213.106.319.008.017.02.034.026.051a3.849,3.849,0,0,0,.186.358c.033.058.06.116.1.174a4.092,4.092,0,0,0,.4.525l.12.128c.136.143.285.27.431.4.08.072.154.151.237.221a9.708,9.708,0,0,0,.786.6l.008.006-.008,0,.018.012,2.52,1.72a13.715,13.715,0,0,0,1.942,1.084,15.93,15.93,0,0,1-1.635-.54c-.232-.092-.481-.194-.741-.307a15.328,15.328,0,0,1-2.513-1.358l0,0,0,0,2.539,1.731a15.278,15.278,0,0,0,2.511,1.359c.261.114.51.216.743.308a18.255,18.255,0,0,0,6.581,1.206,21.685,21.685,0,0,0,7.551-1.314c.393-.147.778-.309,1.156-.48.118-.054.233-.112.349-.168.261-.125.52-.255.775-.391.128-.069.253-.14.38-.212.244-.139.484-.285.722-.435.114-.073.229-.143.34-.218q.433-.288.846-.6c.049-.037.1-.072.151-.11.321-.247.631-.506.933-.774.089-.079.174-.163.262-.244q.317-.292.619-.6c.1-.1.2-.209.3-.316q.274-.292.535-.6c.092-.108.185-.215.275-.326.193-.237.377-.479.556-.725.048-.065.1-.126.149-.193.01-.014.018-.029.027-.042.253-.36.491-.731.717-1.109.06-.1.116-.2.174-.3q.26-.456.493-.929c.032-.067.073-.131.105-.2.021-.042.036-.087.056-.13.115-.245.22-.495.323-.745.046-.113.1-.223.14-.337.14-.364.27-.733.387-1.107l.007-.02c.1-.33.195-.665.276-1s.148-.679.207-1.017c.007-.042.019-.086.026-.128s.01-.1.019-.143c.034-.225.061-.448.085-.672C707.315,76.3,707.326,76.226,707.332,76.15Z" transform="translate(-673.837 -48.708)" fill="url(#linear-gradient-2)"/>
    </g>
    <path id="Path_40474" data-name="Path 40474" d="M700.281,64.255A17.708,17.708,0,0,0,686.56,57.9a17.467,17.467,0,0,0-3.776.381c.008-.211.023-.421.039-.632.072-.776.111-1.447.13-2.059a36.164,36.164,0,0,0,4.466.235c.808.01,1.61.022,2.385.065.8.037,1.59.114,2.391.191,1.169.105,2.378.217,3.574.223l.361,0a5.967,5.967,0,0,0,5.588-4.708,4.155,4.155,0,0,0-.17-3.232,1.669,1.669,0,0,0-.129-.211l-.1-.139a4.987,4.987,0,0,0-1.235-.842l-.152-.04c-2.094-.1-4.316-.155-6.78-.168q-2.257-.012-4.523.015c-.735.009-1.479.018-2.215.021-1.61.011-3.273.022-4.91.079l-.421.011c-1.611.044-3.623.1-4.934,1.224-1.694,1.452-1.944,3.694-2.173,5.78a46.4,46.4,0,0,0-.313,8.1l.023.421c.1,1.731.26,4.957,1.886,5.426a2.632,2.632,0,0,0,.712.1,3.93,3.93,0,0,0,2.411-.938,10.667,10.667,0,0,1,6.67-2.13,11.579,11.579,0,0,1,8.728,3.732,7.192,7.192,0,0,1,1.559,6.023c-.746,4.162-5.145,6.574-8.9,6.738-.111,0-.221.007-.33.006-2.978-.016-5.315-2.063-7.574-4.043-.789-.695-1.611-1.41-2.44-2.02a3.32,3.32,0,0,0-1.906-.748c-1.952-.01-2.9,2.519-3.131,4.893-.187,1.843-.339,3.441,1.061,4.988a13.273,13.273,0,0,0,4.962,3.133,18.259,18.259,0,0,0,6.582,1.206,21.647,21.647,0,0,0,7.549-1.315,17.64,17.64,0,0,0,11.056-12.313A12.611,12.611,0,0,0,700.281,64.255Zm-9.01,22.729a20.809,20.809,0,0,1-7.293,1.264,17.44,17.44,0,0,1-6.32-1.153,12.65,12.65,0,0,1-4.687-2.94c-1.185-1.31-1.055-2.619-.875-4.428.187-1.961.93-4.24,2.4-4.232a2.639,2.639,0,0,1,1.481.607c.8.589,1.573,1.265,2.388,1.98,2.366,2.07,4.81,4.206,8.056,4.224.119,0,.239,0,.359-.007,4.149-.176,8.778-2.756,9.594-7.339a7.856,7.856,0,0,0-1.711-6.617,12.317,12.317,0,0,0-9.285-4,11.455,11.455,0,0,0-7.131,2.285,3.22,3.22,0,0,1-1.951.782,1.935,1.935,0,0,1-.514-.071c-1.12-.322-1.29-3.548-1.358-4.759l-.023-.435a45.645,45.645,0,0,1,.319-8.073c.214-1.933.435-3.94,1.911-5.2,1.113-.955,2.979-1.01,4.478-1.049l.421-.011c1.63-.057,3.287-.068,4.89-.08.743,0,1.485-.011,2.222-.021q2.258-.028,4.509-.015c2.026.011,3.882.048,5.644.12h0q.521.021,1.031.047a3.843,3.843,0,0,1,.988.7l.084.145A3.54,3.54,0,0,1,701,51.465a5.247,5.247,0,0,1-4.879,4.107l-.349,0c-1.163-.007-2.357-.118-3.514-.223-.8-.077-1.608-.147-2.417-.191-.782-.044-1.591-.055-2.412-.065a33.894,33.894,0,0,1-4.783-.289l-.42-.068,0,.428c-.007.711-.046,1.481-.133,2.421-.031.375-.046.757-.056,1.145l-.011.48.462-.116A17.419,17.419,0,0,1,699.7,64.706a11.9,11.9,0,0,1,2.165,10.475,16.591,16.591,0,0,1-1.368,3.662A17.032,17.032,0,0,1,691.271,86.984Z" transform="translate(0 0)" fill="url(#linear-gradient-3)"/>
    <path id="Path_40475" data-name="Path 40475" d="M701.558,66.556a17.419,17.419,0,0,0-17.217-5.607l-.462.116.011-.48c.01-.388.025-.77.056-1.145.087-.94.126-1.71.133-2.421l0-.428.42.068a33.892,33.892,0,0,0,4.783.289c.821.011,1.63.022,2.412.065.808.044,1.615.114,2.416.191,1.157.105,2.352.216,3.514.223l.349,0a5.263,5.263,0,0,0,4.892-4.179,3.436,3.436,0,0,0-.121-2.686l-.116-.191a4.173,4.173,0,0,0-.955-.65q-.51-.025-1.031-.047c-1.762-.072-3.618-.11-5.645-.121q-2.247-.012-4.509.015c-.736.009-1.478.018-2.222.021-1.6.011-3.26.022-4.89.08l-.421.011c-1.5.038-3.365.094-4.478,1.049-1.476,1.262-1.7,3.268-1.919,5.3A44.878,44.878,0,0,0,676.25,64l.023.435c.068,1.211.237,4.437,1.358,4.759a1.936,1.936,0,0,0,.514.071,3.22,3.22,0,0,0,1.951-.782,11.455,11.455,0,0,1,7.131-2.285,12.317,12.317,0,0,1,9.285,4,7.856,7.856,0,0,1,1.711,6.617c-.815,4.582-5.445,7.163-9.594,7.339-.121,0-.241.007-.36.007-3.246-.018-5.69-2.155-8.055-4.224-.816-.715-1.585-1.391-2.388-1.98a2.639,2.639,0,0,0-1.481-.607c-1.466-.008-2.208,2.271-2.4,4.232-.18,1.809-.31,3.118.875,4.428a12.64,12.64,0,0,0,4.687,2.94,17.44,17.44,0,0,0,6.32,1.153,20.829,20.829,0,0,0,7.293-1.263,17.037,17.037,0,0,0,9.23-8.141,16.591,16.591,0,0,0,1.368-3.662A11.9,11.9,0,0,0,701.558,66.556Z" transform="translate(-1.853 -1.85)" fill="url(#linear-gradient-4)"/>
    <path id="Path_40476" data-name="Path 40476" d="M719.641,49.984q.521.021,1.031.047a4.172,4.172,0,0,1,.955.65l.116.191a3.436,3.436,0,0,1,.121,2.686,5.263,5.263,0,0,1-4.892,4.179l-.349,0c-1.163-.007-2.357-.118-3.514-.223-.8-.077-1.608-.147-2.416-.191-.782-.044-1.591-.055-2.412-.065a33.894,33.894,0,0,1-4.783-.289l-.42-.068,0,.428c-.007.711-.046,1.481-.133,2.421-.031.375-.046.757-.056,1.145l-.011.48.462-.116a17.419,17.419,0,0,1,17.217,5.607,11.9,11.9,0,0,1,2.165,10.475,16.6,16.6,0,0,1-1.368,3.662,17.549,17.549,0,0,0,.735-3.495,13.31,13.31,0,0,0-6.348-13.124,18.366,18.366,0,0,0-9.564-2.716,17.008,17.008,0,0,0-5.24.774,18.648,18.648,0,0,1-.586-5.328c.042-.763.585-.912,1.19-.908.2,0,.4.019.6.036.175.013.342.03.494.031.984-.01,1.892-.037,2.8-.071a45.025,45.025,0,0,0,10.133-1.328c2.049-.548,3.852-1.526,4.134-3.788A3.279,3.279,0,0,0,719.641,49.984Z" transform="translate(-20.849 -2.165)" opacity="0.5" fill="url(#linear-gradient-5)" style="mix-blend-mode: multiply;isolation: isolate"/>
  </g>
</svg>
