<svg xmlns="http://www.w3.org/2000/svg" xmlns:xlink="http://www.w3.org/1999/xlink" width="36.423" height="48.277" viewBox="0 0 36.423 48.277">
  <defs>
    <linearGradient id="linear-gradient" x1="0.907" y1="-1.231" x2="0.299" y2="1.408" gradientUnits="objectBoundingBox">
      <stop offset="0.009" stop-color="#2e3d21"/>
      <stop offset="0.166" stop-color="#417323"/>
      <stop offset="0.36" stop-color="#417323"/>
      <stop offset="0.536" stop-color="#375922"/>
      <stop offset="0.667" stop-color="#334c22"/>
      <stop offset="0.795" stop-color="#1f370a"/>
      <stop offset="0.886" stop-color="#162e00"/>
      <stop offset="0.916" stop-color="#223a0e"/>
      <stop offset="0.942" stop-color="#284015"/>
      <stop offset="0.949" stop-color="#1f3210"/>
      <stop offset="0.966" stop-color="#0e1607"/>
      <stop offset="0.981" stop-color="#030501"/>
      <stop offset="0.992"/>
    </linearGradient>
    <linearGradient id="linear-gradient-2" x1="0.674" y1="0.054" x2="0.375" y2="0.948" gradientUnits="objectBoundingBox">
      <stop offset="0.009" stop-color="#2e3d21"/>
      <stop offset="0.166" stop-color="#417323"/>
      <stop offset="0.266" stop-color="#334c22"/>
      <stop offset="0.333" stop-color="#1f370a"/>
      <stop offset="0.38" stop-color="#162e00"/>
      <stop offset="0.426" stop-color="#1f3d07"/>
      <stop offset="0.532" stop-color="#315a16"/>
      <stop offset="0.623" stop-color="#3d6c1f"/>
      <stop offset="0.688" stop-color="#417323"/>
      <stop offset="0.703" stop-color="#3d6c20"/>
      <stop offset="0.838" stop-color="#1c320f"/>
      <stop offset="0.939" stop-color="#070d04"/>
      <stop offset="0.992"/>
    </linearGradient>
    <linearGradient id="linear-gradient-3" x1="-0.085" y1="-0.189" x2="0.953" y2="0.921" gradientUnits="objectBoundingBox">
      <stop offset="0" stop-color="#ecff17"/>
      <stop offset="0.542" stop-color="#81b900"/>
      <stop offset="0.899" stop-color="#63b900"/>
    </linearGradient>
    <linearGradient id="linear-gradient-4" x1="-0.266" y1="-0.36" x2="0.872" y2="0.933" gradientUnits="objectBoundingBox">
      <stop offset="0" stop-color="#ecff17"/>
      <stop offset="0.542" stop-color="#81b900"/>
      <stop offset="0.899" stop-color="#6dba2b"/>
    </linearGradient>
    <linearGradient id="linear-gradient-5" x1="-0.373" y1="0.201" x2="1.057" y2="0.653" gradientUnits="objectBoundingBox">
      <stop offset="0" stop-color="#ecff17"/>
      <stop offset="1" stop-color="#81b900"/>
    </linearGradient>
    <linearGradient id="linear-gradient-6" x1="-0.864" y1="-1.16" x2="1.264" y2="1.45" xlink:href="#linear-gradient-5"/>
  </defs>
  <g id="_6" data-name="6" transform="translate(-55.085 -231.114)">
    <path id="Path_40679" data-name="Path 40679" d="M71.216,278.782l.008.005-.008-.005Zm0,0Zm9.024-6.727h-.034a8.418,8.418,0,0,1-3.062-.625l-.11-.127c-.06-.07-.119-.142-.175-.215l-.148-.2c-.053-.076-.1-.152-.154-.231s-.087-.143-.128-.215-.091-.164-.132-.248-.074-.151-.107-.228-.061-.143-.089-.216a5.056,5.056,0,0,1-.225-.706c-.04-.171-.067-.342-.09-.512a5.179,5.179,0,0,1-.046-.745l.009-.175c.008-.175.023-.348.047-.519.01-.071.021-.143.034-.214a5.263,5.263,0,0,1,.124-.529l.04-.143a5.687,5.687,0,0,1,.274-.7l.066-.136a6.566,6.566,0,0,1,.491-.835c.053-.075.107-.147.163-.221l.151-.195c.066-.081.136-.158.207-.236l.163-.179c.074-.076.151-.148.228-.22l.173-.162c.081-.07.166-.137.249-.2l.179-.143c.088-.064.178-.124.269-.184l.182-.123c.1-.061.195-.113.294-.168l.175-.1c.112-.056.226-.106.339-.155l.147-.066a5.254,5.254,0,0,1,.5-.174,4.915,4.915,0,0,1,1.4-.2h.024a4.928,4.928,0,0,1,1.526.255,8.005,8.005,0,0,1,1.9,3.839,5.039,5.039,0,0,1-3.165,5.93,5.882,5.882,0,0,1-1.687.231Zm9.2-14.8c-.17-.181-.35-.354-.53-.525.145.137.292.271.43.415l.1.11Zm-.862-.84c-.292-.257-.594-.5-.909-.733.3.215.582.446.859.686l.05.047Zm2.647-15.352h0l0-.011.006.012ZM91,240.614a5.578,5.578,0,0,0-.411-.584l.064.075,0,0a5.348,5.348,0,0,1,.346.507Zm-1.14-1.347-.088-.073.062.049.026.025Zm-9.254-2.944a16.905,16.905,0,0,0-9.97,3.209c-7.24,5.329-9.447,15.448-8.429,23.107.669,5.019,2.073,8.85,4.3,11.7a22.015,22.015,0,0,0,4.942,4.587c-.077-.049-.155-.1-.231-.149l1.857,1.267.864.59c.13.09.264.174.4.259a12.728,12.728,0,0,0,2.132,1.12,13.9,13.9,0,0,0,5.064.951h.07c.276,0,.55-.008.825-.022.1-.006.2-.016.293-.023.2-.014.4-.028.6-.05.115-.012.23-.029.344-.044.181-.023.361-.048.542-.078.119-.02.239-.043.358-.066.173-.032.345-.066.515-.1.122-.028.244-.057.366-.086.167-.042.333-.085.5-.132.12-.034.241-.069.36-.1.164-.05.327-.1.489-.159.118-.04.235-.08.351-.121.164-.06.326-.124.487-.188.111-.044.222-.088.331-.135.169-.072.335-.149.5-.227.1-.045.2-.089.293-.136.2-.1.388-.2.578-.3l.19-.1q.377-.212.739-.442l.183-.122c.177-.116.353-.234.524-.357.086-.061.169-.126.253-.19.142-.107.283-.214.422-.325.088-.072.173-.147.26-.22.128-.108.255-.218.378-.331.086-.078.169-.159.253-.239.118-.113.233-.227.346-.345.081-.083.159-.168.238-.253l.158-.169.054-.061h0l.091-.113c.156-.182.3-.369.447-.559.055-.072.112-.141.164-.215l.056-.073c.173-.245.337-.495.49-.751.171-.285.327-.58.47-.88l.005-.011c.131-.274.248-.555.357-.84.032-.086.06-.174.09-.262.055-.156.115-.311.164-.47l.039-.146c.036-.119.066-.241.1-.362.049-.186.1-.372.137-.562.026-.125.051-.251.074-.377.017-.093.04-.184.055-.277s.02-.179.033-.267c.022-.16.043-.32.061-.482s.032-.346.044-.52.02-.329.026-.494c0-.081.011-.16.012-.241s0-.151,0-.227q0-.377-.018-.757c-.006-.136-.011-.273-.021-.409-.022-.29-.054-.58-.091-.871-.01-.078-.013-.156-.024-.235l-.01-.059c-.02-.133-.047-.266-.07-.4-.035-.2-.069-.4-.112-.6-.03-.143-.068-.285-.1-.429-.044-.185-.089-.371-.141-.556-.041-.146-.087-.29-.133-.435-.055-.179-.11-.358-.173-.535-.051-.146-.106-.29-.161-.434-.043-.113-.081-.228-.127-.34l-.061-.133q-.214-.515-.463-1.012l-.056-.118c-.189-.366-.394-.721-.611-1.07-.062-.1-.128-.195-.192-.293-.1-.147-.189-.3-.29-.442h0l-.043-.061c-.06-.084-.128-.162-.19-.244q-.125-.168-.255-.33-.277-.347-.575-.673l-.166-.194-.082-.08c-.176-.183-.361-.357-.547-.529-.09-.083-.176-.171-.268-.251-.283-.246-.575-.481-.88-.7q-.12-.086-.243-.171l-.233-.159c-.339-.234-.7-.476-1.057-.721l-1.365-.932A13.844,13.844,0,0,0,79.7,253.2h-.081a14.8,14.8,0,0,0-5.851,1.193l.012-.132q.02-.173.045-.346c.017-.113.036-.226.056-.339s.041-.222.066-.333.053-.228.081-.342.058-.222.091-.332.067-.22.1-.33.075-.224.117-.335.083-.216.127-.323.091-.218.141-.326.093-.2.143-.3c.062-.123.126-.245.192-.365.053-.094.107-.188.163-.28.072-.117.147-.232.224-.346.056-.083.112-.166.172-.247.152-.209.311-.411.482-.6l.047-.056a7.418,7.418,0,0,1,.6-.582l.19-.157q.241-.2.5-.376c.07-.047.138-.1.211-.141a6.777,6.777,0,0,1,.753-.413,8.233,8.233,0,0,1,3.474-.715h.054a14.413,14.413,0,0,1,6.54,1.815l2,1.367a1.879,1.879,0,0,0,1.048.333h.008a2.372,2.372,0,0,0,1.718-.83l.162-.184.061-.077h0l.034-.052.042-.05.065-.113c.05-.075.1-.146.149-.226l.086-.177.053-.091.034-.088a5.627,5.627,0,0,0,.238-.616l.011-.03,0-.007,0-.011.048-.166a6.867,6.867,0,0,0,.153-.71l.009-.036.008-.088a8.141,8.141,0,0,0,.086-.969l.009-.1,0-.063c0-.1,0-.2-.006-.3,0-.122-.005-.243-.014-.364-.007-.1-.02-.2-.031-.3s-.013-.178-.026-.263l-.015-.071c-.024-.152-.055-.3-.088-.442-.016-.072-.028-.147-.047-.217a4.739,4.739,0,0,0-.192-.585l0-.01a3.472,3.472,0,0,0-.237-.481,5.419,5.419,0,0,0-.34-.5h0l-.049-.063-.057-.061c-.1-.122-.2-.245-.311-.362-.068-.071-.147-.137-.219-.206l-.19-.179a7.674,7.674,0,0,0-.756-.6l-2.721-1.857,0,0,0,0,.1.08a13.589,13.589,0,0,0-4.683-1.949,16.739,16.739,0,0,0-3.8-.454Z" transform="translate(-4.731 -3.577)" fill="#b4b4b4" style="mix-blend-mode: multiply;isolation: isolate"/>
    <g id="Group_28166" data-name="Group 28166" transform="translate(55.871 231.886)">
      <path id="Path_40680" data-name="Path 40680" d="M87.893,311.645c0,.023,0,.045,0,.068q.037.253.1.51a5.991,5.991,0,0,0,.185.627c.021.059.048.115.071.173.012.031.018.066.031.1.021.053.049.1.072.154s.047.113.073.168.04.078.06.117c.044.086.091.17.138.253.034.061.067.124.1.184.021.034.044.068.065.1.049.077.1.15.152.223s.09.13.137.193l.065.086c.054.068.111.133.167.2s.111.132.169.2c.022.023.041.047.062.07l.016.019c.028.029.06.054.088.083l.031.029c.08.082.161.163.246.241.052.047.105.093.159.14l.137.117c.06.05.123.1.185.148s.153.115.231.171c.054.039.106.081.161.118l2.72,1.857a9.21,9.21,0,0,0,5,1.566,6.54,6.54,0,0,0,1.954-.265,4.838,4.838,0,0,0,.713-.286c.026-.013.053-.024.08-.038a5.123,5.123,0,0,0,.637-.39c.035-.024.07-.048.1-.074a5.343,5.343,0,0,0,.573-.494c.032-.031.062-.063.093-.095a5.552,5.552,0,0,0,.508-.607c.008-.011.018-.019.025-.03s.021-.038.033-.056a5.727,5.727,0,0,0,.451-.771l.011-.017c.009-.019.015-.04.023-.059a5.833,5.833,0,0,0,.253-.647c.011-.032.027-.061.037-.094s.008-.038.013-.057a5.935,5.935,0,0,0,.169-.722c0-.018.009-.034.012-.052s0-.066.008-.1a6.607,6.607,0,0,0,.066-.738c0-.034.008-.065.009-.1,0-.019,0-.04,0-.059,0-.077,0-.157-.005-.235,0-.123-.006-.245-.015-.371-.007-.09-.019-.181-.029-.273s-.015-.167-.027-.253l-.031-.2a7.619,7.619,0,0,0-.185-.8c-.025-.085-.058-.169-.086-.254-.059-.181-.117-.362-.189-.542-.006-.015-.009-.029-.015-.044-.05-.125-.114-.247-.172-.371s-.1-.221-.153-.33c-.078-.153-.168-.3-.255-.45-.054-.091-.1-.185-.158-.274-.1-.159-.214-.311-.325-.464-.054-.075-.1-.152-.159-.226-.119-.152-.248-.3-.376-.44-.06-.067-.114-.138-.175-.2l-.012-.015c-.123-.129-.256-.247-.387-.367-.072-.066-.138-.138-.213-.2a7.732,7.732,0,0,0-.663-.51l-.04-.027.041.027-1.242-.847-1.479-1.01-.088-.059c-.043-.028-.088-.052-.131-.08-.065-.04-.129-.08-.194-.118-.1-.056-.193-.109-.291-.16-.038-.019-.075-.04-.113-.059s-.086-.042-.13-.063c-.132-.062-.267-.117-.4-.17-.049-.019-.1-.041-.148-.059l-.077-.026c-.028-.01-.057-.017-.087-.026-.128-.042-.255-.083-.386-.116l-.019,0c-.091-.023-.184-.035-.277-.053-.074-.014-.145-.029-.22-.041-.05-.008-.1-.02-.152-.027a5.441,5.441,0,0,0-.671-.044,5.729,5.729,0,0,0-1.65.238c-.187.056-.373.122-.557.2-.061.025-.121.056-.182.083-.121.053-.243.106-.362.167-.07.035-.137.077-.205.115-.109.06-.217.118-.323.184-.071.045-.14.095-.211.143-.1.067-.2.133-.3.2-.071.054-.138.111-.208.167-.091.073-.183.145-.271.223-.069.06-.135.126-.2.189-.084.079-.168.158-.248.241-.065.068-.127.139-.191.21s-.152.169-.225.257-.119.152-.177.23c-.047.061-.1.119-.14.181-.021.029-.038.06-.059.09-.057.083-.111.169-.165.255s-.117.186-.17.282-.1.175-.141.263c-.032.063-.068.122-.1.186-.013.027-.02.056-.032.082a6.645,6.645,0,0,0-.311.8c0,.01-.009.019-.012.029-.012.036-.015.075-.026.111-.059.2-.107.409-.147.618-.007.041-.022.08-.028.122l.008.005h0l-.008-.005c-.007.043-.006.088-.012.132q-.039.283-.051.572c0,.054-.013.106-.015.16,0,.018,0,.037,0,.055A6.078,6.078,0,0,0,87.893,311.645Zm7.915,5.268a8.434,8.434,0,0,1-3.063-.625c-.036-.04-.071-.081-.1-.12-.062-.074-.124-.147-.182-.223s-.1-.129-.143-.2-.109-.157-.159-.238-.084-.138-.123-.208-.093-.168-.136-.254-.072-.151-.106-.227-.06-.142-.088-.214a5.1,5.1,0,0,1-.226-.709c-.04-.171-.067-.341-.09-.51a5.14,5.14,0,0,1-.047-.746c0-.059.006-.117.009-.176a5.131,5.131,0,0,1,.047-.52c.01-.07.021-.139.034-.209a5.329,5.329,0,0,1,.122-.52c.015-.053.027-.107.043-.159a6.137,6.137,0,0,1,.271-.693c.023-.048.047-.1.071-.144a6.567,6.567,0,0,1,.487-.828c.055-.078.114-.156.172-.232s.093-.124.143-.184c.068-.084.14-.163.212-.242.053-.058.1-.118.16-.174.074-.076.15-.148.227-.22.058-.054.114-.11.174-.163.079-.069.161-.133.242-.2.062-.05.124-.1.187-.148.084-.062.169-.118.255-.175.065-.045.13-.091.2-.133.09-.055.182-.1.273-.155.066-.037.13-.076.2-.11.1-.051.2-.095.3-.14.061-.026.12-.057.18-.081q.245-.1.494-.174a4.919,4.919,0,0,1,1.425-.2,4.979,4.979,0,0,1,1.527.254,8.01,8.01,0,0,1,1.9,3.84,5.04,5.04,0,0,1-3.165,5.93A5.911,5.911,0,0,1,95.808,316.912Zm-1.877.562c-.094-.021-.186-.047-.279-.071C93.745,317.427,93.838,317.454,93.931,317.474Zm-.629-.165c-.094-.028-.187-.061-.281-.093C93.114,317.248,93.207,317.281,93.3,317.309Zm-.623-.211c-.094-.034-.185-.074-.278-.112C92.494,317.024,92.585,317.063,92.679,317.1Zm8.615-7.214c-.017-.06-.036-.121-.054-.182.011.04.029.078.04.117C101.286,309.841,101.288,309.863,101.294,309.884Zm-.262-.782c-.017-.043-.032-.086-.05-.129.007.015.015.03.021.046S101.022,309.074,101.032,309.1Zm-.763-1.517c-.03-.048-.063-.094-.093-.141.022.032.046.063.066.1C100.252,307.555,100.26,307.57,100.269,307.585Zm-.442-.636c-.043-.057-.086-.114-.131-.17.02.025.042.048.062.074S99.8,306.917,99.827,306.949Zm-.533-.64-.053-.058h0C99.261,306.27,99.276,306.291,99.293,306.309Zm-5,11.236c.09.016.179.036.268.049C94.473,317.581,94.384,317.561,94.294,317.545Zm.664.1c.076.008.153.021.229.027C95.112,317.662,95.034,317.65,94.958,317.642Z" transform="translate(-78.362 -281.953)" fill="url(#linear-gradient)"/>
      <path id="Path_40681" data-name="Path 40681" d="M91.032,267.164c.012-.173.021-.345.027-.519,0-.077.011-.152.012-.229s-.005-.143,0-.215c0-.259-.006-.518-.018-.778-.006-.133-.011-.264-.021-.4-.022-.3-.055-.589-.093-.885-.01-.074-.013-.149-.023-.223,0-.019-.007-.038-.01-.057-.021-.139-.049-.277-.074-.415-.034-.194-.067-.388-.108-.58-.031-.148-.07-.3-.106-.442-.045-.181-.088-.362-.138-.542-.042-.152-.091-.3-.137-.451-.055-.173-.108-.346-.168-.518-.053-.152-.111-.3-.168-.451-.042-.109-.078-.22-.123-.328-.018-.044-.04-.085-.059-.129q-.217-.521-.47-1.024c-.018-.036-.034-.073-.052-.109-.188-.365-.393-.72-.609-1.068-.064-.1-.133-.2-.2-.3-.095-.144-.185-.293-.285-.434v0l-.043-.06-.035-.024h0l.035.024c-.061-.084-.128-.163-.191-.246-.083-.112-.168-.22-.253-.328-.185-.232-.378-.456-.579-.676-.057-.062-.107-.131-.164-.192-.026-.027-.055-.051-.081-.078-.177-.184-.364-.359-.552-.533-.089-.082-.173-.168-.265-.247-.283-.246-.574-.482-.879-.7-.08-.058-.161-.114-.242-.17l-.264-.18c-.325-.223-.663-.454-1.007-.687l-1.45-.99c.082.056.162.113.244.171.3.219.6.454.879.7.091.08.176.166.265.248.188.173.373.347.55.531.084.087.163.18.245.27.035.038.065.078.1.116L82,252.3a13.41,13.41,0,0,0-7.475-2.227,14.472,14.472,0,0,0-5.963,1.246c0-.081.007-.162.014-.244.008-.111.02-.222.032-.333s.028-.239.045-.358.034-.215.055-.323.043-.228.067-.342.052-.226.081-.339.06-.228.093-.341.064-.21.1-.315.077-.231.12-.346.083-.216.127-.324.089-.213.137-.317.1-.209.149-.312q.091-.18.188-.355c.053-.1.108-.19.164-.283.071-.117.147-.232.222-.345.057-.083.112-.167.173-.248.15-.206.309-.407.478-.6.018-.02.033-.042.051-.062a7.32,7.32,0,0,1,.594-.581c.063-.055.128-.106.191-.158.161-.132.327-.257.5-.374.07-.047.139-.1.211-.141a6.6,6.6,0,0,1,.754-.413,8.247,8.247,0,0,1,3.528-.715,14.42,14.42,0,0,1,6.541,1.815l2,1.368a1.877,1.877,0,0,0,1.048.333,2.367,2.367,0,0,0,1.726-.83l.163-.184.061-.076h0c.012-.015.021-.034.032-.049s.031-.035.045-.054c.025-.035.044-.08.068-.117.048-.075.1-.143.146-.223.032-.057.057-.121.087-.179.015-.032.036-.057.051-.089s.02-.058.033-.085a5.383,5.383,0,0,0,.249-.647v0h0c0-.006,0-.011.006-.017l.047-.167a7.1,7.1,0,0,0,.153-.7c0-.015.008-.029.01-.043.005-.035,0-.072.009-.107a7.979,7.979,0,0,0,.084-.933c0-.038.009-.075.01-.113s0-.049,0-.075c0-.082,0-.162-.006-.243,0-.14-.005-.279-.015-.417-.006-.087-.017-.17-.026-.256s-.016-.2-.03-.3c0-.028-.011-.052-.016-.08-.022-.142-.052-.278-.082-.413-.018-.08-.032-.162-.052-.239a5.022,5.022,0,0,0-.191-.583.043.043,0,0,0,0-.01,3.421,3.421,0,0,0-.237-.481,5.381,5.381,0,0,0-.34-.5h0l-.049-.063c-.017-.022-.041-.042-.06-.064-.1-.122-.2-.244-.308-.36-.067-.07-.145-.134-.216-.2s-.129-.124-.2-.185a7.586,7.586,0,0,0-.753-.593l-2.721-1.857.007.006-.008-.006a7.608,7.608,0,0,1,.76.6c.063.056.122.113.181.17a6.3,6.3,0,0,1,.54.579c.029.036.062.069.09.106l.011.013h0a5.585,5.585,0,0,1,.342.5,3.568,3.568,0,0,1,.22.445l-2.592-1.768a11.467,11.467,0,0,0-3.038-1.4q-.608-.191-1.283-.352a16.251,16.251,0,0,0-3.688-.444,16,16,0,0,0-9.523,3.068c-.417.307-.813.633-1.2.971-.124.109-.237.228-.358.34-.252.235-.5.471-.736.719-.136.143-.263.294-.394.441-.206.231-.409.462-.6.7-.13.161-.253.327-.377.492-.109.145-.225.283-.33.431-.056.079-.1.164-.157.244-.2.3-.4.6-.585.911-.11.18-.225.357-.33.541-.211.369-.405.746-.594,1.126-.055.111-.12.216-.173.328-.009.02-.017.041-.026.061q-.361.761-.667,1.547c-.034.088-.061.18-.095.269-.164.438-.32.879-.459,1.324-.011.034-.024.067-.035.1-.04.13-.068.263-.107.394-.117.4-.227.8-.326,1.208-.05.208-.094.417-.139.625q-.118.547-.216,1.1c-.02.116-.049.231-.068.348-.015.095-.022.189-.036.284-.075.49-.135.979-.184,1.468-.013.128-.032.256-.042.384q-.078.91-.1,1.8c0,.046-.007.092-.008.137,0,.111.007.216.006.326q-.006.729.026,1.441c.009.178.015.356.027.533.039.6.09,1.195.167,1.771.022.161.043.322.066.481.031.21.071.405.1.612.052.324.1.648.163.961.05.266.106.523.161.781.066.315.135.628.21.932.06.243.123.478.188.713.082.3.166.6.257.886.069.222.141.44.215.655.1.283.2.56.3.83.04.1.075.218.116.32.049.12.1.232.155.35q.115.27.235.533c.112.239.227.471.345.7.082.16.162.322.248.478.135.243.277.478.421.71.078.127.153.257.233.38.228.348.466.685.716,1.006.183.235.385.481.6.733.081.093.173.189.257.283.139.155.274.309.424.466l.027.029q-.574-.324-1.129-.679c.261.307.538.616.83.923l.039.039c.058.062.122.121.182.182.235.241.477.477.728.711.1.094.2.186.308.28.23.207.464.407.7.6.1.084.2.167.3.249.34.268.684.528,1.036.768l.015.011-.016-.011,1.618,1.1,1.084.739c-.129-.046-.263-.082-.39-.133a13.345,13.345,0,0,1-2.53-1.378l2.721,1.857A13.251,13.251,0,0,0,71.3,278.5a13.907,13.907,0,0,0,5.064.952c.3,0,.6-.007.9-.022.091-.005.181-.014.271-.02.208-.015.415-.031.623-.053.107-.012.214-.029.321-.042.189-.024.377-.05.564-.081.114-.019.227-.042.34-.062.18-.034.36-.07.537-.11.115-.025.23-.053.345-.081q.261-.064.52-.137c.115-.033.229-.065.343-.1.17-.052.339-.107.507-.164.112-.038.224-.077.335-.117.169-.062.336-.128.5-.195.106-.043.212-.085.316-.129.174-.074.344-.153.514-.232.094-.044.19-.086.283-.132.2-.1.389-.2.579-.3.063-.034.128-.066.191-.1q.376-.21.736-.44c.068-.044.132-.091.2-.134.17-.113.34-.226.5-.344.093-.066.181-.137.273-.206.134-.1.268-.2.4-.308.1-.077.188-.158.281-.237.121-.1.239-.2.355-.31.093-.085.182-.172.273-.258q.165-.159.324-.323c.088-.09.174-.182.258-.275.049-.053.1-.1.147-.156l.054-.06h0c.03-.035.058-.074.088-.11.156-.183.305-.371.449-.562.055-.072.112-.143.165-.216.018-.025.038-.048.056-.074q.26-.366.49-.75.257-.431.473-.886l0-.006c.13-.273.247-.553.356-.837.033-.086.06-.174.091-.261.056-.157.115-.314.164-.473.015-.05.026-.1.042-.153.034-.115.063-.231.093-.348.05-.19.1-.38.138-.572.027-.122.05-.245.073-.367.018-.1.041-.188.056-.284s.021-.182.034-.272c.023-.16.043-.321.06-.484S91.021,267.332,91.032,267.164ZM66.644,274.9c-.23-.214-.45-.432-.667-.652.163.12.322.243.487.356l2.651,1.81c-.128-.047-.26-.081-.386-.132a10.939,10.939,0,0,1-1.091-.513c-.238-.2-.474-.4-.7-.6C66.839,275.073,66.741,274.986,66.644,274.9ZM83.612,244.3l.131.09a1.459,1.459,0,0,1-.224.026,1.483,1.483,0,0,1-.21-.034c-.375-.229-.742-.45-1.054-.662-.125-.086-.262-.166-.392-.249A17.481,17.481,0,0,1,83.612,244.3Zm-.332,9.018c.06.054.117.112.174.168.181.173.362.346.533.531.075.08.141.167.213.249l-2.2-1.5A12.479,12.479,0,0,1,83.28,253.321Zm-1.564-9.474a17.406,17.406,0,0,1,1.647.768l.276.189c-.043,0-.086.005-.126.005a1.8,1.8,0,0,1-.478-.076l-1.058-.722C81.891,243.954,81.8,243.9,81.716,243.847Zm-3.542-8.413a16.568,16.568,0,0,1,6.454,1.36c.031.035.063.069.092.1.043.051.091.1.131.153a4.586,4.586,0,0,1,.311.451,2.761,2.761,0,0,1,.2.4,4.182,4.182,0,0,1,.165.507c.009.034.014.073.022.108.034.147.066.3.091.455.016.111.026.226.037.341.008.079.019.156.024.237.007.118.008.239.009.359,0,.079.006.158,0,.238,0,.024,0,.049,0,.073a7.478,7.478,0,0,1-.082.922c0,.019-.005.038-.008.058-.077-.056-.15-.117-.228-.171l-1.15-.785-1.57-1.072a12.185,12.185,0,0,0-2.525-1.312,13.423,13.423,0,0,0-4.5-.861c-.07,0-.139-.009-.21-.009h0a13.522,13.522,0,0,0-2.153.166,12.774,12.774,0,0,0-3.339,1,11.815,11.815,0,0,0-2,1.146c-.313.224-.613.468-.9.724-.092.081-.178.169-.268.253-.2.182-.388.366-.574.561-.1.107-.2.221-.3.333-.164.184-.325.371-.481.565-.1.124-.2.252-.291.38-.075.1-.156.2-.229.3-.054.076-.1.159-.153.237-.148.218-.291.442-.431.669-.1.16-.195.319-.287.482-.135.238-.261.482-.385.728-.059.117-.127.229-.184.347-.024.052-.044.107-.069.159-.1.206-.182.417-.271.628-.081.194-.164.387-.24.584-.082.217-.155.439-.229.659-.05.151-.11.3-.157.451-.015.048-.025.1-.04.147-.062.207-.114.416-.169.625s-.114.426-.163.641-.084.415-.124.623c-.031.164-.07.327-.1.492-.009.057-.013.115-.021.172-.032.206-.055.413-.079.62s-.053.44-.071.661-.024.413-.034.621c-.007.158-.023.316-.026.473,0,.064,0,.126,0,.19,0,.225.007.447.014.671.007.208.012.416.027.621.015.221.042.439.067.658.018.153.024.309.047.461.007.049.021.1.029.145.046.3.108.587.172.877.031.142.055.287.091.428a12.682,12.682,0,0,0,.383,1.255h0l2.722,1.857c3.275-3.23,7.481-5.546,11.883-5.522a12.4,12.4,0,0,1,5.293,1.231c.1.091.2.179.29.274s.2.217.3.326.214.24.315.366.185.243.275.366.183.25.269.379.164.263.244.4.155.261.227.394.139.273.2.411.134.279.195.422c.044.1.083.21.123.315.109.279.2.563.289.851.026.092.056.181.08.272a10.777,10.777,0,0,1,.231,1.108c.026.17.041.343.059.514.013.123.03.245.039.368.012.17.012.343.015.514,0,.131.011.261.009.392q-.007.423-.047.847c-.008.081-.021.161-.03.241-.024.209-.051.416-.088.624-.018.1-.038.2-.058.292-.039.187-.081.373-.128.559-.028.1-.055.21-.086.314-.052.18-.111.36-.173.538-.036.1-.07.21-.109.314-.081.212-.171.422-.264.631-.03.066-.055.132-.086.2-.153.323-.322.641-.508.953-.17.285-.35.558-.536.822-.031.044-.064.085-.095.128a12.654,12.654,0,0,1-.958,1.181l-.008.008a12.347,12.347,0,0,1-1.078,1.026c-.029.024-.057.051-.086.076a12.119,12.119,0,0,1-1.132.83c-.05.032-.1.067-.15.1a12.5,12.5,0,0,1-1.184.658l-.185.089a12.988,12.988,0,0,1-1.243.5l-.2.065a13.328,13.328,0,0,1-1.306.36l-.179.036c-.454.093-.915.169-1.38.217-.041,0-.081.006-.122.01a14.728,14.728,0,0,1-1.477.071,15.86,15.86,0,0,1-4.648-.736,24.71,24.71,0,0,1-2.833-1.1c-.183-.215-.36-.427-.517-.627-.251-.323-.489-.661-.718-1.01-.075-.114-.144-.237-.217-.354-.151-.243-.3-.488-.441-.743-.078-.143-.153-.291-.229-.437-.126-.245-.25-.494-.369-.751-.073-.158-.143-.32-.213-.484-.1-.237-.2-.48-.294-.726s-.191-.512-.282-.776c-.08-.232-.157-.466-.232-.706-.085-.274-.166-.556-.243-.841-.068-.246-.135-.493-.2-.746-.073-.3-.14-.607-.206-.917-.055-.258-.111-.516-.162-.782-.061-.327-.116-.665-.17-1s-.116-.691-.164-1.053c-.077-.58-.129-1.179-.168-1.785-.01-.165-.018-.331-.024-.5q-.034-.739-.028-1.5c0-.139,0-.276,0-.415.013-.6.045-1.212.1-1.825.01-.117.028-.236.039-.353q.073-.751.19-1.508c.03-.2.064-.4.1-.6q.1-.563.221-1.125c.044-.2.087-.405.136-.608.1-.415.215-.828.335-1.24.044-.153.084-.308.131-.46.15-.477.315-.95.492-1.419.022-.058.04-.118.062-.176q.306-.787.667-1.55c.066-.14.143-.274.212-.413.186-.373.377-.745.584-1.107.1-.182.218-.357.327-.536.19-.31.384-.618.59-.918q.233-.339.482-.668c.126-.167.251-.335.382-.5.192-.239.395-.469.6-.7.132-.148.26-.3.4-.444.234-.246.481-.481.73-.714.122-.114.237-.235.363-.346.382-.338.778-.664,1.195-.97A16,16,0,0,1,78.174,235.435Z" transform="translate(-57.592 -233.577)" fill="url(#linear-gradient-2)"/>
    </g>
    <path id="Path_40682" data-name="Path 40682" d="M82.013,252.787a13,13,0,0,0-7.5-2.326,13.453,13.453,0,0,0-8.265,2.665l-.383.288-.207-.432a5.442,5.442,0,0,1-.508-1.547c-.676-4.109,1.483-8.563,4.906-10.139a9.038,9.038,0,0,1,3.86-.791,15.908,15.908,0,0,1,8.549,2.9l.1.092a1.137,1.137,0,0,0,.939.515,1.646,1.646,0,0,0,1.167-.568,3.617,3.617,0,0,0,.784-1.511,6.4,6.4,0,0,0-.3-4.426c-.952-1.578-2.977-2.753-6.021-3.481a16.251,16.251,0,0,0-3.688-.444,16,16,0,0,0-9.523,3.068c-6.977,5.14-9.1,14.942-8.111,22.368.648,4.885,2,8.589,4.136,11.331a20,20,0,0,0,1.312,1.512,17.141,17.141,0,0,0,5.608,4.056,12.966,12.966,0,0,0,4.776.9c5.065.027,10.04-2.57,12.363-6.466C89.156,265.071,87.215,256.54,82.013,252.787Zm-5.037,16.269a6.528,6.528,0,0,1-1.953.264c-3.163-.017-6.979-1.942-7.808-5.474-.849-3.63,1.85-7.052,4.909-7.966a5.729,5.729,0,0,1,1.65-.238c3.565.019,6.367,3.442,6.91,6.6A5.808,5.808,0,0,1,76.976,269.056Z" transform="translate(-1.712 -1.692)" fill="url(#linear-gradient-3)"/>
    <path id="Path_40683" data-name="Path 40683" d="M84.381,244.479a12.226,12.226,0,0,1,10.027,4.937,3.617,3.617,0,0,1-.784,1.511,1.646,1.646,0,0,1-1.167.568,1.137,1.137,0,0,1-.939-.515l-.1-.092a15.908,15.908,0,0,0-8.549-2.9,9.038,9.038,0,0,0-3.86.791c-3.424,1.576-5.582,6.03-4.906,10.139a5.442,5.442,0,0,0,.508,1.547l.207.432.383-.288a13.453,13.453,0,0,1,8.265-2.665,13,13,0,0,1,7.5,2.326c5.2,3.753,7.143,12.285,3.991,17.558-2.323,3.9-7.3,6.493-12.363,6.466a12.966,12.966,0,0,1-4.776-.9,17.14,17.14,0,0,1-5.608-4.056,25.2,25.2,0,0,0,4.758,2.075,15.86,15.86,0,0,0,4.648.736,12.745,12.745,0,0,0,11.314-6.181,10.511,10.511,0,0,0-3.966-14.878,12.449,12.449,0,0,0-5.631-1.39c-4.4-.023-8.607,2.293-11.884,5.523-2.237-6.1.169-14.651,5.444-18.44A12.722,12.722,0,0,1,84.381,244.479Z" transform="translate(-10.665 -9.178)" opacity="0.6" fill="url(#linear-gradient-4)" style="mix-blend-mode: multiply;isolation: isolate"/>
    <path id="Path_40684" data-name="Path 40684" d="M80.757,250.456a13.79,13.79,0,0,0-7.947-2.47,14.351,14.351,0,0,0-8.349,2.531,4.466,4.466,0,0,1-.246-.9c-.549-3.312.968-7.7,4.455-9.3A8.251,8.251,0,0,1,72.2,239.6a15.109,15.109,0,0,1,8.057,2.717,1.953,1.953,0,0,0,1.536.8,2.372,2.372,0,0,0,1.726-.83c1.5-1.558,1.6-5.2.595-6.882-1.063-1.769-3.25-3.058-6.505-3.837a16.7,16.7,0,0,0-3.8-.454,16.912,16.912,0,0,0-10.064,3.208c-7.24,5.33-9.447,15.448-8.429,23.108.669,5.019,2.073,8.85,4.3,11.7a19.6,19.6,0,0,0,7.241,5.816,13.893,13.893,0,0,0,5.064.951c5.333.029,10.577-2.722,13.043-6.843C88.367,263.357,86.365,254.493,80.757,250.456ZM56.1,257.321c-.993-7.426,1.134-17.228,8.111-22.368a16,16,0,0,1,9.523-3.068,16.25,16.25,0,0,1,3.688.444c3.044.728,5.069,1.9,6.021,3.481a6.4,6.4,0,0,1,.3,4.426,3.617,3.617,0,0,1-.784,1.511,1.646,1.646,0,0,1-1.167.568,1.137,1.137,0,0,1-.939-.515l-.1-.092a15.907,15.907,0,0,0-8.549-2.9,9.038,9.038,0,0,0-3.86.791c-3.424,1.576-5.582,6.03-4.906,10.139a5.442,5.442,0,0,0,.508,1.547l.207.432.383-.288a13.453,13.453,0,0,1,8.265-2.665,13,13,0,0,1,7.5,2.326c5.2,3.753,7.143,12.285,3.991,17.558-2.323,3.9-7.3,6.493-12.363,6.466a12.966,12.966,0,0,1-4.776-.9,17.14,17.14,0,0,1-5.608-4.056,20,20,0,0,1-1.312-1.512C58.1,265.91,56.745,262.207,56.1,257.321ZM73.848,275.4a14.773,14.773,0,0,0,10.781-6.549A14.77,14.77,0,0,1,73.848,275.4Z" transform="translate(0 0)" fill="url(#linear-gradient-5)"/>
    <path id="Path_40685" data-name="Path 40685" d="M94.555,304.016c3.565.018,6.367,3.442,6.91,6.6a5.807,5.807,0,0,1-3.708,6.815,6.5,6.5,0,0,1-1.953.265c-3.163-.017-6.979-1.942-7.808-5.475-.849-3.629,1.85-7.051,4.909-7.966A5.738,5.738,0,0,1,94.555,304.016Zm2.976,12.665a5.041,5.041,0,0,0,3.165-5.931c-.5-2.844-2.985-5.934-6.148-5.951a4.942,4.942,0,0,0-1.425.2c-2.712.811-5.12,3.831-4.366,7.038.734,3.143,4.185,4.855,7.052,4.871a5.931,5.931,0,0,0,1.721-.23Z" transform="translate(-22.493 -50.066)" fill="url(#linear-gradient-6)"/>
  </g>
</svg>
