<svg xmlns="http://www.w3.org/2000/svg" xmlns:xlink="http://www.w3.org/1999/xlink" width="39.583" height="48.871" viewBox="0 0 39.583 48.871">
  <defs>
    <linearGradient id="linear-gradient" x1="0.729" y1="0.064" x2="0.354" y2="0.961" gradientUnits="objectBoundingBox">
      <stop offset="0.115" stop-color="#842c0c"/>
      <stop offset="0.36" stop-color="#220b03"/>
      <stop offset="0.601" stop-color="#842c0c"/>
      <stop offset="0.655" stop-color="#7c290b"/>
      <stop offset="0.737" stop-color="#682209"/>
      <stop offset="0.835" stop-color="#471706"/>
      <stop offset="0.945" stop-color="#190802"/>
      <stop offset="1"/>
    </linearGradient>
    <linearGradient id="linear-gradient-2" x1="-0.053" y1="0.475" x2="1.153" y2="0.534" gradientUnits="objectBoundingBox">
      <stop offset="0.115" stop-color="#ff8a2e"/>
      <stop offset="0.302" stop-color="#f9842c"/>
      <stop offset="0.544" stop-color="#e97429"/>
      <stop offset="0.815" stop-color="#cf5925"/>
      <stop offset="1" stop-color="#ba4321"/>
    </linearGradient>
    <linearGradient id="linear-gradient-3" x1="0.092" y1="0.477" x2="0.876" y2="0.522" xlink:href="#linear-gradient-2"/>
    <linearGradient id="linear-gradient-4" x1="0.92" y1="0.911" x2="-0.293" y2="-0.217" gradientUnits="objectBoundingBox">
      <stop offset="0.138" stop-color="#e54e13"/>
      <stop offset="0.286" stop-color="#e55511"/>
      <stop offset="0.506" stop-color="#e5690d"/>
      <stop offset="0.771" stop-color="#e68a06"/>
      <stop offset="1" stop-color="#e7ad00"/>
    </linearGradient>
    <linearGradient id="linear-gradient-5" x1="0" y1="0.5" x2="1" y2="0.5" xlink:href="#linear-gradient-4"/>
    <linearGradient id="linear-gradient-6" x1="0.172" y1="0.475" x2="0.948" y2="0.537" xlink:href="#linear-gradient-2"/>
  </defs>
  <g id="_8" data-name="8" transform="translate(-372.092 -231.412)">
    <path id="Path_40715" data-name="Path 40715" d="M396.234,273.59h-.071a11.285,11.285,0,0,1-4.087-.74c-.073-.083-.157-.156-.224-.241a4.707,4.707,0,0,1-.338-.493l-.083-.145c-.074-.134-.141-.27-.2-.407l-.058-.13a4.355,4.355,0,0,1-.157-.461l-.006-.019a4.327,4.327,0,0,1-.1-.492l-.012-.1a4.592,4.592,0,0,1-.039-.6l0-.089a4.475,4.475,0,0,1,.052-.57l.025-.137a4.435,4.435,0,0,1,.1-.445l.039-.137a4.823,4.823,0,0,1,.221-.566l.044-.087a5.048,5.048,0,0,1,.4-.681l.033-.043a5.165,5.165,0,0,1,.368-.449l.114-.121a5.457,5.457,0,0,1,.482-.449,11.864,11.864,0,0,1,7.321-2.114h.094a17.036,17.036,0,0,1,2.422.184,10.13,10.13,0,0,1,2.186.591,4.528,4.528,0,0,1,.684,1.042,4.045,4.045,0,0,1-.413,3.954,6.822,6.822,0,0,1-1.81,1.937,12.487,12.487,0,0,1-6.986,2.016Zm-.33-20.322h-.031a5.258,5.258,0,0,1-.707-.05c-.129-.019-.254-.049-.378-.077a4.422,4.422,0,0,1-.256-.419,4.545,4.545,0,0,1-.19-.42c-.043-.108-.077-.217-.11-.327l-.051-.158a4.319,4.319,0,0,1-.1-.49l0-.02a4.254,4.254,0,0,1-.036-.578l.005-.183c0-.111.015-.221.03-.33l.029-.2c.018-.1.041-.191.066-.285l.054-.193c.035-.106.078-.209.122-.312l.075-.179a3.907,3.907,0,0,1,.338-.548l.106-.13a4.1,4.1,0,0,1,.312-.351l.159-.15a4.543,4.543,0,0,1,.358-.29l.168-.122a5.147,5.147,0,0,1,.591-.344,6.348,6.348,0,0,1,2.784-.585h.044a8.048,8.048,0,0,1,1.546.174c.223.045.451.082.664.144l.057.021.138.052a3.149,3.149,0,0,1,.208.323,2.958,2.958,0,0,1-.183,3,7.287,7.287,0,0,1-5.805,3.02Zm1.253-16.649a15.233,15.233,0,0,0-12.277,6.862,11.616,11.616,0,0,0-1.441,7.134,13.362,13.362,0,0,0,3.4,6.473,17.165,17.165,0,0,0-5.655,5.229,12.509,12.509,0,0,0-1.379,11.493,11.773,11.773,0,0,0,4.4,5.344l-.036-.023,0,0,0,0,2.76,1.884a15.282,15.282,0,0,0,3.923,1.893q.729.235,1.506.416c.5.115,1.006.2,1.518.281l.187.035c.085.011.171.018.254.028.159.02.317.038.477.054.1.01.194.025.292.033.164.016.328.026.492.036l.106.008.033,0q.532.03,1.069.034h.078c.383,0,.765-.011,1.146-.03.134-.008.268-.022.4-.031.238-.017.476-.03.712-.054l.121-.016c.095-.01.19-.023.284-.036.181-.022.362-.041.543-.067.089-.013.175-.032.264-.047.194-.03.386-.066.578-.1.214-.04.429-.082.642-.128.194-.042.385-.088.578-.135.112-.027.226-.049.337-.078s.206-.061.309-.09c.16-.044.319-.089.478-.137.226-.068.45-.14.674-.215q.226-.074.452-.154l.2-.07c.108-.041.212-.088.319-.129.26-.1.518-.2.772-.314.163-.07.325-.142.486-.216q.376-.173.742-.358c.154-.078.307-.155.459-.236.252-.135.5-.278.744-.422.133-.078.269-.154.4-.235.3-.183.584-.375.868-.571l.193-.127.041-.03.031-.023c.074-.054.149-.106.223-.162.11-.081.211-.169.318-.251.171-.131.342-.263.507-.4.142-.118.279-.239.418-.361.158-.138.316-.277.466-.42.135-.126.263-.256.392-.386.146-.145.29-.291.429-.44s.244-.272.364-.411.262-.3.385-.459l.133-.157c.1-.132.2-.269.3-.4l.128-.167.045-.069.048-.066c.144-.208.283-.419.415-.632l.008-.014.008-.012.023-.037q.076-.125.149-.249l.025-.044c.091-.157.178-.316.263-.476.1-.192.2-.385.29-.578.055-.116.1-.234.152-.35.038-.084.084-.168.12-.253l.057-.156c.178-.429.341-.86.474-1.291l0-.008v0c.032-.105.063-.21.093-.316q.069-.244.128-.487l.016-.072.023-.1c.024-.107.049-.212.071-.318l.025-.165c.024-.123.054-.247.074-.371.04-.248.068-.5.095-.744l.014-.109c.03-.314.048-.626.054-.937,0-.082-.005-.161-.005-.243,0-.115,0-.229-.007-.344q-.014-.469-.065-.932c-.011-.1-.017-.193-.03-.289l-.012-.123c-.023-.155-.067-.308-.1-.462-.039-.213-.066-.428-.118-.637l-.039-.153-.019-.065c-.022-.082-.053-.162-.076-.244-.07-.24-.137-.481-.222-.718h0l-.073-.195-.048-.107-.039-.114c-.1-.247-.226-.486-.344-.728-.067-.136-.122-.276-.194-.411a12.179,12.179,0,0,0-.737-1.206,7.158,7.158,0,0,0-.616-.753l-.075-.092-.121-.114-.149-.156,0,0c-.078-.074-.165-.144-.247-.216l-.182-.159c-.2-.167-.414-.33-.639-.484l-.016-.012-2.624-1.79c.1-.1.208-.2.307-.3.072-.073.138-.148.208-.221.143-.15.284-.3.419-.452.078-.09.153-.181.229-.272.118-.14.235-.28.347-.422.076-.1.148-.2.221-.294s.141-.183.207-.275l.07-.107.111-.153q.222-.327.42-.66l.016-.029c.166-.283.316-.567.457-.854l.089-.165,0-.008c.148-.311.277-.625.395-.94.034-.092.064-.183.1-.275.04-.117.086-.233.123-.35.044-.142.078-.283.115-.424l.048-.173c.064-.26.12-.52.162-.779l.019-.154.016-.079,0,0,0,0,.022-.208c.012-.112.025-.224.034-.336l.013-.122v-.138c0-.092.014-.183.016-.275,0-.107,0-.214-.007-.321,0-.086,0-.171-.006-.256-.012-.265-.034-.529-.071-.79l0-.015c-.012-.088-.027-.176-.043-.263-.037-.208-.083-.415-.136-.62a9.352,9.352,0,0,0-.359-1.08l-.036-.106-.034-.076-.038-.095c-.054-.126-.118-.245-.177-.367-.045-.09-.085-.183-.132-.271l-.026-.055-.009-.006.009.006c-.085-.159-.182-.311-.276-.464l-.1-.173q-.213-.326-.452-.634l-.013-.016c-.061-.076-.128-.147-.191-.222-.114-.136-.227-.274-.35-.4l-.02-.023-.1-.092c-.146-.149-.292-.3-.448-.439l-.063-.043.063.043-.1-.08a10.21,10.21,0,0,0-.989-.774l0,0-.877-.6-1.884-1.285,0,0,0,0,.065.051c-2.363-1.639-5.663-2.552-9.713-2.605Z" transform="translate(-4.7 -3.553)" fill="#b4b4b4" style="mix-blend-mode: multiply;isolation: isolate"/>
    <path id="Path_40716" data-name="Path 40716" d="M410.536,263.567c0-.084-.005-.167-.005-.25,0-.11,0-.22-.007-.33q-.014-.477-.066-.949c-.01-.091-.016-.183-.028-.274-.006-.042-.007-.085-.014-.127-.023-.159-.068-.314-.1-.472-.039-.209-.065-.42-.116-.628l-.039-.153c-.005-.022-.015-.043-.02-.065-.021-.08-.051-.159-.074-.239-.07-.242-.138-.484-.224-.722l-.026-.017h0l.026.017-.073-.2-.016-.011h0l.016.011c-.014-.037-.035-.071-.049-.108s-.023-.075-.038-.112c-.1-.246-.226-.484-.342-.724-.068-.138-.124-.278-.2-.414a12.013,12.013,0,0,0-.736-1.206,7.038,7.038,0,0,0-.615-.752c-.027-.03-.048-.064-.076-.093s-.084-.076-.124-.116-.094-.1-.146-.154l0,0c-.078-.074-.165-.144-.247-.216-.06-.052-.119-.107-.181-.158-.2-.164-.406-.323-.625-.474l-.031-.023-2.625-1.79c.1-.1.209-.2.309-.3.069-.07.132-.141.2-.211.145-.153.29-.306.427-.463.078-.089.153-.18.228-.27.117-.14.235-.279.346-.421.078-.1.153-.2.228-.3s.137-.176.2-.266c.024-.033.043-.068.067-.1.036-.053.078-.1.113-.157q.222-.327.42-.66c.006-.011.011-.022.018-.033.172-.29.326-.584.471-.879.023-.045.051-.089.072-.134l.005-.01c.148-.312.277-.627.395-.942.033-.089.063-.178.094-.267.041-.119.088-.238.125-.357.045-.146.081-.293.12-.439.013-.051.029-.1.041-.151.065-.262.121-.525.164-.786.009-.055.013-.11.021-.166,0-.022.01-.045.013-.068.008-.064.012-.126.019-.19.014-.119.027-.237.037-.355,0-.04.009-.081.012-.121s0-.092,0-.139c0-.091.014-.183.016-.274,0-.108,0-.215-.007-.323,0-.085,0-.17-.005-.255-.013-.27-.035-.54-.073-.807,0,0,0,0,0-.008-.013-.085-.027-.169-.041-.254-.037-.208-.082-.415-.136-.619a9.219,9.219,0,0,0-.362-1.087c-.012-.032-.02-.067-.033-.1s-.023-.047-.032-.071-.025-.067-.039-.1c-.056-.129-.121-.252-.182-.377-.043-.086-.081-.175-.126-.26-.009-.018-.017-.038-.027-.056l-.009-.006h0l.009.006c-.087-.161-.183-.315-.28-.47-.034-.055-.064-.112-.1-.167q-.213-.326-.453-.635l-.013-.016c-.058-.073-.124-.142-.183-.214-.117-.139-.233-.28-.358-.413-.007-.007-.012-.015-.019-.022-.029-.03-.062-.056-.091-.086-.148-.151-.3-.3-.454-.445-.032-.029-.071-.052-.1-.081a10.436,10.436,0,0,0-.975-.763l-.016-.013-1.168-.8-1.593-1.087.007.005-.008-.005a10.516,10.516,0,0,1,.995.78c.189.166.371.337.544.514.039.04.083.078.122.119.118.126.226.258.336.389.04.047.082.092.12.14l-.944-.644-1.38-.942-.077-.052-.013-.009.078.053h0l-.078-.053c-.122-.082-.257-.151-.383-.228-.188-.115-.373-.233-.57-.338-.019-.011-.037-.024-.057-.034l-.039-.021-.036-.019.047.032h0l-.045-.031h0c-.139-.072-.289-.133-.432-.2-.175-.083-.347-.168-.528-.244s-.372-.144-.56-.214-.367-.14-.556-.2c-.036-.012-.069-.027-.1-.038h0c-.139-.044-.277-.087-.418-.128-.085-.024-.174-.042-.26-.065-.224-.061-.451-.117-.679-.17-.189-.044-.378-.088-.571-.126-.236-.047-.475-.087-.716-.126-.127-.021-.251-.049-.38-.067l-.02,0c-.06-.009-.122-.012-.182-.02-.27-.036-.543-.063-.817-.089-.177-.017-.352-.037-.531-.051-.305-.022-.614-.033-.922-.044-.13,0-.259-.016-.39-.018l0,0c-.039,0-.077,0-.116,0-.092,0-.177,0-.263,0l0,0-.048,0c-.187,0-.362.011-.529.022l-.116.008c-.166.012-.33.027-.492.045l.536.365-.115.011c-.188.017-.376.032-.564.057-.114.015-.229.037-.343.055-.169.027-.339.052-.508.086-.121.024-.241.053-.362.08-.161.037-.323.072-.483.114-.124.032-.246.069-.369.1-.156.046-.311.091-.466.141-.124.04-.246.085-.369.129-.151.054-.3.108-.452.167-.123.049-.245.1-.366.152-.147.062-.294.126-.438.193-.12.056-.239.113-.358.172-.143.071-.285.142-.424.217q-.176.094-.35.192-.205.116-.407.239c-.113.069-.226.139-.338.211-.132.085-.262.173-.39.262-.109.075-.218.15-.323.228-.127.092-.25.188-.374.284-.1.08-.2.16-.3.242-.121.1-.239.2-.355.307-.1.084-.192.168-.285.254-.115.107-.225.219-.336.329-.088.088-.177.175-.263.265-.109.117-.213.236-.317.355-.078.09-.159.177-.233.268-.107.128-.205.261-.3.393-.065.086-.135.171-.2.258l-.02.027c-.148.209-.289.422-.42.638a8.171,8.171,0,0,0-.391.726l-.01.018c-.008.016-.012.035-.02.051a9.932,9.932,0,0,0-.437,1.127c-.013.043-.034.08-.047.123s-.021.081-.033.121c-.03.1-.057.208-.085.314-.041.158-.08.316-.115.477-.023.109-.045.219-.065.329-.014.078-.033.154-.046.233s-.019.166-.031.248c-.018.124-.033.247-.047.371-.017.162-.03.324-.04.486-.008.123-.016.245-.019.368,0,.056-.009.11-.009.166,0,.137,0,.273.005.41,0,.078,0,.157,0,.235.01.277.028.554.06.83l.018.147c.017.113.054.238.08.357s.048.246.085.375c.042.15.1.3.152.458.047.135.088.267.142.4.01.025.016.049.026.075.092.226.2.455.306.684.025.051.051.1.077.153.122.247.252.492.389.734.016.027.03.054.045.082.15.259.308.512.469.759l.1.156c.165.244.332.482.5.7.006.009.013.017.02.026.165.213.33.41.494.594.036.04.07.08.105.118s.063.073.094.105c.143.15.284.286.421.407l.418.367-.48.277c-.305.173-.6.353-.893.538-.1.061-.189.126-.285.189-.19.125-.38.25-.563.38-.111.078-.217.16-.326.24-.16.119-.321.237-.475.359-.11.087-.216.176-.323.265-.145.119-.288.239-.428.361-.1.092-.206.187-.308.28-.131.122-.26.244-.385.367-.1.1-.194.2-.289.293-.118.124-.234.248-.346.374-.09.1-.178.2-.264.3-.106.126-.208.252-.307.38-.08.1-.16.206-.237.31-.032.044-.069.089-.1.133-.111.154-.215.31-.313.466-.2.32-.387.646-.561.973-.044.083-.087.167-.129.251s-.1.2-.152.294c-.074.156-.137.314-.2.471-.042.1-.088.194-.127.292-.138.34-.264.682-.369,1.026l0,.008-.007.027c-.1.33-.183.66-.255.991-.021.1-.039.2-.058.294s-.047.219-.065.329c-.025.152-.04.3-.058.456-.01.085-.023.169-.032.253-.031.307-.053.613-.058.919,0,.026,0,.052,0,.078,0,.087,0,.173.005.26,0,.257.014.513.035.767.01.117.023.232.036.348s.017.207.032.309c.009.06.022.119.031.179l-.45-.307.022.165c.006.04.019.079.025.12a10.93,10.93,0,0,0,.222,1.077c.01.038.017.078.028.116.006.019.009.039.014.058l.006.021.009.005h0l-.009-.005a10.626,10.626,0,0,0,.355,1.036c.011.03.019.062.031.092.044.107.1.208.145.314s.1.243.156.361c.025.05.054.1.079.15.041.081.084.16.127.24.11.205.228.407.353.606.044.069.085.141.13.209.017.027.032.054.049.079l.015.01h0l-.015-.01c.124.186.261.365.4.546.044.058.084.12.13.178.192.243.395.481.61.711l.012.008h0l-.012-.008.052.055.018.022.02.018.086.091.034.024h0l-.035-.024c.068.071.152.132.222.2.25.243.506.48.782.706.043.035.078.075.121.109l.009.008.231.158h0l-.232-.159q.362.289.755.557l2.736,1.868a14.9,14.9,0,0,1-2.981-1.541l.006,0-.007,0,2.76,1.884a16.013,16.013,0,0,0,5.429,2.309c.5.115,1,.2,1.514.28.064.01.126.026.191.035.085.011.173.018.259.029.154.02.31.037.466.053.1.01.2.025.3.034.176.016.353.027.529.039l.052,0,.049,0q.531.031,1.069.033.618,0,1.234-.03c.118-.006.234-.018.352-.027.251-.017.5-.031.752-.057.04,0,.08-.011.121-.015.091-.01.182-.024.273-.035.185-.022.37-.042.554-.069l-.012-.008h0l.012.008c.093-.014.186-.034.279-.049.184-.03.369-.063.552-.1.22-.041.439-.084.658-.132.192-.042.383-.087.573-.134.113-.027.227-.049.339-.078s.2-.06.307-.089q.244-.066.485-.139c.221-.066.439-.137.657-.209.159-.053.316-.105.473-.162.065-.023.131-.043.2-.067.1-.038.2-.084.3-.124.267-.1.531-.209.792-.322q.239-.1.475-.212c.253-.116.5-.236.749-.361.153-.077.305-.154.456-.235.254-.136.5-.279.747-.424.133-.078.266-.153.4-.233.3-.188.6-.385.891-.588.056-.039.116-.074.171-.113l.037-.026.038-.028c.074-.052.148-.1.22-.159.111-.082.214-.17.323-.254.17-.132.34-.262.5-.4.141-.116.275-.236.411-.356.161-.14.321-.281.475-.427.131-.123.256-.249.382-.376.149-.149.3-.3.44-.452.12-.131.236-.264.352-.4.135-.156.269-.312.4-.473.041-.051.088-.1.128-.153.1-.13.2-.264.292-.4.043-.059.092-.115.133-.174.016-.023.03-.046.046-.07s.032-.042.047-.064q.217-.312.415-.633l.01-.017,0-.006.024-.039q.076-.125.149-.25l.025-.043c.091-.158.178-.316.263-.476q.151-.288.29-.578c.054-.114.1-.23.149-.345.039-.085.086-.171.123-.257.023-.054.037-.109.06-.163.176-.427.339-.855.471-1.284l0-.01v0c.032-.1.063-.21.093-.316.046-.162.089-.325.129-.486.006-.026.011-.052.017-.077s.013-.059.02-.089c.025-.108.051-.216.072-.324.011-.054.014-.108.025-.162.023-.125.054-.249.074-.372.042-.256.071-.511.1-.767,0-.026.007-.053.01-.08C410.51,264.195,410.53,263.881,410.536,263.567Zm-11.2,2.874c-.093.116-.189.228-.288.339-.058.065-.117.131-.177.193-.109.114-.225.222-.34.328-.054.05-.106.1-.161.148-.174.15-.354.293-.54.424h0a13.306,13.306,0,0,1-7.515,2.164q-.448,0-.883-.033a11.482,11.482,0,0,1-3.7-.854c-.12-.129-.237-.261-.345-.4a5.6,5.6,0,0,1-.425-.622c-.043-.071-.075-.146-.113-.218-.029-.054-.054-.109-.081-.164l2.658,1.815a6.67,6.67,0,0,1-.683-.541c-.061-.055-.118-.11-.177-.167a6,6,0,0,1-.553-.595,4.614,4.614,0,0,1-.336-.491c-.031-.05-.059-.1-.087-.152a4.365,4.365,0,0,1-.2-.4c-.019-.044-.04-.086-.058-.13a4.751,4.751,0,0,1-.158-.464l-.006-.017a4.508,4.508,0,0,1-.1-.493c-.005-.034-.008-.069-.011-.1a4.46,4.46,0,0,1-.039-.611c0-.025,0-.051,0-.077a4.6,4.6,0,0,1,.051-.571c.008-.049.018-.1.027-.147.027-.146.061-.291.1-.435.014-.047.025-.095.04-.141a4.607,4.607,0,0,1,.222-.564c.013-.029.029-.056.043-.085a4.974,4.974,0,0,1,.4-.684c.01-.014.022-.027.032-.041a5.275,5.275,0,0,1,.366-.447c.039-.043.078-.085.119-.127a5.684,5.684,0,0,1,.48-.445,11.909,11.909,0,0,1,7.414-2.114,16.9,16.9,0,0,1,2.422.184,9.257,9.257,0,0,1,3.6,1.313c.057.128.1.258.148.388.027.078.056.154.079.233.032.109.055.22.078.33.016.076.035.15.047.226s.013.133.02.2a4.585,4.585,0,0,1,.03.466c0,.088,0,.177-.01.266-.006.115-.015.231-.031.347-.012.092-.028.185-.046.277-.023.122-.053.245-.086.367-.024.086-.048.171-.077.257a5.338,5.338,0,0,1-.221.565c-.021.046-.036.092-.058.137a6.769,6.769,0,0,1-.348.634c-.111.18-.234.352-.36.522C399.447,266.3,399.392,266.373,399.337,266.442Zm2.634-30.277.1.047c.073.069.149.136.22.208s.147.148.217.225c.087.1.17.194.253.292.019.023.038.046.056.069l-1.871-1.277c.169.063.34.123.5.193S401.8,236.083,401.971,236.165Zm2.467,17.213q.21.184.4.379c.065.067.13.134.192.2.151.163.284.335.415.508l-1.517-1.036-.189-.129-.3-.205c.1-.091.193-.184.288-.276.181.128.358.26.524.4C404.317,253.271,404.377,253.326,404.438,253.379Zm.753,1.4-1.643-1.122c.365.128.717.276,1.061.433q.073.074.142.15A6.684,6.684,0,0,1,405.191,254.777Zm-23.729,21.176q-.724-.284-1.386-.62c-.121-.109-.246-.216-.362-.328s-.256-.23-.373-.353-.207-.24-.312-.36ZM398.2,259.217c.235.066.466.139.691.22.105.038.21.076.313.117.071.028.135.061.2.091.123.135.233.276.34.418.054.072.116.141.167.216a5.027,5.027,0,0,1,.409.718l-2.586-1.764c-.107-.073-.23-.134-.344-.2.167.034.337.062.5.1C398,259.158,398.1,259.189,398.2,259.217Zm-2.629-11.745c-.1.094-.2.188-.3.277-.131.11-.27.212-.411.314-.112.082-.221.167-.338.243-.149.1-.307.187-.464.276-.12.068-.237.141-.362.2-.167.085-.34.158-.514.232-.123.053-.243.112-.368.159-.185.071-.375.125-.563.182-.119.036-.237.079-.357.11-.21.054-.422.089-.633.126-.1.017-.2.044-.3.057a6.928,6.928,0,0,1-.93.061c-.088,0-.17-.014-.256-.017-.1-.082-.2-.155-.288-.245-.036-.037-.074-.071-.109-.109-.088-.1-.17-.2-.25-.3-.04-.051-.083-.1-.121-.154a4.509,4.509,0,0,1-.311-.509,4.559,4.559,0,0,1-.191-.423c-.04-.1-.071-.206-.1-.309-.018-.058-.04-.115-.056-.174a4.131,4.131,0,0,1-.1-.49s0-.01,0-.016a4.129,4.129,0,0,1-.037-.58c0-.062,0-.125.005-.187,0-.109.015-.217.029-.325.008-.067.017-.134.03-.2.018-.1.041-.19.066-.283.017-.065.032-.13.054-.193.036-.11.08-.217.126-.323.024-.056.044-.114.071-.169a3.883,3.883,0,0,1,.339-.549c.032-.043.068-.083.1-.125a4.016,4.016,0,0,1,.314-.354c.052-.052.106-.1.161-.152a4.453,4.453,0,0,1,.357-.289c.056-.041.11-.084.169-.123a5.15,5.15,0,0,1,.591-.344,6.369,6.369,0,0,1,2.828-.586,7.836,7.836,0,0,1,2.955.6c.077.032.164.054.239.089.033.015.058.035.091.051.09.044.168.1.255.143.008.022.015.043.022.064.028.087.055.173.075.261.016.068.03.135.043.2s.024.149.032.224a3.16,3.16,0,0,1,.023.355c0,.061,0,.121,0,.182,0,.093-.014.188-.025.281-.008.07-.014.141-.026.211-.017.1-.043.193-.068.29-.017.066-.031.132-.052.2a4.133,4.133,0,0,1-.2.524,4.753,4.753,0,0,1-.254.464,5.532,5.532,0,0,1-.37.5c-.083.1-.164.206-.255.306C395.812,247.245,395.692,247.359,395.572,247.473Zm.272-5.737c.181.052.354.126.531.189.024.032.052.061.075.094a4.075,4.075,0,0,1,.314.517,4.212,4.212,0,0,1,.173.4c.005.016.01.031.016.046l-2.153-1.469c.27.043.539.1.807.166C395.685,241.7,395.765,241.714,395.844,241.736Zm-7.376,7.757c-.039-.051-.082-.1-.119-.151a5.289,5.289,0,0,1-.368-.6c-.051-.1-.091-.2-.135-.3l1.828,1.248c-.154-.009-.311-.01-.461-.031A5.656,5.656,0,0,1,388.467,249.493Z" transform="translate(-1.05 -0.862)" fill="url(#linear-gradient)"/>
    <g id="Group_28799" data-name="Group 28799" transform="translate(380.4 238.643)">
      <path id="Path_40717" data-name="Path 40717" d="M412.856,264.323a5.312,5.312,0,0,1-3.992-2.8,4.868,4.868,0,0,1-.105-4.394,5.157,5.157,0,0,1,2.386-2.292,7.159,7.159,0,0,1,3.186-.67c2.265.012,5.023.95,6.077,3.031a3.7,3.7,0,0,1-.219,3.784,8.132,8.132,0,0,1-6.518,3.393A6.15,6.15,0,0,1,412.856,264.323Zm-3.393-6.839a4.067,4.067,0,0,0,.112,3.672,4.5,4.5,0,0,0,3.395,2.38,5.307,5.307,0,0,0,.708.05,7.286,7.286,0,0,0,5.836-3.02,2.959,2.959,0,0,0,.183-3c-.766-1.521-2.98-2.585-5.373-2.6a6.368,6.368,0,0,0-2.828.586,4.352,4.352,0,0,0-2.033,1.935Z" transform="translate(-405.093 -254.169)" fill="url(#linear-gradient-2)"/>
      <path id="Path_40718" data-name="Path 40718" d="M410.884,308.919c2.934.445,5.322,1.968,6.234,3.969a4.812,4.812,0,0,1-.469,4.706,7.459,7.459,0,0,1-2.027,2.166,13.306,13.306,0,0,1-7.515,2.164c-3.309-.018-6.115-1.171-7.692-3.169a5.443,5.443,0,0,1,1.017-7.73,12.657,12.657,0,0,1,7.916-2.3A17.4,17.4,0,0,1,410.884,308.919Zm5.1,8.257a4.047,4.047,0,0,0,.413-3.955c-.8-1.765-2.961-3.108-5.63-3.515a16.877,16.877,0,0,0-2.42-.185,11.931,11.931,0,0,0-7.416,2.115,4.678,4.678,0,0,0-.886,6.629c1.429,1.8,4.007,2.848,7.072,2.864a12.512,12.512,0,0,0,7.057-2.016,6.836,6.836,0,0,0,1.81-1.937Z" transform="translate(-398.24 -291.39)" fill="url(#linear-gradient-3)"/>
    </g>
    <path id="Path_40719" data-name="Path 40719" d="M405.662,256.018a9.281,9.281,0,0,0-5.309-3.327l-.734-.2.583-.49c3.736-3.115,5.479-7.241,4.559-10.753-1.668-6.415-9.221-7.272-12.525-7.33-.04,0-.08,0-.2-.009a14.4,14.4,0,0,0-11.655,6.479,10.831,10.831,0,0,0-1.328,6.634,12.529,12.529,0,0,0,3.532,6.337l.418.367-.48.277a16.672,16.672,0,0,0-5.842,5.236,12.156,12.156,0,0,0-1.863,8.947,10.37,10.37,0,0,0,.548,1.816c1.455,3.571,4.736,6.108,9.243,7.155a19.319,19.319,0,0,0,4.248.488c7.239.039,14.311-3.759,17.189-9.232C408.294,264.126,408.154,259.61,405.662,256.018ZM385.775,243.31a5.157,5.157,0,0,1,2.386-2.292,7.159,7.159,0,0,1,3.186-.67c2.265.012,5.023.95,6.077,3.031a3.7,3.7,0,0,1-.219,3.784,8.131,8.131,0,0,1-6.518,3.393,6.14,6.14,0,0,1-.814-.054,5.312,5.312,0,0,1-3.992-2.8A4.868,4.868,0,0,1,385.775,243.31ZM384.3,259.983a12.657,12.657,0,0,1,7.916-2.3,17.393,17.393,0,0,1,2.535.193c2.934.445,5.322,1.968,6.234,3.969a4.812,4.812,0,0,1-.469,4.706,7.457,7.457,0,0,1-2.027,2.166,13.306,13.306,0,0,1-7.515,2.164c-3.309-.018-6.115-1.171-7.692-3.169A5.443,5.443,0,0,1,384.3,259.983Z" transform="translate(-1.709 -1.706)" fill="url(#linear-gradient-4)"/>
    <path id="Path_40720" data-name="Path 40720" d="M392.7,233.941c3.3.058,10.857.915,12.525,7.33.92,3.511-.823,7.638-4.559,10.753l-.583.49.734.2a9.28,9.28,0,0,1,5.309,3.327c2.492,3.591,2.632,8.108.38,12.4-2.878,5.472-9.95,9.271-17.189,9.232a19.317,19.317,0,0,1-4.248-.488c-4.507-1.047-7.787-3.584-9.243-7.155a10.372,10.372,0,0,1-.548-1.816,19.506,19.506,0,0,0,14.8,7.185,15.732,15.732,0,0,0,2.607-.2c6.254-1.018,12.3-5.695,12.456-12.428.135-5.753-5.873-8.44-10.835-9.046,2.882-1.867,6.185-3.588,7.663-6.8s-.148-6.9-2.444-9.2A15.249,15.249,0,0,0,392.7,233.941Z" transform="translate(-2.174 -1.726)" opacity="0.5" fill="url(#linear-gradient-5)" style="mix-blend-mode: multiply;isolation: isolate"/>
    <path id="Path_40721" data-name="Path 40721" d="M404.6,253.851a9.6,9.6,0,0,0-5.045-3.426c3.588-3.258,5.217-7.451,4.27-11.084-1.294-4.944-6.179-7.833-13.5-7.93a15.224,15.224,0,0,0-12.338,6.861,11.618,11.618,0,0,0-1.441,7.134,13.369,13.369,0,0,0,3.4,6.473,17.167,17.167,0,0,0-5.655,5.229A12.509,12.509,0,0,0,372.92,268.6c1.547,3.815,5.025,6.525,9.79,7.631a20.111,20.111,0,0,0,4.426.51c7.525.041,14.885-3.934,17.9-9.664C407.434,262.518,407.276,257.694,404.6,253.851Zm-29.634,3.685a16.672,16.672,0,0,1,5.842-5.236l.48-.277-.418-.367a12.529,12.529,0,0,1-3.532-6.337,10.831,10.831,0,0,1,1.328-6.634,14.443,14.443,0,0,1,11.86-6.469c3.3.057,10.857.915,12.525,7.33.92,3.511-.823,7.638-4.559,10.753l-.583.49.734.2a9.281,9.281,0,0,1,5.309,3.327c2.492,3.591,2.632,8.108.38,12.4-2.878,5.472-9.95,9.271-17.189,9.232a19.32,19.32,0,0,1-4.248-.488c-4.507-1.047-7.787-3.584-9.243-7.155a10.376,10.376,0,0,1-.548-1.816A12.157,12.157,0,0,1,374.967,257.536Z" transform="translate(0)" fill="url(#linear-gradient-6)"/>
  </g>
</svg>
