<svg xmlns="http://www.w3.org/2000/svg" xmlns:xlink="http://www.w3.org/1999/xlink" width="38.23" height="50.677" viewBox="0 0 38.23 50.677">
  <defs>
    <linearGradient id="linear-gradient" x1="0.673" y1="0.059" x2="0.204" y2="1.043" gradientUnits="objectBoundingBox">
      <stop offset="0.453" stop-color="#1f2c66"/>
      <stop offset="0.934"/>
    </linearGradient>
    <linearGradient id="linear-gradient-2" x1="-0.564" y1="0.32" x2="1.252" y2="0.65" gradientUnits="objectBoundingBox">
      <stop offset="0" stop-color="#be73ff"/>
      <stop offset="0.852" stop-color="#725495"/>
    </linearGradient>
    <linearGradient id="linear-gradient-3" x1="0" y1="0.5" x2="1" y2="0.5" xlink:href="#linear-gradient-2"/>
    <linearGradient id="linear-gradient-4" x1="-0.707" y1="-0.468" x2="2.187" y2="1.846" gradientUnits="objectBoundingBox">
      <stop offset="0" stop-color="#745cff"/>
      <stop offset="0.812" stop-color="#334991"/>
    </linearGradient>
    <linearGradient id="linear-gradient-5" x1="-0.194" y1="0.153" x2="1.066" y2="0.86" xlink:href="#linear-gradient-4"/>
  </defs>
  <g id="_9" data-name="9" transform="translate(-536.155 -231.028)">
    <path id="Path_40722" data-name="Path 40722" d="M549.735,271.49a2.331,2.331,0,0,0-.261-.28l.057.048a2.191,2.191,0,0,1,.2.232Zm5.4-14.129-.013-.008v0l.014.011Zm3.237,1.092h-.025a5.208,5.208,0,0,1-1.6-.271l-.091-.106c-.093-.107-.188-.212-.275-.325-.077-.1-.144-.2-.216-.3-.082-.117-.167-.231-.244-.352-.066-.1-.123-.212-.184-.318-.072-.124-.146-.247-.211-.374-.055-.107-.1-.216-.15-.324-.06-.13-.122-.26-.175-.392-.066-.166-.12-.333-.174-.5-.029-.088-.065-.175-.089-.263a7.378,7.378,0,0,1-.178-.768c-.029-.168-.045-.329-.062-.489-.008-.075-.018-.151-.024-.225-.012-.158-.016-.312-.016-.464l0-.124,0-.073a6.159,6.159,0,0,1,.062-.7l.031-.186a5.369,5.369,0,0,1,.139-.6l.017-.063a5.287,5.287,0,0,1,.245-.629l.063-.13a5.179,5.179,0,0,1,.393-.669l.062-.084a5.078,5.078,0,0,1,.5-.591l.061-.058a4.955,4.955,0,0,1,.563-.478l.048-.034a4.791,4.791,0,0,1,.6-.363l.029-.013a3.961,3.961,0,0,1,.6-.244,5.905,5.905,0,0,1,1.763-.242h.043a8.833,8.833,0,0,1,3.214.655,5.657,5.657,0,0,1,1.331,2.5c.792,3.366-1.734,6.535-4.58,7.386a5.2,5.2,0,0,1-1.471.214Zm3.326-11.289-.193-.12.013,0,.18.117Zm7.979-5.761,0,0c-.166-.169-.331-.338-.508-.506l.076.07c.153.146.293.293.438.439Zm-.835-.8c-.183-.168-.367-.335-.557-.5l.179.155c.129.114.252.23.378.345Zm-1-.868c-.186-.153-.375-.306-.569-.453l.075.054c.088.068.174.137.261.206s.156.129.233.192Zm-9.439-3.5c-5.567,0-11.027,2.88-13.6,7.19-3.571,5.978-1.47,15.281,4.416,19.517.193.14.4.265.6.394-.114-.072-.234-.139-.346-.215l2.857,1.949a14.546,14.546,0,0,0,8.085,2.413h.082a15.587,15.587,0,0,0,6.144-1.249c-.289,2.947-1.878,6.042-4.729,7.356a8.686,8.686,0,0,1-3.648.75h-.064a15.108,15.108,0,0,1-6.823-1.881l-2.151-1.468.094.08a1.972,1.972,0,0,0-1.188-.427h-.006a2.489,2.489,0,0,0-1.805.872c-1.574,1.642-1.682,5.462-.624,7.222a6.893,6.893,0,0,0,2.243,2.2l-.22-.132,0,0h0l2.855,1.948a14.479,14.479,0,0,0,4.8,1.958,17.84,17.84,0,0,0,4.062.487h.1c.393,0,.784-.018,1.176-.043.127-.009.253-.021.38-.032.309-.027.618-.062.924-.106.128-.018.255-.035.381-.055.393-.064.784-.139,1.171-.229l.072-.014c.41-.1.814-.213,1.216-.339.116-.036.23-.076.344-.115.3-.1.588-.206.876-.321.118-.046.237-.092.354-.142.347-.147.692-.3,1.028-.471l.117-.056.027-.013q.269-.138.533-.284l.273-.156c.081-.048.16-.1.24-.15l.246-.151c.093-.058.188-.113.279-.172l.181-.121.109-.074c.154-.106.307-.216.458-.326q.646-.475,1.24-1h0q.379-.332.735-.68l.191-.2c.206-.206.4-.418.6-.632.109-.121.23-.235.337-.358.07-.08.133-.164.2-.245.083-.1.164-.2.246-.3s.172-.2.254-.309l-.012-.008.012.008c.082-.106.153-.22.234-.328.109-.145.226-.283.331-.431.075-.106.137-.221.211-.328.085-.126.182-.245.265-.372.114-.176.227-.354.337-.533.074-.12.143-.244.215-.365l.086-.146c.045-.076.091-.151.134-.228.255-.453.491-.914.717-1.383l.042-.08c.04-.085.072-.173.111-.257.126-.27.254-.539.369-.814.062-.148.114-.3.173-.447.068-.167.133-.334.2-.5q.244-.649.454-1.306c.027-.089.063-.174.09-.261l.021-.081c.177-.577.333-1.161.471-1.747.036-.148.066-.3.1-.446.052-.235.109-.469.156-.706q.042-.215.081-.428c.022-.123.038-.246.059-.368l.039-.2c.013-.076.016-.151.029-.227.1-.651.186-1.3.245-1.949l.01-.145c.055-.624.086-1.245.1-1.86l.011-.215,0-.119c0-.084.006-.168.006-.251q0-.231,0-.46c0-.32-.024-.632-.037-.947-.009-.211-.012-.423-.025-.63-.042-.672-.1-1.334-.186-1.976-.023-.167-.045-.332-.069-.5-.031-.217-.072-.418-.107-.63-.059-.365-.116-.729-.184-1.082-.053-.286-.114-.563-.174-.841-.071-.337-.145-.672-.224-1-.067-.271-.138-.534-.21-.8-.087-.313-.175-.624-.269-.925-.079-.253-.162-.5-.246-.746-.1-.291-.2-.578-.312-.858-.045-.115-.082-.24-.128-.353-.059-.145-.126-.28-.187-.422-.079-.183-.159-.367-.241-.545-.127-.275-.261-.541-.4-.8-.084-.162-.167-.326-.253-.484-.155-.279-.319-.546-.483-.812-.08-.127-.154-.259-.237-.384-.252-.381-.513-.751-.788-1.1-.174-.224-.37-.46-.574-.7l-.179-.205c-.167-.191-.344-.385-.528-.582l-.12-.131-.054-.054q-.338-.354-.706-.709l-.152-.141q-.3-.286-.622-.568l-.268-.231c-.193-.164-.389-.325-.589-.484-.089-.07-.177-.141-.267-.211-.286-.221-.577-.436-.876-.64l-2.855-1.949c.13.089.254.187.383.28a13.617,13.617,0,0,0-8.363-2.735Z" transform="translate(-4.624 -3.496)" fill="#b4b4b4" style="mix-blend-mode: multiply;isolation: isolate"/>
    <g id="Group_28802" data-name="Group 28802" transform="translate(537.015 231.442)">
      <path id="Path_40723" data-name="Path 40723" d="M564.078,270.663l2.855,1.949a6.327,6.327,0,0,0,3.549,1.158,5.772,5.772,0,0,0,1.732-.257c.2-.059.392-.128.585-.206.061-.025.12-.055.18-.082.131-.058.263-.114.392-.18.072-.036.142-.08.213-.119.114-.063.229-.125.34-.195.077-.047.149-.1.224-.15.1-.07.207-.138.308-.213.076-.056.148-.117.221-.176.1-.077.19-.152.282-.232.072-.064.141-.132.212-.2.089-.083.177-.166.262-.254.067-.07.13-.143.2-.215.082-.091.163-.182.241-.277.061-.075.119-.152.177-.229s.106-.131.156-.2c.022-.033.042-.067.064-.1.056-.081.108-.164.161-.247.066-.1.13-.208.191-.315.05-.088.1-.179.143-.269.034-.066.072-.13.1-.2.013-.027.02-.057.033-.084a6.98,6.98,0,0,0,.327-.837c0-.011.009-.021.013-.032.012-.039.017-.081.028-.121a6.429,6.429,0,0,0,.152-.644c.008-.043.023-.085.031-.129s.006-.093.013-.138q.041-.3.054-.6c0-.056.014-.111.015-.168,0-.018,0-.038,0-.057a6.426,6.426,0,0,0-.056-.888c0-.024,0-.049,0-.073q-.039-.266-.1-.535a6.2,6.2,0,0,0-.269-.843c-.013-.031-.019-.066-.032-.1-.022-.053-.049-.1-.072-.153q-.063-.142-.131-.28c-.049-.1-.1-.194-.155-.289s-.1-.175-.155-.261-.118-.181-.18-.27-.116-.165-.178-.245-.136-.17-.207-.253-.127-.15-.194-.223c-.024-.026-.047-.056-.072-.082s-.072-.065-.105-.1q-.2-.2-.414-.389c-.055-.049-.109-.1-.166-.145-.2-.163-.4-.32-.61-.464l-.645-.44-2.21-1.508-.014-.008a9.235,9.235,0,0,0-.926-.544c-.057-.03-.114-.061-.172-.089a9.8,9.8,0,0,0-.956-.408c-.027-.01-.053-.024-.08-.034-.051-.018-.1-.03-.152-.046-.19-.064-.379-.121-.571-.174-.081-.022-.162-.045-.243-.065-.253-.062-.507-.116-.76-.157l-.034-.007h-.005c-.174-.028-.347-.045-.519-.063-.052,0-.1-.014-.156-.018q-.337-.028-.667-.03a7.117,7.117,0,0,0-2.051.27,5.138,5.138,0,0,0-.747.3c-.028.014-.056.025-.083.039a5.467,5.467,0,0,0-.672.412c-.035.025-.071.049-.105.075a5.642,5.642,0,0,0-.6.522c-.033.032-.064.065-.1.1a5.832,5.832,0,0,0-.536.64c-.008.011-.018.019-.025.03s-.021.038-.033.056a6,6,0,0,0-.477.814c0,.006-.008.011-.01.018s-.013.039-.023.057a6.144,6.144,0,0,0-.27.693c-.01.031-.026.059-.035.09s-.007.036-.013.053a6.487,6.487,0,0,0-.179.767c0,.018-.009.034-.012.051s0,.067-.009.1a6.971,6.971,0,0,0-.07.779c0,.035-.008.067-.009.1,0,.02,0,.04,0,.06,0,.086,0,.175.006.262,0,.122.006.243.016.368.008.095.019.192.03.289s.015.176.028.266l.034.211a8.032,8.032,0,0,0,.195.838c.027.1.066.192.1.288.06.183.118.366.191.548.007.016.01.033.017.049.056.135.124.267.185.4.052.111.1.224.154.334.081.157.172.309.262.462.059.1.112.2.175.3.1.152.2.3.311.445.067.093.129.19.2.281.107.138.225.266.339.4.081.093.157.19.241.28l.012.013c.135.143.281.273.425.405.067.062.13.131.2.19A7.881,7.881,0,0,0,564.078,270.663Zm7.484-10.906c.189.051.378.109.565.172.078.026.156.053.234.081.177.065.349.148.523.223l.055.057c.066.071.129.145.191.22s.144.171.212.26.115.155.17.235.127.185.188.28.1.167.15.253c.034.059.065.121.1.181l-2.837-1.936c-.1-.07-.212-.134-.319-.2.175.033.349.065.523.107C571.4,259.711,571.48,259.734,571.562,259.757Zm-6.185,11.453c-.121-.138-.245-.275-.358-.42-.081-.1-.152-.214-.227-.321-.095-.133-.193-.264-.281-.4-.037-.058-.067-.119-.1-.177.037.027.072.059.109.084l2.648,1.807a6.053,6.053,0,0,1-1.6-.355C565.5,271.357,565.441,271.281,565.378,271.21Zm2.25.612c-.148,0-.29-.026-.434-.038-.15-.109-.3-.219-.442-.34-.068-.059-.131-.126-.2-.187-.125-.115-.251-.229-.368-.354-.1-.1-.183-.211-.273-.317s-.168-.19-.246-.291-.162-.227-.242-.341-.151-.207-.219-.315-.137-.235-.2-.353-.132-.224-.191-.339-.107-.231-.16-.347-.116-.246-.166-.371c-.069-.172-.126-.347-.182-.521-.026-.081-.058-.161-.081-.242a7.3,7.3,0,0,1-.178-.77c-.028-.159-.043-.311-.059-.464-.01-.085-.022-.172-.027-.254-.011-.15-.014-.295-.015-.438,0-.049,0-.1,0-.148,0-.022,0-.042,0-.063a5.865,5.865,0,0,1,.063-.71c.009-.062.019-.124.029-.184a5.422,5.422,0,0,1,.14-.6c.006-.021.01-.042.017-.063a5.3,5.3,0,0,1,.243-.626c.021-.046.044-.091.066-.137a5.255,5.255,0,0,1,.392-.666c.02-.028.041-.055.062-.083a5.042,5.042,0,0,1,.5-.591c.02-.02.041-.038.061-.059a5.2,5.2,0,0,1,.562-.477l.051-.034a4.821,4.821,0,0,1,.6-.363l.03-.013a3.961,3.961,0,0,1,.6-.244,5.946,5.946,0,0,1,1.806-.242,8.846,8.846,0,0,1,4.783,1.483c.02.038.042.075.061.114.044.088.086.178.126.27s.073.174.108.262a6.447,6.447,0,0,1,.268.838c.047.2.078.4.1.6a6.381,6.381,0,0,1,.057.9c0,.067-.008.132-.011.2a6.393,6.393,0,0,1-.058.642c-.012.078-.024.155-.038.232a6.393,6.393,0,0,1-.154.66c-.014.051-.025.1-.041.155a7.332,7.332,0,0,1-.329.838q-.062.134-.13.265c-.05.1-.1.195-.155.29s-.114.191-.173.285-.119.189-.183.281-.127.176-.193.263-.132.176-.2.26-.147.171-.222.255-.14.158-.212.233-.166.162-.25.242-.146.141-.223.208-.182.151-.274.226c-.076.061-.151.124-.229.182-.1.073-.2.14-.3.208-.077.052-.152.106-.23.155-.108.067-.22.127-.33.189-.074.041-.147.086-.223.125-.125.064-.252.118-.38.175-.064.029-.127.061-.191.087-.193.078-.389.147-.585.206A5.77,5.77,0,0,1,567.628,271.822Z" transform="translate(-553.196 -249.189)" fill="#1f2c66"/>
      <path id="Path_40724" data-name="Path 40724" d="M558.306,339.2l-.171-.2c-.01-.01-.022-.017-.032-.027a2.113,2.113,0,0,0-.316-.269l-2.855-1.949a2.092,2.092,0,0,1,.313.267,2.365,2.365,0,0,1,.205.232Z" transform="translate(-549.619 -302.406)" fill="#1f2c66"/>
      <path id="Path_40725" data-name="Path 40725" d="M573.876,256.762c0-.324-.024-.64-.038-.961-.008-.2-.011-.411-.024-.614-.041-.673-.1-1.336-.186-1.98-.023-.166-.045-.331-.069-.5-.03-.208-.07-.4-.1-.6-.059-.377-.12-.754-.19-1.118-.052-.275-.11-.542-.167-.81-.074-.347-.149-.691-.231-1.025-.064-.264-.135-.52-.205-.777-.087-.318-.177-.632-.272-.939-.079-.251-.161-.5-.244-.739-.1-.293-.205-.581-.314-.862-.044-.115-.082-.239-.128-.352-.059-.145-.125-.279-.186-.422-.079-.184-.159-.368-.241-.547-.126-.273-.259-.538-.394-.8-.085-.164-.169-.331-.257-.491-.152-.275-.314-.539-.477-.8-.081-.131-.158-.266-.242-.393-.251-.382-.511-.75-.786-1.1-.175-.226-.372-.463-.579-.7-.055-.064-.111-.128-.167-.193q-.256-.292-.536-.591c-.041-.043-.076-.085-.118-.13-.017-.018-.037-.036-.054-.054-.225-.235-.459-.471-.705-.707-.051-.05-.107-.1-.16-.149q-.3-.282-.611-.559c-.091-.081-.184-.159-.277-.238-.19-.161-.382-.32-.579-.476-.092-.073-.181-.146-.274-.217-.286-.22-.577-.435-.874-.638l-2.855-1.949c.3.2.593.421.881.643.085.065.168.132.252.2q.311.247.609.5c.083.072.168.143.25.215q.334.294.651.593c.041.039.085.079.126.118.153.148.294.294.44.441-.194-.143-.388-.284-.584-.418l-2.855-1.949a14.677,14.677,0,0,0-1.945-1.132c-.216-.1-.433-.2-.649-.285a14.11,14.11,0,0,0-5.142-.969c-.443,0-.885.021-1.327.056-.121.01-.241.021-.363.034-.371.038-.741.087-1.109.15-.056.01-.113.013-.169.023l0,0h0l0,0-.07.015c-.162.03-.323.068-.484.1-.177.038-.356.075-.533.119-.159.04-.316.087-.474.132s-.3.078-.44.123l0,0h0l0,0-.056.021c-.455.143-.9.308-1.341.489-.1.04-.2.083-.293.125-.444.191-.881.395-1.3.622l.373.254c-.094.049-.189.1-.281.146s-.182.107-.273.16c-.194.111-.386.224-.574.343-.105.067-.207.138-.311.207-.167.112-.334.226-.5.344-.106.078-.21.158-.314.238q-.228.176-.448.36-.153.128-.3.261c-.141.125-.277.253-.412.384-.094.092-.189.183-.28.277-.134.137-.261.279-.388.421-.083.092-.167.183-.246.277-.135.162-.262.328-.389.5-.06.081-.126.158-.183.24l-.025.032q-.259.365-.486.747-.243.407-.448.838c-.025.052-.044.107-.068.158-.033.073-.064.148-.1.221-.124.29-.237.585-.338.888-.017.055-.039.108-.056.163-.007.024-.017.046-.024.069-.1.324-.182.655-.255.99-.019.089-.036.178-.052.267-.027.14-.06.279-.083.42s-.035.282-.052.423c-.016.123-.034.244-.046.368q-.049.482-.065.972c0,.064-.009.127-.01.191,0,.012,0,.024,0,.036,0,.255.01.513.018.769.005.158,0,.315.01.474.02.31.059.62.1.93.015.118.02.237.038.355v0c.057.387.131.772.216,1.156.026.118.055.235.084.352q.1.419.223.831c.036.12.071.239.109.358q.158.489.345.966c.02.052.038.1.059.157,0,.012.009.025.013.037.056.136.124.265.183.4.117.266.232.533.363.791.081.159.174.311.26.467.129.234.254.469.395.694.1.162.212.314.318.47.142.208.28.418.431.618.118.156.245.3.369.449.155.188.309.377.473.555.033.035.06.074.093.109.152.161.316.307.476.46.092.088.18.182.276.267a11.442,11.442,0,0,0,.934.754c.081.059.163.116.246.174l2.856,1.949-.031-.021.032.021a12.135,12.135,0,0,0,1.174.7,13.8,13.8,0,0,1-4.5-1.968l2.856,1.949a14.539,14.539,0,0,0,8.085,2.413,15.433,15.433,0,0,0,7.089-1.651c0,.009,0,.017,0,.026-.005.113-.009.227-.018.34-.014.161-.036.321-.057.48-.013.1-.022.2-.038.3-.033.205-.075.408-.119.61-.012.053-.019.107-.032.16-.059.252-.128.5-.2.749-.043.139-.1.275-.144.413-.041.115-.077.232-.122.346s-.1.234-.151.351-.108.256-.167.381q-.186.386-.4.754c-.031.052-.066.1-.1.154-.114.189-.232.375-.359.556-.041.059-.085.114-.128.172-.163.223-.335.438-.514.643-.056.064-.111.13-.168.192a8.8,8.8,0,0,1-.695.681c-.036.032-.075.059-.112.089a7.974,7.974,0,0,1-.667.5c-.072.049-.145.1-.218.144a7.462,7.462,0,0,1-.838.464,9.606,9.606,0,0,1-4.06.823,15.993,15.993,0,0,1-7.269-2.014l-2.162-1.475a1.141,1.141,0,0,0-.636-.207,1.717,1.717,0,0,0-1.218.623,2.577,2.577,0,0,0-.232.282l-.006.007c-.006.009-.011.02-.017.029a3.416,3.416,0,0,0-.245.42c-.01.022-.024.039-.035.06s-.013.038-.021.055a4.737,4.737,0,0,0-.215.558c0,.013-.01.024-.014.037s-.008.04-.013.06a6.4,6.4,0,0,0-.176.759c0,.015-.007.029-.01.044s0,.037,0,.056a7.808,7.808,0,0,0-.089,1.009c0,.013,0,.028,0,.043s0,.028,0,.042c0,.185,0,.369.011.551,0,.036.006.071.009.107.011.152.026.3.045.447,0,.025.005.052.008.077s.007.034.01.052c.029.191.064.377.109.553.006.022.013.042.019.064a4.319,4.319,0,0,0,.138.427c.01.025.016.055.026.08s.016.031.023.047a2.993,2.993,0,0,0,.178.357,4.941,4.941,0,0,0,.33.48c.034.043.073.084.109.126.081.1.16.2.25.293.011.012.026.023.037.034.09.093.19.181.288.27.068.061.131.126.2.186.176.146.363.289.564.425l.219.149c-.3-.04-.589-.086-.885-.137q.216.169.444.325l2.423,1.655a12.124,12.124,0,0,1-2.665-1.311l0,0,0,0,2.855,1.948a14.449,14.449,0,0,0,4.8,1.957,17.841,17.841,0,0,0,4.062.488c.426,0,.852-.016,1.276-.044.124-.008.248-.021.371-.032.315-.028.628-.063.94-.108.121-.018.244-.034.365-.053.406-.067.811-.143,1.21-.237l.033-.007c.415-.1.824-.215,1.23-.343.107-.034.211-.071.318-.106q.461-.154.913-.333c.108-.043.215-.084.323-.13.37-.156.735-.322,1.093-.5l.055-.026.037-.018c.18-.092.356-.186.533-.285.091-.052.182-.1.273-.156s.166-.1.249-.153l.228-.141c.1-.06.194-.117.289-.179l.181-.121.109-.074q.232-.159.459-.326.646-.475,1.24-1,.379-.331.735-.679c.067-.065.126-.137.192-.2.2-.2.4-.415.592-.627.113-.122.234-.236.343-.362.072-.082.137-.168.207-.251s.158-.19.235-.286.176-.208.261-.316l-.012-.008h0l.012.008c.084-.108.156-.224.238-.334.108-.143.223-.28.327-.425.075-.105.137-.22.209-.326.086-.126.183-.245.267-.373.114-.175.227-.354.337-.533.075-.122.145-.246.217-.37.028-.046.055-.091.082-.137.045-.078.092-.155.136-.231.255-.454.492-.918.718-1.387.012-.027.027-.051.04-.077.038-.081.069-.167.107-.249.126-.274.257-.545.373-.823.063-.149.116-.3.175-.451s.13-.329.192-.495q.246-.654.458-1.319c.027-.084.061-.167.087-.252.008-.026.013-.052.021-.077q.265-.869.472-1.752c.035-.147.065-.294.1-.442.053-.236.11-.471.157-.708.028-.143.055-.285.081-.428.023-.123.038-.247.059-.37.011-.065.028-.13.038-.2s.016-.148.028-.222c.1-.656.187-1.312.246-1.964,0-.036,0-.072.008-.108.055-.635.086-1.265.1-1.891,0-.07.01-.142.011-.21,0-.041,0-.079,0-.12,0-.083.007-.168.008-.251C573.877,257.069,573.877,256.915,573.876,256.762Zm-10.868-20.606c.262.229.521.462.77.7l.047.046c.155.149.3.3.452.453-.181-.134-.362-.267-.548-.394l-2.777-1.9c.136.049.275.086.41.14a11.7,11.7,0,0,1,1.157.545c.088.073.179.144.266.219S562.935,236.092,563.008,236.156Zm-16.679,22.8c-.047-.044-.092-.09-.14-.134-.191-.182-.38-.365-.56-.56-.161-.175-.314-.362-.466-.546-.126-.152-.255-.3-.375-.456-.15-.2-.287-.406-.426-.612-.107-.158-.221-.313-.322-.477-.138-.221-.261-.452-.388-.681-.088-.16-.184-.316-.267-.48-.126-.249-.236-.506-.348-.761-.069-.157-.147-.309-.211-.468-.019-.046-.033-.093-.052-.139q-.192-.487-.352-.988c-.036-.113-.07-.226-.1-.34q-.128-.427-.231-.86c-.026-.108-.054-.217-.078-.326-.085-.388-.161-.779-.218-1.17-.01-.073-.013-.145-.022-.217-.047-.355-.089-.712-.111-1.067-.009-.143,0-.284-.01-.427-.01-.285-.023-.57-.018-.853,0-.06.008-.119.01-.179q.017-.5.066-.983c.013-.122.03-.244.045-.366.037-.286.081-.569.137-.85.017-.086.032-.173.051-.258.079-.363.171-.721.281-1.071.016-.048.034-.094.05-.142.1-.306.216-.607.343-.9.032-.075.063-.151.1-.225a10.238,10.238,0,0,1,.516-.995c.16-.269.334-.531.518-.788.044-.061.093-.12.138-.181.139-.187.282-.372.433-.553.072-.085.148-.167.222-.251.133-.151.269-.3.411-.446.086-.088.176-.175.265-.261.139-.135.281-.268.427-.4.1-.086.194-.17.293-.253q.223-.187.455-.366c.1-.079.2-.158.31-.234.162-.119.33-.233.5-.346.1-.069.2-.139.309-.205.188-.119.381-.232.575-.344.092-.053.18-.108.273-.159.289-.158.583-.31.884-.451q.369-.011.736-.008a24.665,24.665,0,0,1,5.935.766,15.8,15.8,0,0,1,3.375,1.327c.087.074.17.151.254.227.268.24.529.486.78.743.128.131.255.265.379.4.259.283.507.576.747.876.095.118.193.233.285.355.318.419.62.851.9,1.3.056.088.1.181.158.271q.337.554.64,1.131c.083.16.162.323.242.486q.246.5.466,1.021c.074.176.15.35.221.528.092.235.178.473.263.712.074.208.149.414.217.624.081.251.154.5.227.757.06.206.12.412.174.62.067.259.125.519.183.78.048.21.1.417.139.629.051.259.093.52.136.781.034.207.072.414.1.623q.131.936.193,1.879c.01.141.016.282.024.422.03.572.043,1.143.037,1.713,0,.087,0,.175,0,.262-.01.5-.034,1-.072,1.5-.055.684-.14,1.36-.244,2.032-.044.281-.1.559-.151.838s-.107.588-.173.878-.14.568-.213.85c-.013.051-.027.1-.041.151-.009-.072-.011-.143-.021-.214l-.028-.178a5.326,5.326,0,0,0-.177-.713c-.023-.073-.051-.149-.077-.222s-.056-.173-.091-.263c-.056-.139-.118-.28-.187-.425l-.219-.454-2.855-1.948-.4.308a14.539,14.539,0,0,1-14.77,1.4Z" transform="translate(-538.771 -232.285)" fill="url(#linear-gradient)"/>
    </g>
    <path id="Path_40726" data-name="Path 40726" d="M569.955,252.207c-.681-5.12-2.1-9.007-4.341-11.883a19.6,19.6,0,0,0-7.262-5.852,13.764,13.764,0,0,0-5.012-.944,16.28,16.28,0,0,0-6.965,1.551,13.76,13.76,0,0,0-6.01,5.236c-3.308,5.542-1.272,14.5,4.189,18.427a13.643,13.643,0,0,0,7.867,2.441,14.154,14.154,0,0,0,8.675-2.79l.4-.308.217.452a6.045,6.045,0,0,1,.534,1.625c.709,4.32-1.55,8.994-5.142,10.648a9.606,9.606,0,0,1-4.06.823,16.748,16.748,0,0,1-8.972-3.031l-.1-.1a1.256,1.256,0,0,0-.993-.56,1.717,1.717,0,0,0-1.218.623c-1.291,1.348-1.388,4.76-.5,6.223a6.076,6.076,0,0,0,2.007,1.965h0a14.246,14.246,0,0,0,4.311,1.689,17.089,17.089,0,0,0,13.865-2.747C568.764,270.287,571,260.008,569.955,252.207Zm-15.023,3.288a5.771,5.771,0,0,1-1.732.257c-3.741-.02-6.683-3.619-7.253-6.931a6.1,6.1,0,0,1,3.891-7.153,7.118,7.118,0,0,1,2.051-.27c3.32.018,7.325,2.031,8.195,5.737C560.976,250.952,558.141,254.535,554.933,255.495Z" transform="translate(-1.753 -1.678)" fill="url(#linear-gradient-2)"/>
    <path id="Path_40727" data-name="Path 40727" d="M562.528,233.528a13.764,13.764,0,0,1,5.012.944,19.6,19.6,0,0,1,7.262,5.852c2.237,2.876,3.66,6.763,4.341,11.883,1.042,7.8-1.191,18.08-8.513,23.482a17.089,17.089,0,0,1-13.865,2.747,14.246,14.246,0,0,1-4.311-1.689,27.9,27.9,0,0,0,3.585.248c.862,0,1.7-.029,2.5-.1,10.175-.886,15.877-9.6,16.624-19.146.722-9.169-3.345-19.385-12.928-21.916a24.644,24.644,0,0,0-5.933-.766c-.246,0-.491,0-.737.008A16.28,16.28,0,0,1,562.528,233.528Z" transform="translate(-10.941 -1.678)" opacity="0.5" fill="url(#linear-gradient-3)" style="mix-blend-mode: multiply;isolation: isolate"/>
    <g id="Group_28803" data-name="Group 28803" transform="translate(536.155 231.028)">
      <path id="Path_40728" data-name="Path 40728" d="M566.315,257.467c3.32.018,7.325,2.031,8.195,5.737.891,3.817-1.943,7.4-5.152,8.361a5.771,5.771,0,0,1-1.732.257c-3.741-.02-6.683-3.619-7.253-6.931a6.105,6.105,0,0,1,3.891-7.153A7.117,7.117,0,0,1,566.315,257.467Zm2.813,13.311c2.846-.851,5.372-4.021,4.581-7.386-.77-3.291-4.393-5.088-7.4-5.1a5.931,5.931,0,0,0-1.806.242,5.269,5.269,0,0,0-3.314,6.215c.514,2.994,3.125,6.228,6.445,6.246a5.2,5.2,0,0,0,1.5-.214Z" transform="translate(-552.334 -248.775)" fill="url(#linear-gradient-4)"/>
      <path id="Path_40729" data-name="Path 40729" d="M569.016,250.415c-.7-5.268-2.175-9.289-4.508-12.277a20.418,20.418,0,0,0-7.6-6.1,14.429,14.429,0,0,0-5.315-1.006c-5.6-.03-11.1,2.858-13.688,7.19-3.571,5.978-1.47,15.28,4.416,19.517a14.469,14.469,0,0,0,8.339,2.591,15.115,15.115,0,0,0,8.763-2.648,4.542,4.542,0,0,1,.258.942c.576,3.475-1.016,8.079-4.668,9.762a8.733,8.733,0,0,1-3.711.75,15.865,15.865,0,0,1-8.456-2.851,2.034,2.034,0,0,0-1.611-.846,2.483,2.483,0,0,0-1.811.871c-1.574,1.643-1.682,5.462-.624,7.223,1.115,1.856,3.417,3.217,6.826,4.027a17.955,17.955,0,0,0,4.062.488,17.62,17.62,0,0,0,10.485-3.371C567.768,269.072,570.094,258.453,569.016,250.415ZM539.505,273.1c-.883-1.463-.787-4.875.5-6.223a1.717,1.717,0,0,1,1.218-.623,1.256,1.256,0,0,1,.993.561l.1.1a16.748,16.748,0,0,0,8.972,3.031,9.605,9.605,0,0,0,4.06-.823c3.592-1.654,5.851-6.328,5.142-10.648a6.043,6.043,0,0,0-.534-1.625l-.217-.452-.4.308a14.154,14.154,0,0,1-8.675,2.79,13.643,13.643,0,0,1-7.867-2.441c-5.46-3.93-7.5-12.885-4.189-18.427a13.76,13.76,0,0,1,6.01-5.236,16.28,16.28,0,0,1,6.965-1.551,13.765,13.765,0,0,1,5.012.944,19.6,19.6,0,0,1,7.262,5.852c2.237,2.876,3.66,6.764,4.341,11.883,1.042,7.8-1.191,18.08-8.513,23.482a16.929,16.929,0,0,1-10.065,3.2,16.757,16.757,0,0,1-3.8-.453,14.246,14.246,0,0,1-4.311-1.689h0A6.076,6.076,0,0,1,539.505,273.1Z" transform="translate(-536.155 -231.028)" fill="url(#linear-gradient-5)"/>
    </g>
  </g>
</svg>
