<svg id="lock" xmlns="http://www.w3.org/2000/svg" width="51.922" height="62.873" viewBox="0 0 51.922 62.873">
  <path id="Path_40600" data-name="Path 40600" d="M270.9,32.376c-1.354-.737-3.016-.481-4.542-.481l.09-9.332c.015-9.129-7.8-16.514-17.522-16.514-9.746,0-17.552,7.385-17.514,16.514l-.023-1.82s.135,11.107.135,11.152a19.249,19.249,0,0,0-3.82.323c-1.188.368-2.617,1.662-3.038,4.234-1.6,9.588-3.594,21.913,4.316,27.485,9.4,6.678,28.065,6.091,38.111,1.512,10.032-4.489,8.58-18.266,6.61-28.7A6.487,6.487,0,0,0,270.9,32.376Zm-32.667-9.814v.045c0-5.565,4.805-10.092,10.693-10.092s10.693,4.527,10.708,10.092l.008-.045L259.59,31.9H238.3ZM254.7,59.1H243.226l3.662-10.438a5.873,5.873,0,0,1,2.053-11.46,6.034,6.034,0,0,1,6.166,5.918,5.956,5.956,0,0,1-4.083,5.542Z" transform="translate(-223.202 -6.049)" fill="#ffed56"/>
</svg>
